<svg width="520" height="296" viewBox="0 0 520 296" fill="none" xmlns="http://www.w3.org/2000/svg">
<path d="M461.78 100.071C513.229 35.9885 475.167 62.8843 439.894 95.4185C441.334 85.2054 424.929 97.4849 416.547 104.901C419.236 99.1687 407.346 104.19 401.065 107.418C382.448 102.543 366.72 116.999 361.184 124.837C326.686 129.984 323.523 155.113 326.253 167.035C309.969 185.368 322.944 188.216 331.466 187.348C336.287 196.829 347.85 210.057 353.485 213.661C418.763 255.211 459.561 193.292 445.726 162.406C451.386 157.596 449.96 152.312 448.539 150.27C480.332 134.166 467.293 121.751 448.408 133.578C454.34 129.863 452.832 128.447 452.008 126.97C483.06 107.924 475.314 96.1492 461.78 100.071Z" fill="#2CA1CD" fill-opacity="0.4"/>
<path d="M468.336 96.2996C518.453 39.9912 479.74 48.8972 442.063 87.6109C443.685 76.0979 426.663 87.4196 419.849 97.2676C417.902 91.6071 409.475 96.4644 402.394 100.101C381.402 94.6028 363.672 110.896 357.431 119.73C318.535 125.526 316.452 153.386 319.533 166.826C301.176 187.49 316.281 193.509 325.89 192.533C331.326 203.221 342.411 215.797 348.765 219.86C422.373 266.712 468.362 196.919 452.758 162.099C459.078 156.729 457.431 154.365 455.842 152.084L455.796 152.018C491.64 133.87 470.128 120.616 455.778 129.601C462.465 125.415 464.563 123.611 463.124 123.705C498.131 102.24 483.594 91.8813 468.336 96.2996Z" fill="#2CA1CD" fill-opacity="0.1"/>
<path d="M451.66 108.885C509 38.9788 463.105 77.1194 432.99 104.928C434.225 96.2052 420.221 106.703 413.065 113.043C415.363 108.145 405.216 112.442 399.855 115.203C383.974 111.054 370.547 123.41 365.818 130.107C336.382 134.528 333.667 155.99 335.989 166.168C322.084 181.836 331.107 185.223 338.379 184.476C342.485 192.568 353.455 202.674 358.26 205.747C413.927 241.181 449.707 188.493 437.924 162.128C442.755 158.016 441.542 153.504 440.332 151.762C480.237 126.768 456.126 133.25 439.082 139.615C444.145 136.438 444.008 133.123 443.306 131.863C477.707 105.419 463.209 105.526 451.66 108.885Z" fill="#2CA1CD" fill-opacity="0.7"/>
<path d="M357.984 255.866C442.861 271.101 398.97 249.532 351.283 233.363C361.416 229.562 341.866 220.611 330.824 216.611C337.456 216.211 326.86 207.776 320.733 203.609C315.877 184.006 294.661 176.772 284.66 175.605C262.598 146.402 237.854 156.103 228.24 164.604C203.171 158.803 207.061 172.188 212.14 179.606C205.824 188.807 199.44 206.104 198.949 213.105C193.435 294.115 270.971 300.621 292.485 272.368C299.759 275.168 303.913 271.201 305.08 268.867C335.88 290.078 340.774 271.829 320.395 260.366C326.796 263.967 327.344 261.866 328.291 260.366C361.431 279.416 368.391 266.367 357.984 255.866Z" fill="#2CA1CD" fill-opacity="0.4"/>
<path d="M364.75 260.013C441.796 277.924 414.153 246.723 359.566 231.442C370.989 227.156 352.011 217.156 339.515 215.821C343.754 211.186 335.048 205.859 328.141 201.16C322.669 179.056 298.754 170.899 287.481 169.583C262.613 136.653 235.896 148.721 225.059 158.307C196.802 151.766 198.839 168.706 204.563 177.07C197.444 187.445 191.42 203.973 190.866 211.867C184.649 303.215 272.048 310.552 296.299 278.693C304.419 281.82 305.771 279.116 307.076 276.507L307.113 276.431C341.831 300.348 343.243 273.873 327.76 265.16C334.975 269.22 337.689 270.248 336.881 268.969C374.235 290.45 376.481 271.855 364.75 260.013Z" fill="#2CA1CD" fill-opacity="0.1"/>
<path d="M344.782 250.966C437.983 268.706 379.797 245.564 339.054 231.776C347.712 228.535 331.008 220.901 321.574 217.49C327.24 217.149 318.186 209.956 312.951 206.402C308.801 189.686 290.675 183.516 282.13 182.521C263.279 157.617 242.14 165.89 233.927 173.14C212.509 168.193 213.917 178.207 218.256 184.533C212.862 192.379 209.057 207.561 208.638 213.531C203.934 282.615 270.446 289.132 288.824 265.038C295.039 267.426 298.587 264.043 299.585 262.053C342.65 286.275 324.572 267.313 310.15 254.804C315.619 257.874 318.605 256.083 319.414 254.804C361.051 273.226 353.674 259.921 344.782 250.966Z" fill="#2CA1CD" fill-opacity="0.7"/>
<path d="M402.754 74.081L421.114 181.922C408.408 183.682 401.817 188.272 397.027 193.967C389.679 202.705 386.807 213.791 389.097 222.1C393.638 238.338 414.154 240.752 429.01 231.697C439.672 225.188 455.734 207.959 438.142 185.688L419.749 80.2146L418.384 70.7265C434.604 60.4959 459.68 100.869 448.797 63.666C439.399 46.6405 430.296 42.7316 408.455 45.8277C408.455 45.8277 401.808 46.7836 400.239 51.9986C398.67 57.2136 399.998 59.8289 402.754 74.081Z" fill="#14D4F4"/>
<path d="M469.74 73.2422C477.851 61.4443 470.923 68.4469 466.445 73.4229L446.307 96.3149L431.309 137.18L438.715 145.598C440.915 144.244 447.596 139.941 456.719 133.557C465.842 127.174 448.062 133.936 438.032 138.115L445.479 103.335L454.762 90.4081C458.435 86.6183 466.719 78.0959 470.467 74.3244C474.214 70.5528 469.919 73.7378 467.303 75.8018L469.74 73.2422Z" fill="#373737"/>
<path d="M440.486 98.7667C445.364 92.1677 463.054 74.382 471.289 66.3141L449.968 98.0345C450.745 106.895 446.976 113.34 444.995 115.455C445.6 123.84 441.219 131.38 438.952 134.102C442.726 141.209 440.804 151.189 439.371 155.29C442.081 164.663 438.576 175.909 436.486 180.36C420.262 220.155 374.756 203.471 366.032 198.385C357.308 193.299 352.915 189.507 344.274 183.719C337.361 179.088 337.223 172.092 338.018 169.173C337.844 165.337 338.512 160.761 338.867 158.953C344.918 141.446 358.621 136.703 364.716 136.521C385.341 113.117 407.725 120.668 408.402 119.751C408.944 119.018 424.581 112.122 432.332 108.766C434.824 100.305 438.86 100.966 440.486 98.7667Z" fill="#14D4F4"/>
<path d="M431.37 155.977C431.478 147.335 436.592 137.85 439.135 134.188C444.309 142.941 441.301 151.834 439.15 155.186C450.684 194.981 401.531 223.704 363.775 196.831C428.465 204.745 431.234 166.78 431.37 155.977Z" fill="#1CB0F6"/>
<path d="M402.818 124.23C418.452 106.089 404.477 114.39 395.535 120.809L389.672 159.05C497.541 91.7673 465.891 92.2542 426.879 121.088C462.977 87.0386 437.464 98.1092 410.86 125.244C442.338 91.0216 419.402 109.596 402.818 124.23Z" fill="#373737"/>
<ellipse rx="4.47051" ry="3.79993" transform="matrix(-0.425173 0.905112 0.905112 0.425173 358.672 164.058)" fill="#BCE9FF"/>
<ellipse rx="4.02346" ry="3.79993" transform="matrix(-0.425173 0.905112 0.905112 0.425173 357.863 163.678)" fill="#373737"/>
<path d="M356.365 166.867C357.991 167.63 360.011 166.867 360.85 165.081C361.689 163.295 360.987 161.252 359.361 160.489C357.736 159.725 355.715 160.489 354.876 162.275C354.037 164.061 354.74 166.103 356.365 166.867Z" stroke="#321F00" stroke-opacity="0.56"/>
<path d="M357.505 161.286C357.409 160.649 356.41 161.513 355.923 162.025C355.581 162.359 355.258 163.441 355.865 163.726C356.471 164.011 356.257 163.417 356.839 162.703C357.422 161.988 357.624 162.083 357.505 161.286Z" fill="white" stroke="#2A2526" stroke-opacity="0.59" stroke-width="0.5"/>
<path d="M355.769 170.239C353.988 168.772 346.906 169.653 343.124 172.448L341.674 176.586C342.737 176.427 346.135 177.184 348.295 177.211C350.996 177.245 357.679 171.812 355.769 170.239Z" fill="#DEAC5F" fill-opacity="0.77"/>
<path d="M338.002 173.364L346.971 172.144C358.505 169.462 353.808 172.31 350.018 174.069C345.352 176.817 335.524 182.424 333.535 182.873C331.049 183.433 331.607 181.72 332.759 179.792C333.682 178.249 336.638 174.864 338.002 173.364Z" fill="#A86425" stroke="#864E1B" stroke-width="2"/>
<path d="M353.847 171.176C348.621 172.837 336.919 177.35 331.916 182.112" stroke="#864E1B" stroke-width="2"/>
<path d="M355.552 152.86C355.552 152.86 350.761 146.41 345.559 147.287C350.717 140.802 358.354 139.819 361.528 140.138C372.447 125.636 389.902 120.944 399.733 119.995C409.564 119.046 412.874 123.238 411.591 138.457C410.307 153.676 392.626 171.216 383.518 174.494C374.409 177.771 372.995 176.29 370.377 171.251C367.758 166.211 371.115 159.688 365.095 159.393C359.074 159.099 355.552 152.86 355.552 152.86Z" fill="#1CB0F6" fill-opacity="0.6"/>
<path d="M358.799 148.545C358.799 148.545 354.37 142.578 349.559 143.391C354.331 137.389 361.395 136.476 364.33 136.77C374.433 123.346 390.578 118.997 399.671 118.115C408.763 117.234 411.823 121.112 410.631 135.197C409.439 149.281 389.684 167.664 384.655 168.556C379.626 169.448 374.923 170.222 372.503 165.559C370.082 160.897 373.19 154.859 367.622 154.588C362.054 154.318 358.799 148.545 358.799 148.545Z" fill="#1CB0F6"/>
<path d="M339.133 158.337C338.27 162.278 339.02 165.939 340.304 165.308C341.589 164.676 347.986 160.52 352.91 157.399C357.856 154.264 353.931 154.175 360.243 146.52C362.677 143.568 357.085 140.098 352.018 141.422C346.951 142.746 340.213 153.411 339.133 158.337Z" fill="#373737" stroke="#373737"/>
<path d="M70.3013 197.431C0.0691549 229.009 34.0843 200.366 72.2631 175.781C62.9325 174.497 78.1943 162.329 86.9916 156.406C81.236 157.443 88.905 147.625 93.4589 142.587C94.3254 123.934 111.305 112.96 119.686 109.804C133.694 78.892 156.548 82.4063 166.223 88.0275C186.748 77.531 185.663 90.3886 182.556 98.1295C189.52 105.075 197.905 119.287 199.504 125.48C217.861 197.179 152.457 219.36 129.252 198.48C123.485 202.53 119.255 199.837 117.861 197.984C95.0135 223.546 87.7464 208.165 103.296 193.563C98.4122 198.149 97.5888 196.376 96.5239 195.226C71.3069 219.339 63.1417 209.068 70.3013 197.431Z" fill="#2CA1CD" fill-opacity="0.4"/>
<path d="M65.1958 202.587C2.13077 234.921 20.5893 201.037 64.8357 175.798C54.3179 174.349 68.912 161.358 79.4041 157.526C74.9891 154.249 81.56 147.625 86.6928 141.945C87.6678 120.912 106.806 108.539 116.253 104.982C132.041 70.1272 156.985 75.3544 167.892 81.6937C191.027 69.8599 192.129 85.5249 188.627 94.2531C196.478 102.085 204.425 115.682 206.228 122.665C226.927 203.514 153.204 228.518 127.045 204.972C120.607 209.494 118.992 207.346 117.435 205.275L117.39 205.215C91.6379 234.037 85.9725 210.522 97.7865 199.425C92.2815 204.596 90.1261 206.093 90.6041 204.772C62.1812 231.958 57.1264 215.707 65.1958 202.587Z" fill="#2CA1CD" fill-opacity="0.1"/>
<path d="M80.7999 190.243C3.8503 225.827 49.8601 192.759 82.4836 171.778C74.5134 170.686 87.5554 160.303 95.0727 155.248C90.1556 156.134 96.7104 147.759 100.602 143.46C101.349 127.551 115.858 118.185 123.019 115.491C134.997 89.1221 154.519 92.1111 162.782 96.9017C180.319 87.9421 180.796 97.2454 178.138 103.848C184.085 109.77 189.902 122.622 191.266 127.904C206.921 189.047 150.974 208.916 131.159 191.116C126.231 194.573 122.618 192.277 121.428 190.697C88.5679 221.552 100.882 200.69 111.147 186.402C106.973 190.315 104.111 189.333 103.202 188.353C70.5913 213.691 74.6795 200.171 80.7999 190.243Z" fill="#2CA1CD" fill-opacity="0.7"/>
<path d="M202.623 125.494L142.36 213.397C132.277 206.014 124.554 204.758 117.341 205.496C106.275 206.628 96.7503 212.437 92.7203 219.804C84.8889 234.244 97.6073 249.842 114.141 253.577C126.013 256.251 148.933 255.085 151.722 227.576L210.357 141.308L215.834 133.743C234.118 137.581 224.293 182.829 241.9 149.421C246.866 131.137 243.147 122.231 225.766 109.59C225.766 109.59 220.467 105.753 215.834 108.338C211.201 110.923 210.357 113.653 202.623 125.494Z" fill="#FFC300"/>
<g filter="url(#filter0_d)">
<path d="M58.2778 195.575C46.8052 200.478 53.9778 195.761 58.9981 192.79L82.0146 179.517L119.504 173.721L125.424 181.494C123.889 183.141 119.065 188.11 112.045 194.808C105.025 201.506 113.855 187.477 119.148 179.625L88.1542 180.015L75.516 185.726C71.6473 188.213 62.9434 193.827 59.0776 196.381C55.2117 198.935 58.6705 195.813 60.8831 193.932L58.2778 195.575Z" fill="#373737"/>
<path d="M85.1091 174.964C78.6334 177.999 60.4 190.058 52.0928 195.708L82.8552 182.939C90.2917 185.125 96.4455 183.012 98.5928 181.682C105.652 183.639 112.847 181.191 115.562 179.722C120.986 184.167 129.842 184.238 133.592 183.719C141.135 187.643 151.344 186.581 155.506 185.559C192.292 178.532 185.852 136.788 183.005 128.461C180.158 120.134 177.673 115.73 174.212 107.353C171.443 100.652 165.49 99.3323 162.859 99.5103C159.612 98.7029 155.588 98.4876 153.981 98.4809C137.985 100.644 131.58 111.537 130.377 116.713C106.84 130.315 109.447 150.735 108.548 151.157C107.828 151.494 99.251 163.669 95.0524 169.715C87.396 170.391 87.2677 173.953 85.1091 174.964Z" fill="#FFC300"/>
<path d="M135.553 177.001C128.151 175.609 119.169 178.349 115.604 179.894C122.193 185.817 130.308 184.774 133.541 183.512C165.56 200.201 198.541 163.139 182.065 126.266C177.718 182.894 144.806 178.74 135.553 177.001Z" fill="#FFB020"/>
<path d="M113.333 147.155C95.1484 157.397 104.641 146.882 111.661 140.345L145.34 141.903C69.3305 222.508 75.182 195.551 106.516 167.173C71.2263 192.166 85.0662 172.27 112.818 154.2C78.1738 175.216 97.9824 158.81 113.333 147.155Z" fill="#373737"/>
<ellipse cx="154.942" cy="116.278" rx="3.89583" ry="3.31146" transform="rotate(-13.796 154.942 116.278)" fill="#FFF277"/>
<ellipse cx="154.756" cy="115.522" rx="3.50625" ry="3.31146" transform="rotate(-13.796 154.756 115.522)" fill="#373737"/>
<path d="M157.675 114.805C158.039 116.287 157.065 117.85 155.426 118.252C153.787 118.655 152.2 117.721 151.836 116.239C151.472 114.757 152.446 113.194 154.085 112.792C155.724 112.389 157.311 113.323 157.675 114.805Z" stroke="#321F00" stroke-opacity="0.56"/>
<path d="M152.775 114.805C152.246 114.614 153.156 113.909 153.677 113.58C154.021 113.346 155.002 113.255 155.141 113.823C155.28 114.39 154.809 114.105 154.099 114.48C153.389 114.855 153.435 115.044 152.775 114.805Z" fill="white" stroke="#2A2526" stroke-opacity="0.59" stroke-width="0.5"/>
<path d="M160.721 114.859C159.774 113.086 161.743 107.187 164.781 104.435L168.565 103.907C168.246 104.788 168.31 107.821 167.962 109.672C167.527 111.985 161.737 116.762 160.721 114.859Z" fill="#DEAC5F" fill-opacity="0.77"/>
<path d="M166.442 100.216L163.86 107.67C159.587 117.063 162.827 113.54 164.981 110.604C168.13 107.089 174.608 99.655 175.333 98.0329C176.24 96.0051 174.68 96.1876 172.834 96.8413C171.358 97.3642 167.958 99.309 166.442 100.216Z" fill="#A86425" stroke="#864E1B" stroke-width="2"/>
<path d="M161.852 113.378C164.168 109.199 170.034 99.9759 174.962 96.5194" stroke="#864E1B" stroke-width="2"/>
<path d="M145.911 111.689C145.911 111.689 141.223 106.488 142.865 102.194C136.439 105.487 134.288 111.844 134.015 114.61C119.75 121.448 112.743 135.555 110.244 143.792C107.745 152.028 110.758 155.576 123.981 157.093C137.204 158.61 155.226 146.516 159.591 139.297C163.956 132.078 162.932 130.616 159.077 127.513C155.221 124.41 149.071 126.158 149.854 120.964C150.636 115.77 145.911 111.689 145.911 111.689Z" fill="#FF9400" fill-opacity="0.6"/>
<path d="M141.667 113.723C141.667 113.723 137.329 108.914 138.85 104.943C132.902 107.989 130.909 113.868 130.656 116.426C117.452 122.752 110.964 135.799 108.649 143.416C106.334 151.033 109.122 154.313 121.361 155.713C133.599 157.114 152.697 143.393 154.322 139.249C155.948 135.106 157.417 131.221 153.849 128.352C150.282 125.484 144.589 127.102 145.314 122.298C146.039 117.495 141.667 113.723 141.667 113.723Z" fill="#FF9400"/>
<path d="M153.409 98.6027C156.925 98.5419 159.924 99.8111 159.164 100.8C158.404 101.789 153.754 106.541 150.243 110.212C146.715 113.899 147.312 110.53 139.689 114.608C136.749 116.181 134.744 110.808 136.745 106.706C138.747 102.604 149.015 98.6788 153.409 98.6027Z" fill="#373737" stroke="#373737"/>
</g>
<path d="M402.238 269.576C418.455 272.244 407.798 268.464 400.442 266.24L366.827 256.489L317.047 260.851L311.915 272.655C314.395 274.28 322.128 279.121 333.213 285.485C344.298 291.849 328.594 276.675 319.356 268.293L359.129 259.055L377.091 262.391C382.822 264.358 395.721 268.806 401.469 270.859C407.216 272.911 401.811 270.003 398.389 268.293L402.238 269.576Z" fill="#373737"/>
<path d="M361.439 251.638C370.676 253.485 397.791 263.185 410.193 267.804L366.827 261.132C358 266.264 349.464 265.494 346.299 264.468C337.883 269.189 327.91 268.317 323.975 267.29C318.432 274.68 307.125 277.554 302.164 278.068C293.747 285.458 280.353 287.305 274.708 287.305C225.44 289.871 220.565 234.445 221.591 222.898C222.618 211.351 224.414 204.936 226.21 193.133C227.647 183.69 234.849 180.132 238.27 179.533C242.171 177.48 247.251 175.941 249.304 175.427C270.448 173.169 282.064 185.093 285.228 191.337C319.613 201.344 322.692 228.287 323.975 228.544C325.001 228.749 339.799 241.63 347.069 248.045C357.077 246.506 358.36 251.022 361.439 251.638Z" fill="#8EE000"/>
<path d="M297.545 270.089C306.578 265.983 318.929 266.668 323.975 267.523C317.406 277.171 306.697 278.386 302.164 277.787C266.445 309.195 212.61 272.142 222.105 219.795C245.455 290.874 286.255 275.221 297.545 270.089Z" fill="#7AC70C"/>
<path d="M316.596 224.927C343.077 232.317 327.63 221.848 316.596 215.69L274 228.263C396.559 307.504 380.605 274.855 331.605 248.394C384.603 269.282 360.647 248.177 319.467 233.778C370.39 249.781 339.895 235.016 316.596 224.927Z" fill="#373737"/>
<ellipse rx="5.13201" ry="4.36221" transform="matrix(-1 0 0 1 253.667 198.497)" fill="#BFF199"/>
<ellipse rx="4.61881" ry="4.36221" transform="matrix(-1 0 0 1 253.667 197.471)" fill="#373737"/>
<path d="M249.548 197.471C249.548 199.577 251.365 201.333 253.667 201.333C255.969 201.333 257.785 199.577 257.785 197.471C257.785 195.364 255.969 193.609 253.667 193.609C251.365 193.609 249.548 195.364 249.548 197.471Z" stroke="#321F00" stroke-opacity="0.56"/>
<path d="M255.976 195.932C256.592 195.521 255.206 194.905 254.436 194.649C253.923 194.457 252.64 194.649 252.64 195.418C252.64 196.188 253.153 195.675 254.18 195.932C255.206 196.188 255.206 196.445 255.976 195.932Z" fill="white" stroke="#2A2526" stroke-opacity="0.59" stroke-width="0.5"/>
<path d="M245.827 198.497C246.482 195.931 242.11 189.003 237.359 186.437L232.352 186.95C233.036 187.977 233.908 191.877 234.935 194.135C236.218 196.958 245.125 201.25 245.827 198.497Z" fill="#DEAC5F" fill-opacity="0.77"/>
<path d="M233.908 181.562L239.553 190.286C247.97 200.961 242.718 197.471 239.04 194.392C233.908 190.885 223.285 183.409 221.848 181.562C220.052 179.252 222.105 178.996 224.671 179.252C226.723 179.458 231.684 180.877 233.908 181.562Z" fill="#A86425" stroke="#864E1B" stroke-width="2"/>
<path d="M243.916 196.958C239.639 192.339 229.238 182.383 221.848 179.509" stroke="#864E1B" stroke-width="2"/>
<path d="M263.779 189.79C263.779 189.79 268.142 181.664 264.692 176.686C273.947 178.88 278.696 186.336 279.914 189.79C300.311 194.056 313.707 209.903 319.491 219.654C325.275 229.406 322.535 234.891 306.096 240.986C289.656 247.081 262.802 237.271 254.95 229.406C247.098 221.541 247.948 219.35 251.906 214.169C255.863 208.988 264.28 209.293 261.648 202.894C259.015 196.494 263.779 189.79 263.779 189.79Z" fill="#7AC70C" fill-opacity="0.6"/>
<path d="M269.846 191.058C269.846 191.058 273.885 183.543 270.692 178.941C279.258 180.97 283.654 187.864 284.781 191.058C303.661 195.003 316.059 209.655 321.413 218.673C326.767 227.69 324.231 232.762 309.015 238.398C293.798 244.034 265.056 232.48 261.674 227.69C258.293 222.899 255.193 218.391 258.857 213.6C262.52 208.81 270.31 209.092 267.874 203.174C265.437 197.257 269.846 191.058 269.846 191.058Z" fill="#7AC70C"/>
<path d="M250.074 175.403C245.558 176.43 242.12 178.996 243.403 180.022C244.686 181.049 252.127 185.667 257.772 189.26C263.443 192.869 261.621 188.747 272.655 191.569C276.91 192.658 277.787 185.154 273.938 180.535C270.089 175.916 255.719 174.12 250.074 175.403Z" fill="#373737" stroke="#373737"/>
<defs>
<filter id="filter0_d" x="31.3196" y="93.2363" width="168.149" height="124.912" filterUnits="userSpaceOnUse" color-interpolation-filters="sRGB">
<feFlood flood-opacity="0" result="BackgroundImageFix"/>
<feColorMatrix in="SourceAlpha" type="matrix" values="0 0 0 0 0 0 0 0 0 0 0 0 0 0 0 0 0 0 127 0"/>
<feOffset dy="4"/>
<feGaussianBlur stdDeviation="2"/>
<feColorMatrix type="matrix" values="0 0 0 0 0 0 0 0 0 0 0 0 0 0 0 0 0 0 0.25 0"/>
<feBlend mode="normal" in2="BackgroundImageFix" result="effect1_dropShadow"/>
<feBlend mode="normal" in="SourceGraphic" in2="effect1_dropShadow" result="shape"/>
</filter>
</defs>
</svg>
