<svg width="233" height="148" viewBox="0 0 233 148" fill="none" xmlns="http://www.w3.org/2000/svg">
<path d="M171.984 107.866C256.861 123.101 212.969 101.532 165.282 85.3628C175.416 81.5623 155.865 72.6112 144.823 68.6107C151.456 68.2106 140.86 59.7762 134.732 55.609C129.877 36.0065 108.661 28.7722 98.6596 27.6054C76.5975 -1.5983 51.8539 8.10294 42.2398 16.604C17.1712 10.8033 21.0609 24.1883 26.1394 31.6059C19.8239 40.8071 13.4397 58.1037 12.9485 65.1046C7.43442 146.115 84.9708 152.621 106.485 124.368C113.758 127.168 117.912 123.201 119.08 120.867C149.88 142.078 154.774 123.829 134.395 112.366C140.796 115.967 141.344 113.866 142.291 112.366C175.43 131.416 182.391 118.367 171.984 107.866Z" fill="#2CA1CD" fill-opacity="0.4"/>
<path d="M178.75 112.013C255.795 129.924 228.153 98.7227 173.566 83.4416C184.988 79.1561 166.011 69.1557 153.515 67.8209C157.754 63.1855 149.047 57.8591 142.141 53.1602C136.669 31.0563 112.754 22.8989 101.48 21.5832C76.6128 -11.347 49.8959 0.720754 39.0587 10.3066C10.8015 3.76568 12.8384 20.706 18.5627 29.0701C11.4436 39.4454 5.41995 55.9732 4.86611 63.8674C-1.35122 155.215 86.0475 162.552 110.299 130.693C118.419 133.82 119.771 131.116 121.075 128.507L121.113 128.431C155.83 152.348 157.243 125.873 141.759 117.16C148.974 121.22 151.689 122.248 150.881 120.969C188.235 142.45 190.481 123.855 178.75 112.013Z" fill="#2CA1CD" fill-opacity="0.1"/>
<path d="M158.781 102.966C251.982 120.706 193.797 97.5639 153.054 83.7756C161.711 80.5347 145.007 72.9013 135.573 69.4898C141.24 69.1486 132.186 61.9559 126.951 58.4023C122.801 41.6857 104.674 35.5165 96.1294 34.5215C77.278 9.61718 56.1392 17.8902 47.9262 25.1397C26.5083 20.193 27.9165 30.2072 32.256 36.5328C26.8611 44.3793 23.0564 59.5607 22.6374 65.5309C17.9338 134.615 84.4458 141.132 102.824 117.038C109.038 119.426 112.587 116.043 113.584 114.053C156.65 138.275 138.572 119.313 124.15 106.804C129.619 109.874 132.605 108.083 133.414 106.804C175.05 125.226 167.674 111.921 158.781 102.966Z" fill="#2CA1CD" fill-opacity="0.7"/>
<path d="M216.239 121.576C232.456 124.244 221.798 120.464 214.443 118.24L180.828 108.489L131.047 112.851L125.915 124.655C128.396 126.28 136.128 131.121 147.213 137.485C158.298 143.849 142.594 128.675 133.357 120.293L173.13 111.055L191.092 114.391C196.823 116.358 209.721 120.806 215.469 122.859C221.217 124.911 215.811 122.003 212.39 120.293L216.239 121.576Z" fill="#373737"/>
<path d="M175.439 103.638C184.677 105.485 211.791 115.185 224.193 119.804L180.828 113.132C172.001 118.264 163.465 117.494 160.3 116.468C151.883 121.189 141.91 120.317 137.976 119.29C132.433 126.68 121.125 129.554 116.164 130.068C107.748 137.458 94.3534 139.305 88.7082 139.305C39.4409 141.871 34.5655 86.4455 35.5919 74.8985C36.6183 63.3514 38.4145 56.9364 40.2107 45.1328C41.6477 35.6899 48.8496 32.1317 52.2709 31.533C56.1712 29.4802 61.252 27.9406 63.3047 27.4274C84.4487 25.1693 96.0641 37.0926 99.2288 43.3366C133.613 53.344 136.693 80.2871 137.976 80.5437C139.002 80.749 153.799 93.6303 161.07 100.045C171.077 98.5057 172.36 103.022 175.439 103.638Z" fill="#8EE000"/>
<path d="M111.546 122.089C120.578 117.983 132.929 118.668 137.976 119.523C131.407 129.171 120.698 130.386 116.165 129.787C80.4457 161.195 26.6109 124.142 36.1051 71.7952C59.4558 142.874 100.255 127.221 111.546 122.089Z" fill="#7AC70C"/>
<path d="M130.596 76.9273C157.077 84.3174 141.63 73.8481 130.596 67.6897L88.0005 80.2631C210.56 159.504 194.606 126.855 145.605 100.394C198.603 121.282 174.648 100.177 133.468 85.7784C184.391 101.781 153.896 87.0158 130.596 76.9273Z" fill="#373737"/>
<ellipse rx="5.13201" ry="4.36221" transform="matrix(-1 0 0 1 67.6668 50.4972)" fill="#BFF199"/>
<ellipse rx="4.61881" ry="4.36221" transform="matrix(-1 0 0 1 67.6668 49.4709)" fill="#373737"/>
<path d="M63.548 49.4709C63.548 51.5774 65.3648 53.3331 67.6668 53.3331C69.9689 53.3331 71.7856 51.5774 71.7856 49.4709C71.7856 47.3644 69.9689 45.6086 67.6668 45.6086C65.3648 45.6086 63.548 47.3644 63.548 49.4709Z" stroke="#321F00" stroke-opacity="0.56"/>
<path d="M69.9764 47.9315C70.5923 47.521 69.2066 46.9051 68.4368 46.6485C67.9236 46.4566 66.6406 46.6485 66.6406 47.4183C66.6406 48.1881 67.1538 47.6749 68.1802 47.9315C69.2066 48.1881 69.2066 48.4447 69.9764 47.9315Z" fill="white" stroke="#2A2526" stroke-opacity="0.59" stroke-width="0.5"/>
<path d="M59.8278 50.4972C60.4823 47.9312 56.1106 41.003 51.36 38.437L46.3527 38.9502C47.037 39.9766 47.9089 43.8769 48.9353 46.135C50.2183 48.9576 59.1256 53.2502 59.8278 50.4972Z" fill="#DEAC5F" fill-opacity="0.77"/>
<path d="M47.909 33.5617L53.5542 42.2861C61.9707 52.9607 56.7189 49.4709 53.041 46.3917C47.909 42.8848 37.2857 35.4092 35.8487 33.5617C34.0525 31.2523 36.1053 30.9957 38.6713 31.2523C40.7242 31.4576 45.6851 32.8774 47.909 33.5617Z" fill="#A86425" stroke="#864E1B" stroke-width="2"/>
<path d="M57.9165 48.9579C53.6398 44.3391 43.2389 34.383 35.8489 31.509" stroke="#864E1B" stroke-width="2"/>
<path d="M77.7792 41.79C77.7792 41.79 82.1428 33.6637 78.6925 28.6863C87.9474 30.8804 92.6967 38.3363 93.9145 41.79C114.312 46.0563 127.707 61.9027 133.492 71.6543C139.276 81.4059 136.536 86.8912 120.096 92.9859C103.657 99.0807 76.8022 89.2705 68.9504 81.4059C61.0987 73.5413 61.9483 71.3496 65.906 66.169C69.8637 60.9885 78.2806 61.2932 75.6481 54.8937C73.0156 48.4942 77.7792 41.79 77.7792 41.79Z" fill="#7AC70C" fill-opacity="0.6"/>
<path d="M83.8468 43.0575C83.8468 43.0575 87.8857 35.5432 84.6921 30.9407C93.2584 32.9695 97.6543 39.8639 98.7815 43.0575C117.661 47.0025 130.06 61.6555 135.414 70.6727C140.768 79.6899 138.232 84.762 123.015 90.3978C107.799 96.0335 79.0564 84.4802 75.6749 79.6899C72.2935 74.8995 69.1938 70.3909 72.8571 65.6005C76.5203 60.8101 84.3109 61.0919 81.8742 55.1744C79.4376 49.2568 83.8468 43.0575 83.8468 43.0575Z" fill="#7AC70C"/>
<path d="M64.0746 27.4033C59.5585 28.4297 56.12 30.9957 57.403 32.0221C58.686 33.0485 66.1274 37.6673 71.7726 41.2597C77.4439 44.8687 75.6216 40.7465 86.6555 43.5691C90.9107 44.6577 91.7875 37.1541 87.9385 32.5353C84.0895 27.9165 69.7198 26.1203 64.0746 27.4033Z" fill="#373737" stroke="#373737"/>
</svg>
