<svg width="223" height="263" viewBox="0 0 223 263" fill="none" xmlns="http://www.w3.org/2000/svg">
<path d="M164.78 100.071C216.229 35.9885 178.167 62.8843 142.893 95.4185C144.333 85.2054 127.929 97.4849 119.546 104.901C122.236 99.1687 110.346 104.19 104.065 107.418C85.4474 102.543 69.7201 116.999 64.1836 124.837C29.6858 129.984 26.5224 155.113 29.253 167.035C12.9688 185.368 25.9434 188.216 34.4662 187.348C39.2866 196.829 50.8501 210.057 56.4848 213.661C121.763 255.211 162.56 193.292 148.726 162.406C154.386 157.596 152.96 152.312 151.539 150.27C183.332 134.166 170.293 121.751 151.408 133.578C157.339 129.863 155.832 128.447 155.008 126.97C186.06 107.924 178.313 96.1492 164.78 100.071Z" fill="#2CA1CD" fill-opacity="0.4"/>
<path d="M171.336 96.2996C221.453 39.9912 182.739 48.8972 145.062 87.6109C146.684 76.0979 129.663 87.4196 122.849 97.2676C120.902 91.6071 112.475 96.4644 105.394 100.101C84.4016 94.6028 66.6714 110.896 60.4303 119.73C21.5348 125.526 19.4521 153.386 22.5328 166.826C4.17537 187.49 19.2804 193.509 28.8897 192.533C34.3262 203.221 45.4108 215.797 51.7645 219.86C125.373 266.712 171.361 196.919 155.758 162.099C162.078 156.729 160.431 154.365 158.842 152.084L158.796 152.018C194.64 133.87 173.128 120.616 158.777 129.601C165.464 125.415 167.563 123.611 166.123 123.705C201.131 102.24 186.594 91.8813 171.336 96.2996Z" fill="#2CA1CD" fill-opacity="0.1"/>
<path d="M154.66 108.885C212 38.9788 166.105 77.1194 135.99 104.928C137.225 96.2052 123.221 106.703 116.065 113.043C118.363 108.145 108.216 112.442 102.855 115.203C86.9739 111.054 73.5465 123.41 68.8179 130.107C39.3819 134.528 36.6669 155.99 38.9889 166.168C25.0839 181.836 34.1063 185.223 41.3783 184.476C45.4849 192.568 56.4545 202.674 61.2595 205.747C116.927 241.181 152.707 188.493 140.923 162.128C145.755 158.016 144.542 153.504 143.331 151.762C183.237 126.768 159.126 133.25 142.082 139.615C147.145 136.438 147.008 133.123 146.306 131.863C180.706 105.419 166.209 105.526 154.66 108.885Z" fill="#2CA1CD" fill-opacity="0.7"/>
<path d="M105.753 74.081L124.114 181.922C111.408 183.682 104.817 188.272 100.027 193.967C92.6787 202.705 89.8063 213.791 92.0972 222.1C96.6377 238.338 117.154 240.752 132.01 231.697C142.672 225.188 158.734 207.959 141.142 185.688L122.749 80.2146L121.384 70.7265C137.603 60.4959 162.679 100.869 151.797 63.666C142.399 46.6405 133.296 42.7316 111.455 45.8277C111.455 45.8277 104.808 46.7836 103.239 51.9986C101.67 57.2136 102.997 59.8289 105.753 74.081Z" fill="#14D4F4"/>
<path d="M172.74 73.2422C180.85 61.4443 173.922 68.4469 169.445 73.4229L149.307 96.3149L134.309 137.18L141.715 145.598C143.915 144.244 150.595 139.941 159.718 133.557C168.841 127.174 151.062 133.936 141.031 138.115L148.479 103.335L157.761 90.4081C161.435 86.6183 169.719 78.0959 173.466 74.3244C177.214 70.5528 172.919 73.7378 170.303 75.8018L172.74 73.2422Z" fill="#373737"/>
<path d="M143.486 98.7667C148.364 92.1677 166.054 74.382 174.289 66.3141L152.967 98.0345C153.744 106.895 149.976 113.34 147.994 115.455C148.6 123.84 144.218 131.38 141.952 134.102C145.726 141.209 143.803 151.189 142.371 155.29C145.08 164.663 141.576 175.909 139.485 180.36C123.261 220.155 77.7553 203.471 69.0312 198.385C60.3072 193.299 55.9146 189.507 47.2733 183.719C40.3603 179.088 40.2222 172.092 41.0173 169.173C40.8434 165.337 41.5112 160.761 41.8669 158.953C47.9176 141.446 61.6205 136.703 67.7156 136.521C88.3409 113.117 110.724 120.668 111.402 119.751C111.944 119.018 127.581 112.122 135.331 108.766C137.824 100.305 141.86 100.966 143.486 98.7667Z" fill="#14D4F4"/>
<path d="M134.369 155.977C134.478 147.335 139.592 137.85 142.135 134.188C147.309 142.941 144.301 151.834 142.15 155.186C153.684 194.981 104.531 223.704 66.7747 196.831C131.464 204.745 134.234 166.78 134.369 155.977Z" fill="#1CB0F6"/>
<path d="M105.818 124.23C121.452 106.089 107.476 114.39 98.5343 120.809L92.6716 159.05C200.541 91.7673 168.89 92.2542 129.879 121.088C165.977 87.0386 140.464 98.1092 113.86 125.244C145.337 91.0216 122.401 109.596 105.818 124.23Z" fill="#373737"/>
<ellipse rx="4.47051" ry="3.79993" transform="matrix(-0.425173 0.905112 0.905112 0.425173 61.6719 164.058)" fill="#BCE9FF"/>
<ellipse rx="4.02346" ry="3.79993" transform="matrix(-0.425173 0.905112 0.905112 0.425173 60.863 163.678)" fill="#373737"/>
<path d="M59.3649 166.867C60.9904 167.63 63.0108 166.867 63.8498 165.081C64.6888 163.295 63.9866 161.252 62.3611 160.489C60.7355 159.725 58.7151 160.489 57.8762 162.275C57.0372 164.061 57.7393 166.103 59.3649 166.867Z" stroke="#321F00" stroke-opacity="0.56"/>
<path d="M60.5044 161.286C60.4088 160.649 59.41 161.513 58.9226 162.025C58.5812 162.359 58.2573 163.441 58.8643 163.726C59.4712 164.011 59.2567 163.417 59.8391 162.703C60.4216 161.988 60.6239 162.083 60.5044 161.286Z" fill="white" stroke="#2A2526" stroke-opacity="0.59" stroke-width="0.5"/>
<path d="M58.7688 170.239C56.9881 168.772 49.9064 169.653 46.1238 172.448L44.6739 176.586C45.7366 176.427 49.1347 177.184 51.2952 177.211C53.9959 177.245 60.6794 171.812 58.7688 170.239Z" fill="#DEAC5F" fill-opacity="0.77"/>
<path d="M41.0018 173.364L49.9714 172.144C61.5049 169.462 56.8083 172.31 53.0183 174.069C48.3526 176.817 38.5239 182.424 36.5351 182.873C34.049 183.433 34.6069 181.72 35.7596 179.792C36.6818 178.249 39.6386 174.864 41.0018 173.364Z" fill="#A86425" stroke="#864E1B" stroke-width="2"/>
<path d="M56.8468 171.176C51.6212 172.837 39.9192 177.35 34.9162 182.112" stroke="#864E1B" stroke-width="2"/>
<path d="M58.5522 152.86C58.5522 152.86 53.7612 146.41 48.5589 147.287C53.7166 140.802 61.3541 139.819 64.5282 140.138C75.4466 125.636 92.9018 120.944 102.733 119.995C112.564 119.046 115.874 123.238 114.59 138.457C113.307 153.676 95.6261 171.216 86.5173 174.494C77.4084 177.771 75.995 176.29 73.3763 171.251C70.7575 166.211 74.1151 159.688 68.0945 159.393C62.0738 159.099 58.5522 152.86 58.5522 152.86Z" fill="#1CB0F6" fill-opacity="0.6"/>
<path d="M61.7988 148.545C61.7988 148.545 57.37 142.578 52.5584 143.391C57.3307 137.389 64.3947 136.476 67.3301 136.77C77.4331 123.346 93.5782 118.997 102.671 118.115C111.763 117.234 114.823 121.112 113.631 135.197C112.439 149.281 92.6841 167.664 87.6548 168.556C82.6254 169.448 77.9226 170.222 75.5024 165.559C73.0822 160.897 76.1898 154.859 70.6217 154.588C65.0536 154.318 61.7988 148.545 61.7988 148.545Z" fill="#1CB0F6"/>
<path d="M42.1332 158.337C41.2698 162.278 42.0195 165.939 43.3039 165.308C44.5884 164.676 50.9861 160.52 55.9094 157.399C60.8553 154.264 56.9303 154.175 63.2424 146.52C65.6766 143.568 60.0852 140.098 55.018 141.422C49.9507 142.746 43.2124 153.411 42.1332 158.337Z" fill="#373737" stroke="#373737"/>
</svg>
