<svg width="434" height="385" viewBox="0 0 434 385" fill="none" xmlns="http://www.w3.org/2000/svg">
<path d="M247.984 161.706L254.854 161.333C254.504 162.19 254.44 163.227 254.896 164.299C255.402 165.466 256.451 166.328 257.597 166.479C259.84 166.768 261.512 164.609 260.921 162.207C260.496 160.482 258.925 159.329 257.326 159.415L249.411 159.845L248.223 159.902C248.692 158.917 247.589 158.599 247.389 158.7C247.028 159.606 246.33 160.105 246.127 160.207C245.924 160.31 246.208 161.478 246.208 161.478C246.333 161.864 246.343 161.755 247.984 161.706Z" fill="#BCE9FF"/>
<path d="M252.791 157.113C251.474 154.152 248.443 155.719 248.858 157.319L247.629 156.19C247.547 155.762 247.851 155.284 248.143 155.103C252.056 152.686 253.729 156.054 253.562 157.139L252.791 157.113Z" fill="#BCE9FF"/>
<path d="M248.909 157.148C249.594 158.553 248.739 159.858 248.246 159.96L247.24 159.008C247.874 157.639 247.348 155.892 247.836 155.501L248.874 155.801C248.895 155.802 248.917 155.809 248.94 155.82L248.874 155.801C248.627 155.781 248.541 156.393 248.909 157.148Z" fill="#BCE9FF"/>
<path d="M231.341 169.001L234.239 173.155C233.583 173.27 232.93 173.633 232.457 174.335C231.947 175.106 231.833 176.097 232.187 176.874C232.884 178.389 234.843 178.596 236.069 177.292C236.948 176.355 237.036 174.923 236.362 173.957L233.023 169.171L232.527 168.45C233.307 168.36 233.07 167.546 232.932 167.461C232.242 167.587 231.668 167.344 231.527 167.257C231.386 167.17 230.789 167.802 230.789 167.802C230.603 168.03 230.673 167.994 231.341 169.001Z" fill="#BCE9FF"/>
<path d="M235.994 170.223C237.276 168.248 235.148 166.961 234.339 167.843L234.546 166.635C234.773 166.417 235.182 166.421 235.404 166.534C238.391 168.042 237.001 170.399 236.278 170.716L235.994 170.223Z" fill="#BCE9FF"/>
<path d="M234.463 167.808C233.878 168.783 232.754 168.755 232.501 168.487L232.686 167.487C233.763 167.352 234.617 166.343 235.044 166.496L235.266 167.262C235.273 167.276 235.278 167.292 235.28 167.311L235.266 167.262C235.182 167.1 234.778 167.284 234.463 167.808Z" fill="#BCE9FF"/>
<path d="M248.314 184.157L257.469 190.219C256.23 190.986 255.191 192.255 254.787 194.064C254.36 196.043 254.911 198.146 256.242 199.432C258.853 201.937 262.988 200.76 264.445 197.117C265.489 194.501 264.538 191.525 262.407 190.114L251.86 183.129L250.285 182.071C251.794 181.254 250.671 179.796 250.324 179.735C249.025 180.554 247.669 180.529 247.314 180.467C246.959 180.405 246.247 182.174 246.247 182.174C246.051 182.788 246.165 182.658 248.314 184.157Z" fill="#BCE9FF"/>
<path d="M258.714 182.843C259.756 177.792 254.424 176.915 253.479 179.363L252.945 176.745C253.235 176.118 254.066 175.794 254.606 175.84C261.855 176.465 260.895 182.378 259.68 183.611L258.714 182.843Z" fill="#BCE9FF"/>
<path d="M253.704 179.192C253.287 181.646 250.986 182.505 250.26 182.167L249.847 179.989C251.923 178.837 252.86 176.096 253.845 176.058L254.9 177.43C254.926 177.453 254.949 177.482 254.968 177.519L254.9 177.43C254.602 177.17 253.928 177.873 253.704 179.192Z" fill="#BCE9FF"/>
<path d="M275.852 175.775L293.247 181.276C291.603 183.077 290.503 185.592 290.664 188.68C290.863 192.051 292.687 195.171 295.396 196.62C300.703 199.434 306.81 195.637 307.519 189.122C308.025 184.443 305.17 180.108 301.121 178.828L281.082 172.491L278.082 171.521C280.138 169.513 277.686 167.693 277.101 167.756C275.384 169.668 273.197 170.254 272.6 170.318C272.003 170.382 271.652 173.548 271.652 173.548C271.612 174.623 271.736 174.363 275.852 175.775Z" fill="#BCE9FF"/>
<path d="M291.949 168.869C291.363 160.286 282.417 161.34 281.996 165.702L279.97 161.75C280.154 160.61 281.343 159.707 282.23 159.532C294.136 157.19 295.238 167.118 293.841 169.655L291.949 168.869Z" fill="#BCE9FF"/>
<path d="M282.281 165.325C282.708 169.453 279.401 171.893 278.085 171.686L276.449 168.383C279.265 165.577 279.542 160.747 281.107 160.232L283.412 161.947C283.463 161.971 283.513 162.008 283.56 162.058L283.412 161.947C282.817 161.667 282.051 163.106 282.281 165.325Z" fill="#BCE9FF"/>
<path d="M153.406 243.332L156.122 249.755C155.21 249.718 154.229 250.015 153.397 250.82C152.493 251.705 152.06 253.003 152.315 254.148C152.823 256.387 155.395 257.236 157.409 255.843C158.855 254.843 159.378 252.946 158.746 251.451L155.617 244.051L155.155 242.938C156.226 243.045 156.139 241.883 155.977 241.728C155.015 241.696 154.313 241.203 154.149 241.044C153.984 240.886 153.004 241.561 153.004 241.561C152.69 241.813 152.794 241.785 153.406 243.332Z" fill="#BCE9FF"/>
<path d="M159.307 246.331C161.588 244.054 159.094 241.704 157.759 242.652L158.378 241.09C158.745 240.864 159.292 240.989 159.559 241.205C163.143 244.103 160.61 246.861 159.55 247.076L159.307 246.331Z" fill="#BCE9FF"/>
<path d="M157.935 242.642C156.874 243.78 155.373 243.414 155.109 242.98L155.64 241.692C157.124 241.824 158.556 240.72 159.086 241.049L159.167 242.143C159.173 242.163 159.175 242.187 159.172 242.213L159.167 242.143C159.1 241.9 158.506 242.03 157.935 242.642Z" fill="#BCE9FF"/>
<path d="M140.189 236.666L141.437 241.597C140.785 241.467 140.047 241.569 139.359 242.054C138.611 242.588 138.157 243.473 138.214 244.327C138.334 245.995 140.091 246.899 141.694 246.125C142.845 245.569 143.43 244.263 143.139 243.116L141.701 237.435L141.491 236.581C142.251 236.78 142.315 235.934 142.216 235.803C141.528 235.672 141.077 235.237 140.976 235.104C140.875 234.971 140.095 235.345 140.095 235.345C139.841 235.491 139.919 235.483 140.189 236.666Z" fill="#BCE9FF"/>
<path d="M144.107 239.495C145.999 238.114 144.463 236.14 143.397 236.67L144.014 235.617C144.303 235.496 144.683 235.648 144.852 235.834C147.112 238.326 144.986 240.024 144.199 240.058L144.107 239.495Z" fill="#BCE9FF"/>
<path d="M143.525 236.684C142.636 237.382 141.596 236.949 141.454 236.606L141.978 235.739C143.031 236.003 144.184 235.371 144.528 235.668L144.467 236.464C144.469 236.48 144.467 236.497 144.463 236.516L144.467 236.464C144.445 236.282 144.003 236.308 143.525 236.684Z" fill="#BCE9FF"/>
<path d="M133.767 254.237L131.328 265.061C130.193 264.145 128.661 263.591 126.851 263.831C124.876 264.107 123.124 265.358 122.395 267.071C120.982 270.426 123.497 273.963 127.365 274.095C130.142 274.188 132.562 272.253 133.13 269.734L135.94 257.264L136.374 255.397C137.65 256.554 138.609 254.981 138.545 254.628C137.34 253.672 136.895 252.37 136.83 252.01C136.765 251.65 134.885 251.582 134.885 251.582C134.251 251.607 134.41 251.671 133.767 254.237Z" fill="#BCE9FF"/>
<path d="M138.571 263.703C143.596 262.953 142.565 257.564 139.978 257.509L142.212 256.096C142.891 256.155 143.477 256.837 143.621 257.368C145.546 264.496 139.753 265.622 138.195 264.889L138.571 263.703Z" fill="#BCE9FF"/>
<path d="M140.214 257.664C137.803 258.113 136.215 256.216 136.277 255.407L138.146 254.261C139.927 255.843 142.782 255.79 143.157 256.717L142.254 258.197C142.242 258.229 142.223 258.261 142.195 258.292L142.254 258.197C142.391 257.822 141.509 257.423 140.214 257.664Z" fill="#BCE9FF"/>
<path d="M150.031 274.767L150.955 293.254C148.724 292.308 146.021 292.128 143.225 293.347C140.18 294.701 137.928 297.517 137.525 300.6C136.758 306.634 142.372 311.147 148.635 309.573C153.131 308.441 156.149 304.222 155.934 299.919L154.87 278.62L154.73 275.425C157.294 276.692 158.129 273.726 157.869 273.189C155.51 272.212 154.214 270.329 153.949 269.782C153.684 269.235 150.638 269.992 150.638 269.992C149.632 270.325 149.915 270.354 150.031 274.767Z" fill="#BCE9FF"/>
<path d="M161.966 287.734C169.692 284.212 165.63 276.045 161.456 277.149L164.407 273.852C165.523 273.634 166.768 274.456 167.235 275.242C173.508 285.788 164.719 290.266 161.894 289.809L161.966 287.734Z" fill="#BCE9FF"/>
<path d="M161.903 277.29C158.237 279.122 154.842 276.811 154.579 275.485L157.065 272.784C160.629 274.502 165.185 273.098 166.201 274.413L165.413 277.203C165.408 277.26 165.392 277.32 165.362 277.383L165.413 277.203C165.466 276.539 163.873 276.305 161.903 277.29Z" fill="#BCE9FF"/>
<g filter="url(#filter0_d)">
<path d="M204.556 283.841C163.192 272.044 181.741 241.675 190.497 236.711L225.98 185.201C226.045 185.101 226.112 185.003 226.181 184.91L225.98 185.201C222.307 190.919 226.794 206.936 268.881 212.05C306.82 216.659 308.806 260.999 308.806 260.999C308.806 260.999 310.41 287.513 318.878 296.988C310.568 299.72 292.007 299.822 284.243 278.378C276.479 256.935 253.683 249.083 243.255 247.837C281.369 292.813 256.782 320.802 256.782 320.802C256.782 320.802 245.92 295.637 204.556 283.841Z" fill="#D33131"/>
<path d="M253.201 227.185C251.768 199.745 231.278 204.924 227.161 209.241L192.203 225.712C195.97 224.362 203.205 227.7 202.015 251.844C200.825 275.988 225.659 285.835 225.659 285.835C225.659 285.835 241.156 292.107 245.634 299.135C248.369 294.642 250.923 283.407 239.258 274.414C227.594 265.42 226.003 250.028 226.666 243.456C248.198 275.555 268.089 266.24 268.089 266.24C268.089 266.24 254.635 254.625 253.201 227.185Z" fill="#FF9400"/>
<path d="M211.406 262.329C197.491 268.649 179.238 222.499 183.081 220.402L203.73 199.427C202.782 202.61 206.815 211.61 230.532 222.143C254.249 232.677 266.505 262.786 266.505 262.786C266.505 262.786 274.278 281.635 281.674 289.62C277.516 290.222 266.684 287.36 256.615 271.092C246.546 254.825 231.186 245.715 224.765 243.193C237.632 264.866 224.28 278.156 224.28 278.156C224.28 278.156 225.321 256.008 211.406 262.329Z" fill="#FFC300"/>
<path d="M92.1379 147.101C91.6785 145.108 94.3277 144.033 95.7174 145.648L159.413 219.691C160.281 220.7 159.96 222.148 158.76 222.635L116.119 239.943C114.92 240.43 113.48 239.696 113.193 238.452L92.1379 147.101Z" fill="#003160"/>
<path d="M150.76 99.7735C149.486 98.0646 151.076 95.654 152.907 96.5194L236.857 136.193C237.999 136.733 238.409 138.31 237.69 139.4L212.178 178.07C211.459 179.16 209.994 179.183 209.199 178.117L150.76 99.7735Z" fill="#003160"/>
<rect width="81.6101" height="133.513" transform="matrix(0.765749 -0.64314 0.631028 0.77576 77.8357 130.829)" fill="#1CB0F6"/>
<path d="M72.2705 68.4306C71.8821 63.5394 76.4103 59.7362 81.0648 61.0444L137.191 76.819C142.596 78.3384 144.069 85.4097 139.737 89.048L88.2937 132.254C83.9618 135.893 77.4042 133.092 76.9532 127.411L72.2705 68.4306Z" fill="#D33131"/>
<path d="M163.081 172.226C177.638 160 179.542 137.984 167.4 123.057C155.258 108.13 133.62 105.886 119.063 118.112C104.506 130.338 102.602 152.355 114.744 167.281C126.886 182.208 148.525 184.452 163.081 172.226Z" fill="#CFCFCF" stroke="#DEDEDE" stroke-width="3"/>
<mask id="mask0" mask-type="alpha" maskUnits="userSpaceOnUse" x="108" y="111" width="66" height="68">
<ellipse rx="32.8817" ry="33.3783" transform="matrix(0.765749 -0.64314 0.631028 0.77576 141.072 145.169)" fill="#C4C4C4"/>
</mask>
<g mask="url(#mask0)">
<path d="M204.476 126.676C209.376 123.999 225.367 118.119 232.75 115.514L210.501 129.007C208.413 134.755 204.238 137.663 202.412 138.398C200.357 143.799 195.489 147.208 193.312 148.238C193.569 153.775 189.504 159.427 187.439 161.561C186.388 168.197 180.986 174.172 178.417 176.33C156.956 196.352 133.884 172.58 130.007 166.847C126.13 161.114 124.534 157.46 120.911 151.314C118.012 146.397 119.952 141.998 121.284 140.413C122.287 137.972 124.02 135.318 124.761 134.296C133.536 125.168 143.309 126.242 147.099 127.92C166.515 119.404 178.054 130.688 178.734 130.317C179.279 130.019 190.861 130.32 196.583 130.508C200.559 125.97 202.842 127.568 204.476 126.676Z" fill="#FFC300"/>
<path d="M182.334 159.637C184.901 154.285 190.78 149.88 193.399 148.346C194.039 155.32 189.621 159.976 187.333 161.432C182.891 189.614 144.446 193.057 129.073 165.216C166.444 189.164 179.126 166.327 182.334 159.637Z" fill="#FFB020"/>
<path d="M174.014 131.466C188.848 124.76 177.878 125.824 170.539 127.194L155.881 149.293C241.48 139.09 221.935 130.088 189.675 136.582C221.658 125.982 202.813 125.379 178.651 134.462C207.851 122.396 188.415 127.225 174.014 131.466Z" fill="#373737"/>
<ellipse rx="3.05067" ry="2.60089" transform="matrix(-0.765749 0.64314 0.631028 0.77576 135.426 143.299)" fill="#FFF277"/>
<ellipse rx="2.7456" ry="2.60089" transform="matrix(-0.765749 0.64314 0.631028 0.77576 135.04 142.824)" fill="#373737"/>
<path d="M133.32 144.268C134.037 145.149 135.396 145.268 136.366 144.454C137.335 143.64 137.476 142.261 136.76 141.38C136.043 140.499 134.684 140.38 133.714 141.194C132.745 142.009 132.604 143.388 133.32 144.268Z" stroke="#321F00" stroke-opacity="0.56"/>
<path d="M135.512 141.229C135.638 140.804 134.775 141.049 134.328 141.224C134.023 141.332 133.511 141.911 133.8 142.267C134.09 142.623 134.131 142.189 134.694 141.916C135.258 141.642 135.355 141.761 135.512 141.229Z" fill="white" stroke="#2A2526" stroke-opacity="0.59" stroke-width="0.5"/>
<path d="M131.802 146.287C131.134 144.85 126.538 143.317 123.41 143.946L124.279 145.452C124.976 145.665 123.886 147.782 125.202 148.434C126.848 149.249 132.518 147.829 131.802 146.287Z" fill="#DEAC5F" fill-opacity="0.77"/>
<path d="M120.082 147.399L125.697 145.268C133.723 145.124 130.206 146.366 127.444 147.004C123.961 148.183 116.649 150.543 115.267 150.558C113.54 150.577 114.026 149.943 115.323 149.131C116.707 148.265 118.603 147.914 120.082 147.399Z" fill="#A86425" stroke="#864E1B" stroke-width="2"/>
<path d="M120.061 143.019L125.945 144.496C133.792 146.215 129.508 145.851 126.675 145.833C125.447 145.825 119.519 144.75 114.154 146.95C112.552 147.607 113.723 146.345 114.987 145.482C115.999 144.793 118.791 143.553 120.061 143.019Z" fill="#A86425" stroke="#864E1B" stroke-width="2"/>
<path d="M136.753 135.406C136.753 135.406 135.681 129.979 132.238 128.996C137.277 126.473 142.244 128.106 144.097 129.237C154.987 123.413 167.047 125.621 173.349 127.92C179.65 130.219 180.467 133.804 175.277 142.908C170.087 152.012 154.172 157.741 147.639 157.105C141.106 156.469 140.668 155.131 140.52 151.221C140.373 147.312 144.319 144.235 140.713 142.282C137.107 140.328 136.753 135.406 136.753 135.406Z" fill="#FF9400" fill-opacity="0.6"/>
<path d="M139.991 133.673C139.991 133.673 139.003 128.653 135.817 127.745C140.48 125.408 145.075 126.917 146.79 127.963C156.868 122.57 168.024 124.607 173.854 126.731C179.684 128.855 180.438 132.171 175.632 140.595C170.826 149.019 153.396 154.663 150.054 153.74C146.713 152.817 143.605 151.917 143.471 148.301C143.336 144.685 146.988 141.837 143.652 140.031C140.317 138.226 139.991 133.673 139.991 133.673Z" fill="#FF9400"/>
<path d="M125.102 133.991C123.433 136.192 122.833 138.694 123.803 138.678C124.773 138.662 129.898 137.954 133.82 137.457C137.759 136.958 135.379 135.748 141.463 132.835C143.81 131.712 141.386 127.906 137.896 127.241C134.406 126.576 127.189 131.239 125.102 133.991Z" fill="#373737" stroke="#373737"/>
<line y1="-2" x2="32.1559" y2="-2" transform="matrix(0.945374 0.303238 -0.298793 0.961808 149.239 144.537)" stroke="white" stroke-opacity="0.6" stroke-width="4"/>
<line y1="-1" x2="32.1559" y2="-1" transform="matrix(0.945374 0.303238 -0.298793 0.961808 159.373 155.741)" stroke="white" stroke-opacity="0.6" stroke-width="2"/>
<line y1="-2" x2="32.1559" y2="-2" transform="matrix(0.945374 0.303238 -0.298793 0.961808 158.735 138.635)" stroke="white" stroke-opacity="0.6" stroke-width="4"/>
</g>
<path d="M162.086 234.404L224.579 181.917L237.395 203.322L180.363 251.222L162.086 234.404Z" fill="#003160"/>
</g>
<defs>
<filter id="filter0_d" x="68.2471" y="60.7842" width="254.631" height="268.018" filterUnits="userSpaceOnUse" color-interpolation-filters="sRGB">
<feFlood flood-opacity="0" result="BackgroundImageFix"/>
<feColorMatrix in="SourceAlpha" type="matrix" values="0 0 0 0 0 0 0 0 0 0 0 0 0 0 0 0 0 0 127 0"/>
<feOffset dy="4"/>
<feGaussianBlur stdDeviation="2"/>
<feColorMatrix type="matrix" values="0 0 0 0 0 0 0 0 0 0 0 0 0 0 0 0 0 0 0.25 0"/>
<feBlend mode="normal" in2="BackgroundImageFix" result="effect1_dropShadow"/>
<feBlend mode="normal" in="SourceGraphic" in2="effect1_dropShadow" result="shape"/>
</filter>
</defs>
</svg>
