<svg width="252" height="221" viewBox="0 0 252 221" fill="none" xmlns="http://www.w3.org/2000/svg">
<path d="M70.3013 131.431C0.0691549 163.009 34.0843 134.366 72.2631 109.781C62.9325 108.497 78.1943 96.3291 86.9916 90.4057C81.236 91.4426 88.905 81.6253 93.4589 76.5869C94.3254 57.934 111.305 46.9595 119.686 43.8039C133.694 12.892 156.548 16.4063 166.223 22.0275C186.748 11.531 185.663 24.3886 182.556 32.1295C189.52 39.075 197.905 53.2869 199.504 59.4801C217.861 131.179 152.457 153.36 129.252 132.48C123.485 136.53 119.255 133.837 117.861 131.984C95.0135 157.546 87.7464 142.165 103.296 127.563C98.4122 132.149 97.5888 130.376 96.5239 129.226C71.3069 153.339 63.1417 143.068 70.3013 131.431Z" fill="#2CA1CD" fill-opacity="0.4"/>
<path d="M65.1958 136.587C2.13077 168.921 20.5893 135.037 64.8357 109.798C54.3179 108.349 68.912 95.3578 79.4041 91.5258C74.9891 88.2494 81.56 81.6254 86.6928 75.9447C87.6678 54.9121 106.806 42.539 116.253 38.9816C132.041 4.1272 156.985 9.35444 167.892 15.6937C191.027 3.85994 192.129 19.5249 188.627 28.2531C196.478 36.0854 204.425 49.6818 206.228 56.6653C226.927 137.514 153.204 162.518 127.045 138.972C120.607 143.494 118.992 141.346 117.435 139.275L117.39 139.215C91.6379 168.037 85.9725 144.522 97.7865 133.425C92.2815 138.596 90.1261 140.093 90.6041 138.772C62.1812 165.958 57.1264 149.707 65.1958 136.587Z" fill="#2CA1CD" fill-opacity="0.1"/>
<path d="M80.7999 124.243C3.8503 159.827 49.8601 126.759 82.4836 105.778C74.5134 104.686 87.5554 94.3031 95.0727 89.248C90.1556 90.1345 96.7104 81.7588 100.602 77.4601C101.349 61.5513 115.858 52.1854 123.019 49.491C134.997 23.1221 154.519 26.1111 162.782 30.9017C180.319 21.9421 180.796 31.2454 178.138 37.8485C184.085 43.7695 189.902 56.6223 191.266 61.9037C206.921 123.047 150.974 142.916 131.159 125.116C126.231 128.573 122.618 126.277 121.428 124.697C88.5679 155.552 100.882 134.69 111.147 120.402C106.973 124.315 104.111 123.333 103.202 122.353C70.5913 147.691 74.6795 134.171 80.7999 124.243Z" fill="#2CA1CD" fill-opacity="0.7"/>
<path d="M202.623 59.4937L142.36 147.397C132.277 140.014 124.554 138.758 117.341 139.496C106.275 140.628 96.7503 146.437 92.7203 153.804C84.8889 168.244 97.6073 183.842 114.141 187.577C126.013 190.251 148.933 189.085 151.722 161.576L210.357 75.3076L215.834 67.7434C234.118 71.5807 224.293 116.829 241.9 83.4212C246.866 65.1369 243.147 56.231 225.766 43.5901C225.766 43.5901 220.467 39.7528 215.834 42.3381C211.201 44.9234 210.357 47.6533 202.623 59.4937Z" fill="#FFC300"/>
<g filter="url(#filter0_d)">
<path d="M58.2778 129.575C46.8052 134.478 53.9778 129.761 58.9981 126.79L82.0146 113.517L119.504 107.721L125.424 115.494C123.889 117.141 119.065 122.11 112.045 128.808C105.025 135.506 113.855 121.477 119.148 113.625L88.1542 114.015L75.516 119.726C71.6473 122.213 62.9434 127.827 59.0776 130.381C55.2117 132.935 58.6705 129.813 60.8831 127.932L58.2778 129.575Z" fill="#373737"/>
<path d="M85.1091 108.964C78.6334 111.999 60.4 124.058 52.0928 129.708L82.8552 116.939C90.2917 119.125 96.4455 117.012 98.5928 115.682C105.652 117.639 112.847 115.191 115.562 113.722C120.986 118.167 129.842 118.238 133.592 117.719C141.135 121.643 151.344 120.581 155.506 119.559C192.292 112.532 185.852 70.788 183.005 62.461C180.158 54.1341 177.673 49.7299 174.212 41.3532C171.443 34.6518 165.49 33.3323 162.859 33.5103C159.612 32.7029 155.588 32.4876 153.981 32.4809C137.985 34.6438 131.58 45.5367 130.377 50.7128C106.84 64.3149 109.447 84.7354 108.548 85.1568C107.828 85.494 99.251 97.6691 95.0524 103.715C87.396 104.391 87.2677 107.953 85.1091 108.964Z" fill="#FFC300"/>
<path d="M135.553 111.001C128.151 109.609 119.169 112.349 115.604 113.894C122.193 119.817 130.308 118.774 133.541 117.512C165.56 134.201 198.541 97.1388 182.065 60.2664C177.718 116.894 144.806 112.74 135.553 111.001Z" fill="#FFB020"/>
<path d="M113.333 81.1552C95.1484 91.3971 104.641 80.8825 111.661 74.345L145.34 75.9035C69.3305 156.508 75.182 129.551 106.516 101.173C71.2263 126.166 85.0662 106.27 112.818 88.2002C78.1738 109.216 97.9824 92.8104 113.333 81.1552Z" fill="#373737"/>
<ellipse cx="154.942" cy="50.2784" rx="3.89583" ry="3.31146" transform="rotate(-13.796 154.942 50.2784)" fill="#FFF277"/>
<ellipse cx="154.756" cy="49.5219" rx="3.50625" ry="3.31146" transform="rotate(-13.796 154.756 49.5219)" fill="#373737"/>
<path d="M157.675 48.805C158.039 50.2872 157.065 51.8498 155.426 52.2522C153.787 52.6547 152.2 51.7209 151.836 50.2388C151.472 48.7566 152.446 47.194 154.085 46.7915C155.724 46.3891 157.311 47.3229 157.675 48.805Z" stroke="#321F00" stroke-opacity="0.56"/>
<path d="M152.775 48.8048C152.246 48.6136 153.156 47.9087 153.677 47.5802C154.021 47.3458 155.002 47.255 155.141 47.8226C155.28 48.3901 154.809 48.1046 154.099 48.4796C153.389 48.8546 153.435 49.0438 152.775 48.8048Z" fill="white" stroke="#2A2526" stroke-opacity="0.59" stroke-width="0.5"/>
<path d="M160.721 48.8593C159.774 47.086 161.743 41.187 164.781 38.4353L168.565 37.9072C168.246 38.7877 168.31 41.821 167.962 43.6715C167.527 45.9847 161.737 50.7617 160.721 48.8593Z" fill="#DEAC5F" fill-opacity="0.77"/>
<path d="M166.442 34.2161L163.86 41.6698C159.587 51.063 162.827 47.5396 164.981 44.6037C168.13 41.0893 174.608 33.655 175.333 32.0329C176.24 30.0051 174.68 30.1876 172.834 30.8413C171.358 31.3642 167.958 33.309 166.442 34.2161Z" fill="#A86425" stroke="#864E1B" stroke-width="2"/>
<path d="M161.852 47.3779C164.168 43.1986 170.034 33.9759 174.962 30.5194" stroke="#864E1B" stroke-width="2"/>
<path d="M145.911 45.6895C145.911 45.6895 141.223 40.4885 142.865 36.1944C136.439 39.4874 134.288 45.8438 134.015 48.6104C119.75 55.4481 112.743 69.5553 110.244 77.7915C107.745 86.0277 110.758 89.5756 123.981 91.0928C137.204 92.61 155.226 80.5164 159.591 73.297C163.956 66.0777 162.932 64.6157 159.077 61.5129C155.221 58.4102 149.071 60.1585 149.854 54.9641C150.636 49.7697 145.911 45.6895 145.911 45.6895Z" fill="#FF9400" fill-opacity="0.6"/>
<path d="M141.667 47.7225C141.667 47.7225 137.329 42.9139 138.85 38.9427C132.902 41.9892 130.909 47.8677 130.656 50.4261C117.452 56.7522 110.964 69.7991 108.649 77.416C106.334 85.0329 109.122 88.3131 121.361 89.7134C133.599 91.1136 152.697 77.3932 154.322 73.2495C155.948 69.1057 157.417 65.2208 153.849 62.3523C150.282 59.4839 144.589 61.1019 145.314 56.2983C146.039 51.4946 141.667 47.7225 141.667 47.7225Z" fill="#FF9400"/>
<path d="M153.409 32.6027C156.925 32.5419 159.924 33.8111 159.164 34.8001C158.404 35.789 153.754 40.5412 150.243 44.2116C146.715 47.8988 147.312 44.53 139.689 48.6083C136.749 50.1811 134.744 44.808 136.745 40.7061C138.747 36.6043 149.015 32.6788 153.409 32.6027Z" fill="#373737" stroke="#373737"/>
</g>
<defs>
<filter id="filter0_d" x="31.3196" y="27.2363" width="168.149" height="124.912" filterUnits="userSpaceOnUse" color-interpolation-filters="sRGB">
<feFlood flood-opacity="0" result="BackgroundImageFix"/>
<feColorMatrix in="SourceAlpha" type="matrix" values="0 0 0 0 0 0 0 0 0 0 0 0 0 0 0 0 0 0 127 0"/>
<feOffset dy="4"/>
<feGaussianBlur stdDeviation="2"/>
<feColorMatrix type="matrix" values="0 0 0 0 0 0 0 0 0 0 0 0 0 0 0 0 0 0 0.25 0"/>
<feBlend mode="normal" in2="BackgroundImageFix" result="effect1_dropShadow"/>
<feBlend mode="normal" in="SourceGraphic" in2="effect1_dropShadow" result="shape"/>
</filter>
</defs>
</svg>
