<svg width="135" height="193" viewBox="0 0 135 193" fill="none" xmlns="http://www.w3.org/2000/svg">
<path d="M141.74 42.2422C149.851 30.4443 142.923 37.4469 138.445 42.4229L118.307 65.3149L103.309 106.18L110.715 114.598C112.915 113.244 119.596 108.941 128.719 102.557C137.842 96.1743 120.062 102.936 110.032 107.115L117.479 72.3347L126.762 59.4081C130.435 55.6183 138.719 47.0959 142.467 43.3244C146.214 39.5528 141.919 42.7378 139.303 44.8018L141.74 42.2422Z" fill="#373737"/>
<path d="M112.486 67.7667C117.364 61.1677 135.054 43.382 143.289 35.3141L121.968 67.0345C122.745 75.8949 118.976 82.3401 116.995 84.4552C117.6 92.8399 113.219 100.38 110.952 103.102C114.726 110.209 112.804 120.189 111.371 124.29C114.081 133.663 110.576 144.909 108.486 149.36C92.2616 189.155 46.7557 172.471 38.0317 167.385C29.3076 162.299 24.915 158.507 16.2737 152.719C9.36073 148.088 9.22266 141.092 10.0178 138.173C9.84379 134.337 10.5116 129.761 10.8673 127.953C16.918 110.446 30.6209 105.703 36.7161 105.521C57.3413 82.1169 79.7249 89.668 80.4024 88.7515C80.9444 88.0183 96.5811 81.1222 104.332 77.7659C106.824 69.3054 110.86 69.9664 112.486 67.7667Z" fill="#14D4F4"/>
<path d="M103.37 124.977C103.478 116.335 108.592 106.85 111.135 103.188C116.31 111.941 113.301 120.834 111.15 124.186C122.684 163.981 73.531 192.704 35.775 165.83C100.465 173.745 103.234 135.78 103.37 124.977Z" fill="#1CB0F6"/>
<path d="M74.818 93.2303C90.4525 75.0884 76.4768 83.3903 67.5346 89.809L61.6719 128.05C169.541 60.7672 137.891 61.2541 98.8793 90.088C134.977 56.0385 109.464 67.1091 82.8602 94.2442C114.338 60.0214 91.4017 78.5963 74.818 93.2303Z" fill="#373737"/>
<ellipse rx="4.47051" ry="3.79993" transform="matrix(-0.425173 0.905112 0.905112 0.425173 30.6724 133.058)" fill="#BCE9FF"/>
<ellipse rx="4.02346" ry="3.79993" transform="matrix(-0.425173 0.905112 0.905112 0.425173 29.8631 132.678)" fill="#373737"/>
<path d="M28.365 135.867C29.9906 136.63 32.011 135.867 32.8499 134.081C33.6889 132.295 32.9868 130.252 31.3612 129.488C29.7357 128.725 27.7153 129.489 26.8763 131.275C26.0373 133.061 26.7395 135.103 28.365 135.867Z" stroke="#321F00" stroke-opacity="0.56"/>
<path d="M29.5046 130.286C29.409 129.649 28.4102 130.513 27.9228 131.025C27.5815 131.359 27.2575 132.441 27.8645 132.727C28.4714 133.012 28.2569 132.417 28.8393 131.703C29.4218 130.988 29.6241 131.084 29.5046 130.286Z" fill="white" stroke="#2A2526" stroke-opacity="0.59" stroke-width="0.5"/>
<path d="M27.769 139.239C25.9882 137.772 18.9066 138.653 15.1239 141.448L13.674 145.586C14.7367 145.427 18.1348 146.184 20.2954 146.211C22.996 146.245 29.6795 140.812 27.769 139.239Z" fill="#DEAC5F" fill-opacity="0.77"/>
<path d="M10.0017 142.364L18.9713 141.144C30.5048 138.462 25.8082 141.31 22.0182 143.069C17.3525 145.817 7.52385 151.424 5.53497 151.873C3.04887 152.433 3.60685 150.72 4.75954 148.792C5.68169 147.249 8.63855 143.864 10.0017 142.364Z" fill="#A86425" stroke="#864E1B" stroke-width="2"/>
<path d="M25.8471 140.176C20.6215 141.837 8.91947 146.35 3.91647 151.112" stroke="#864E1B" stroke-width="2"/>
<path d="M27.5524 121.86C27.5524 121.86 22.7614 115.41 17.5591 116.287C22.7168 109.802 30.3543 108.819 33.5284 109.138C44.4468 94.6361 61.902 89.9436 71.7329 88.9947C81.5639 88.0457 84.8739 92.2376 83.5905 107.457C82.3071 122.676 64.6263 140.216 55.5174 143.494C46.4086 146.771 44.9952 145.29 42.3764 140.251C39.7577 135.211 43.1153 128.688 37.0946 128.393C31.074 128.099 27.5524 121.86 27.5524 121.86Z" fill="#1CB0F6" fill-opacity="0.6"/>
<path d="M30.7989 117.545C30.7989 117.545 26.3702 111.578 21.5586 112.391C26.3309 106.388 33.3949 105.476 36.3303 105.77C46.4332 92.3456 62.5784 87.997 71.6709 87.1154C80.7634 86.2337 83.8232 90.1119 82.631 104.197C81.4387 118.281 61.6843 136.664 56.6549 137.556C51.6256 138.448 46.9228 139.222 44.5026 134.559C42.0824 129.897 45.19 123.859 39.6219 123.588C34.0538 123.318 30.7989 117.545 30.7989 117.545Z" fill="#1CB0F6"/>
<path d="M11.1334 127.337C10.2701 131.278 11.0197 134.939 12.3042 134.308C13.5886 133.676 19.9864 129.52 24.9096 126.399C29.8556 123.264 25.9305 123.175 32.2426 115.52C34.6769 112.568 29.0854 109.098 24.0182 110.422C18.951 111.746 12.2127 122.411 11.1334 127.337Z" fill="#373737" stroke="#373737"/>
</svg>
