<svg width="2583" height="1659" viewBox="0 0 2583 1659" fill="none" xmlns="http://www.w3.org/2000/svg">
<g opacity="0.9">
<g opacity="0.6">
<ellipse rx="13.5474" ry="14.4398" transform="matrix(0.300008 0.953937 -0.965352 0.260951 542.879 1115.01)" fill="#A560EB"/>
<line y1="-5" x2="60.9584" y2="-5" transform="matrix(0.710695 0.7035 -0.755072 0.655642 589.207 963.94)" stroke="#8EE000" stroke-width="10"/>
<ellipse rx="13.5474" ry="14.4398" transform="matrix(0.300008 0.953937 -0.965352 0.260951 941.146 1289.24)" fill="#E53B3B"/>
<path d="M939.17 1145.76C936.773 1142.69 935.091 1139.19 934.233 1135.48C933.376 1131.77 933.36 1127.94 934.187 1124.22C935.014 1120.51 936.667 1117 939.039 1113.91C941.411 1110.82 944.451 1108.22 947.965 1106.28C951.479 1104.34 955.391 1103.09 959.451 1102.63C963.511 1102.17 967.631 1102.5 971.547 1103.59C975.464 1104.68 979.092 1106.52 982.201 1108.99C985.309 1111.45 987.83 1114.49 989.603 1117.91L980.811 1121.83C979.625 1119.54 977.939 1117.51 975.859 1115.86C973.78 1114.21 971.353 1112.98 968.733 1112.25C966.113 1111.52 963.357 1111.3 960.641 1111.61C957.926 1111.92 955.309 1112.75 952.958 1114.05C950.607 1115.35 948.574 1117.08 946.987 1119.15C945.4 1121.22 944.295 1123.57 943.742 1126.05C943.188 1128.54 943.199 1131.1 943.773 1133.58C944.347 1136.06 945.471 1138.4 947.075 1140.46L939.17 1145.76Z" fill="#A560EB"/>
<path d="M676.581 1211.53C679.426 1208.81 682.851 1206.66 686.639 1205.23C690.427 1203.8 694.495 1203.11 698.584 1203.22C702.673 1203.33 706.694 1204.22 710.39 1205.85C714.086 1207.47 717.376 1209.79 720.051 1212.66C722.727 1215.53 724.729 1218.88 725.93 1222.51C727.131 1226.13 727.504 1229.95 727.027 1233.72C726.55 1237.49 725.232 1241.12 723.157 1244.39C721.082 1247.66 718.296 1250.49 714.976 1252.7L709.276 1245.36C711.497 1243.88 713.361 1241.99 714.749 1239.8C716.136 1237.61 717.018 1235.18 717.337 1232.66C717.657 1230.14 717.407 1227.59 716.603 1225.16C715.8 1222.74 714.461 1220.5 712.671 1218.58C710.882 1216.66 708.681 1215.11 706.208 1214.02C703.736 1212.93 701.047 1212.33 698.311 1212.26C695.576 1212.19 692.855 1212.65 690.321 1213.61C687.787 1214.56 685.496 1216 683.593 1217.82L676.581 1211.53Z" fill="#1CB0F6"/>
<path d="M224.311 1056.37C227.093 1050.95 231.06 1046.14 235.959 1042.22C240.859 1038.31 246.584 1035.39 252.769 1033.64C258.955 1031.89 265.465 1031.35 271.887 1032.06C278.308 1032.77 284.5 1034.71 290.068 1037.76C295.635 1040.81 300.457 1044.9 304.226 1049.78C307.995 1054.65 310.629 1060.19 311.959 1066.06C313.289 1071.93 313.288 1077.99 311.954 1083.86C310.62 1089.72 307.983 1095.27 304.212 1100.14L291.682 1091.8C294.205 1088.54 295.969 1084.83 296.861 1080.91C297.753 1076.98 297.755 1072.93 296.865 1069C295.975 1065.08 294.213 1061.37 291.692 1058.11C289.171 1054.85 285.945 1052.11 282.221 1050.07C278.497 1048.03 274.355 1046.73 270.059 1046.26C265.764 1045.78 261.409 1046.14 257.271 1047.31C253.134 1048.48 249.304 1050.44 246.027 1053.06C242.749 1055.68 240.096 1058.9 238.235 1062.52L224.311 1056.37Z" fill="#E53B3B"/>
<line y1="-5" x2="76.6103" y2="-5" transform="matrix(-0.582182 0.813058 -0.852235 -0.523159 1036.53 957)" stroke="#1CB0F6" stroke-width="10"/>
<ellipse rx="29.2116" ry="31.1358" transform="matrix(0.300008 0.953937 -0.965352 0.260951 460.518 1286.39)" fill="#8EE000"/>
</g>
<line opacity="0.6" y1="-5" x2="27.249" y2="-5" transform="matrix(-0.824897 -0.565283 0.623394 -0.781908 1196.6 1240.19)" stroke="#8EE000" stroke-width="10"/>
<line opacity="0.6" y1="-5" x2="25.9779" y2="-5" transform="matrix(0.187144 -0.982332 0.986857 0.161596 1082.16 1108)" stroke="#A560EB" stroke-width="10"/>
<line opacity="0.6" y1="-5" x2="68.3612" y2="-5" transform="matrix(0.952404 0.304838 -0.348972 0.937133 1232.25 1074.6)" stroke="#1CB0F6" stroke-width="10"/>
<line opacity="0.6" y1="-5" x2="23.1334" y2="-5" transform="matrix(0.824897 -0.565283 -0.623394 -0.781908 189.544 1300.69)" stroke="#8EE000" stroke-width="10"/>
<line opacity="0.6" y1="-5" x2="22.0544" y2="-5" transform="matrix(-0.187144 -0.982332 -0.986857 0.161596 286.692 1188.47)" stroke="#A560EB" stroke-width="10"/>
<line opacity="0.6" y1="-5" x2="58.0363" y2="-5" transform="matrix(-0.952404 0.304838 0.348972 0.937133 159.274 1160.12)" stroke="#1CB0F6" stroke-width="10"/>
<g opacity="0.6">
<ellipse rx="13.5474" ry="14.4398" transform="matrix(0.300008 0.953937 -0.965352 0.260951 1824.52 1435.34)" fill="#A560EB"/>
<line y1="-5" x2="60.9584" y2="-5" transform="matrix(0.710695 0.7035 -0.755072 0.655642 1870.85 1284.28)" stroke="#8EE000" stroke-width="10"/>
<ellipse rx="13.5474" ry="14.4398" transform="matrix(0.300008 0.953937 -0.965352 0.260951 2222.79 1609.57)" fill="#E53B3B"/>
<path d="M2220.81 1466.1C2218.42 1463.02 2216.73 1459.52 2215.88 1455.81C2215.02 1452.11 2215 1448.27 2215.83 1444.56C2216.66 1440.84 2218.31 1437.33 2220.68 1434.24C2223.05 1431.15 2226.09 1428.55 2229.61 1426.61C2233.12 1424.67 2237.03 1423.43 2241.09 1422.97C2245.15 1422.5 2249.27 1422.83 2253.19 1423.92C2257.11 1425.02 2260.74 1426.86 2263.84 1429.32C2266.95 1431.79 2269.47 1434.82 2271.25 1438.24L2262.45 1442.16C2261.27 1439.88 2259.58 1437.84 2257.5 1436.2C2255.42 1434.55 2253 1433.32 2250.38 1432.59C2247.76 1431.85 2245 1431.64 2242.28 1431.94C2239.57 1432.25 2236.95 1433.08 2234.6 1434.38C2232.25 1435.68 2230.22 1437.42 2228.63 1439.49C2227.04 1441.55 2225.94 1443.9 2225.38 1446.39C2224.83 1448.87 2224.84 1451.44 2225.42 1453.92C2225.99 1456.4 2227.11 1458.74 2228.72 1460.79L2220.81 1466.1Z" fill="#A560EB"/>
<path d="M1958.22 1531.87C1961.07 1529.14 1964.49 1527 1968.28 1525.57C1972.07 1524.13 1976.14 1523.45 1980.23 1523.56C1984.32 1523.66 1988.34 1524.56 1992.03 1526.18C1995.73 1527.81 1999.02 1530.13 2001.7 1533C2004.37 1535.87 2006.37 1539.22 2007.57 1542.84C2008.77 1546.47 2009.15 1550.29 2008.67 1554.05C2008.19 1557.82 2006.88 1561.45 2004.8 1564.72C2002.73 1567.99 1999.94 1570.82 1996.62 1573.04L1990.92 1565.7C1993.14 1564.22 1995 1562.32 1996.39 1560.13C1997.78 1557.95 1998.66 1555.52 1998.98 1553C1999.3 1550.48 1999.05 1547.93 1998.25 1545.5C1997.44 1543.08 1996.1 1540.83 1994.31 1538.91C1992.53 1536.99 1990.32 1535.44 1987.85 1534.35C1985.38 1533.27 1982.69 1532.67 1979.96 1532.6C1977.22 1532.53 1974.5 1532.98 1971.96 1533.94C1969.43 1534.9 1967.14 1536.34 1965.24 1538.16L1958.22 1531.87Z" fill="#1CB0F6"/>
<path d="M1505.95 1376.7C1508.74 1371.29 1512.7 1366.47 1517.6 1362.56C1522.5 1358.65 1528.23 1355.72 1534.41 1353.97C1540.6 1352.22 1547.11 1351.69 1553.53 1352.4C1559.95 1353.11 1566.14 1355.05 1571.71 1358.1C1577.28 1361.15 1582.1 1365.24 1585.87 1370.11C1589.64 1374.98 1592.27 1380.53 1593.6 1386.4C1594.93 1392.27 1594.93 1398.33 1593.6 1404.19C1592.26 1410.06 1589.63 1415.6 1585.86 1420.47L1573.33 1412.13C1575.85 1408.88 1577.61 1405.17 1578.5 1401.24C1579.4 1397.32 1579.4 1393.26 1578.51 1389.34C1577.62 1385.41 1575.86 1381.7 1573.34 1378.45C1570.81 1375.19 1567.59 1372.45 1563.86 1370.41C1560.14 1368.37 1556 1367.07 1551.7 1366.59C1547.41 1366.12 1543.05 1366.48 1538.91 1367.65C1534.78 1368.82 1530.95 1370.78 1527.67 1373.39C1524.39 1376.01 1521.74 1379.23 1519.88 1382.85L1505.95 1376.7Z" fill="#E53B3B"/>
<line y1="-5" x2="76.6103" y2="-5" transform="matrix(-0.582182 0.813058 -0.852235 -0.523159 2318.17 1277.34)" stroke="#1CB0F6" stroke-width="10"/>
<ellipse rx="29.2116" ry="31.1358" transform="matrix(0.300008 0.953937 -0.965352 0.260951 1742.16 1606.72)" fill="#8EE000"/>
</g>
<line opacity="0.6" y1="-5" x2="27.249" y2="-5" transform="matrix(-0.824897 -0.565283 0.623394 -0.781908 2478.24 1560.53)" stroke="#8EE000" stroke-width="10"/>
<line opacity="0.6" y1="-5" x2="25.9779" y2="-5" transform="matrix(0.187144 -0.982332 0.986857 0.161596 2363.81 1428.33)" stroke="#A560EB" stroke-width="10"/>
<line opacity="0.6" y1="-5" x2="68.3612" y2="-5" transform="matrix(0.952404 0.304838 -0.348972 0.937133 2513.89 1394.94)" stroke="#1CB0F6" stroke-width="10"/>
<line opacity="0.6" y1="-5" x2="23.1334" y2="-5" transform="matrix(0.824897 -0.565283 -0.623394 -0.781908 1471.19 1621.03)" stroke="#8EE000" stroke-width="10"/>
<line opacity="0.6" y1="-5" x2="22.0544" y2="-5" transform="matrix(-0.187144 -0.982332 -0.986857 0.161596 1568.34 1508.8)" stroke="#A560EB" stroke-width="10"/>
<line opacity="0.6" y1="-5" x2="58.0363" y2="-5" transform="matrix(-0.952404 0.304838 0.348972 0.937133 1440.92 1480.45)" stroke="#1CB0F6" stroke-width="10"/>
<g opacity="0.6">
<ellipse rx="13.5474" ry="14.4398" transform="matrix(0.300008 0.953937 -0.965352 0.260951 1338.82 429.895)" fill="#A560EB"/>
<line y1="-5" x2="60.9584" y2="-5" transform="matrix(0.710695 0.7035 -0.755072 0.655642 1385.15 278.827)" stroke="#8EE000" stroke-width="10"/>
<ellipse rx="13.5474" ry="14.4398" transform="matrix(0.300008 0.953937 -0.965352 0.260951 1737.09 604.122)" fill="#E53B3B"/>
<path d="M1735.11 460.648C1732.71 457.575 1731.03 454.073 1730.17 450.365C1729.32 446.657 1729.3 442.824 1730.13 439.11C1730.95 435.396 1732.61 431.882 1734.98 428.792C1737.35 425.702 1740.39 423.104 1743.9 421.164C1747.42 419.223 1751.33 417.981 1755.39 417.519C1759.45 417.056 1763.57 417.382 1767.49 418.476C1771.4 419.57 1775.03 421.408 1778.14 423.873C1781.25 426.338 1783.77 429.376 1785.54 432.794L1776.75 436.714C1775.56 434.428 1773.88 432.396 1771.8 430.747C1769.72 429.098 1767.29 427.868 1764.67 427.137C1762.05 426.405 1759.3 426.187 1756.58 426.496C1753.87 426.806 1751.25 427.636 1748.9 428.934C1746.55 430.233 1744.51 431.971 1742.93 434.037C1741.34 436.104 1740.24 438.455 1739.68 440.939C1739.13 443.423 1739.14 445.987 1739.71 448.468C1740.29 450.948 1741.41 453.291 1743.02 455.346L1735.11 460.648Z" fill="#A560EB"/>
<path d="M1472.52 526.42C1475.37 523.695 1478.79 521.548 1482.58 520.117C1486.37 518.686 1490.43 518.001 1494.52 518.107C1498.61 518.214 1502.63 519.108 1506.33 520.733C1510.03 522.359 1513.32 524.68 1515.99 527.548C1518.67 530.417 1520.67 533.771 1521.87 537.396C1523.07 541.022 1523.44 544.839 1522.97 548.606C1522.49 552.372 1521.17 556.005 1519.1 559.274C1517.02 562.542 1514.24 565.374 1510.92 567.59L1505.22 560.249C1507.44 558.767 1509.3 556.872 1510.69 554.686C1512.08 552.5 1512.96 550.069 1513.28 547.55C1513.6 545.03 1513.35 542.477 1512.54 540.052C1511.74 537.627 1510.4 535.383 1508.61 533.464C1506.82 531.545 1504.62 529.993 1502.15 528.905C1499.68 527.818 1496.99 527.22 1494.25 527.149C1491.52 527.078 1488.79 527.536 1486.26 528.493C1483.73 529.451 1481.44 530.887 1479.53 532.71L1472.52 526.42Z" fill="#1CB0F6"/>
<path d="M1020.25 371.254C1023.03 365.841 1027 361.025 1031.9 357.112C1036.8 353.198 1042.52 350.273 1048.71 348.523C1054.89 346.773 1061.4 346.236 1067.83 346.947C1074.25 347.657 1080.44 349.599 1086.01 352.649C1091.57 355.699 1096.4 359.791 1100.17 364.663C1103.93 369.535 1106.57 375.082 1107.9 380.949C1109.23 386.816 1109.23 392.876 1107.89 398.743C1106.56 404.61 1103.92 410.155 1100.15 415.025L1087.62 406.685C1090.14 403.427 1091.91 399.718 1092.8 395.794C1093.69 391.869 1093.69 387.816 1092.8 383.891C1091.91 379.966 1090.15 376.256 1087.63 372.997C1085.11 369.738 1081.88 367.001 1078.16 364.961C1074.44 362.92 1070.29 361.621 1066 361.146C1061.7 360.671 1057.35 361.03 1053.21 362.201C1049.07 363.371 1045.24 365.328 1041.97 367.945C1038.69 370.563 1036.04 373.785 1034.17 377.405L1020.25 371.254Z" fill="#E53B3B"/>
<line y1="-5" x2="76.6103" y2="-5" transform="matrix(-0.582182 0.813058 -0.852235 -0.523159 1832.47 271.887)" stroke="#1CB0F6" stroke-width="10"/>
<ellipse rx="29.2116" ry="31.1358" transform="matrix(0.300008 0.953937 -0.965352 0.260951 1256.46 601.272)" fill="#8EE000"/>
</g>
<line opacity="0.6" y1="-5" x2="27.249" y2="-5" transform="matrix(-0.824897 -0.565283 0.623394 -0.781908 1992.54 555.079)" stroke="#8EE000" stroke-width="10"/>
<line opacity="0.6" y1="-5" x2="25.9779" y2="-5" transform="matrix(0.187144 -0.982332 0.986857 0.161596 1878.1 422.886)" stroke="#A560EB" stroke-width="10"/>
<line opacity="0.6" y1="-5" x2="68.3612" y2="-5" transform="matrix(0.952404 0.304838 -0.348972 0.937133 2028.19 389.49)" stroke="#1CB0F6" stroke-width="10"/>
<line opacity="0.6" y1="-5" x2="23.1334" y2="-5" transform="matrix(0.824897 -0.565283 -0.623394 -0.781908 985.484 615.581)" stroke="#8EE000" stroke-width="10"/>
<line opacity="0.6" y1="-5" x2="22.0544" y2="-5" transform="matrix(-0.187144 -0.982332 -0.986857 0.161596 1082.63 503.354)" stroke="#A560EB" stroke-width="10"/>
<line opacity="0.6" y1="-5" x2="58.0363" y2="-5" transform="matrix(-0.952404 0.304838 0.348972 0.937133 955.214 475.002)" stroke="#1CB0F6" stroke-width="10"/>
<g opacity="0.6">
<ellipse rx="13.5474" ry="14.4398" transform="matrix(0.300008 0.953937 -0.965352 0.260951 494.898 1450.98)" fill="#A560EB"/>
<line y1="-5" x2="60.9584" y2="-5" transform="matrix(0.710695 0.7035 -0.755072 0.655642 541.226 1299.91)" stroke="#8EE000" stroke-width="10"/>
<ellipse rx="13.5474" ry="14.4398" transform="matrix(0.300008 0.953937 -0.965352 0.260951 893.165 1625.2)" fill="#E53B3B"/>
<path d="M891.189 1481.73C888.791 1478.66 887.11 1475.15 886.252 1471.45C885.394 1467.74 885.378 1463.91 886.206 1460.19C887.033 1456.48 888.685 1452.96 891.057 1449.87C893.429 1446.78 896.469 1444.19 899.983 1442.25C903.498 1440.3 907.409 1439.06 911.47 1438.6C915.53 1438.14 919.649 1438.46 923.566 1439.56C927.483 1440.65 931.111 1442.49 934.219 1444.95C937.328 1447.42 939.849 1450.46 941.622 1453.88L932.83 1457.8C931.644 1455.51 929.957 1453.48 927.878 1451.83C925.798 1450.18 923.371 1448.95 920.751 1448.22C918.131 1447.49 915.376 1447.27 912.66 1447.58C909.944 1447.89 907.327 1448.72 904.977 1450.02C902.626 1451.31 900.592 1453.05 899.006 1455.12C897.419 1457.19 896.314 1459.54 895.76 1462.02C895.207 1464.51 895.217 1467.07 895.791 1469.55C896.365 1472.03 897.49 1474.37 899.094 1476.43L891.189 1481.73Z" fill="#A560EB"/>
<path d="M628.6 1547.5C631.444 1544.78 634.87 1542.63 638.658 1541.2C642.446 1539.77 646.514 1539.08 650.603 1539.19C654.692 1539.3 658.712 1540.19 662.408 1541.81C666.104 1543.44 669.395 1545.76 672.07 1548.63C674.745 1551.5 676.747 1554.85 677.948 1558.48C679.149 1562.1 679.523 1565.92 679.046 1569.69C678.568 1573.45 677.25 1577.09 675.176 1580.36C673.101 1583.62 670.315 1586.46 666.995 1588.67L661.295 1581.33C663.516 1579.85 665.379 1577.95 666.767 1575.77C668.155 1573.58 669.037 1571.15 669.356 1568.63C669.675 1566.11 669.425 1563.56 668.622 1561.13C667.819 1558.71 666.479 1556.46 664.69 1554.55C662.9 1552.63 660.699 1551.07 658.227 1549.99C655.755 1548.9 653.065 1548.3 650.33 1548.23C647.595 1548.16 644.874 1548.62 642.34 1549.57C639.806 1550.53 637.514 1551.97 635.612 1553.79L628.6 1547.5Z" fill="#1CB0F6"/>
<path d="M176.329 1392.34C179.111 1386.92 183.078 1382.11 187.978 1378.19C192.878 1374.28 198.602 1371.35 204.788 1369.6C210.973 1367.85 217.484 1367.32 223.905 1368.03C230.327 1368.74 236.519 1370.68 242.086 1373.73C247.654 1376.78 252.476 1380.87 256.245 1385.74C260.014 1390.62 262.647 1396.16 263.978 1402.03C265.308 1407.9 265.306 1413.96 263.972 1419.82C262.639 1425.69 260.002 1431.24 256.23 1436.11L243.701 1427.77C246.224 1424.51 247.987 1420.8 248.88 1416.88C249.772 1412.95 249.773 1408.9 248.883 1404.97C247.993 1401.05 246.232 1397.34 243.71 1394.08C241.189 1390.82 237.964 1388.08 234.24 1386.04C230.515 1384 226.373 1382.7 222.078 1382.23C217.782 1381.75 213.427 1382.11 209.29 1383.28C205.152 1384.45 201.323 1386.41 198.045 1389.03C194.768 1391.64 192.114 1394.87 190.253 1398.49L176.329 1392.34Z" fill="#E53B3B"/>
<line y1="-5" x2="76.6103" y2="-5" transform="matrix(-0.582182 0.813058 -0.852235 -0.523159 988.546 1292.97)" stroke="#1CB0F6" stroke-width="10"/>
<ellipse rx="29.2116" ry="31.1358" transform="matrix(0.300008 0.953937 -0.965352 0.260951 412.537 1622.35)" fill="#8EE000"/>
</g>
<line opacity="0.6" y1="-5" x2="27.249" y2="-5" transform="matrix(-0.824897 -0.565283 0.623394 -0.781908 1148.61 1576.16)" stroke="#8EE000" stroke-width="10"/>
<line opacity="0.6" y1="-5" x2="25.9779" y2="-5" transform="matrix(0.187144 -0.982332 0.986857 0.161596 1034.18 1443.97)" stroke="#A560EB" stroke-width="10"/>
<line opacity="0.6" y1="-5" x2="68.3612" y2="-5" transform="matrix(0.952404 0.304838 -0.348972 0.937133 1184.27 1410.57)" stroke="#1CB0F6" stroke-width="10"/>
<line opacity="0.6" y1="-5" x2="23.1334" y2="-5" transform="matrix(0.824897 -0.565283 -0.623394 -0.781908 141.564 1636.66)" stroke="#8EE000" stroke-width="10"/>
<line opacity="0.6" y1="-5" x2="22.0544" y2="-5" transform="matrix(-0.187144 -0.982332 -0.986857 0.161596 238.711 1524.44)" stroke="#A560EB" stroke-width="10"/>
<line opacity="0.6" y1="-5" x2="58.0363" y2="-5" transform="matrix(-0.952404 0.304838 0.348972 0.937133 111.293 1496.08)" stroke="#1CB0F6" stroke-width="10"/>
<g opacity="0.6">
<ellipse rx="13.5474" ry="14.4398" transform="matrix(0.300008 0.953937 -0.965352 0.260951 494.898 1450.98)" fill="#A560EB"/>
<line y1="-5" x2="60.9584" y2="-5" transform="matrix(0.710695 0.7035 -0.755072 0.655642 541.226 1299.91)" stroke="#8EE000" stroke-width="10"/>
<ellipse rx="13.5474" ry="14.4398" transform="matrix(0.300008 0.953937 -0.965352 0.260951 893.165 1625.2)" fill="#E53B3B"/>
<path d="M891.189 1481.73C888.791 1478.66 887.11 1475.15 886.252 1471.45C885.394 1467.74 885.378 1463.91 886.206 1460.19C887.033 1456.48 888.685 1452.96 891.057 1449.87C893.429 1446.78 896.469 1444.19 899.983 1442.25C903.498 1440.3 907.409 1439.06 911.47 1438.6C915.53 1438.14 919.649 1438.46 923.566 1439.56C927.483 1440.65 931.111 1442.49 934.219 1444.95C937.328 1447.42 939.849 1450.46 941.622 1453.88L932.83 1457.8C931.644 1455.51 929.957 1453.48 927.878 1451.83C925.798 1450.18 923.371 1448.95 920.751 1448.22C918.131 1447.49 915.376 1447.27 912.66 1447.58C909.944 1447.89 907.327 1448.72 904.977 1450.02C902.626 1451.31 900.592 1453.05 899.006 1455.12C897.419 1457.19 896.314 1459.54 895.76 1462.02C895.207 1464.51 895.217 1467.07 895.791 1469.55C896.365 1472.03 897.49 1474.37 899.094 1476.43L891.189 1481.73Z" fill="#A560EB"/>
<path d="M628.6 1547.5C631.444 1544.78 634.87 1542.63 638.658 1541.2C642.446 1539.77 646.514 1539.08 650.603 1539.19C654.692 1539.3 658.712 1540.19 662.408 1541.81C666.104 1543.44 669.395 1545.76 672.07 1548.63C674.745 1551.5 676.747 1554.85 677.948 1558.48C679.149 1562.1 679.523 1565.92 679.046 1569.69C678.568 1573.45 677.25 1577.09 675.176 1580.36C673.101 1583.62 670.315 1586.46 666.995 1588.67L661.295 1581.33C663.516 1579.85 665.379 1577.95 666.767 1575.77C668.155 1573.58 669.037 1571.15 669.356 1568.63C669.675 1566.11 669.425 1563.56 668.622 1561.13C667.819 1558.71 666.479 1556.46 664.69 1554.55C662.9 1552.63 660.699 1551.07 658.227 1549.99C655.755 1548.9 653.065 1548.3 650.33 1548.23C647.595 1548.16 644.874 1548.62 642.34 1549.57C639.806 1550.53 637.514 1551.97 635.612 1553.79L628.6 1547.5Z" fill="#1CB0F6"/>
<path d="M176.329 1392.34C179.111 1386.92 183.078 1382.11 187.978 1378.19C192.878 1374.28 198.602 1371.35 204.788 1369.6C210.973 1367.85 217.484 1367.32 223.905 1368.03C230.327 1368.74 236.519 1370.68 242.086 1373.73C247.654 1376.78 252.476 1380.87 256.245 1385.74C260.014 1390.62 262.647 1396.16 263.978 1402.03C265.308 1407.9 265.306 1413.96 263.972 1419.82C262.639 1425.69 260.002 1431.24 256.23 1436.11L243.701 1427.77C246.224 1424.51 247.987 1420.8 248.88 1416.88C249.772 1412.95 249.773 1408.9 248.883 1404.97C247.993 1401.05 246.232 1397.34 243.71 1394.08C241.189 1390.82 237.964 1388.08 234.24 1386.04C230.515 1384 226.373 1382.7 222.078 1382.23C217.782 1381.75 213.427 1382.11 209.29 1383.28C205.152 1384.45 201.323 1386.41 198.045 1389.03C194.768 1391.64 192.114 1394.87 190.253 1398.49L176.329 1392.34Z" fill="#E53B3B"/>
<line y1="-5" x2="76.6103" y2="-5" transform="matrix(-0.582182 0.813058 -0.852235 -0.523159 988.546 1292.97)" stroke="#1CB0F6" stroke-width="10"/>
<ellipse rx="29.2116" ry="31.1358" transform="matrix(0.300008 0.953937 -0.965352 0.260951 412.537 1622.35)" fill="#8EE000"/>
</g>
<line opacity="0.6" y1="-5" x2="27.249" y2="-5" transform="matrix(-0.824897 -0.565283 0.623394 -0.781908 1148.61 1576.16)" stroke="#8EE000" stroke-width="10"/>
<line opacity="0.6" y1="-5" x2="25.9779" y2="-5" transform="matrix(0.187144 -0.982332 0.986857 0.161596 1034.18 1443.97)" stroke="#A560EB" stroke-width="10"/>
<line opacity="0.6" y1="-5" x2="68.3612" y2="-5" transform="matrix(0.952404 0.304838 -0.348972 0.937133 1184.27 1410.57)" stroke="#1CB0F6" stroke-width="10"/>
<line opacity="0.6" y1="-5" x2="23.1334" y2="-5" transform="matrix(0.824897 -0.565283 -0.623394 -0.781908 141.564 1636.66)" stroke="#8EE000" stroke-width="10"/>
<line opacity="0.6" y1="-5" x2="22.0544" y2="-5" transform="matrix(-0.187144 -0.982332 -0.986857 0.161596 238.711 1524.44)" stroke="#A560EB" stroke-width="10"/>
<line opacity="0.6" y1="-5" x2="58.0363" y2="-5" transform="matrix(-0.952404 0.304838 0.348972 0.937133 111.293 1496.08)" stroke="#1CB0F6" stroke-width="10"/>
<g opacity="0.6">
<ellipse rx="13.5474" ry="14.4398" transform="matrix(0.300008 0.953937 -0.965352 0.260951 1178.4 158.008)" fill="#A560EB"/>
<line y1="-5" x2="60.9584" y2="-5" transform="matrix(0.710695 0.7035 -0.755072 0.655642 1224.73 6.93994)" stroke="#8EE000" stroke-width="10"/>
<ellipse rx="13.5474" ry="14.4398" transform="matrix(0.300008 0.953937 -0.965352 0.260951 1576.66 332.235)" fill="#E53B3B"/>
<path d="M1574.69 188.761C1572.29 185.688 1570.61 182.186 1569.75 178.478C1568.89 174.77 1568.88 170.937 1569.71 167.223C1570.53 163.509 1572.18 159.995 1574.56 156.905C1576.93 153.816 1579.97 151.218 1583.48 149.277C1587 147.336 1590.91 146.094 1594.97 145.632C1599.03 145.169 1603.15 145.495 1607.07 146.589C1610.98 147.683 1614.61 149.521 1617.72 151.986C1620.83 154.451 1623.35 157.489 1625.12 160.907L1616.33 164.827C1615.14 162.541 1613.46 160.509 1611.38 158.86C1609.3 157.211 1606.87 155.982 1604.25 155.25C1601.63 154.518 1598.88 154.3 1596.16 154.609C1593.44 154.919 1590.83 155.749 1588.48 157.048C1586.13 158.346 1584.09 160.084 1582.51 162.151C1580.92 164.217 1579.81 166.568 1579.26 169.052C1578.71 171.537 1578.72 174.101 1579.29 176.581C1579.86 179.061 1580.99 181.404 1582.59 183.459L1574.69 188.761Z" fill="#A560EB"/>
<path d="M1312.1 254.533C1314.94 251.808 1318.37 249.661 1322.16 248.23C1325.95 246.799 1330.01 246.114 1334.1 246.221C1338.19 246.327 1342.21 247.221 1345.91 248.846C1349.6 250.472 1352.89 252.793 1355.57 255.661C1358.25 258.53 1360.25 261.884 1361.45 265.509C1362.65 269.135 1363.02 272.952 1362.55 276.719C1362.07 280.485 1360.75 284.118 1358.68 287.387C1356.6 290.655 1353.81 293.487 1350.49 295.703L1344.79 288.362C1347.02 286.88 1348.88 284.986 1350.27 282.799C1351.65 280.613 1352.54 278.183 1352.86 275.663C1353.17 273.144 1352.92 270.59 1352.12 268.165C1351.32 265.74 1349.98 263.496 1348.19 261.577C1346.4 259.658 1344.2 258.106 1341.73 257.019C1339.25 255.931 1336.56 255.333 1333.83 255.262C1331.09 255.191 1328.37 255.649 1325.84 256.606C1323.31 257.564 1321.01 259 1319.11 260.823L1312.1 254.533Z" fill="#1CB0F6"/>
<path d="M859.829 99.3666C862.611 93.9541 866.578 89.1379 871.477 85.2246C876.377 81.3113 882.102 78.3865 888.287 76.6365C894.473 74.8865 900.983 74.3495 907.405 75.0599C913.826 75.7702 920.018 77.7123 925.586 80.7624C931.154 83.8125 935.975 87.9039 939.744 92.7761C943.513 97.6484 946.147 103.195 947.477 109.062C948.807 114.93 948.806 120.99 947.472 126.856C946.138 132.723 943.501 138.268 939.73 143.138L927.2 134.798C929.723 131.541 931.487 127.831 932.379 123.907C933.271 119.983 933.273 115.929 932.383 112.004C931.493 108.079 929.731 104.369 927.21 101.11C924.689 97.8508 921.463 95.114 917.739 93.0737C914.015 91.0334 909.873 89.7343 905.578 89.2592C901.282 88.784 896.927 89.1432 892.789 90.3138C888.652 91.4844 884.822 93.4409 881.545 96.0586C878.267 98.6763 875.614 101.898 873.753 105.519L859.829 99.3666Z" fill="#E53B3B"/>
<line y1="-5" x2="76.6103" y2="-5" transform="matrix(-0.582182 0.813058 -0.852235 -0.523159 1672.05 0)" stroke="#1CB0F6" stroke-width="10"/>
<ellipse rx="29.2116" ry="31.1358" transform="matrix(0.300008 0.953937 -0.965352 0.260951 1096.04 329.385)" fill="#8EE000"/>
</g>
<line opacity="0.6" y1="-5" x2="27.249" y2="-5" transform="matrix(-0.824897 -0.565283 0.623394 -0.781908 1832.11 283.192)" stroke="#8EE000" stroke-width="10"/>
<line opacity="0.6" y1="-5" x2="25.9779" y2="-5" transform="matrix(0.187144 -0.982332 0.986857 0.161596 1717.68 150.999)" stroke="#A560EB" stroke-width="10"/>
<line opacity="0.6" y1="-5" x2="68.3612" y2="-5" transform="matrix(0.952404 0.304838 -0.348972 0.937133 1867.77 117.603)" stroke="#1CB0F6" stroke-width="10"/>
<line opacity="0.6" y1="-5" x2="23.1334" y2="-5" transform="matrix(0.824897 -0.565283 -0.623394 -0.781908 825.062 343.694)" stroke="#8EE000" stroke-width="10"/>
<line opacity="0.6" y1="-5" x2="22.0544" y2="-5" transform="matrix(-0.187144 -0.982332 -0.986857 0.161596 922.211 231.467)" stroke="#A560EB" stroke-width="10"/>
<line opacity="0.6" y1="-5" x2="58.0363" y2="-5" transform="matrix(-0.952404 0.304838 0.348972 0.937133 794.792 203.115)" stroke="#1CB0F6" stroke-width="10"/>
<g opacity="0.6">
<ellipse rx="11.1129" ry="10.438" transform="matrix(-0.935136 0.344054 -0.395104 -0.923035 1954.77 1058.04)" fill="#A560EB"/>
<line y1="-5" x2="47.1693" y2="-5" transform="matrix(-0.685329 0.718535 -0.778801 -0.638465 2083.04 1080.04)" stroke="#8EE000" stroke-width="10"/>
<ellipse rx="11.1129" ry="10.438" transform="matrix(-0.935136 0.344054 -0.395104 -0.923035 1839.51 1353.7)" fill="#E53B3B"/>
<path d="M1958.01 1341.92C1960.37 1340 1963.15 1338.55 1966.15 1337.67C1969.16 1336.79 1972.32 1336.5 1975.46 1336.82C1978.59 1337.14 1981.61 1338.06 1984.34 1339.52C1987.06 1340.99 1989.43 1342.96 1991.29 1345.32C1993.15 1347.67 1994.46 1350.36 1995.14 1353.22C1995.81 1356.07 1995.84 1359.02 1995.22 1361.88C1994.6 1364.75 1993.34 1367.46 1991.53 1369.85C1989.71 1372.23 1987.38 1374.24 1984.69 1375.75L1980.81 1369.79C1982.61 1368.78 1984.17 1367.43 1985.39 1365.84C1986.6 1364.24 1987.44 1362.42 1987.85 1360.51C1988.27 1358.59 1988.25 1356.62 1987.8 1354.71C1987.35 1352.8 1986.47 1351 1985.23 1349.43C1983.98 1347.85 1982.4 1346.53 1980.58 1345.55C1978.75 1344.57 1976.73 1343.96 1974.63 1343.75C1972.54 1343.53 1970.42 1343.73 1968.41 1344.31C1966.4 1344.9 1964.55 1345.87 1962.96 1347.16L1958.01 1341.92Z" fill="#A560EB"/>
<path d="M1884.63 1160.05C1887.09 1161.88 1889.11 1164.15 1890.57 1166.74C1892.02 1169.33 1892.88 1172.17 1893.09 1175.09C1893.3 1178 1892.85 1180.92 1891.77 1183.67C1890.7 1186.41 1889.02 1188.92 1886.84 1191.03C1884.66 1193.14 1882.03 1194.8 1879.12 1195.92C1876.21 1197.03 1873.08 1197.58 1869.93 1197.51C1866.78 1197.44 1863.68 1196.77 1860.83 1195.53C1857.98 1194.29 1855.43 1192.52 1853.36 1190.32L1859.02 1185.74C1860.41 1187.21 1862.11 1188.39 1864.01 1189.22C1865.92 1190.05 1868 1190.5 1870.1 1190.55C1872.21 1190.59 1874.3 1190.23 1876.25 1189.48C1878.2 1188.74 1879.95 1187.62 1881.41 1186.21C1882.87 1184.8 1883.99 1183.12 1884.71 1181.29C1885.43 1179.45 1885.73 1177.5 1885.6 1175.55C1885.46 1173.6 1884.88 1171.7 1883.91 1169.97C1882.93 1168.23 1881.58 1166.71 1879.93 1165.49L1884.63 1160.05Z" fill="#1CB0F6"/>
<path d="M1980.22 827.386C1984.89 828.972 1989.16 831.443 1992.75 834.642C1996.34 837.841 1999.17 841.698 2001.07 845.968C2002.96 850.238 2003.88 854.826 2003.76 859.441C2003.63 864.057 2002.47 868.598 2000.36 872.775C1998.24 876.953 1995.2 880.676 1991.45 883.707C1987.69 886.738 1983.29 889.011 1978.54 890.381C1973.78 891.751 1968.77 892.188 1963.82 891.665C1958.88 891.141 1954.1 889.668 1949.8 887.34L1955.79 877.832C1958.67 879.389 1961.86 880.374 1965.17 880.725C1968.48 881.075 1971.83 880.782 1975.01 879.866C1978.19 878.95 1981.14 877.429 1983.65 875.402C1986.16 873.374 1988.19 870.884 1989.61 868.089C1991.03 865.295 1991.8 862.257 1991.88 859.17C1991.96 856.082 1991.35 853.013 1990.09 850.157C1988.82 847.301 1986.92 844.721 1984.52 842.581C1982.12 840.441 1979.26 838.788 1976.14 837.727L1980.22 827.386Z" fill="#E53B3B"/>
<line y1="-5" x2="60.7357" y2="-5" transform="matrix(-0.901453 -0.44725 0.496559 -0.860248 2121.13 1397.46)" stroke="#1CB0F6" stroke-width="10"/>
<ellipse rx="23.9623" ry="22.5068" transform="matrix(-0.935136 0.344054 -0.395104 -0.923035 1807.1 1011.9)" fill="#8EE000"/>
</g>
<line opacity="0.6" y1="-5" x2="20.5262" y2="-5" transform="matrix(0.541301 -0.832577 0.878696 0.491034 1898.55 1531.71)" stroke="#8EE000" stroke-width="10"/>
<line opacity="0.6" y1="-5" x2="21.4656" y2="-5" transform="matrix(0.999452 0.0749773 -0.0867217 0.993618 1999.58 1440.82)" stroke="#A560EB" stroke-width="10"/>
<line opacity="0.6" y1="-5" x2="49.6249" y2="-5" transform="matrix(-0.252331 0.962845 -0.979566 -0.220652 2038.05 1545.07)" stroke="#1CB0F6" stroke-width="10"/>
<line opacity="0.6" y1="-5" x2="17.426" y2="-5" transform="matrix(0.699725 0.724012 0.764117 -0.634747 1775.67 820.35)" stroke="#8EE000" stroke-width="10"/>
<line opacity="0.6" y1="-5" x2="18.2235" y2="-5" transform="matrix(0.966684 -0.246975 -0.285661 -0.961042 1875.5 881.278)" stroke="#A560EB" stroke-width="10"/>
<line opacity="0.6" y1="-5" x2="42.1298" y2="-5" transform="matrix(-0.442139 -0.902093 -0.917759 0.38663 1889.72 788.668)" stroke="#1CB0F6" stroke-width="10"/>
<g opacity="0.6">
<ellipse rx="11.1129" ry="10.438" transform="matrix(-0.935136 0.344054 -0.395104 -0.923035 1954.77 1058.04)" fill="#A560EB"/>
<line y1="-5" x2="47.1693" y2="-5" transform="matrix(-0.685329 0.718535 -0.778801 -0.638465 2083.04 1080.04)" stroke="#8EE000" stroke-width="10"/>
<ellipse rx="11.1129" ry="10.438" transform="matrix(-0.935136 0.344054 -0.395104 -0.923035 1839.51 1353.7)" fill="#E53B3B"/>
<path d="M1958.01 1341.92C1960.37 1340 1963.15 1338.55 1966.15 1337.67C1969.16 1336.79 1972.32 1336.5 1975.46 1336.82C1978.59 1337.14 1981.61 1338.06 1984.34 1339.52C1987.06 1340.99 1989.43 1342.96 1991.29 1345.32C1993.15 1347.67 1994.46 1350.36 1995.14 1353.22C1995.81 1356.07 1995.84 1359.02 1995.22 1361.88C1994.6 1364.75 1993.34 1367.46 1991.53 1369.85C1989.71 1372.23 1987.38 1374.24 1984.69 1375.75L1980.81 1369.79C1982.61 1368.78 1984.17 1367.43 1985.39 1365.84C1986.6 1364.24 1987.44 1362.42 1987.85 1360.51C1988.27 1358.59 1988.25 1356.62 1987.8 1354.71C1987.35 1352.8 1986.47 1351 1985.23 1349.43C1983.98 1347.85 1982.4 1346.53 1980.58 1345.55C1978.75 1344.57 1976.73 1343.96 1974.63 1343.75C1972.54 1343.53 1970.42 1343.73 1968.41 1344.31C1966.4 1344.9 1964.55 1345.87 1962.96 1347.16L1958.01 1341.92Z" fill="#A560EB"/>
<path d="M1884.63 1160.05C1887.09 1161.88 1889.11 1164.15 1890.57 1166.74C1892.02 1169.33 1892.88 1172.17 1893.09 1175.09C1893.3 1178 1892.85 1180.92 1891.77 1183.67C1890.7 1186.41 1889.02 1188.92 1886.84 1191.03C1884.66 1193.14 1882.03 1194.8 1879.12 1195.92C1876.21 1197.03 1873.08 1197.58 1869.93 1197.51C1866.78 1197.44 1863.68 1196.77 1860.83 1195.53C1857.98 1194.29 1855.43 1192.52 1853.36 1190.32L1859.02 1185.74C1860.41 1187.21 1862.11 1188.39 1864.01 1189.22C1865.92 1190.05 1868 1190.5 1870.1 1190.55C1872.21 1190.59 1874.3 1190.23 1876.25 1189.48C1878.2 1188.74 1879.95 1187.62 1881.41 1186.21C1882.87 1184.8 1883.99 1183.12 1884.71 1181.29C1885.43 1179.45 1885.73 1177.5 1885.6 1175.55C1885.46 1173.6 1884.88 1171.7 1883.91 1169.97C1882.93 1168.23 1881.58 1166.71 1879.93 1165.49L1884.63 1160.05Z" fill="#1CB0F6"/>
<path d="M1980.22 827.386C1984.89 828.972 1989.16 831.443 1992.75 834.642C1996.34 837.841 1999.17 841.698 2001.07 845.968C2002.96 850.237 2003.88 854.826 2003.76 859.441C2003.63 864.057 2002.47 868.598 2000.36 872.775C1998.24 876.953 1995.2 880.676 1991.45 883.707C1987.69 886.738 1983.29 889.011 1978.54 890.381C1973.78 891.751 1968.77 892.188 1963.82 891.665C1958.88 891.141 1954.1 889.668 1949.8 887.34L1955.79 877.832C1958.67 879.389 1961.86 880.374 1965.17 880.725C1968.48 881.075 1971.83 880.782 1975.01 879.866C1978.19 878.95 1981.14 877.429 1983.65 875.402C1986.16 873.374 1988.19 870.884 1989.61 868.089C1991.03 865.295 1991.8 862.257 1991.88 859.17C1991.96 856.082 1991.35 853.013 1990.09 850.157C1988.82 847.301 1986.92 844.721 1984.52 842.581C1982.12 840.441 1979.26 838.788 1976.14 837.727L1980.22 827.386Z" fill="#E53B3B"/>
<line y1="-5" x2="60.7357" y2="-5" transform="matrix(-0.901453 -0.44725 0.496559 -0.860248 2121.13 1397.46)" stroke="#1CB0F6" stroke-width="10"/>
<ellipse rx="23.9623" ry="22.5068" transform="matrix(-0.935136 0.344054 -0.395104 -0.923035 1807.1 1011.9)" fill="#8EE000"/>
</g>
<line opacity="0.6" y1="-5" x2="20.5262" y2="-5" transform="matrix(0.541301 -0.832577 0.878696 0.491034 1898.55 1531.71)" stroke="#8EE000" stroke-width="10"/>
<line opacity="0.6" y1="-5" x2="21.4656" y2="-5" transform="matrix(0.999452 0.0749773 -0.0867217 0.993618 1999.58 1440.82)" stroke="#A560EB" stroke-width="10"/>
<line opacity="0.6" y1="-5" x2="49.6249" y2="-5" transform="matrix(-0.252331 0.962845 -0.979566 -0.220652 2038.05 1545.07)" stroke="#1CB0F6" stroke-width="10"/>
<line opacity="0.6" y1="-5" x2="17.426" y2="-5" transform="matrix(0.699725 0.724012 0.764117 -0.634747 1775.67 820.35)" stroke="#8EE000" stroke-width="10"/>
<line opacity="0.6" y1="-5" x2="18.2235" y2="-5" transform="matrix(0.966684 -0.246975 -0.285661 -0.961042 1875.5 881.278)" stroke="#A560EB" stroke-width="10"/>
<line opacity="0.6" y1="-5" x2="42.1298" y2="-5" transform="matrix(-0.442139 -0.902093 -0.917759 0.38663 1889.72 788.668)" stroke="#1CB0F6" stroke-width="10"/>
<g opacity="0.6">
<ellipse rx="14.6726" ry="13.8248" transform="matrix(-0.934798 0.344938 -0.394123 -0.923441 268.397 521.357)" fill="#A560EB"/>
<line y1="-5" x2="62.3628" y2="-5" transform="matrix(-0.683978 0.719816 -0.777625 -0.639897 437.722 550.558)" stroke="#8EE000" stroke-width="10"/>
<ellipse rx="14.6726" ry="13.8248" transform="matrix(-0.934798 0.344938 -0.394123 -0.923441 116.402 913.022)" fill="#E53B3B"/>
<path d="M272.81 897.462C275.934 894.911 279.595 892.994 283.56 891.832C287.525 890.67 291.708 890.289 295.841 890.713C299.974 891.138 303.967 892.358 307.567 894.297C311.167 896.235 314.293 898.85 316.749 901.974C319.204 905.098 320.934 908.663 321.828 912.442C322.722 916.221 322.761 920.131 321.942 923.923C321.124 927.716 319.465 931.308 317.073 934.471C314.68 937.633 311.606 940.297 308.045 942.293L302.924 934.388C305.305 933.053 307.362 931.271 308.962 929.155C310.563 927.04 311.672 924.637 312.22 922.1C312.767 919.563 312.741 916.948 312.143 914.42C311.545 911.892 310.388 909.507 308.746 907.418C307.103 905.328 305.012 903.579 302.604 902.282C300.196 900.985 297.525 900.169 294.76 899.885C291.995 899.601 289.198 899.856 286.545 900.633C283.893 901.411 281.444 902.693 279.354 904.4L272.81 897.462Z" fill="#A560EB"/>
<path d="M175.856 656.475C179.104 658.893 181.775 661.913 183.7 665.344C185.625 668.774 186.762 672.54 187.038 676.4C187.314 680.261 186.723 684.132 185.303 687.767C183.884 691.403 181.666 694.723 178.791 697.516C175.916 700.309 172.447 702.515 168.606 703.992C164.764 705.469 160.633 706.185 156.476 706.095C152.319 706.005 148.228 705.111 144.461 703.47C140.695 701.828 137.337 699.475 134.6 696.56L142.066 690.492C143.897 692.442 146.143 694.016 148.663 695.114C151.182 696.212 153.919 696.81 156.7 696.87C159.48 696.93 162.243 696.451 164.813 695.463C167.383 694.475 169.703 693 171.626 691.131C173.549 689.263 175.033 687.042 175.983 684.61C176.933 682.178 177.328 679.589 177.143 677.007C176.958 674.424 176.198 671.905 174.91 669.611C173.623 667.316 171.836 665.296 169.663 663.678L175.856 656.475Z" fill="#1CB0F6"/>
<path d="M301.869 215.777C308.044 217.88 313.681 221.156 318.421 225.396C323.162 229.636 326.903 234.747 329.406 240.405C331.909 246.062 333.119 252.142 332.959 258.257C332.799 264.371 331.273 270.387 328.477 275.921C325.682 281.455 321.678 286.386 316.722 290.401C311.765 294.415 305.964 297.424 299.687 299.237C293.411 301.05 286.796 301.627 280.265 300.931C273.734 300.236 267.429 298.282 261.752 295.196L269.654 282.601C273.451 284.666 277.669 285.972 282.038 286.438C286.407 286.903 290.831 286.517 295.03 285.304C299.228 284.092 303.109 282.079 306.424 279.393C309.74 276.708 312.418 273.41 314.288 269.708C316.158 266.006 317.179 261.982 317.286 257.892C317.393 253.801 316.583 249.735 314.909 245.95C313.235 242.166 310.733 238.747 307.561 235.91C304.39 233.074 300.619 230.883 296.489 229.476L301.869 215.777Z" fill="#E53B3B"/>
<line y1="-5" x2="80.2523" y2="-5" transform="matrix(-0.900725 -0.448738 0.495024 -0.861141 488.168 971.115)" stroke="#1CB0F6" stroke-width="10"/>
<ellipse rx="31.6378" ry="29.8097" transform="matrix(-0.934798 0.344938 -0.394123 -0.923441 73.4508 460.165)" fill="#8EE000"/>
</g>
<line opacity="0.6" y1="-5" x2="27.1562" y2="-5" transform="matrix(0.539768 -0.833578 0.877858 0.492549 194.413 1148.88)" stroke="#8EE000" stroke-width="10"/>
<line opacity="0.6" y1="-5" x2="28.3369" y2="-5" transform="matrix(0.999415 0.0755718 -0.0860393 0.993686 327.729 1028.51)" stroke="#A560EB" stroke-width="10"/>
<line opacity="0.6" y1="-5" x2="65.719" y2="-5" transform="matrix(-0.251151 0.963167 -0.97934 -0.22171 378.565 1166.65)" stroke="#1CB0F6" stroke-width="10"/>
<line opacity="0.6" y1="-5" x2="23.0547" y2="-5" transform="matrix(0.698422 0.725261 0.762988 -0.63609 31.8628 206.369)" stroke="#8EE000" stroke-width="10"/>
<line opacity="0.6" y1="-5" x2="24.0571" y2="-5" transform="matrix(0.966528 -0.247552 -0.285004 -0.961227 163.665 287.133)" stroke="#A560EB" stroke-width="10"/>
<line opacity="0.6" y1="-5" x2="55.7932" y2="-5" transform="matrix(-0.441044 -0.902614 -0.917323 0.38763 182.398 164.443)" stroke="#1CB0F6" stroke-width="10"/>
<g opacity="0.6">
<ellipse rx="10.7365" ry="10.1292" transform="matrix(-0.93408 0.342794 -0.396648 -0.924062 635.378 416.464)" fill="#A560EB"/>
<line y1="-5" x2="45.6587" y2="-5" transform="matrix(-0.681608 0.718246 -0.77941 -0.642051 759.394 438.173)" stroke="#8EE000" stroke-width="10"/>
<ellipse rx="10.7365" ry="10.1292" transform="matrix(-0.93408 0.342794 -0.396648 -0.924062 525.012 703.015)" fill="#E53B3B"/>
<path d="M639.47 691.919C641.751 690.056 644.427 688.659 647.326 687.816C650.226 686.972 653.287 686.701 656.313 687.02C659.34 687.339 662.266 688.24 664.905 689.667C667.545 691.093 669.84 693.014 671.644 695.307C673.448 697.599 674.723 700.213 675.386 702.983C676.049 705.752 676.087 708.616 675.496 711.392C674.905 714.168 673.7 716.795 671.955 719.107C670.211 721.418 667.967 723.364 665.365 724.818L661.598 719.019C663.338 718.046 664.84 716.745 666.006 715.199C667.173 713.652 667.98 711.895 668.375 710.038C668.77 708.181 668.745 706.265 668.301 704.413C667.858 702.56 667.005 700.812 665.798 699.278C664.591 697.745 663.056 696.46 661.29 695.506C659.525 694.551 657.567 693.948 655.543 693.735C653.519 693.522 651.471 693.703 649.532 694.267C647.592 694.831 645.802 695.766 644.276 697.012L639.47 691.919Z" fill="#A560EB"/>
<path d="M567.946 515.243C570.328 517.02 572.291 519.237 573.708 521.753C575.125 524.269 575.966 527.029 576.177 529.857C576.387 532.685 575.964 535.519 574.933 538.179C573.902 540.838 572.286 543.266 570.188 545.306C568.09 547.346 565.556 548.954 562.747 550.029C559.938 551.103 556.916 551.62 553.873 551.546C550.83 551.472 547.832 550.81 545.072 549.6C542.311 548.391 539.847 546.661 537.837 544.521L543.289 540.091C544.633 541.523 546.281 542.68 548.128 543.489C549.975 544.298 551.98 544.741 554.015 544.79C556.051 544.84 558.072 544.494 559.951 543.775C561.83 543.057 563.525 541.981 564.929 540.616C566.332 539.251 567.413 537.628 568.103 535.849C568.792 534.069 569.076 532.174 568.935 530.282C568.794 528.39 568.231 526.544 567.283 524.861C566.335 523.178 565.023 521.695 563.429 520.506L567.946 515.243Z" fill="#1CB0F6"/>
<path d="M659.181 192.733C663.706 194.284 667.84 196.694 671.32 199.809C674.8 202.923 677.55 206.674 679.395 210.822C681.24 214.97 682.14 219.425 682.037 223.902C681.934 228.38 680.83 232.783 678.796 236.831C676.763 240.878 673.843 244.482 670.224 247.412C666.605 250.343 662.365 252.536 657.775 253.852C653.184 255.167 648.344 255.577 643.561 255.055C638.779 254.533 634.159 253.09 629.996 250.819L635.752 241.61C638.536 243.13 641.627 244.095 644.826 244.444C648.025 244.793 651.263 244.519 654.333 243.639C657.404 242.759 660.24 241.292 662.661 239.331C665.082 237.371 667.035 234.961 668.395 232.253C669.756 229.546 670.494 226.6 670.563 223.605C670.632 220.61 670.03 217.63 668.796 214.855C667.561 212.08 665.722 209.572 663.394 207.488C661.066 205.405 658.301 203.793 655.274 202.755L659.181 192.733Z" fill="#E53B3B"/>
<line y1="-5" x2="58.7423" y2="-5" transform="matrix(-0.902186 -0.451329 0.49207 -0.859799 797.283 746.271)" stroke="#1CB0F6" stroke-width="10"/>
<ellipse rx="23.1505" ry="21.8411" transform="matrix(-0.93408 0.342794 -0.396648 -0.924062 492.534 371.277)" fill="#8EE000"/>
</g>
<line opacity="0.6" y1="-5" x2="19.8879" y2="-5" transform="matrix(0.536918 -0.832186 0.879393 0.49507 582.656 875.901)" stroke="#8EE000" stroke-width="10"/>
<line opacity="0.6" y1="-5" x2="20.7338" y2="-5" transform="matrix(1.0001 0.0782501 -0.0828503 0.992942 679.971 787.996)" stroke="#A560EB" stroke-width="10"/>
<line opacity="0.6" y1="-5" x2="48.1491" y2="-5" transform="matrix(-0.247926 0.962136 -0.980372 -0.224448 717.499 889.262)" stroke="#1CB0F6" stroke-width="10"/>
<line opacity="0.6" y1="-5" x2="16.8841" y2="-5" transform="matrix(0.70037 0.727096 0.760996 -0.634397 461.509 185.326)" stroke="#8EE000" stroke-width="10"/>
<line opacity="0.6" y1="-5" x2="17.6023" y2="-5" transform="matrix(0.96619 -0.245258 -0.287722 -0.961467 558.175 244.727)" stroke="#A560EB" stroke-width="10"/>
<line opacity="0.6" y1="-5" x2="40.8769" y2="-5" transform="matrix(-0.443483 -0.903411 -0.916429 0.385554 571.608 154.909)" stroke="#1CB0F6" stroke-width="10"/>
<g opacity="0.6">
<ellipse rx="14.143" ry="13.0046" transform="matrix(-0.936817 0.335629 -0.404727 -0.920706 2232.17 501.752)" fill="#A560EB"/>
<line y1="-5" x2="59.4905" y2="-5" transform="matrix(-0.692612 0.707703 -0.788925 -0.630315 2395.73 529.139)" stroke="#8EE000" stroke-width="10"/>
<ellipse rx="14.143" ry="13.0046" transform="matrix(-0.936817 0.335629 -0.404727 -0.920706 2085.34 869.09)" fill="#E53B3B"/>
<path d="M2236.43 854.497C2239.45 852.104 2242.98 850.306 2246.81 849.216C2250.64 848.126 2254.68 847.769 2258.68 848.167C2262.67 848.565 2266.53 849.71 2270 851.528C2273.48 853.346 2276.5 855.798 2278.87 858.728C2281.24 861.658 2282.91 865.002 2283.78 868.546C2284.64 872.09 2284.68 875.758 2283.89 879.315C2283.1 882.872 2281.5 886.241 2279.19 889.207C2276.87 892.173 2273.9 894.672 2270.46 896.543L2265.52 889.129C2267.82 887.877 2269.8 886.206 2271.35 884.222C2272.9 882.238 2273.97 879.984 2274.5 877.605C2275.03 875.225 2275 872.772 2274.42 870.401C2273.85 868.03 2272.73 865.794 2271.14 863.834C2269.55 861.874 2267.53 860.234 2265.21 859.018C2262.88 857.801 2260.3 857.036 2257.63 856.769C2254.96 856.503 2252.26 856.742 2249.7 857.471C2247.13 858.2 2244.77 859.403 2242.75 861.003L2236.43 854.497Z" fill="#A560EB"/>
<path d="M2142.77 628.477C2145.91 630.745 2148.49 633.578 2150.35 636.796C2152.21 640.013 2153.31 643.544 2153.57 647.165C2153.84 650.786 2153.27 654.417 2151.9 657.826C2150.53 661.236 2148.38 664.35 2145.61 666.97C2142.83 669.589 2139.48 671.658 2135.77 673.043C2132.06 674.428 2128.07 675.1 2124.05 675.016C2120.04 674.932 2116.08 674.093 2112.44 672.553C2108.81 671.014 2105.56 668.807 2102.92 666.073L2110.13 660.382C2111.9 662.21 2114.07 663.687 2116.5 664.716C2118.94 665.746 2121.58 666.307 2124.27 666.364C2126.95 666.42 2129.62 665.971 2132.1 665.044C2134.59 664.117 2136.83 662.734 2138.69 660.981C2140.54 659.229 2141.98 657.146 2142.89 654.865C2143.81 652.585 2144.19 650.156 2144.01 647.734C2143.84 645.312 2143.1 642.95 2141.86 640.797C2140.61 638.645 2138.89 636.75 2136.79 635.233L2142.77 628.477Z" fill="#1CB0F6"/>
<path d="M2264.5 215.151C2270.46 217.124 2275.91 220.196 2280.49 224.173C2285.07 228.15 2288.68 232.944 2291.1 238.25C2293.52 243.556 2294.69 249.258 2294.53 254.993C2294.38 260.727 2292.9 266.37 2290.2 271.56C2287.5 276.75 2283.63 281.375 2278.85 285.14C2274.06 288.905 2268.45 291.727 2262.39 293.428C2256.33 295.128 2249.94 295.669 2243.63 295.017C2237.32 294.364 2231.23 292.532 2225.75 289.637L2233.38 277.825C2237.05 279.761 2241.12 280.987 2245.34 281.423C2249.56 281.86 2253.84 281.498 2257.89 280.36C2261.95 279.223 2265.7 277.335 2268.9 274.816C2272.1 272.298 2274.69 269.204 2276.5 265.732C2278.3 262.261 2279.29 258.486 2279.39 254.65C2279.49 250.814 2278.71 247 2277.1 243.45C2275.48 239.901 2273.06 236.694 2270 234.034C2266.93 231.374 2263.29 229.319 2259.3 228L2264.5 215.151Z" fill="#E53B3B"/>
<line y1="-5" x2="76.9003" y2="-5" transform="matrix(-0.908012 -0.439212 0.504657 -0.852367 2444.46 923.575)" stroke="#1CB0F6" stroke-width="10"/>
<ellipse rx="30.4957" ry="28.0412" transform="matrix(-0.936817 0.335629 -0.404727 -0.920706 2043.85 444.36)" fill="#8EE000"/>
</g>
<line opacity="0.6" y1="-5" x2="25.7694" y2="-5" transform="matrix(0.549467 -0.823877 0.886114 0.482722 2160.7 1090.3)" stroke="#8EE000" stroke-width="10"/>
<line opacity="0.6" y1="-5" x2="27.3467" y2="-5" transform="matrix(1.00038 0.0734445 -0.0884974 0.99235 2289.48 977.403)" stroke="#A560EB" stroke-width="10"/>
<line opacity="0.6" y1="-5" x2="61.8781" y2="-5" transform="matrix(-0.257667 0.959417 -0.98215 -0.21588 2338.59 1106.96)" stroke="#1CB0F6" stroke-width="10"/>
<line opacity="0.6" y1="-5" x2="21.8774" y2="-5" transform="matrix(0.710971 0.716821 0.770165 -0.623399 2003.68 206.327)" stroke="#8EE000" stroke-width="10"/>
<line opacity="0.6" y1="-5" x2="23.2164" y2="-5" transform="matrix(0.967457 -0.240584 -0.293146 -0.959935 2131 282.075)" stroke="#A560EB" stroke-width="10"/>
<line opacity="0.6" y1="-5" x2="52.5324" y2="-5" transform="matrix(-0.452487 -0.8991 -0.919956 0.377436 2149.09 167.005)" stroke="#1CB0F6" stroke-width="10"/>
</g>
</svg>
