<svg width="191" height="116" viewBox="0 0 191 116" fill="none" xmlns="http://www.w3.org/2000/svg">
<path d="M182.238 95.5758C198.455 98.2444 187.798 94.4638 180.442 92.24L146.827 82.4891L97.0468 86.8513L91.9148 98.655C94.3953 100.28 102.128 105.121 113.213 111.485C124.298 117.849 108.594 102.675 99.3562 94.2928L139.129 85.0551L157.091 88.391C162.822 90.3582 175.721 94.806 181.468 96.8588C187.216 98.9116 181.811 96.0034 178.389 94.2928L182.238 95.5758Z" fill="#373737"/>
<path d="M141.439 77.6379C150.676 79.4854 177.79 89.1849 190.193 93.8037L146.827 87.1321C138 92.2641 129.464 91.4943 126.299 90.4679C117.883 95.1893 107.91 94.3169 103.975 93.2905C98.4324 100.681 87.1249 103.555 82.164 104.068C73.7475 111.458 60.3529 113.305 54.7077 113.305C5.44037 115.871 0.564957 60.4456 1.59137 48.8986C2.61777 37.3516 4.41397 30.9366 6.21017 19.1329C7.64714 9.69002 14.8491 6.13182 18.2704 5.53309C22.1707 3.48029 27.2514 1.94068 29.3042 1.42748C50.4481 -0.830604 62.0636 11.0928 65.2283 17.3367C99.6128 27.3441 102.692 54.2872 103.975 54.5438C105.001 54.7491 119.799 67.6304 127.069 74.0455C137.077 72.5059 138.36 77.022 141.439 77.6379Z" fill="#8EE000"/>
<path d="M77.5452 96.089C86.5775 91.9834 98.9286 92.6677 103.975 93.523C97.4061 103.171 86.6973 104.386 82.164 103.787C46.4452 135.195 -7.38965 98.1418 2.10458 45.7953C25.4552 116.874 66.2547 101.221 77.5452 96.089Z" fill="#7AC70C"/>
<path d="M96.5957 50.9272C123.077 58.3173 107.63 47.848 96.5957 41.6896L54 54.263C176.559 133.504 160.605 100.855 111.605 74.3942C164.603 95.2823 140.647 74.1767 99.4675 59.7783C150.39 75.7811 119.895 61.0157 96.5957 50.9272Z" fill="#373737"/>
<ellipse rx="5.13201" ry="4.36221" transform="matrix(-1 0 0 1 33.6664 24.4973)" fill="#BFF199"/>
<ellipse rx="4.61881" ry="4.36221" transform="matrix(-1 0 0 1 33.6665 23.471)" fill="#373737"/>
<path d="M29.5477 23.471C29.5477 25.5775 31.3644 27.3332 33.6665 27.3332C35.9685 27.3332 37.7853 25.5775 37.7853 23.471C37.7853 21.3645 35.9685 19.6088 33.6665 19.6088C31.3644 19.6088 29.5477 21.3645 29.5477 23.471Z" stroke="#321F00" stroke-opacity="0.56"/>
<path d="M35.9759 21.9314C36.5917 21.5208 35.2061 20.905 34.4363 20.6484C33.9231 20.4565 32.6401 20.6484 32.6401 21.4182C32.6401 22.188 33.1533 21.6748 34.1797 21.9314C35.2061 22.188 35.2061 22.4446 35.9759 21.9314Z" fill="white" stroke="#2A2526" stroke-opacity="0.59" stroke-width="0.5"/>
<path d="M25.8271 24.4974C26.4816 21.9314 22.11 15.0031 17.3593 12.4371L12.352 12.9503C13.0363 13.9767 13.9082 17.8771 14.9346 20.1352C16.2176 22.9578 25.1249 27.2504 25.8271 24.4974Z" fill="#DEAC5F" fill-opacity="0.77"/>
<path d="M13.9082 7.56168L19.5534 16.2861C27.9699 26.9607 22.7181 23.4709 19.0402 20.3917C13.9082 16.8848 3.28491 9.4092 1.84795 7.56168C0.0517426 5.25228 2.10455 4.99567 4.67055 5.25228C6.72336 5.45756 11.6843 6.87741 13.9082 7.56168Z" fill="#A86425" stroke="#864E1B" stroke-width="2"/>
<path d="M23.9156 22.9578C19.6389 18.3389 9.23806 8.38284 1.84797 5.50891" stroke="#864E1B" stroke-width="2"/>
<path d="M43.7785 15.7901C43.7785 15.7901 48.1422 7.66378 44.6918 2.6864C53.9468 4.88051 58.6961 12.3364 59.9138 15.7901C80.3113 20.0564 93.7066 35.9028 99.4909 45.6544C105.275 55.406 102.535 60.8913 86.0956 66.986C69.6559 73.0808 42.8015 63.2706 34.9498 55.406C27.098 47.5414 27.9477 45.3497 31.9054 40.1691C35.8631 34.9886 44.28 35.2933 41.6475 28.8938C39.0149 22.4944 43.7785 15.7901 43.7785 15.7901Z" fill="#7AC70C" fill-opacity="0.6"/>
<path d="M49.8462 17.0574C49.8462 17.0574 53.8852 9.54308 50.6916 4.94055C59.2579 6.96942 63.6538 13.8638 64.7809 17.0574C83.6607 21.0024 96.0593 35.6554 101.413 44.6725C106.767 53.6897 104.231 58.7619 89.0146 64.3976C73.7981 70.0334 45.0558 58.4801 41.6744 53.6897C38.2929 48.8994 35.1933 44.3908 38.8565 39.6004C42.5197 34.81 50.3103 35.0918 47.8737 29.1742C45.4371 23.2567 49.8462 17.0574 49.8462 17.0574Z" fill="#7AC70C"/>
<path d="M30.0741 1.40329C25.5579 2.42969 22.1195 4.9957 23.4025 6.0221C24.6855 7.0485 32.1269 11.6673 37.7721 15.2597C43.4434 18.8687 41.6211 14.7465 52.6549 17.5691C56.9102 18.6577 57.7869 11.1541 53.9379 6.5353C50.0889 1.91649 35.7193 0.120286 30.0741 1.40329Z" fill="#373737" stroke="#373737"/>
</svg>
