<svg width="40" height="40" viewBox="0 0 30 30" fill="none" xmlns="http://www.w3.org/2000/svg">
<path d="M2.83329 4.24996H1.41663V14.1666C1.41663 14.9458 2.05413 15.5833 2.83329 15.5833H12.75V14.1666H2.83329V4.24996ZM14.1666 1.41663H5.66663C4.88746 1.41663 4.24996 2.05413 4.24996 2.83329V11.3333C4.24996 12.1125 4.88746 12.75 5.66663 12.75H14.1666C14.9458 12.75 15.5833 12.1125 15.5833 11.3333V2.83329C15.5833 2.05413 14.9458 1.41663 14.1666 1.41663ZM13.4583 7.79163H10.625V10.625H9.20829V7.79163H6.37496V6.37496H9.20829V3.54163H10.625V6.37496H13.4583V7.79163Z" fill="#757575"/>
</svg>
