<svg width="127" height="165" viewBox="0 0 127 165" fill="none" xmlns="http://www.w3.org/2000/svg">
<path fill-rule="evenodd" clip-rule="evenodd" d="M57.0576 81.2509C61.3888 75.172 60.9055 68.7698 57.9022 57.2534C51.9625 34.4772 54.3276 21.9935 74.8038 7.21373L84.7978 0L87.215 12.0862C89.7839 24.9308 94.0027 32.8752 104.835 48.1564C105.265 48.7634 105.265 48.7634 105.698 49.3731C121.301 71.3863 127 84.6565 127 108.755C127 137.99 97.446 164.239 63.5903 164.239C29.7328 164.239 0.180608 137.993 0.180608 108.755C0.180608 108.209 0.181168 108.225 0.0885732 105.81C-0.627605 87.1309 2.82645 72.5115 16.8024 56.7264C19.7553 53.3913 23.1118 50.1858 26.889 47.1186L35.2273 40.3477L39.2383 50.3118C42.202 57.6744 45.6747 63.4621 49.5974 67.7093C52.9199 71.3066 55.3846 75.8302 57.0576 81.2509Z" fill="#D33131"/>
</svg>
