<svg width="364" height="385" viewBox="50 70 300 300" fill="none" xmlns="http://www.w3.org/2000/svg">
<g filter="url(#filter0_d)">
<path d="M207.855 283.841C165.824 272.044 184.672 241.674 193.57 236.711L229.625 185.201C229.691 185.1 229.758 185.003 229.829 184.91L229.625 185.201C225.893 190.919 230.452 206.935 273.218 212.049C311.768 216.659 313.787 260.999 313.787 260.999C313.787 260.999 315.416 287.513 324.021 296.988C315.577 299.72 296.717 299.822 288.827 278.378C280.938 256.935 257.774 249.083 247.179 247.837C285.907 292.813 260.923 320.802 260.923 320.802C260.923 320.802 249.887 295.637 207.855 283.841Z" fill="#D33131"/>
<path d="M257.285 227.185C255.829 199.745 235.009 204.924 230.824 209.241L195.303 225.712C199.131 224.362 206.483 227.7 205.273 251.844C204.064 275.987 229.299 285.835 229.299 285.835C229.299 285.835 245.046 292.106 249.595 299.135C252.375 294.642 254.97 283.407 243.117 274.414C231.265 265.42 229.648 250.028 230.322 243.456C252.202 275.555 272.413 266.24 272.413 266.24C272.413 266.24 258.742 254.625 257.285 227.185Z" fill="#FF9400"/>
<path d="M214.815 262.329C200.676 268.649 182.129 222.499 186.034 220.402L207.016 199.427C206.053 202.61 210.151 211.61 234.25 222.143C258.35 232.677 270.804 262.786 270.804 262.786C270.804 262.786 278.701 281.635 286.217 289.619C281.992 290.222 270.986 287.36 260.754 271.092C250.522 254.825 234.915 245.715 228.39 243.193C241.465 264.866 227.897 278.156 227.897 278.156C227.897 278.156 228.955 256.008 214.815 262.329Z" fill="#FFC300"/>
<path d="M93.6076 147.03C93.1442 145.051 95.8092 143.987 97.2111 145.591L161.995 219.703C162.871 220.705 162.55 222.144 161.341 222.627L117.972 239.951C116.764 240.434 115.312 239.703 115.022 238.466L93.6076 147.03Z" fill="#003160"/>
<path d="M153.145 99.712C151.86 98.0155 153.459 95.6291 155.307 96.4882L240.691 136.199C241.845 136.736 242.26 138.301 241.536 139.381L215.588 178.088C214.863 179.168 213.385 179.189 212.582 178.13L153.145 99.712Z" fill="#003160"/>
<rect x="79.0909" y="130.829" width="82.3845" height="134.375" transform="rotate(-39.5755 79.0909 130.829)" fill="#1CB0F6"/>
<path d="M73.4278 68.3258C73.0368 63.4791 77.5848 59.72 82.2713 61.0163L139.477 76.8393C144.934 78.3486 146.435 85.3746 142.071 88.9815L89.6377 132.32C85.2738 135.927 78.6559 133.131 78.2007 127.488L73.4278 68.3258Z" fill="#D33131"/>
<path d="M165.705 172.219C180.487 160.001 182.426 137.992 170.089 123.066C157.752 108.14 135.771 105.901 120.989 118.119C106.208 130.337 104.269 152.346 116.606 167.272C128.943 182.198 150.924 184.437 165.705 172.219Z" fill="#CFCFCF" stroke="#DEDEDE" stroke-width="3"/>
<mask id="mask0" mask-type="alpha" maskUnits="userSpaceOnUse" x="96" y="98" width="95" height="95">
<ellipse cx="143.347" cy="145.169" rx="33.1937" ry="33.5937" transform="rotate(-39.5755 143.347 145.169)" fill="#C4C4C4"/>
</mask>
<g mask="url(#mask0)">
<path d="M233.502 119.375C242.023 114.41 235.648 116.735 231.396 118.519L212.12 126.86L190.763 147.909L192.902 155.33C194.671 155.133 200.098 154.417 207.658 153.122C215.218 151.828 202.154 150.813 194.676 150.468L209.541 130.99L219.124 125.666C222.527 124.385 230.193 121.511 233.636 120.263C237.079 119.015 233.467 119.736 231.231 120.253L233.502 119.375Z" fill="#373737"/>
<path d="M207.773 126.676C212.752 123.999 229.001 118.119 236.504 115.514L213.895 129.007C211.775 134.755 207.532 137.663 205.676 138.398C203.588 143.799 198.642 147.209 196.43 148.238C196.691 153.775 192.56 159.427 190.462 161.561C189.394 168.197 183.905 174.172 181.294 176.33C159.488 196.352 136.043 172.58 132.104 166.847C128.164 161.114 126.542 157.46 122.861 151.314C119.915 146.397 121.886 141.998 123.24 140.413C124.259 137.972 126.02 135.318 126.773 134.296C135.69 125.168 145.62 126.242 149.471 127.92C169.201 119.404 180.925 130.689 181.617 130.317C182.17 130.019 193.939 130.32 199.754 130.508C203.794 125.97 206.114 127.568 207.773 126.676Z" fill="#FFC300"/>
<path d="M185.275 159.637C187.883 154.285 193.857 149.879 196.518 148.346C197.169 155.32 192.68 159.975 190.354 161.431C185.841 189.614 146.775 193.057 131.155 165.216C169.128 189.164 182.015 166.327 185.275 159.637Z" fill="#FFB020"/>
<path d="M176.821 131.465C191.894 124.76 180.747 125.823 173.289 127.193L158.395 149.293C245.375 139.089 225.514 130.087 192.734 136.581C225.233 125.982 206.084 125.378 181.533 134.461C211.204 122.395 191.454 127.224 176.821 131.465Z" fill="#373737"/>
<ellipse rx="3.07956" ry="2.61762" transform="matrix(-0.770786 0.637095 0.637095 0.770786 137.611 143.299)" fill="#FFF277"/>
<ellipse rx="2.7716" ry="2.61762" transform="matrix(-0.770786 0.637095 0.637095 0.770786 137.218 142.824)" fill="#373737"/>
<path d="M135.467 144.271C136.195 145.152 137.579 145.273 138.567 144.456C139.555 143.64 139.697 142.258 138.969 141.377C138.241 140.496 136.857 140.375 135.869 141.192C134.881 142.008 134.739 143.39 135.467 144.271Z" stroke="#321F00" stroke-opacity="0.56"/>
<path d="M137.698 141.229C137.826 140.804 136.949 141.049 136.495 141.224C136.184 141.332 135.664 141.911 135.959 142.267C136.253 142.623 136.294 142.189 136.867 141.916C137.44 141.642 137.538 141.761 137.698 141.229Z" fill="white" stroke="#2A2526" stroke-opacity="0.59" stroke-width="0.5"/>
<path d="M133.927 146.287C133.249 144.85 128.578 143.317 125.4 143.946L126.283 145.452C126.992 145.665 125.884 147.782 127.222 148.434C128.894 149.249 134.655 147.829 133.927 146.287Z" fill="#DEAC5F" fill-opacity="0.77"/>
<path d="M122.019 147.399L127.724 145.268C135.88 145.124 132.305 146.366 129.499 147.004C125.96 148.182 118.531 150.542 117.126 150.558C115.371 150.577 115.865 149.943 117.183 149.131C118.589 148.265 120.516 147.914 122.019 147.399Z" fill="#A86425" stroke="#864E1B" stroke-width="2"/>
<path d="M121.997 143.019L127.976 144.496C135.949 146.215 131.596 145.851 128.718 145.833C127.47 145.825 121.447 144.75 115.995 146.95C114.367 147.608 115.557 146.345 116.842 145.482C117.87 144.793 120.707 143.553 121.997 143.019Z" fill="#A86425" stroke="#864E1B" stroke-width="2"/>
<path d="M138.959 135.405C138.959 135.405 137.87 129.979 134.372 128.996C139.491 126.472 144.538 128.105 146.422 129.237C157.487 123.412 169.741 125.621 176.144 127.92C182.548 130.219 183.377 133.803 178.104 142.907C172.83 152.011 156.659 157.74 150.02 157.104C143.382 156.468 142.937 155.13 142.787 151.22C142.637 147.311 146.647 144.234 142.983 142.281C139.318 140.327 138.959 135.405 138.959 135.405Z" fill="#FF9400" fill-opacity="0.6"/>
<path d="M142.25 133.672C142.25 133.672 141.245 128.652 138.008 127.745C142.746 125.408 147.415 126.916 149.157 127.963C159.398 122.569 170.734 124.607 176.658 126.731C182.582 128.854 183.348 132.17 178.464 140.594C173.581 149.018 155.87 154.662 152.475 153.739C149.079 152.817 145.922 151.916 145.785 148.3C145.648 144.684 149.359 141.836 145.97 140.03C142.58 138.225 142.25 133.672 142.25 133.672Z" fill="#FF9400"/>
<path d="M127.12 133.991C125.424 136.192 124.814 138.693 125.8 138.677C126.786 138.662 131.994 137.953 135.978 137.457C139.981 136.958 137.562 135.748 143.745 132.835C146.129 131.712 143.666 127.906 140.12 127.241C136.574 126.576 129.241 131.239 127.12 133.991Z" fill="#373737" stroke="#373737"/>
<line x1="152.247" y1="142.629" x2="183.136" y2="152.38" stroke="white" stroke-opacity="0.6" stroke-width="4"/>
<line x1="162.245" y1="154.787" x2="193.134" y2="164.538" stroke="white" stroke-opacity="0.6" stroke-width="2"/>
<line x1="161.898" y1="136.728" x2="192.787" y2="146.479" stroke="white" stroke-opacity="0.6" stroke-width="4"/>
</g>
<path d="M164.7 234.403L228.201 181.917L241.224 203.322L183.272 251.222L164.7 234.403Z" fill="#003160"/>
</g>
<defs>
<filter id="filter0_d" x="40.324" y="36.2306" width="305.156" height="325.166" filterUnits="userSpaceOnUse" color-interpolation-filters="sRGB">
<feFlood flood-opacity="0" result="BackgroundImageFix"/>
<feColorMatrix in="SourceAlpha" type="matrix" values="0 0 0 0 0 0 0 0 0 0 0 0 0 0 0 0 0 0 127 0"/>
<feOffset dy="4"/>
<feGaussianBlur stdDeviation="2"/>
<feColorMatrix type="matrix" values="0 0 0 0 0 0 0 0 0 0 0 0 0 0 0 0 0 0 0.25 0"/>
<feBlend mode="normal" in2="BackgroundImageFix" result="effect1_dropShadow"/>
<feBlend mode="normal" in="SourceGraphic" in2="effect1_dropShadow" result="shape"/>
</filter>
</defs>
</svg>
