<svg width="465" height="591" viewBox="0 0 465 591" fill="none" xmlns="http://www.w3.org/2000/svg">
<path d="M376.162 242.432L385.938 240.979C385.553 242.233 385.598 243.702 386.393 245.149C387.272 246.723 388.886 247.794 390.546 247.853C393.793 247.956 395.897 244.691 394.732 241.39C393.895 239.021 391.494 237.609 389.219 237.947L377.956 239.62L376.265 239.86C376.804 238.41 375.184 238.113 374.913 238.281C374.517 239.605 373.584 240.402 373.307 240.573C373.03 240.745 373.593 242.35 373.593 242.35C373.823 242.877 373.823 242.722 376.162 242.432Z" fill="#BCE9FF"/>
<path d="M382.427 235.318C380.151 231.328 376.023 233.942 376.829 236.14L374.922 234.716C374.748 234.125 375.12 233.41 375.513 233.117C380.788 229.185 383.629 233.701 383.534 235.25L382.427 235.318Z" fill="#BCE9FF"/>
<path d="M376.881 235.891C378.047 237.776 376.996 239.729 376.305 239.939L374.74 238.736C375.466 236.723 374.481 234.335 375.126 233.718L376.65 234C376.681 234 376.714 234.005 376.749 234.018L376.65 234C376.295 234.006 376.254 234.878 376.881 235.891Z" fill="#BCE9FF"/>
<path d="M353.328 254.948L358.025 260.403C357.103 260.653 356.216 261.253 355.634 262.305C355.006 263.458 354.974 264.869 355.584 265.914C356.783 267.953 359.612 267.979 361.192 265.979C362.325 264.542 362.261 262.514 361.168 261.244L355.757 254.959L354.952 254.011C356.055 253.779 355.608 252.666 355.399 252.564C354.429 252.835 353.576 252.571 353.362 252.467C353.149 252.363 352.379 253.334 352.379 253.334C352.144 253.68 352.24 253.62 353.328 254.948Z" fill="#BCE9FF"/>
<path d="M360.146 256.039C361.717 253.086 358.502 251.561 357.462 252.911L357.597 251.184C357.894 250.846 358.479 250.797 358.812 250.925C363.285 252.645 361.609 256.15 360.618 256.695L360.146 256.039Z" fill="#BCE9FF"/>
<path d="M357.635 252.846C356.928 254.297 355.317 254.41 354.919 254.066L355.051 252.634C356.573 252.298 357.661 250.763 358.291 250.921L358.71 251.969C358.723 251.988 358.732 252.01 358.737 252.037L358.71 251.969C358.569 251.752 358.016 252.066 357.635 252.846Z" fill="#BCE9FF"/>
<path d="M379.617 273.988L393.516 281.285C391.847 282.531 390.529 284.458 390.192 287.059C389.844 289.902 390.912 292.788 392.986 294.419C397.053 297.592 402.81 295.377 404.41 290.053C405.556 286.229 403.8 282.168 400.565 280.47L384.552 272.063L382.159 270.787C384.209 269.432 382.41 267.532 381.904 267.493C380.155 268.821 378.213 268.969 377.697 268.93C377.181 268.89 376.398 271.476 376.398 271.476C376.199 272.366 376.344 272.168 379.617 273.988Z" fill="#BCE9FF"/>
<path d="M394.318 270.734C395.137 263.484 387.394 262.97 386.368 266.543L385.256 262.93C385.587 262.009 386.733 261.44 387.512 261.433C397.962 261.334 397.375 269.786 395.801 271.685L394.318 270.734Z" fill="#BCE9FF"/>
<path d="M386.667 266.272C386.396 269.783 383.219 271.302 382.136 270.925L381.256 267.915C384.073 266.013 385.048 262.028 386.453 261.842L388.143 263.631C388.183 263.659 388.22 263.697 388.252 263.746L388.143 263.631C387.682 263.305 386.813 264.386 386.667 266.272Z" fill="#BCE9FF"/>
<path d="M417.891 258.473L443.5 263.867C441.388 266.623 440.149 270.313 440.79 274.637C441.523 279.356 444.545 283.5 448.612 285.174C456.577 288.419 464.807 282.25 464.955 272.983C465.058 266.329 460.397 260.614 454.437 259.358L424.934 253.144L420.515 252.183C423.188 249.08 419.44 246.849 418.611 247.016C416.409 249.94 413.36 251.06 412.515 251.23C411.669 251.401 411.587 255.905 411.587 255.905C411.673 257.423 411.816 257.04 417.891 258.473Z" fill="#BCE9FF"/>
<path d="M439.995 246.579C438.017 234.577 425.363 237.268 425.34 243.465L421.916 238.175C422.028 236.547 423.609 235.114 424.855 234.749C441.572 229.845 444.468 243.67 442.806 247.43L439.995 246.579Z" fill="#BCE9FF"/>
<path d="M425.697 242.895C426.856 248.649 422.451 252.529 420.541 252.415L417.763 247.986C421.418 243.658 421.172 236.822 423.341 235.886L426.866 237.988C426.942 238.015 427.018 238.06 427.093 238.124L426.866 237.988C425.978 237.675 425.074 239.803 425.697 242.895Z" fill="#BCE9FF"/>
<path d="M251.737 370.093L256.476 378.767C255.166 378.838 253.803 379.388 252.719 380.633C251.545 382.002 251.097 383.887 251.615 385.465C252.639 388.547 256.429 389.395 259.125 387.163C261.06 385.559 261.557 382.818 260.454 380.799L254.995 370.807L254.186 369.302C255.733 369.308 255.454 367.685 255.202 367.488C253.822 367.573 252.753 366.973 252.496 366.773C252.24 366.572 250.927 367.654 250.927 367.654C250.512 368.051 250.657 367.998 251.737 370.093Z" fill="#BCE9FF"/>
<path d="M260.577 373.518C263.536 370.004 259.657 367.032 257.873 368.547L258.551 366.266C259.046 365.898 259.845 366 260.255 366.268C265.766 369.863 262.509 374.087 261.022 374.533L260.577 373.518Z" fill="#BCE9FF"/>
<path d="M258.124 368.51C256.757 370.255 254.562 369.943 254.126 369.367L254.715 367.482C256.855 367.469 258.756 365.72 259.557 366.113L259.819 367.641C259.83 367.669 259.836 367.702 259.836 367.739L259.819 367.641C259.691 367.309 258.859 367.572 258.124 368.51Z" fill="#BCE9FF"/>
<path d="M231.949 362.494L234.389 369.267C233.439 369.171 232.396 369.414 231.477 370.19C230.479 371.043 229.946 372.35 230.142 373.543C230.535 375.876 233.168 376.91 235.358 375.605C236.93 374.667 237.593 372.75 237.025 371.174L234.214 363.372L233.8 362.199C234.913 362.376 234.893 361.176 234.734 361.006C233.731 360.914 233.028 360.362 232.866 360.189C232.704 360.016 231.638 360.648 231.638 360.648C231.295 360.888 231.406 360.866 231.949 362.494Z" fill="#BCE9FF"/>
<path d="M237.928 365.947C240.45 363.749 237.991 361.177 236.538 362.068L237.28 360.502C237.678 360.292 238.241 360.455 238.507 360.694C242.071 363.897 239.255 366.573 238.135 366.728L237.928 365.947Z" fill="#BCE9FF"/>
<path d="M236.722 362.069C235.544 363.172 233.999 362.702 233.749 362.239L234.384 360.948C235.925 361.178 237.489 360.132 238.022 360.504L238.04 361.633C238.044 361.654 238.045 361.679 238.041 361.706L238.04 361.633C237.985 361.38 237.356 361.476 236.722 362.069Z" fill="#BCE9FF"/>
<path d="M225.098 388.093L223.048 403.658C221.302 402.521 219.038 401.949 216.481 402.531C213.693 403.186 211.353 405.184 210.538 407.693C208.964 412.606 213.031 417.245 218.58 416.908C222.564 416.664 225.769 413.615 226.246 409.992L228.608 392.061L228.98 389.374C230.959 390.831 232.121 388.486 231.983 387.998C230.134 386.815 229.324 385.043 229.183 384.546C229.042 384.048 226.345 384.205 226.345 384.205C225.441 384.326 225.676 384.394 225.098 388.093Z" fill="#BCE9FF"/>
<path d="M233.227 400.768C240.314 399.034 238.124 391.589 234.416 391.86L237.423 389.569C238.402 389.562 239.331 390.441 239.607 391.17C243.307 400.943 235.172 403.309 232.847 402.488L233.227 400.768Z" fill="#BCE9FF"/>
<path d="M234.773 392.047C231.385 393.004 228.862 390.548 228.843 389.4L231.364 387.535C234.121 389.523 238.198 389.062 238.857 390.316L237.762 392.521C237.749 392.568 237.726 392.615 237.691 392.663L237.762 392.521C237.909 391.976 236.594 391.532 234.773 392.047Z" fill="#BCE9FF"/>
<path d="M251.087 414.794L254.865 440.691C251.549 439.661 247.658 439.771 243.821 441.866C239.646 444.182 236.799 448.449 236.632 452.844C236.337 461.44 244.967 467.034 253.715 463.974C259.996 461.774 263.751 455.427 262.872 449.399L258.519 419.565L257.896 415.086C261.731 416.524 262.531 412.236 262.088 411.515C258.584 410.458 256.48 407.983 256.028 407.249C255.577 406.514 251.321 407.992 251.321 407.992C249.926 408.596 250.335 408.598 251.087 414.794Z" fill="#BCE9FF"/>
<path d="M269.88 431.434C280.462 425.434 273.568 414.487 267.744 416.605L271.526 411.565C273.094 411.108 274.984 412.097 275.757 413.141C286.13 427.137 274.154 434.627 270.052 434.366L269.88 431.434Z" fill="#BCE9FF"/>
<path d="M268.402 416.743C263.402 419.817 258.239 417.022 257.688 415.191L260.885 411.054C266.209 412.99 272.54 410.4 274.167 412.113L273.411 416.146C273.412 416.227 273.396 416.314 273.362 416.406L273.411 416.146C273.398 415.205 271.089 415.091 268.402 416.743Z" fill="#BCE9FF"/>
<path d="M330.277 420.205C269.549 409.186 292.043 363.935 303.907 355.766L347.813 278.473C347.892 278.323 347.975 278.177 348.061 278.036L347.813 278.473C343.319 287.018 351.865 308.956 412.739 310.472C467.613 311.839 476.345 373.981 476.345 373.981C476.345 373.981 482.162 411.084 495.533 423.277C484.01 428.244 457.476 430.893 443.523 401.759C429.569 372.624 395.922 364.65 380.843 364.304C441.33 422.464 409.883 465.18 409.883 465.18C409.883 465.18 391.005 431.225 330.277 420.205Z" fill="#D33131"/>
<path d="M392.324 333.892C386.628 295.463 358.011 305.518 352.696 312.152L304.886 340.054C310.094 337.646 320.886 341.367 322.391 375.511C323.896 409.655 360.724 420.164 360.724 420.164C360.724 420.164 383.722 426.899 391.06 436.187C394.375 429.494 396.535 413.335 378.657 402.252C360.779 391.168 356.459 369.717 356.534 360.378C391.595 402.652 418.806 386.854 418.806 386.854C418.806 386.854 398.02 372.322 392.324 333.892Z" fill="#FF9400"/>
<path d="M337.215 389.001C318.153 399.776 285.916 337.282 291.134 333.811L317.88 301.501C316.947 306.11 323.911 318.233 359.232 329.857C394.553 341.481 416.082 382.206 416.082 382.206C416.082 382.206 429.703 407.689 441.342 417.928C435.476 419.337 419.603 416.771 403.04 395.234C386.477 373.696 363.299 362.947 353.78 360.264C375.063 389.032 357.731 409.541 357.731 409.541C357.731 409.541 356.278 378.227 337.215 389.001Z" fill="#FFC300"/>
<path d="M150.263 239.757C149.615 237.83 152.169 236.52 153.715 237.985L257.993 336.767C258.959 337.683 258.774 339.146 257.616 339.74L196.988 370.855C195.83 371.449 194.316 370.858 193.911 369.654L150.263 239.757Z" fill="#003160"/>
<path d="M226.513 165.807C225.074 164.239 226.442 161.712 228.362 162.394L357.855 208.378C359.054 208.803 359.614 210.322 358.995 211.466L326.605 271.258C325.986 272.401 324.516 272.561 323.617 271.582L226.513 165.807Z" fill="#003160"/>
<rect x="128.706" y="221.943" width="116.475" height="189.979" transform="rotate(-44.9678 128.706 221.943)" fill="#1CB0F6"/>
<path d="M111.711 130.64C110.866 125.851 115.041 121.681 119.828 122.531L212.004 138.899C217.578 139.889 219.733 146.742 215.727 150.743L139.815 226.57C135.81 230.571 128.958 228.409 127.975 222.833L111.711 130.64Z" fill="#D33131"/>
<path d="M255.68 268.253C274.616 249.339 274.43 218.496 255.319 199.364C236.208 180.231 205.365 180.011 186.43 198.925C167.495 217.839 167.68 248.682 186.791 267.815C205.902 286.947 236.745 287.167 255.68 268.253Z" fill="#CFCFCF" stroke="#DEDEDE" stroke-width="3"/>
<mask id="mask0" mask-type="alpha" maskUnits="userSpaceOnUse" x="154" y="166" width="134" height="135">
<ellipse cx="221.055" cy="233.589" rx="46.9293" ry="47.4948" transform="rotate(-44.9678 221.055 233.589)" fill="#C4C4C4"/>
</mask>
<g mask="url(#mask0)">
<path d="M344.524 185.305C355.858 177.184 347.195 181.305 341.446 184.38L315.423 198.681L288.159 231.146L292.156 241.308C294.619 240.796 302.162 239.066 312.631 236.239C323.1 233.413 304.577 233.721 294.007 234.228L312.341 204.837L325.123 196.07C329.742 193.815 340.151 188.751 344.831 186.537C349.512 184.323 344.524 185.819 341.445 186.843L344.524 185.305Z" fill="#373737"/>
<path d="M309.28 199C315.933 194.57 338.023 184.136 348.236 179.472L318.207 201.468C315.986 209.841 310.4 214.496 307.886 215.778C305.664 223.658 299.155 229.114 296.178 230.857C297.282 238.615 292.218 247.12 289.548 250.402C288.927 259.884 281.995 269.024 278.606 272.409C250.573 303.487 214.416 273.142 208.109 265.596C201.802 258.05 199.034 253.122 193.035 244.96C188.236 238.431 190.426 231.977 192.12 229.567C193.231 225.996 195.357 222.026 196.282 220.487C207.619 206.455 221.74 206.647 227.383 208.498C254.021 193.889 272.023 208.215 272.947 207.6C273.687 207.108 290.291 205.968 298.501 205.459C303.585 198.535 307.063 200.476 309.28 199Z" fill="#FFC300"/>
<path d="M281.992 248.383C284.952 240.503 292.776 233.509 296.318 230.996C298.159 240.726 292.46 247.876 289.38 250.234C286.771 290.502 232.242 300.538 206.556 263.426C263.188 292.089 278.292 258.232 281.992 248.383Z" fill="#FFB020"/>
<path d="M266.35 209.854C286.675 198.412 271.127 201.39 260.811 204.309L242.783 237.394C363.856 211.476 334.705 201.445 289.428 214.94C333.763 195.703 306.73 197.397 273.38 213.444C313.54 192.519 286.384 201.94 266.35 209.854Z" fill="#373737"/>
<ellipse rx="4.35388" ry="3.7008" transform="matrix(-0.707504 0.706709 0.706709 0.707504 212.732 231.719)" fill="#FFF277"/>
<ellipse rx="3.91849" ry="3.7008" transform="matrix(-0.707504 0.706709 0.706709 0.707504 212.116 231.103)" fill="#373737"/>
<path d="M209.698 233.519C210.928 234.751 213.023 234.721 214.378 233.368C215.733 232.014 215.765 229.919 214.535 228.687C213.304 227.455 211.209 227.485 209.854 228.838C208.499 230.192 208.467 232.287 209.698 233.519Z" stroke="#321F00" stroke-opacity="0.56"/>
<path d="M212.579 228.794C212.703 228.179 211.502 228.64 210.886 228.947C210.463 229.14 209.808 230.024 210.269 230.486C210.731 230.948 210.731 230.333 211.501 229.871C212.271 229.41 212.425 229.564 212.579 228.794Z" fill="white" stroke="#2A2526" stroke-opacity="0.59" stroke-width="0.5"/>
<path d="M207.944 236.415C206.799 234.482 200.021 232.945 195.631 234.253L197.074 236.254C198.1 236.46 196.821 239.587 198.791 240.327C201.253 241.252 209.173 238.488 207.944 236.415Z" fill="#DEAC5F" fill-opacity="0.77"/>
<path d="M191.33 239.562L199.077 235.805C210.538 234.519 205.672 236.741 201.806 238.013C196.981 240.141 186.838 244.45 184.864 244.658C182.395 244.919 183.006 243.96 184.753 242.642C186.618 241.236 189.283 240.486 191.33 239.562Z" fill="#A86425" stroke="#864E1B" stroke-width="2"/>
<path d="M190.718 233.4L199.329 234.684C210.781 236.045 204.605 236.111 200.552 236.468C198.794 236.622 190.173 235.909 182.792 239.731C180.588 240.872 182.095 238.937 183.789 237.552C185.144 236.445 188.973 234.323 190.718 233.4Z" fill="#A86425" stroke="#864E1B" stroke-width="2"/>
<path d="M213.58 220.43C213.58 220.43 211.327 212.936 206.272 212.017C213.143 207.785 220.464 209.413 223.265 210.756C238.066 201.087 255.607 202.568 264.926 204.953C274.245 207.338 275.889 212.273 269.675 225.788C263.462 239.303 241.461 249.515 232.033 249.502C222.605 249.489 221.801 247.664 221.07 242.182C220.34 236.699 225.575 231.836 220.158 229.573C214.741 227.31 213.58 220.43 213.58 220.43Z" fill="#FF9400" fill-opacity="0.6"/>
<path d="M217.982 217.553C217.982 217.553 215.901 210.621 211.225 209.773C217.583 205.855 224.355 207.357 226.947 208.599C240.644 199.647 256.871 201.009 265.491 203.211C274.111 205.413 275.63 209.978 269.876 222.484C264.121 234.99 239.942 245.288 235.041 244.44C230.139 243.592 225.575 242.744 224.902 237.673C224.228 232.601 229.074 228.099 224.063 226.008C219.053 223.917 217.982 217.553 217.982 217.553Z" fill="#FF9400"/>
<path d="M196.729 220.011C194.634 223.335 194.109 226.937 195.494 226.784C196.88 226.63 204.115 224.941 209.658 223.713C215.226 222.479 211.66 221.097 219.975 216.176C223.182 214.278 219.21 209.249 214.13 208.784C209.051 208.319 199.349 215.856 196.729 220.011Z" fill="#373737" stroke="#373737"/>
<line x1="233.071" y1="229.641" x2="277.844" y2="239.262" stroke="white" stroke-opacity="0.6" stroke-width="4"/>
<line x1="248.845" y1="245.021" x2="293.618" y2="254.642" stroke="white" stroke-opacity="0.6" stroke-width="2"/>
<line x1="245.87" y1="220.053" x2="290.643" y2="229.674" stroke="white" stroke-opacity="0.6" stroke-width="4"/>
</g>
<path d="M262.966 356.354L345.373 274.04L366.546 302.438L291.34 377.56L262.966 356.354Z" fill="#003160"/>
</svg>
