<svg width="74" height="96" viewBox="0 0 74 96" fill="none" xmlns="http://www.w3.org/2000/svg">
<path fill-rule="evenodd" clip-rule="evenodd" d="M33.43 47.3762C35.9326 43.8637 35.6534 40.1643 33.918 33.5099C30.4859 20.3494 31.8526 13.136 43.6841 4.59597L49.4588 0.427734L50.8556 7.41136C52.3399 14.8333 54.7776 19.4237 61.0367 28.2535C61.2854 28.6042 61.2854 28.6042 61.5352 28.9565C70.5511 41.6762 73.8442 49.344 73.8442 63.2687C73.8442 80.1611 56.7672 95.3282 37.2047 95.3282C17.6411 95.3282 0.565297 80.1632 0.565297 63.2687C0.565297 62.9529 0.56562 62.9625 0.512117 61.567C0.0982944 50.7738 2.09412 42.3264 10.1697 33.2054C11.876 31.2783 13.8154 29.4261 15.9979 27.6538L20.816 23.7414L23.1336 29.499C24.8461 33.7532 26.8527 37.0975 29.1194 39.5516C31.0392 41.6302 32.4633 44.244 33.43 47.3762Z" fill="#FFC300"/>
</svg>
