<svg width="129" height="126" viewBox="0 0 129 126" fill="none" xmlns="http://www.w3.org/2000/svg">
<g filter="url(#filter0_d)">
<path d="M-12.7221 102.575C-24.1947 107.478 -17.0222 102.761 -12.0018 99.7902L11.0146 86.5165L48.5037 80.7209L54.4239 88.4938C52.8894 90.1409 48.0654 95.1097 41.0452 101.808C34.0249 108.506 42.8554 94.4768 48.1482 86.625L17.1543 87.0147L4.51611 92.7255C0.647391 95.2133 -8.05651 100.827 -11.9224 103.381C-15.7882 105.935 -12.3294 102.812 -10.1168 100.932L-12.7221 102.575Z" fill="#373737"/>
<path d="M14.109 81.9642C7.63329 84.9985 -10.6 97.0576 -18.9072 102.708L11.8551 89.9391C19.2917 92.1246 25.4454 90.0118 27.5928 88.6822C34.6523 90.6394 41.8469 88.1908 44.5617 86.7218C49.9856 91.1667 58.8421 91.2384 62.5923 90.7187C70.1349 94.6433 80.3442 93.5806 84.506 92.5586C121.292 85.5317 114.852 43.788 112.005 35.461C109.158 27.1341 106.673 22.7299 103.212 14.3532C100.443 7.65178 94.4896 6.33232 91.8589 6.51026C88.6119 5.70294 84.5876 5.48765 82.9813 5.48091C66.9847 7.64377 60.58 18.5367 59.3771 23.7128C35.8397 37.3149 38.447 57.7354 37.5476 58.1568C36.828 58.494 28.251 70.6691 24.0524 76.7145C16.3959 77.3911 16.2676 80.9528 14.109 81.9642Z" fill="#FFC300"/>
<path d="M64.553 84.0008C57.151 82.6091 48.1693 85.3494 44.6038 86.8935C51.1932 92.8173 59.3078 91.7741 62.5415 90.5121C94.5599 107.201 127.541 70.1388 111.065 33.2664C106.718 89.8941 73.8056 85.7404 64.553 84.0008Z" fill="#FFB020"/>
<path d="M42.3331 54.155C24.1483 64.397 33.6413 53.8824 40.6609 47.3448L74.3396 48.9034C-1.66961 129.508 4.18197 102.551 35.5162 74.1725C0.226245 99.1657 14.0661 79.2695 41.8182 61.2001C7.17372 82.2161 26.9823 65.8103 42.3331 54.155Z" fill="#373737"/>
<ellipse cx="83.9416" cy="23.2785" rx="3.89583" ry="3.31146" transform="rotate(-13.796 83.9416 23.2785)" fill="#FFF277"/>
<ellipse cx="83.7557" cy="22.5218" rx="3.50625" ry="3.31146" transform="rotate(-13.796 83.7557 22.5218)" fill="#373737"/>
<path d="M86.6753 21.8049C87.0392 23.287 86.0651 24.8497 84.4262 25.2521C82.7872 25.6546 81.2002 24.7208 80.8362 23.2387C80.4723 21.7565 81.4464 20.1939 83.0853 19.7914C84.7242 19.389 86.3113 20.3227 86.6753 21.8049Z" stroke="#321F00" stroke-opacity="0.56"/>
<path d="M81.7745 21.8048C81.2462 21.6136 82.1563 20.9087 82.6773 20.5802C83.0209 20.3458 84.0015 20.255 84.1409 20.8226C84.2802 21.3901 83.809 21.1046 83.0988 21.4796C82.3885 21.8546 82.435 22.0438 81.7745 21.8048Z" fill="white" stroke="#2A2526" stroke-opacity="0.59" stroke-width="0.5"/>
<path d="M89.7209 21.8593C88.7739 20.086 90.7426 14.187 93.7804 11.4353L97.5648 10.9072C97.2461 11.7877 97.3094 14.821 96.9615 16.6715C96.5266 18.9847 90.737 23.7617 89.7209 21.8593Z" fill="#DEAC5F" fill-opacity="0.77"/>
<path d="M95.4421 7.21606L92.8596 14.6698C88.5872 24.063 91.8271 20.5396 93.9812 17.6037C97.1298 14.0893 103.608 6.65502 104.333 5.03285C105.239 3.00515 103.679 3.18758 101.834 3.84127C100.358 4.36422 96.9577 6.30902 95.4421 7.21606Z" fill="#A86425" stroke="#864E1B" stroke-width="2"/>
<path d="M90.8515 20.3781C93.1682 16.1988 99.0337 6.97612 103.962 3.5196" stroke="#864E1B" stroke-width="2"/>
<path d="M74.9105 18.6895C74.9105 18.6895 70.2224 13.4885 71.865 9.19443C65.4393 12.4874 63.2877 18.8438 63.0151 21.6104C48.75 28.4481 41.7432 42.5553 39.2441 50.7915C36.7451 59.0277 39.758 62.5756 52.9811 64.0928C66.2041 65.61 84.2259 53.5164 88.5907 46.297C92.9555 39.0777 91.9324 37.6157 88.0768 34.5129C84.2213 31.4102 78.0714 33.1585 78.8537 27.9641C79.6359 22.7697 74.9105 18.6895 74.9105 18.6895Z" fill="#FF9400" fill-opacity="0.6"/>
<path d="M70.6666 20.7224C70.6666 20.7224 66.3288 15.9138 67.85 11.9426C61.9019 14.9891 59.9093 20.8675 59.6564 23.426C46.452 29.752 39.9639 42.799 37.6492 50.4159C35.3345 58.0328 38.1223 61.313 50.3605 62.7132C62.5987 64.1135 81.6968 50.393 83.3225 46.2493C84.9482 42.1056 86.4172 38.2207 82.8494 35.3522C79.2816 32.4838 73.5892 34.1018 74.3143 29.2982C75.0394 24.4945 70.6666 20.7224 70.6666 20.7224Z" fill="#FF9400"/>
<path d="M82.4094 5.60272C85.9246 5.54187 88.924 6.81115 88.1639 7.80009C87.4039 8.78904 82.754 13.5412 79.2426 17.2116C75.7149 20.8988 76.3121 17.53 68.6886 21.6083C65.7486 23.1811 63.7439 17.808 65.7454 13.7061C67.7468 9.60426 78.0153 5.67879 82.4094 5.60272Z" fill="#373737" stroke="#373737"/>
</g>
<defs>
<filter id="filter0_d" x="-39.6805" y="0.236328" width="168.149" height="124.912" filterUnits="userSpaceOnUse" color-interpolation-filters="sRGB">
<feFlood flood-opacity="0" result="BackgroundImageFix"/>
<feColorMatrix in="SourceAlpha" type="matrix" values="0 0 0 0 0 0 0 0 0 0 0 0 0 0 0 0 0 0 127 0"/>
<feOffset dy="4"/>
<feGaussianBlur stdDeviation="2"/>
<feColorMatrix type="matrix" values="0 0 0 0 0 0 0 0 0 0 0 0 0 0 0 0 0 0 0.25 0"/>
<feBlend mode="normal" in2="BackgroundImageFix" result="effect1_dropShadow"/>
<feBlend mode="normal" in="SourceGraphic" in2="effect1_dropShadow" result="shape"/>
</filter>
</defs>
</svg>
