<svg width="1001" height="163" viewBox="0 0 1001 163" fill="none" xmlns="http://www.w3.org/2000/svg">
<path d="M27.86 35.1799C34.2033 33.6868 39.6088 33.7813 44.0764 35.4635C48.5287 37.0911 51.4564 40.4155 52.8594 45.4365C53.7134 48.4927 53.7911 51.2954 53.0925 53.8447C52.4491 56.3809 51.1873 58.5974 49.307 60.4941C52.8628 61.2276 55.8864 62.5808 58.3776 64.5537C60.8536 66.472 62.5263 68.9866 63.3955 72.0974C64.3105 75.372 64.4815 78.2982 63.9085 80.876C63.3754 83.3863 62.2867 85.5911 60.6423 87.4905C59.0378 89.3223 57.0584 90.8643 54.7041 92.1164C52.3345 93.314 49.7983 94.2309 47.0955 94.8671L26.8245 99.6385L9.98844 39.3866L27.86 35.1799ZM36.152 59.4899C38.5238 58.9316 40.0631 57.8131 40.7698 56.1345C41.5316 54.4429 41.6609 52.6965 41.1577 50.8955C40.5782 48.8216 39.4265 47.435 37.7026 46.7356C36.0339 46.0233 34.0136 45.9463 31.6417 46.5045L25.1881 48.0236L28.871 61.2037L36.152 59.4899ZM43.4282 83.9518C46.0759 83.3286 48.1649 82.2842 49.6954 80.8188C51.2107 79.2989 51.6404 77.3655 50.9847 75.0187C50.4967 73.2723 49.6343 72.0793 48.3974 71.4398C47.1453 70.7457 45.6737 70.4232 43.9825 70.4723C42.3313 70.4538 40.6508 70.6458 38.9408 71.0483L32.0735 72.6647L35.7335 85.763L43.4282 83.9518Z" fill="#1273A3"/>
<path d="M94.2247 103.945L100.245 83.2764L78.1502 50.5051L91.3993 48.9081L104.25 69.4415L110.893 46.5583L121.526 45.2766L105.617 102.571L94.2247 103.945Z" fill="#1273A3"/>
<path d="M180.528 98.593L173.845 91.0205C175.578 89.8188 176.923 88.3235 177.878 86.5345C178.89 84.7471 179.431 82.5505 179.502 79.9448L180.487 43.4931L192.383 43.8046L191.379 80.936C191.26 85.3544 190.368 88.9873 188.704 91.8347C187.038 94.7388 184.313 96.9915 180.528 98.593ZM180.418 30.3118C180.466 28.5558 181.184 27.1291 182.575 26.0318C184.021 24.9359 185.538 24.4088 187.124 24.4503C188.71 24.4918 190.139 25.0961 191.412 26.2631C192.741 27.4316 193.381 28.8939 193.334 30.6499C193.286 32.406 192.567 33.8326 191.177 34.93C189.845 35.9721 188.386 36.4724 186.8 36.4309C185.214 36.3894 183.727 35.8119 182.34 34.6986C181.011 33.5301 180.371 32.0678 180.418 30.3118Z" fill="#1273A3"/>
<path d="M211.199 62.4102C211.673 58.6433 212.971 55.3664 215.092 52.5796C217.27 49.7989 220.07 47.7427 223.493 46.4107C226.923 45.0226 230.722 44.5588 234.89 45.0194C239.114 45.4861 242.666 46.7621 245.544 48.8473C248.429 50.8763 250.501 53.4709 251.759 56.6312C253.073 59.7977 253.493 63.2644 253.019 67.0313C252.545 70.7982 251.271 74.1064 249.199 76.9557C247.191 79.755 244.528 81.8549 241.21 83.2555C237.893 84.6561 234.066 85.1168 229.729 84.6375C225.673 84.1894 222.14 83.0009 219.128 81.0719C216.172 79.1491 213.98 76.5983 212.553 73.4193C211.126 70.2404 210.675 66.5707 211.199 62.4102ZM223.1 63.8109C222.732 66.7344 223.269 69.2735 224.711 71.428C226.16 73.5262 228.18 74.7185 230.771 75.0048C233.531 75.3098 235.848 74.5967 237.722 72.8657C239.603 71.0784 240.728 68.7229 241.096 65.7994C241.464 62.8758 240.952 60.368 239.559 58.2759C238.174 56.1276 236.101 54.901 233.341 54.5961C230.75 54.3098 228.486 55.0572 226.548 56.8382C224.618 58.5631 223.469 60.8873 223.1 63.8109Z" fill="#1273A3"/>
<path d="M277.384 52.8641L289.063 55.1483L280.88 91.3808L269.202 89.0966L277.384 52.8641ZM280.036 39.9638C280.423 38.2503 281.409 36.9713 282.993 36.1269C284.633 35.2933 286.232 35.0288 287.789 35.3334C289.346 35.6379 290.64 36.4681 291.669 37.8237C292.754 39.1903 293.103 40.7303 292.716 42.4438C292.329 44.1573 291.343 45.4363 289.759 46.2807C288.243 47.0808 286.706 47.3285 285.149 47.024C283.592 46.7194 282.237 45.906 281.083 44.5839C279.998 43.2173 279.649 41.6773 280.036 39.9638Z" fill="#1273A3"/>
<path d="M322.756 62.8826L321.698 68.7631C323.683 66.9167 326.043 65.6486 328.778 64.9588C331.513 64.2689 334.515 64.3916 337.783 65.3268C341.161 66.2932 343.637 68.0908 345.209 70.7196C346.855 73.3103 347.186 76.1729 346.205 79.3077L337.444 105.686L326.003 102.413L333.371 80.2292C333.834 78.654 333.809 77.2924 333.296 76.1444C332.854 74.9582 331.708 74.1001 329.855 73.5702C327.186 72.8064 324.65 73.4354 322.249 75.4572C319.919 77.4408 318.129 80.3148 316.879 84.0793L312.11 98.438L300.669 95.1648L312.377 59.9134L322.756 62.8826Z" fill="#1273A3"/>
<path d="M362.581 77.2444L373.986 80.6426L361.849 115.749L350.444 112.351L362.581 77.2444ZM366.642 64.7198C367.216 63.0595 368.339 61.888 370.013 61.2053C371.741 60.5387 373.365 60.4319 374.886 60.885C376.407 61.3381 377.606 62.2863 378.485 63.7296C379.418 65.1891 379.598 66.7489 379.024 68.4092C378.45 70.0694 377.326 71.2409 375.652 71.9237C374.051 72.5691 372.491 72.6653 370.97 72.2122C369.449 71.7591 368.186 70.8215 367.18 69.3994C366.247 67.9399 366.068 66.38 366.642 64.7198Z" fill="#1273A3"/>
<path d="M400.61 87.6047L400.135 93.5722C401.925 91.5559 404.144 90.0852 406.791 89.16C409.439 88.2348 412.431 88.0985 415.767 88.7511C419.215 89.4254 421.849 91.0082 423.668 93.4995C425.555 95.9463 426.165 98.7783 425.498 101.995L419.386 129.11L407.707 126.826L412.847 104.023C413.153 102.409 412.995 101.051 412.372 99.9479C411.818 98.8006 410.595 98.042 408.705 97.6722C405.98 97.1393 403.524 97.9865 401.338 100.214C399.22 102.397 397.725 105.423 396.853 109.293L393.526 124.053L381.847 121.769L390.015 85.5328L400.61 87.6047Z" fill="#1273A3"/>
<path d="M459.904 152.527C456.568 152.31 453.769 151.731 451.508 150.789C449.303 149.851 447.45 148.765 445.948 147.531C444.446 146.298 443.11 145.132 441.939 144.034L449.482 136.347C450.697 137.619 452.114 138.847 453.733 140.031C455.404 141.275 457.654 141.989 460.481 142.173C463.308 142.357 465.821 141.782 468.019 140.449C470.27 139.175 471.496 137.154 471.696 134.385L472.075 129.128C470.874 130.811 469.096 132.228 466.74 133.381C464.388 134.477 461.403 134.908 457.784 134.673C454.448 134.456 451.399 133.406 448.637 131.523C445.936 129.587 443.844 127.094 442.36 124.045C440.879 120.939 440.276 117.493 440.549 113.706C440.831 109.806 441.984 106.417 444.01 103.539C446.04 100.605 448.56 98.3552 451.571 96.7906C454.581 95.226 457.698 94.5485 460.921 94.7581C464.144 94.9676 466.88 95.6282 469.129 96.7398C471.439 97.7985 473.112 99.0146 474.15 100.388L475.291 97.5662L486.233 98.2776L483.558 135.326C483.297 138.944 482.049 142.071 479.813 144.708C477.573 147.401 474.7 149.429 471.193 150.791C467.738 152.213 463.975 152.792 459.904 152.527ZM452.534 114.144C452.321 117.083 453.131 119.634 454.964 121.798C456.8 123.905 459.16 125.052 462.044 125.239C466.794 125.548 470.35 123.906 472.711 120.311L473.366 111.24C472.705 109.38 471.509 107.854 469.777 106.662C468.045 105.471 465.963 104.796 463.531 104.638C460.647 104.45 458.146 105.253 456.029 107.046C453.915 108.783 452.75 111.149 452.534 114.144Z" fill="#1273A3"/>
<path d="M526.764 74.3082L540.988 71.7647L560.684 105.007L565.066 79.9727L557.639 68.7873L569.688 66.6328L590.755 98.1624L593.953 62.2939L607.006 59.9599L596.789 127.634L574.406 94.0093L565.112 133.47L526.764 74.3082Z" fill="#1273A3"/>
<path d="M655.855 108.934C652.603 110.107 649.378 110.548 646.179 110.259C643.012 109.897 640.088 108.666 637.409 106.565C634.73 104.465 632.512 101.355 630.757 97.237C629.112 93.3796 628.489 89.7551 628.888 86.3634C629.287 82.9718 630.471 80.0491 632.438 77.5954C634.384 75.0895 636.822 73.3079 639.754 72.2505C643.219 71.0008 646.064 70.6061 648.29 71.0663C650.569 71.5073 652.519 72.1871 654.141 73.1058L653.361 69.3277L663.755 65.5787L678.323 99.7479L667.128 103.785L665.328 99.563C665.018 100.277 664.507 101.243 663.796 102.461C663.139 103.66 662.171 104.852 660.892 106.035C659.613 107.218 657.934 108.184 655.855 108.934ZM655.253 98.8668C659.144 97.4633 661.236 94.7241 661.528 90.6493L657.961 82.2829C656.61 80.8456 654.924 79.9201 652.903 79.5064C650.935 79.0735 648.885 79.2416 646.752 80.0106C644.354 80.8758 642.653 82.5118 641.649 84.9185C640.623 87.2732 640.699 89.8319 641.877 92.5946C642.655 94.419 643.782 95.9072 645.257 97.0592C646.732 98.2111 648.34 98.9542 650.082 99.2883C651.877 99.6033 653.6 99.4628 655.253 98.8668Z" fill="#1273A3"/>
<path d="M689.691 53.3579L694.802 60.2922C694.685 57.9543 695.08 55.7102 695.988 53.5601C696.868 51.361 697.921 49.5173 699.148 48.0291C700.347 46.4919 701.378 45.5101 702.242 45.0838L707.691 55.6344C705.03 56.5692 703.123 58.0142 701.971 59.9696C700.819 61.9249 700.273 64.0226 700.333 66.2625C700.393 68.5025 700.965 70.5532 702.047 72.4147L709.353 84.9799L698.758 90.2081L680.086 58.0972L689.691 53.3579Z" fill="#1273A3"/>
<path d="M753.472 80.5705C750.642 80.7117 748.173 80.4096 746.064 79.6642C744.012 78.916 742.189 77.8445 740.594 76.4497L740.907 80.1766L729.022 80.7695L723.415 13.9393L735.216 13.3506L737.93 45.707C739.297 44.3912 741.162 43.2492 743.525 42.2807C745.887 41.3123 748.625 40.7505 751.738 40.5952C754.964 40.4342 757.971 41.0498 760.759 42.4417C763.547 43.8337 765.856 45.9583 767.687 48.8156C769.57 51.6136 770.687 55.1019 771.037 59.2806C771.388 63.4592 770.785 67.1184 769.23 70.258C767.731 73.3948 765.579 75.8554 762.774 77.6398C759.968 79.4242 756.867 80.4011 753.472 80.5705ZM750.001 70.7069C751.756 70.6194 753.331 70.0872 754.727 69.1103C756.179 68.1305 757.292 66.8275 758.064 65.2013C758.837 63.575 759.141 61.7736 758.975 59.7972C758.809 57.8208 758.21 56.0929 757.176 54.6134C756.143 53.134 754.827 52.0088 753.227 51.238C751.68 50.408 750.029 50.0367 748.275 50.1242C745.954 50.24 743.962 50.878 742.297 52.0385C740.633 53.1989 739.509 54.7009 738.924 56.5446L739.685 65.6078C742.035 69.2331 745.474 70.9328 750.001 70.7069Z" fill="#1273A3"/>
<path d="M794.325 12.4126L806.21 13.0023L804.074 80.0333L792.189 79.4435L794.325 12.4126Z" fill="#1273A3"/>
<path d="M842.087 84.9145C837.598 84.278 833.901 82.8952 830.994 80.766C828.143 78.6448 826.112 75.9816 824.9 72.7764C823.689 69.5712 823.353 66.0324 823.894 62.1599C824.411 58.4559 825.831 55.2519 828.154 52.5479C830.477 49.8439 833.359 47.8488 836.8 46.5625C840.249 45.2201 843.937 44.8273 847.864 45.3842C853.138 46.1321 857.243 48.288 860.178 51.8521C863.177 55.368 864.778 60.0878 864.981 66.0116L836.851 70.7795C838.357 73.1106 840.652 74.4949 843.738 74.9325C845.028 75.1155 846.294 75.066 847.535 74.7841C848.832 74.5102 850.121 74.0919 851.401 73.5294L855.396 83.0244C853.275 83.8684 851.018 84.464 848.624 84.8113C846.285 85.1665 844.106 85.2009 842.087 84.9145ZM835.602 63.1333C835.563 63.414 835.527 63.6665 835.496 63.891L852.418 60.7104C852.109 59.2357 851.464 57.9137 850.483 56.7444C849.51 55.519 847.901 54.7472 845.657 54.4289C843.02 54.055 840.791 54.6546 838.969 56.2277C837.147 57.8009 836.025 60.1028 835.602 63.1333Z" fill="#1273A3"/>
<path d="M899.079 56.9845L897.812 65.4268C899.407 63.6045 901.309 62.179 903.515 61.1503C905.736 60.0669 907.828 59.36 909.791 59.0299C911.768 58.6449 913.224 58.5685 914.159 58.8005L910.537 70.1611C907.929 69.1637 905.503 69.0287 903.259 69.7561C901.016 70.4836 899.11 71.7037 897.543 73.4165C895.976 75.1293 894.918 77.0265 894.367 79.1082L890.648 93.1594L879.181 90.3137L888.684 54.4049L899.079 56.9845Z" fill="#1273A3"/>
<path d="M918.044 94.2071C918.625 92.5491 919.705 91.3488 921.286 90.6061C922.92 89.8808 924.466 89.7516 925.923 90.2186C927.272 90.651 928.343 91.6191 929.137 93.1228C929.985 94.6437 930.119 96.2332 929.539 97.8912C928.921 99.6562 927.804 100.875 926.188 101.546C924.645 102.182 923.199 102.284 921.85 101.851C920.393 101.384 919.222 100.444 918.337 99.0299C917.524 97.5797 917.427 95.9721 918.044 94.2071Z" fill="#1273A3"/>
<path d="M938.69 100.918C939.355 99.2927 940.498 98.1458 942.118 97.4778C943.791 96.8294 945.344 96.7711 946.779 97.3028C948.107 97.7951 949.131 98.8085 949.849 100.343C950.62 101.897 950.673 103.487 950.007 105.113C949.299 106.843 948.119 108.007 946.467 108.603C944.89 109.166 943.438 109.201 942.109 108.709C940.675 108.177 939.55 107.187 938.736 105.737C937.997 104.255 937.981 102.649 938.69 100.918Z" fill="#1273A3"/>
<path d="M958.999 108.52C959.748 106.931 960.95 105.84 962.605 105.249C964.313 104.68 965.872 104.693 967.281 105.289C968.586 105.84 969.559 106.897 970.2 108.458C970.894 110.042 970.866 111.629 970.117 113.218C969.32 114.91 968.08 116.014 966.396 116.532C964.789 117.021 963.333 116.99 962.028 116.438C960.619 115.843 959.543 114.804 958.802 113.323C958.136 111.812 958.202 110.211 958.999 108.52Z" fill="#1273A3"/>
</svg>
