<svg width="435" height="129" viewBox="0 0 435 129" fill="none" xmlns="http://www.w3.org/2000/svg">
<path d="M34.7489 112.948C34.7294 113.255 34.6153 113.76 34.4066 114.463C34.2118 115.151 33.8831 115.921 33.4203 116.771C32.9575 117.621 32.3218 118.448 31.513 119.252C30.2716 120.474 28.9563 121.384 27.567 121.983C26.1769 122.554 24.771 122.84 23.3495 122.841C21.9418 122.828 20.5767 122.555 19.254 122.023C17.9314 121.492 16.7164 120.72 15.6092 119.708C13.9556 118.197 12.8074 116.538 12.1646 114.732C11.5218 112.926 11.3958 111.118 11.7868 109.309C12.1916 107.485 13.1393 105.806 14.6298 104.27C15.6606 103.208 16.7206 102.403 17.8098 101.855C18.8991 101.307 19.8642 100.929 20.7053 100.723L22.5482 104.723C21.9195 104.825 21.165 105.043 20.2846 105.376C19.4035 105.681 18.5868 106.221 17.8346 106.996C17.0546 107.8 16.5521 108.762 16.3272 109.884C16.1163 110.991 16.1931 112.117 16.5577 113.263C16.9214 114.381 17.5979 115.391 18.5871 116.295C19.6353 117.253 20.746 117.903 21.9194 118.244C23.078 118.571 24.2269 118.579 25.3663 118.266C26.5057 117.953 27.5421 117.316 28.4753 116.354C29.2972 115.508 29.8604 114.655 30.1649 113.796C30.4694 112.937 30.6199 112.207 30.6163 111.608L34.7489 112.948Z" fill="#FF9400"/>
<path d="M23.0251 96.5L26.2595 93.5913L38.6021 106.528L46.3202 99.587L49.2195 102.626L38.2669 112.475L23.0251 96.5Z" fill="#FF9400"/>
<path d="M50.3394 101.847L43.5139 78.0492L43.7028 77.9011L66.206 89.4106L62.2394 92.5198L58.1332 90.2517L52.3721 94.7674L53.7158 99.2009L50.3394 101.847ZM51.2376 91.0082L54.6612 88.3246L49.5536 85.5079L51.2376 91.0082Z" fill="#FF9400"/>
<path d="M67.6949 68.4311C66.7319 68.5329 65.7992 68.7108 64.897 68.9647C64.0112 69.2074 63.2548 69.5434 62.6275 69.9725C61.8518 70.5034 61.3525 71.0751 61.1297 71.6878C60.907 72.3005 61.0185 72.9146 61.4643 73.5301C61.7694 73.9513 62.2101 74.219 62.7866 74.3332C63.3679 74.42 64.0165 74.4123 64.7324 74.31C65.4648 74.1965 66.1961 74.0473 66.9263 73.8626C67.8238 73.6361 68.7493 73.4994 69.7028 73.4526C70.6446 73.3896 71.5823 73.5595 72.5159 73.9623C73.4378 74.349 74.3094 75.1092 75.1307 76.2431C75.7876 77.1501 76.1584 78.1562 76.2428 79.2612C76.3273 80.3662 76.0834 81.4779 75.511 82.5963C74.9269 83.6985 73.9581 84.7126 72.6046 85.6388C71.5648 86.3503 70.3887 86.9249 69.0764 87.3626C67.7806 87.7889 66.4135 87.9976 64.9752 87.9885L64.5712 84.1588C65.5269 84.1832 66.5147 84.0644 67.5347 83.8026C68.5546 83.5407 69.3865 83.1895 70.0302 82.7491C70.4594 82.4554 70.8475 82.1051 71.1945 81.6981C71.5463 81.2635 71.7569 80.8045 71.8263 80.3209C71.9123 79.8261 71.7675 79.3195 71.3921 78.8012C71.0049 78.2667 70.4065 77.9857 69.5967 77.9584C68.7917 77.9036 67.9264 77.987 67.0007 78.2086C66.287 78.382 65.5333 78.5343 64.7396 78.6656C63.946 78.7968 63.1443 78.8487 62.3345 78.8214C61.5295 78.7666 60.7508 78.5606 59.9984 78.2033C59.2507 77.8186 58.5659 77.197 57.9441 76.3386C57.1933 75.3019 56.7732 74.2448 56.684 73.1673C56.6112 72.0785 56.8456 71.0218 57.3872 69.9971C57.917 68.9563 58.7255 68.0276 59.8127 67.211C61.2817 66.2058 62.5933 65.5627 63.7475 65.2817C64.9182 64.9894 66.0368 64.8296 67.1033 64.8024L67.6949 68.4311Z" fill="#FF9400"/>
<path d="M83.2748 59.0191C82.3081 59.062 81.367 59.1827 80.4515 59.3813C79.5532 59.5696 78.778 59.859 78.126 60.2494C77.3195 60.7323 76.7862 61.273 76.5262 61.8715C76.2662 62.47 76.3394 63.0903 76.7459 63.7324C77.0241 64.1718 77.4471 64.4661 78.0149 64.6155C78.5892 64.7377 79.2365 64.7696 79.9568 64.7112C80.6942 64.6425 81.4327 64.5382 82.1724 64.3983C83.0814 64.2268 84.0128 64.1469 84.9666 64.1583C85.9097 64.1529 86.8344 64.38 87.7405 64.8395C88.636 65.282 89.4582 66.0948 90.207 67.2777C90.8061 68.224 91.1136 69.2516 91.1295 70.3607C91.1454 71.4698 90.8334 72.5655 90.1934 73.6478C89.5427 74.7132 88.5139 75.6672 87.1068 76.5097C86.0258 77.157 84.8174 77.6591 83.4816 78.0162C82.163 78.363 80.7868 78.4879 79.353 78.391L79.1869 74.5404C80.1385 74.6231 81.131 74.5648 82.1643 74.3656C83.1977 74.1663 84.049 73.8663 84.7182 73.4656C85.1643 73.1984 85.573 72.8722 85.9443 72.4867C86.322 72.0741 86.5604 71.6284 86.6595 71.1496C86.7758 70.6605 86.6628 70.1456 86.3205 69.6048C85.9675 69.0472 85.388 68.73 84.5822 68.6532C83.7828 68.5492 82.9146 68.5797 81.9778 68.7445C81.2553 68.8741 80.4943 68.9803 79.6947 69.0629C78.8951 69.1455 78.0923 69.1484 77.2865 69.0716C76.4871 68.9677 75.7233 68.7143 74.9949 68.3114C74.2731 67.8814 73.6287 67.2186 73.0617 66.323C72.377 65.2415 72.0235 64.1598 72.0011 63.0779C71.9959 61.9857 72.295 60.9444 72.8985 59.9539C73.4912 58.9464 74.3549 58.068 75.4896 57.3187C77.0168 56.4043 78.3646 55.8419 79.533 55.6317C80.7186 55.4112 81.844 55.3199 82.9092 55.3579L83.2748 59.0191Z" fill="#FF9400"/>
<path d="M92.3813 48.1983C94.8533 46.9264 97.0719 46.5493 99.0371 47.0673C101.011 47.5584 102.537 48.797 103.616 50.7828C104.217 51.89 104.569 53.1031 104.671 54.4222C104.791 55.7322 104.463 56.9917 103.686 58.2009L112.071 62.8922L107.563 65.2118L100.077 61.1708L97.4897 62.5022L100.841 68.6707L96.9728 70.661L86.4326 51.2591L92.3813 48.1983ZM98.2324 57.3979C99.0149 56.9953 99.5336 56.526 99.7886 55.99C100.052 55.4274 100.153 54.8806 100.092 54.3497C100.022 53.8013 99.8863 53.3426 99.6858 52.9735C99.5712 52.7626 99.3925 52.5173 99.1495 52.2376C98.9147 51.9311 98.6088 51.6613 98.2318 51.428C97.8548 51.1948 97.3997 51.0691 96.8666 51.0511C96.3512 51.024 95.7556 51.1843 95.0798 51.532L92.3055 52.9594L95.4848 58.8116L98.2324 57.3979Z" fill="#FF9400"/>
<path d="M108.625 52.5277C108.005 51.1397 107.686 49.7116 107.665 48.2434C107.645 46.7753 107.893 45.3675 108.408 44.02C108.934 42.6464 109.701 41.4204 110.708 40.3421C111.716 39.2638 112.938 38.4205 114.375 37.8121C115.793 37.2115 117.25 36.9199 118.747 36.9374C120.244 36.955 121.687 37.2449 123.077 37.8073C124.477 38.3436 125.721 39.1196 126.809 40.1354C127.916 41.1433 128.779 42.3413 129.398 43.7293C130.034 45.1539 130.353 46.6042 130.355 48.0801C130.375 49.5482 130.109 50.9639 129.557 52.327C129.015 53.664 128.236 54.8626 127.22 55.9226C126.204 56.9827 124.987 57.813 123.569 58.4136C122.132 59.022 120.67 59.3266 119.181 59.3273C117.692 59.3281 116.261 59.0655 114.888 58.5397C113.525 57.9877 112.299 57.2039 111.211 56.1882C110.123 55.1724 109.261 53.9523 108.625 52.5277ZM112.768 50.7727C113.298 51.9599 114.059 52.9296 115.052 53.6818C116.055 54.408 117.166 54.8605 118.384 55.0393C119.594 55.1999 120.798 55.0267 121.995 54.5197C123.155 54.0283 124.07 53.3045 124.738 52.3483C125.416 51.3661 125.806 50.2779 125.909 49.0837C126.002 47.8713 125.785 46.6715 125.255 45.4843C124.709 44.2607 123.943 43.2818 122.959 42.5479C121.966 41.7956 120.874 41.3353 119.682 41.1669C118.482 40.9803 117.293 41.1366 116.114 41.6358C114.935 42.135 114.007 42.8757 113.328 43.8579C112.642 44.8219 112.242 45.914 112.13 47.1342C112.01 48.3362 112.222 49.549 112.768 50.7727Z" fill="#FF9400"/>
<path d="M130.985 43.3911C130.486 41.9555 130.288 40.5043 130.392 39.0375C130.496 37.5707 130.861 36.1858 131.488 34.8829C132.127 33.5549 132.993 32.3938 134.087 31.3996C135.181 30.4054 136.468 29.6631 137.949 29.1728C139.411 28.6887 140.886 28.5163 142.375 28.6555C143.863 28.7947 145.275 29.2014 146.61 29.8757C147.958 30.5248 149.131 31.4004 150.128 32.5026C151.145 33.5985 151.903 34.8643 152.402 36.2999C152.915 37.7733 153.109 39.2465 152.987 40.7196C152.883 42.1864 152.499 43.5776 151.834 44.893C151.182 46.1833 150.306 47.3161 149.205 48.2914C148.105 49.2667 146.823 49.9963 145.361 50.4804C143.881 50.9708 142.399 51.1558 140.918 51.0355C139.436 50.9151 138.034 50.5367 136.712 49.9003C135.402 49.2386 134.248 48.3567 133.25 47.2545C132.253 46.1523 131.498 44.8645 130.985 43.3911ZM135.257 41.9766C135.685 43.2045 136.36 44.2341 137.285 45.0656C138.222 45.8718 139.289 46.4138 140.486 46.6913C141.677 46.95 142.89 46.875 144.124 46.4664C145.32 46.0704 146.291 45.4224 147.037 44.5225C147.795 43.5974 148.275 42.5431 148.477 41.3596C148.673 40.1573 148.557 38.9422 148.13 37.7144C147.69 36.4487 147.011 35.4097 146.093 34.5971C145.169 33.7656 144.12 33.2174 142.948 32.9525C141.77 32.6686 140.573 32.7279 139.358 33.1302C138.143 33.5325 137.156 34.1962 136.398 35.1213C135.633 36.0275 135.144 37.0849 134.929 38.2936C134.708 39.4833 134.817 40.711 135.257 41.9766Z" fill="#FF9400"/>
<path d="M158.034 46.4044L152.45 24.113L152.48 24.106L167.218 36.8932L174.506 18.8286L174.564 18.8146L180.148 41.1059L175.918 42.1195L173.359 31.905L168.843 43.5061L168.785 43.5201L159.72 35.8516L162.118 45.4258L158.034 46.4044Z" fill="#FF9400"/>
<path d="M191.43 17.2753L205.128 15.5936L205.654 19.7605L196.274 20.9121L196.902 25.8826L205.031 24.8846L205.557 29.0515L197.428 30.0495L198.515 38.6512L194.197 39.1813L191.43 17.2753Z" fill="#FF9400"/>
<path d="M214.764 28.9528C214.803 29.6518 215.05 30.309 215.505 30.9245C215.959 31.54 216.537 32.0285 217.238 32.3898C217.959 32.75 218.729 32.9072 219.548 32.8613C220.447 32.811 221.234 32.5665 221.911 32.128C222.588 31.6894 223.108 31.1395 223.472 30.4781C223.856 29.8155 224.029 29.1348 223.99 28.4359L223.22 14.5372L227.503 14.2972L228.278 28.2857C228.368 29.9033 228.048 31.3634 227.319 32.6663C226.589 33.9491 225.565 34.9881 224.247 35.783C222.928 36.5581 221.439 36.992 219.782 37.0849C218.144 37.1766 216.627 36.9111 215.231 36.2882C213.853 35.6443 212.731 34.7257 211.863 33.5323C210.995 32.319 210.516 30.9036 210.426 29.2861L209.651 15.2975L213.995 15.0541L214.764 28.9528Z" fill="#FF9400"/>
<path d="M252.05 37.7436L236.966 23.48L236.717 36.5274L232.308 36.4366L232.904 13.4943L233.084 13.498L248.133 27.971L248.388 14.6836L252.767 14.7738L252.17 37.7461L252.05 37.7436Z" fill="#FF9400"/>
<path d="M272.297 37.0522C272.037 37.2284 271.561 37.4544 270.869 37.7302C270.196 38.0078 269.378 38.2315 268.415 38.4013C267.452 38.571 266.405 38.5921 265.272 38.4645C263.544 38.2602 262.023 37.8045 260.71 37.0972C259.418 36.372 258.348 35.4568 257.499 34.3516C256.669 33.2483 256.074 32.0167 255.714 30.6566C255.354 29.2966 255.252 27.8706 255.409 26.3788C255.642 24.151 256.297 22.2243 257.372 20.5988C258.447 18.9732 259.833 17.7487 261.528 16.9252C263.243 16.1037 265.165 15.794 267.296 15.9963C268.769 16.1361 270.052 16.4588 271.146 16.9644C272.239 17.47 273.12 17.9855 273.789 18.511L271.658 22.437C271.2 22.0119 270.573 21.5607 269.779 21.0835C269.006 20.5883 268.082 20.2896 267.007 20.1875C265.892 20.0817 264.814 20.2908 263.774 20.8148C262.754 21.3407 261.89 22.1024 261.182 23.0999C260.496 24.0794 260.083 25.2355 259.944 26.5682C259.795 27.9805 259.934 29.2492 260.359 30.3743C260.786 31.4796 261.466 32.3778 262.399 33.0691C263.332 33.7603 264.465 34.1692 265.799 34.2959C266.974 34.4074 267.999 34.3139 268.875 34.0153C269.751 33.7168 270.43 33.3795 270.912 33.0033L272.297 37.0522Z" fill="#FF9400"/>
<path d="M277.34 17.4687L292.033 19.8156L291.315 23.9538L286.012 23.1068L282.955 40.7235L278.659 40.0374L281.717 22.4207L276.621 21.6069L277.34 17.4687Z" fill="#FF9400"/>
<path d="M297.035 20.949L301.29 21.8524L296.355 43.374L292.1 42.4706L297.035 20.949Z" fill="#FF9400"/>
<path d="M305.522 34.0937C305.956 32.6371 306.647 31.3346 307.594 30.1863C308.542 29.038 309.656 28.1019 310.936 27.3778C312.241 26.6399 313.634 26.1652 315.116 25.9537C316.598 25.7421 318.091 25.8448 319.594 26.2617C321.078 26.6733 322.39 27.3483 323.529 28.2867C324.668 29.2251 325.587 30.3412 326.286 31.6349C327.011 32.9149 327.458 34.284 327.628 35.7423C327.818 37.2059 327.695 38.666 327.261 40.1227C326.815 41.6176 326.109 42.9366 325.142 44.0795C324.195 45.2278 323.062 46.1587 321.743 46.872C320.449 47.5716 319.065 48.0175 317.588 48.2099C316.112 48.4023 314.632 48.2927 313.148 47.8811C311.645 47.4642 310.321 46.7962 309.176 45.8769C308.031 44.9576 307.103 43.8703 306.392 42.6149C305.707 41.3457 305.279 39.9819 305.108 38.5236C304.938 37.0653 305.076 35.5887 305.522 34.0937ZM309.858 35.2963C309.486 36.5421 309.436 37.7627 309.705 38.958C310 40.1395 310.557 41.1758 311.376 42.0671C312.201 42.9392 313.24 43.5489 314.493 43.8963C315.707 44.2331 316.884 44.238 318.025 43.911C319.191 43.5703 320.205 42.9695 321.066 42.1087C321.934 41.2288 322.553 40.1659 322.925 38.9201C323.308 37.636 323.361 36.4058 323.086 35.2297C322.817 34.0343 322.279 33.0033 321.473 32.1366C320.673 31.2507 319.656 30.6367 318.423 30.2946C317.19 29.9526 315.99 29.9519 314.824 30.2926C313.664 30.6142 312.641 31.2123 311.754 32.0869C310.873 32.9424 310.241 34.0122 309.858 35.2963Z" fill="#FF9400"/>
<path d="M344.191 59.1662L334.79 40.861L330.1 53.0376L325.96 51.5185L334.355 30.159L334.524 30.221L343.821 48.7113L348.598 36.3114L352.71 37.8201L344.304 59.2075L344.191 59.1662Z" fill="#FF9400"/>
<path d="M345.368 58.8298L364.461 42.3058L364.68 42.4051L363.722 67.1703L359.134 65.0852L359.464 60.4917L352.8 57.4633L349.274 60.6046L345.368 58.8298ZM355.791 54.8039L359.752 56.6036L360.158 50.8918L355.791 54.8039Z" fill="#FF9400"/>
<path d="M376.191 48.9933L380.022 51.0549L371.118 66.5605L380.259 71.48L378.167 75.1223L365.197 68.1412L376.191 48.9933Z" fill="#FF9400"/>
<path d="M393.566 58.7671L397.279 61.0333L385.24 79.5429L381.527 77.2767L393.566 58.7671Z" fill="#FF9400"/>
<path d="M403.321 64.8599L415.604 73.2582L413.133 76.6539L408.7 73.6231L398.178 88.0792L394.587 85.624L405.109 71.1679L400.849 68.2556L403.321 64.8599Z" fill="#FF9400"/>
<path d="M414.44 91.6234L417.805 74.9294L422.026 78.2484L419.47 89.2074L429.903 84.4413L434.125 87.7603L417.86 94.312L413.454 99.5827L410.034 96.8942L414.44 91.6234Z" fill="#FF9400"/>
</svg>
