<svg width="242" height="86" viewBox="0 0 242 86" fill="none" xmlns="http://www.w3.org/2000/svg">
<path d="M31.9008 67.8368C31.8015 68.1345 31.5606 68.6031 31.178 69.2426C30.8124 69.8715 30.2987 70.5457 29.6369 71.2652C28.9751 71.9846 28.1554 72.6376 27.1778 73.2241C25.6808 74.1112 24.1957 74.6726 22.7224 74.9084C21.2556 75.1165 19.8489 75.0396 18.5024 74.6776C17.1729 74.305 15.9517 73.688 14.8389 72.8266C13.7261 71.9652 12.7785 70.8946 11.996 69.6148C10.8274 67.7038 10.1763 65.7763 10.0425 63.8324C9.9088 61.8885 10.265 60.075 11.1111 58.3918C11.9742 56.6981 13.3135 55.2847 15.129 54.1518C16.3846 53.3682 17.6003 52.8453 18.7761 52.583C19.9519 52.3208 20.9652 52.1952 21.816 52.2065L22.5093 56.6183C21.8869 56.5588 21.1151 56.5808 20.1938 56.6842C19.279 56.76 18.3635 57.0838 17.4473 57.6556C16.4971 58.2485 15.7681 59.0689 15.2601 60.1167C14.7691 61.1539 14.5456 62.2835 14.5896 63.5055C14.64 64.6998 15.0148 65.8686 15.7138 67.0118C16.4546 68.2233 17.3358 69.1468 18.3573 69.7823C19.3684 70.4007 20.4546 70.7012 21.6159 70.6837C22.7773 70.6661 23.9264 70.3026 25.0632 69.5932C26.0642 68.9685 26.822 68.2717 27.3363 67.5028C27.8507 66.7339 28.185 66.0538 28.3392 65.4625L31.9008 67.8368Z" fill="#7AC70C"/>
<path d="M33.3254 56.5012C32.6722 55.1287 32.3143 53.702 32.2517 52.221C32.1892 50.74 32.3933 49.3075 32.8642 47.9235C33.3445 46.5127 34.0676 45.2398 35.0336 44.1048C35.9995 42.9697 37.1844 42.062 38.5881 41.3815C39.9739 40.7097 41.4076 40.3481 42.8892 40.2966C44.3708 40.2451 45.8074 40.4711 47.1987 40.9746C48.5995 41.4512 49.8531 42.1771 50.9595 43.1521C52.0839 44.1184 52.9727 45.2877 53.6259 46.6602C54.2963 48.0688 54.6538 49.518 54.6984 51.0077C54.7609 52.4887 54.5388 53.9299 54.0319 55.3314C53.5344 56.7061 52.7984 57.9519 51.8239 59.0688C50.8493 60.1858 49.6692 61.0801 48.2834 61.7519C46.8797 62.4324 45.4413 62.8074 43.9682 62.877C42.4952 62.9465 41.0716 62.7476 39.6974 62.2803C38.3326 61.7862 37.097 61.0516 35.9906 60.0766C34.8843 59.1016 33.9959 57.9098 33.3254 56.5012ZM37.3747 54.5382C37.9334 55.7121 38.7148 56.6557 39.7188 57.3692C40.7323 58.0558 41.8444 58.4613 43.0553 58.5855C44.2576 58.6917 45.4436 58.4612 46.6134 57.8941C47.7472 57.3445 48.6308 56.5717 49.2642 55.5756C49.907 54.5528 50.2616 53.4363 50.328 52.2262C50.3857 50.998 50.1353 49.797 49.5766 48.6232C49.0007 47.4132 48.2151 46.4606 47.2196 45.7652C46.2156 45.0517 45.1214 44.6375 43.9371 44.5227C42.7442 44.3897 41.5719 44.6024 40.4201 45.1608C39.2683 45.7191 38.371 46.5097 37.7282 47.5325C37.0768 48.5373 36.7132 49.6581 36.6375 50.895C36.5531 52.1139 36.7988 53.3283 37.3747 54.5382Z" fill="#7AC70C"/>
<path d="M65.1097 53.8909L57.7687 32.115L57.7971 32.1053L73.454 43.5208L79.2271 24.772L79.2838 24.7525L86.6248 46.5284L82.5092 47.9368L79.1453 37.9586L75.6011 49.9837L75.5444 50.0031L65.9305 43.1783L69.0835 52.5311L65.1097 53.8909Z" fill="#7AC70C"/>
<path d="M94.8488 44.3755L90.2672 21.8568L90.2966 21.8508L104.423 35.1542L112.485 17.3005L112.544 17.2885L117.125 39.8071L112.864 40.681L110.764 30.3624L105.751 41.8335L105.692 41.8455L96.9954 33.8599L98.9632 43.5317L94.8488 44.3755Z" fill="#7AC70C"/>
<path d="M128.765 30.3645C128.826 31.0618 129.094 31.7112 129.568 32.3127C130.042 32.9142 130.635 33.3849 131.348 33.725C132.08 34.0633 132.855 34.1972 133.672 34.1268C134.568 34.0494 135.348 33.7814 136.011 33.3228C136.673 32.8642 137.176 32.2989 137.518 31.627C137.881 30.9533 138.032 30.2678 137.971 29.5705L136.757 15.7035L141.031 15.3349L142.253 29.2915C142.394 30.9054 142.121 32.3743 141.434 33.6982C140.745 35.0022 139.754 36.0713 138.462 36.9054C137.168 37.7196 135.694 38.198 134.041 38.3407C132.407 38.4816 130.882 38.2618 129.466 37.6813C128.068 37.0792 126.916 36.1949 126.011 35.0283C125.104 33.8419 124.58 32.4417 124.439 30.8279L123.217 16.8713L127.551 16.4975L128.765 30.3645Z" fill="#7AC70C"/>
<path d="M170.964 38.488L155.806 24.1617L155.627 37.2112L151.218 37.1029L151.692 14.1578L151.872 14.1622L166.995 28.6977L167.179 15.4083L171.558 15.5159L171.084 38.491L170.964 38.488Z" fill="#7AC70C"/>
<path d="M182.073 16.6086L186.396 17.0973L184.045 39.0517L179.722 38.563L182.073 16.6086Z" fill="#7AC70C"/>
<path d="M196.69 18.4613L211.314 21.2065L210.57 25.34L205.292 24.3493L202.123 41.9462L197.848 41.1437L201.017 23.5467L195.945 22.5948L196.69 18.4613Z" fill="#7AC70C"/>
<path d="M222.262 39.7129L218.502 22.8147L223.664 24.2935L225.818 35.5205L233.297 27.0529L238.459 28.5318L226.443 40.9109L224.612 47.5321L220.43 46.3342L222.262 39.7129Z" fill="#7AC70C"/>
</svg>
