<svg width="369" height="185" viewBox="0 0 369 185" fill="none" xmlns="http://www.w3.org/2000/svg">
<path d="M41.5344 173.527L18.6203 153.186L18.6459 153.155L44.0056 155.727L37.9465 129.927L37.9976 129.866L60.9117 150.207L57.205 154.668L46.7052 145.347L50.7705 161.786L50.7194 161.847L35.2716 160.483L45.1133 169.22L41.5344 173.527Z" fill="#A560EB"/>
<path d="M62.856 148.525L52.0789 116.591L52.3111 116.371L82.3607 130.029L77.4845 134.653L71.9876 131.931L64.9056 138.647L67.0066 144.589L62.856 148.525ZM63.1304 133.608L67.3389 129.617L60.5017 126.237L63.1304 133.608Z" fill="#A560EB"/>
<path d="M79.1254 108.716L79.8703 110.009L79.9091 108.569L81.1442 93.9729L87.1143 89.4002L85.2372 107.46L104.49 113.164L98.6472 117.64L84.0391 113.012L83.7443 115.051L90.2955 124.037L85.6274 127.612L68.2832 103.823L72.9513 100.248L79.1254 108.716Z" fill="#A560EB"/>
<path d="M93.5793 85.434L110.704 74.9481L113.543 79.7752L101.364 87.2323L104.548 92.6456L115.328 86.0449L118.167 90.872L107.387 97.4727L110.611 102.955L123.267 95.2054L126.106 100.032L108.504 110.811L93.5793 85.434Z" fill="#A560EB"/>
<path d="M145.603 90.3713L134.697 61.7382L134.734 61.7238L156.175 76.0992L162.888 50.7964L162.962 50.7674L173.869 79.4005L168.462 81.4992L163.464 68.3788L159.37 84.599L159.295 84.6279L146.139 76.047L150.824 88.3451L145.603 90.3713Z" fill="#A560EB"/>
<path d="M171.534 50.0054L177.122 48.4489L185.035 76.8056L179.447 78.3621L171.534 50.0054Z" fill="#A560EB"/>
<path d="M205.615 49.4962C204.394 49.1127 203.168 48.8389 201.937 48.6748C200.732 48.5055 199.633 48.5192 198.639 48.7159C197.409 48.9593 196.492 49.3991 195.887 50.0354C195.282 50.6716 195.08 51.4862 195.283 52.4791C195.421 53.1585 195.808 53.7208 196.443 54.1659C197.099 54.5798 197.888 54.9129 198.81 55.1653C199.758 55.4125 200.725 55.6153 201.71 55.7738C202.92 55.9692 204.115 56.29 205.294 56.7362C206.468 57.1562 207.51 57.8606 208.419 58.8496C209.323 59.8124 209.961 61.2084 210.334 63.0374C210.632 64.5007 210.53 65.9345 210.027 67.3389C209.524 68.7432 208.62 69.9823 207.315 71.0562C206.004 72.1039 204.276 72.84 202.131 73.2646C200.483 73.5908 198.745 73.6765 196.918 73.5218C195.116 73.3618 193.348 72.8964 191.612 72.1254L193.221 67.1994C194.364 67.7342 195.624 68.11 197.002 68.3266C198.38 68.5432 199.579 68.5506 200.599 68.3487C201.279 68.214 201.94 67.988 202.583 67.6704C203.247 67.3216 203.753 66.868 204.102 66.3097C204.477 65.7461 204.579 65.0463 204.409 64.2102C204.233 63.3479 203.663 62.686 202.698 62.2246C201.754 61.7319 200.661 61.3773 199.42 61.1609C198.461 60.9973 197.466 60.7866 196.433 60.5288C195.401 60.271 194.402 59.9113 193.438 59.4499C192.493 58.9572 191.664 58.2923 190.949 57.4552C190.255 56.5867 189.767 55.4601 189.485 54.0752C189.144 52.403 189.214 50.8803 189.697 49.5072C190.205 48.129 191.067 46.9525 192.284 45.9777C193.495 44.9769 194.982 44.2612 196.745 43.8307C199.073 43.3699 201.012 43.2715 202.563 43.5355C204.14 43.7942 205.581 44.1886 206.886 44.7185L205.615 49.4962Z" fill="#A560EB"/>
<path d="M213.021 41.2379L232.755 39.1918L233.398 44.7548L226.276 45.4931L229.014 69.1755L223.245 69.7736L220.507 46.0913L213.664 46.8008L213.021 41.2379Z" fill="#A560EB"/>
<path d="M239.075 68.3226L251.652 37.6631L251.972 37.6615L265.955 68.1858L259.235 68.22L256.823 62.4731L247.063 62.5228L244.795 68.2935L239.075 68.3226ZM248.991 57.6337L254.791 57.6042L251.786 50.4606L248.991 57.6337Z" fill="#A560EB"/>
<path d="M277.17 50.4908L276.898 51.9503L277.859 50.9221L288.243 41.0788L295.725 41.8345L282.613 53.7735L293.504 71.1916L286.181 70.452L278.112 57.0166L276.568 58.3076L275.714 69.3948L269.864 68.8039L272.125 39.4508L277.975 40.0417L277.17 50.4908Z" fill="#A560EB"/>
<path d="M303.173 43.3739L322.835 47.4482L321.856 52.962L307.873 50.0645L306.776 56.2478L319.153 58.8125L318.174 64.3263L305.797 61.7616L304.685 68.0237L319.216 71.0348L318.237 76.5485L298.027 72.3606L303.173 43.3739Z" fill="#A560EB"/>
<path d="M345.035 61.5803C344.127 60.6583 343.165 59.8312 342.15 59.0992C341.16 58.375 340.181 57.8634 339.213 57.5643C338.015 57.1944 337.006 57.1476 336.184 57.4237C335.362 57.6999 334.817 58.3266 334.549 59.3038C334.366 59.9725 334.455 60.6556 334.816 61.3531C335.21 62.0327 335.759 62.7042 336.461 63.3675C337.189 64.0387 337.953 64.6792 338.753 65.289C339.736 66.0389 340.649 66.8927 341.492 67.8504C342.342 68.7825 342.946 69.9037 343.306 71.2142C343.672 72.499 343.609 74.0415 343.115 75.8417C342.72 77.2819 341.984 78.5052 340.907 79.5114C339.83 80.5176 338.472 81.1861 336.834 81.5169C335.202 81.822 333.342 81.6519 331.253 81.0066C329.648 80.5108 328.071 79.7588 326.523 78.7508C325.001 77.7506 323.646 76.495 322.457 74.9841L326.098 71.3805C326.869 72.3996 327.815 73.3335 328.937 74.182C330.058 75.0306 331.116 75.6083 332.109 75.9153C332.772 76.1199 333.459 76.2345 334.171 76.2591C334.915 76.2658 335.567 76.1047 336.127 75.7755C336.713 75.4543 337.118 74.8821 337.344 74.0592C337.577 73.2105 337.37 72.3516 336.724 71.4825C336.11 70.5956 335.303 69.7604 334.302 68.9769C333.527 68.375 332.741 67.7138 331.944 66.9933C331.146 66.2727 330.424 65.478 329.778 64.6089C329.165 63.722 328.73 62.7369 328.474 61.6536C328.251 60.5525 328.326 59.3205 328.7 57.9574C329.151 56.3115 329.899 54.9943 330.944 54.0059C332.014 53.0254 333.307 52.3926 334.822 52.1075C336.344 51.7966 337.982 51.8702 339.736 52.3282C342.004 53.0286 343.764 53.8653 345.017 54.8382C346.296 55.819 347.394 56.8555 348.311 57.9476L345.035 61.5803Z" fill="#A560EB"/>
<path d="M355.062 56.5468L359.73 58.3381L352.338 79.7372L347.67 77.9459L355.062 56.5468ZM347.353 86.9447C346.456 86.6008 345.805 86.0795 345.397 85.3809C344.999 84.657 344.939 83.8918 345.218 83.0853C345.488 82.3039 346 81.7585 346.756 81.4489C347.536 81.1489 348.362 81.166 349.233 81.5004C350.105 81.8348 350.723 82.3717 351.088 83.1112C351.478 83.8602 351.537 84.6254 351.268 85.4068C350.989 86.2133 350.489 86.7636 349.767 87.0575C349.054 87.3262 348.249 87.2886 347.353 86.9447Z" fill="#A560EB"/>
</svg>
