<svg width="304" height="296" viewBox="0 0 304 296" fill="none" xmlns="http://www.w3.org/2000/svg">
<g filter="url(#filter0_f_2043_789)">
<path d="M231.386 201.124L196.341 233.395C189.348 229.163 178.848 225.664 165.039 224.417C149.947 223.102 134.982 225.191 126.893 229.915C111.157 239.183 124.287 253.428 152.787 258.175C173.254 261.578 194.245 258.027 202.402 250.517L242.776 213.339L248.917 207.785C256.577 212.953 266.155 208.936 266.235 207.724C258.791 203.288 257.523 198.582 257.604 197.346C257.686 196.109 243.84 193.788 243.84 193.788C239.092 193.161 240.172 193.544 231.386 201.124Z" fill="#737373"/>
<path d="M252.202 237.037C290.679 240.22 291.474 221.664 272.358 218.598L291.152 216.525C296.1 217.475 299.385 220.33 299.617 222.206C302.73 247.381 257.965 244.554 247.553 240.449L252.202 237.037Z" fill="#737373"/>
<path d="M273.861 219.363C255.263 218.124 246.452 210.223 248.178 207.678L263.85 206.062C274.585 213.161 295.866 216.174 297.195 219.587L288.169 223.359C288.032 223.45 287.838 223.532 287.588 223.602L288.169 223.359C289.776 222.303 283.856 220.029 273.861 219.363Z" fill="#737373"/>
</g>
<path d="M137.417 80.0974L151.312 170.38C139.709 166.874 126.132 167.366 112.797 174.78C98.2881 182.98 88.47 197.951 88.0068 213.295C87.2113 243.303 117.485 262.591 147.935 251.673C169.794 243.821 182.728 221.566 179.494 200.553L163.486 96.5436L161.187 80.928C174.614 85.8421 177.287 70.8537 175.722 68.3524C163.462 64.7576 156.052 56.178 154.456 53.6263C152.859 51.0745 138.046 56.3489 138.046 56.3489C133.193 58.4974 134.62 58.4923 137.417 80.0974Z" fill="#FF9401"/>
<path d="M203.463 137.658C240.229 116.427 215.868 78.4077 195.599 85.9592L208.664 68.268C214.121 66.6288 220.745 70.0298 223.471 73.6497C260.059 122.217 218.467 148.686 204.142 147.885L203.463 137.658Z" fill="#FF9401"/>
<path d="M197.9 86.4234C180.534 97.2897 162.439 87.676 160.463 81.2995L171.508 66.7748C190.144 73.3855 212.169 64.1718 217.895 70.105L215.366 84.2042C215.372 84.486 215.319 84.7895 215.203 85.1126L215.366 84.2042C215.297 80.9189 207.233 80.5831 197.9 86.4234Z" fill="#FF9401"/>
<defs>
<filter id="filter0_f_2043_789" x="116.156" y="189.583" width="187.616" height="73.8894" filterUnits="userSpaceOnUse" color-interpolation-filters="sRGB">
<feFlood flood-opacity="0" result="BackgroundImageFix"/>
<feBlend mode="normal" in="SourceGraphic" in2="BackgroundImageFix" result="shape"/>
<feGaussianBlur stdDeviation="2" result="effect1_foregroundBlur_2043_789"/>
</filter>
</defs>
</svg>
