<svg width="305" height="133" viewBox="0 0 305 133" fill="none" xmlns="http://www.w3.org/2000/svg">
<path d="M6.18693 49.9733L45.8033 35.5507L49.8742 46.7327L35.5771 51.9377L52.9076 99.5411L41.3262 103.757L23.9958 56.1539L10.2578 61.1553L6.18693 49.9733Z" fill="#1273A3"/>
<path d="M69.9026 28.7066L81.9497 26.1041L92.6468 75.6219L121.394 69.4118L123.906 81.0435L83.1124 89.856L69.9026 28.7066Z" fill="#1273A3"/>
<path d="M141.362 78.4666L137.773 16.0096L156.442 14.9369C162.722 14.5761 168.122 15.2024 172.642 16.8158C177.162 18.4292 180.84 20.7152 183.678 23.674C186.573 26.6295 188.752 29.995 190.218 33.7705C191.684 37.546 192.529 41.3855 192.753 45.289C193.02 49.9281 192.412 54.1632 190.929 57.9946C189.499 61.7661 187.419 65.0643 184.686 67.889C181.95 70.6571 178.728 72.8573 175.019 74.4894C171.306 76.0649 167.329 76.9746 163.086 77.2184L141.362 78.4666ZM152.984 65.8792L160.282 65.4599C166.505 65.1023 171.419 63.2023 175.024 59.7598C178.686 56.3141 180.336 51.4514 179.975 45.1718C179.741 41.0985 178.872 37.828 177.368 35.3602C175.917 32.8326 174.161 30.9185 172.1 29.6179C170.095 28.3141 168.06 27.4661 165.994 27.074C163.925 26.6253 162.183 26.4415 160.769 26.5228L150.755 27.0981L152.984 65.8792Z" fill="#1273A3"/>
<path d="M236.894 16.0647C244.729 16.8723 250.535 19.4076 254.311 23.6706C258.149 27.883 259.74 33.174 259.084 39.5436C258.718 43.0948 257.597 46.5112 255.72 49.7927C253.9 53.0801 251.11 55.5554 247.35 57.2186L259.481 81.2843L245.192 79.8115L234.126 58.6754L225.924 57.83L223.885 77.6152L211.625 76.3515L218.039 14.1212L236.894 16.0647ZM235.853 46.8904C238.333 47.1461 240.302 46.8363 241.759 45.9611C243.279 45.0354 244.393 43.897 245.102 42.5459C245.817 41.1384 246.235 39.8428 246.357 38.6591C246.427 37.9827 246.402 37.1255 246.281 36.0877C246.222 34.9992 245.938 33.8876 245.428 32.7527C244.918 31.6178 244.053 30.6171 242.832 29.7507C241.668 28.8901 240.014 28.3494 237.872 28.1286L229.079 27.2222L227.144 45.9927L235.853 46.8904Z" fill="#1273A3"/>
<path d="M276.641 57.0153C277 55.2958 277.912 53.981 279.375 53.071C280.894 52.1726 282.375 51.874 283.817 52.1752C285.259 52.4764 286.469 53.3369 287.446 54.7566C288.423 56.1763 288.732 57.746 288.373 59.4656C287.991 61.2961 287.074 62.6386 285.621 63.4931C284.181 64.2922 282.74 64.5411 281.297 64.2399C279.855 63.9387 278.606 63.1279 277.551 61.8075C276.562 60.4432 276.259 58.8458 276.641 57.0153ZM282.639 79.0213C280.805 81.7063 278.976 84.3636 277.153 86.9932C275.33 89.6227 273.502 92.28 271.668 94.9651L262.349 93.0188C264.072 90.3106 265.762 87.6243 267.418 84.96C269.13 82.3073 270.848 79.6268 272.571 76.9186L282.639 79.0213Z" fill="#1273A3"/>
</svg>
