<svg width="724" height="322" viewBox="0 0 724 322" fill="none" xmlns="http://www.w3.org/2000/svg">
<g filter="url(#filter0_d_1912:676)">
<path d="M50.9474 220.28C43.7274 220.28 37.9641 217.747 33.6574 212.68C29.4774 207.487 27.3874 200.963 27.3874 193.11C27.3874 185.257 27.8941 175.123 28.9074 162.71C29.9208 150.297 30.4274 138.833 30.4274 128.32C30.4274 117.807 29.4141 110.08 27.3874 105.14C26.5008 103.24 23.8408 99.63 19.4074 94.31L16.9374 91.46L17.6974 87.66C28.8441 84.7467 44.0441 83.29 63.2974 83.29C66.4641 86.9633 68.0474 94.1833 68.0474 104.95C68.0474 115.717 67.2874 128.637 65.7674 143.71C64.2474 158.657 63.4874 169.55 63.4874 176.39C63.4874 183.23 63.9941 187.727 65.0074 189.88C66.0208 192.033 67.6674 193.11 69.9474 193.11C72.2274 193.11 75.2041 191.907 78.8774 189.5C82.5508 186.967 85.4641 184.307 87.6174 181.52C87.6174 180.76 88.5041 172.59 90.2774 157.01C92.1774 141.303 93.1274 128.32 93.1274 118.06C93.1274 107.8 91.9241 98.7433 89.5174 90.89C100.537 85.8233 113.774 83.2267 129.227 83.1C131.381 87.66 132.457 94.6267 132.457 104C132.457 113.373 130.811 127.877 127.517 147.51C124.351 167.143 122.767 178.733 122.767 182.28C122.767 189.373 124.541 192.92 128.087 192.92C131.761 192.92 136.384 189.753 141.957 183.42C147.657 177.087 152.787 168.98 157.347 159.1C162.034 149.093 164.631 139.72 165.137 130.98L143.667 116.54C144.807 105.14 148.861 95.5133 155.827 87.66C157.347 86.0133 159.121 84.5567 161.147 83.29C170.267 83.29 177.171 85.6967 181.857 90.51C186.544 95.3233 188.887 100.643 188.887 106.47C188.887 116.857 186.544 128.7 181.857 142C177.171 155.173 171.154 167.523 163.807 179.05C156.587 190.577 147.974 200.33 137.967 208.31C128.087 216.29 118.397 220.28 108.897 220.28C103.831 220.28 99.3341 218.633 95.4074 215.34C91.4808 212.047 88.8208 207.043 87.4274 200.33C74.7608 213.63 62.6008 220.28 50.9474 220.28Z" fill="#1A9CDA"/>
</g>
<g filter="url(#filter1_d_1912:676)">
<path d="M279.451 159.05C276.791 167.283 274.511 177.1 272.611 188.5C270.711 199.773 269.761 207.69 269.761 212.25C269.761 216.683 270.458 218.9 271.851 218.9L281.351 216.24L284.771 225.74C280.718 228.907 275.525 231.82 269.191 234.48C262.985 237.013 257.475 238.28 252.661 238.28C244.428 238.28 239.235 234.733 237.081 227.64C227.075 234.733 218.208 238.28 210.481 238.28C202.881 238.28 196.991 235.493 192.811 229.92C188.631 224.347 186.541 216.367 186.541 205.98C186.541 191.667 190.215 179.063 197.561 168.17C204.908 157.277 214.598 151.83 226.631 151.83C233.218 151.83 239.931 153.667 246.771 157.34C247.785 155.06 248.608 153.413 249.241 152.4C258.361 152.4 268.431 154.617 279.451 159.05ZM222.261 203.7C222.261 210.033 222.705 214.023 223.591 215.67C224.478 217.317 226.125 218.14 228.531 218.14C230.938 218.14 233.281 217.19 235.561 215.29C236.068 200.597 238.475 185.207 242.781 169.12C240.881 167.98 238.665 167.41 236.131 167.41C233.725 167.41 231.508 168.803 229.481 171.59C227.581 174.377 226.125 177.86 225.111 182.04C223.211 190.02 222.261 197.24 222.261 203.7Z" fill="#2F9ACD"/>
</g>
<g filter="url(#filter2_d_1912:676)">
<path d="M295.608 198.14H294.088C293.708 196.367 293.518 193.643 293.518 189.97C293.518 186.17 295.038 176.48 298.078 160.9C301.245 145.193 302.828 136.327 302.828 134.3C302.828 132.147 302.258 129.993 301.118 127.84C299.978 125.56 298.838 123.85 297.698 122.71L295.988 121L296.368 118.15C303.968 115.743 316.571 114.54 334.178 114.54C335.825 117.707 336.838 121.443 337.218 125.75C344.945 117.137 351.785 112.83 357.738 112.83C365.465 112.83 369.708 119.353 370.468 132.4C370.215 132.653 369.898 133.097 369.518 133.73C369.138 134.237 368.251 135.187 366.858 136.58C365.465 137.973 364.008 139.24 362.488 140.38C358.181 143.293 353.621 145.003 348.808 145.51C348.681 145.51 347.795 144.117 346.148 141.33C344.628 138.543 343.298 137.15 342.158 137.15C341.145 137.15 339.181 138.29 336.268 140.57C335.888 142.85 335.128 146.713 333.988 152.16C332.975 157.607 332.151 162.103 331.518 165.65C329.618 175.023 328.668 182.877 328.668 189.21L328.858 194.91C323.285 197.063 312.201 198.14 295.608 198.14Z" fill="#2DB7BF"/>
</g>
<g filter="url(#filter3_d_1912:676)">
<path d="M437.275 65.52C437.275 74.7667 434.171 92.7533 427.965 119.48C435.311 115.047 442.088 112.83 448.295 112.83C454.501 112.83 459.948 115.427 464.635 120.62C469.321 125.813 471.665 135.313 471.665 149.12C471.665 162.8 467.865 174.58 460.265 184.46C452.791 194.34 443.545 199.28 432.525 199.28C425.938 199.28 419.415 197.507 412.955 193.96C400.288 197 389.585 198.52 380.845 198.52C380.211 198.14 379.895 195.987 379.895 192.06C379.895 182.813 383.568 162.99 390.915 132.59C398.388 102.19 402.125 81.5433 402.125 70.65C402.125 67.8633 401.998 65.2033 401.745 62.67C414.031 59.25 425.495 57.54 436.135 57.54C436.895 58.8067 437.275 61.4667 437.275 65.52ZM431.385 131.83C429.611 131.83 427.331 132.527 424.545 133.92C419.098 157.353 415.931 173.123 415.045 181.23C417.325 182.37 419.415 182.94 421.315 182.94C425.621 182.94 429.105 178.317 431.765 169.07C434.551 159.823 435.945 151.337 435.945 143.61C435.945 135.757 434.425 131.83 431.385 131.83Z" fill="#7DB320"/>
</g>
<g filter="url(#filter4_d_1912:676)">
<path d="M535.07 239.36C531.017 242.907 525.697 245.947 519.11 248.48C512.523 251.013 506.507 252.28 501.06 252.28C495.74 252.28 491.37 250.76 487.95 247.72C484.53 244.553 482.82 240.057 482.82 234.23C482.82 228.403 485.987 212.19 492.32 185.59C498.78 158.863 502.01 139.04 502.01 126.12C502.01 123.333 501.63 119.787 500.87 115.48C512.777 112.187 524.303 110.54 535.45 110.54C536.59 112.567 537.16 115.86 537.16 120.42C537.16 129.033 533.93 147.843 527.47 176.85C521.137 205.73 517.97 222.387 517.97 226.82C517.97 231.253 518.73 233.47 520.25 233.47C521.517 233.47 524.24 232.647 528.42 231L530.51 230.05L535.07 239.36ZM543.976 215.61C543.976 199.903 548.726 187.68 558.226 178.94C567.853 170.2 579.696 165.83 593.756 165.83C603.51 165.83 611.3 167.983 617.126 172.29C623.08 176.47 626.056 182.107 626.056 189.2C626.056 194.393 624.473 199.017 621.306 203.07C618.14 207.123 614.276 210.227 609.716 212.38C600.09 216.687 591.73 219.283 584.636 220.17L579.886 220.74C581.28 229.1 585.46 233.28 592.426 233.28C595.466 233.28 598.823 232.647 602.496 231.38C606.17 229.987 609.083 228.593 611.236 227.2L614.466 225.3L620.546 233.47C620.546 233.47 619.85 234.167 618.456 235.56C617.696 236.32 615.86 237.84 612.946 240.12C610.16 242.273 607.183 244.173 604.016 245.82C600.976 247.467 597.05 248.923 592.236 250.19C587.423 251.583 582.61 252.28 577.796 252.28C567.03 252.28 558.67 249.177 552.716 242.97C546.89 236.637 543.976 227.517 543.976 215.61ZM579.126 208.2C582.8 207.693 586.473 204.717 590.146 199.27C593.82 193.697 595.656 189.073 595.656 185.4C595.656 181.6 594.58 179.7 592.426 179.7C589.26 179.7 586.346 182.17 583.686 187.11C581.026 192.05 579.506 199.08 579.126 208.2Z" fill="#699E0E"/>
</g>
<g filter="url(#filter5_d_1912:676)">
<path d="M640.608 211.14H639.088C638.708 209.367 638.518 206.643 638.518 202.97C638.518 199.17 640.038 189.48 643.078 173.9C646.245 158.193 647.828 149.327 647.828 147.3C647.828 145.147 647.258 142.993 646.118 140.84C644.978 138.56 643.838 136.85 642.698 135.71L640.988 134L641.368 131.15C648.968 128.743 661.571 127.54 679.178 127.54C680.825 130.707 681.838 134.443 682.218 138.75C689.945 130.137 696.785 125.83 702.738 125.83C710.465 125.83 714.708 132.353 715.468 145.4C715.215 145.653 714.898 146.097 714.518 146.73C714.138 147.237 713.251 148.187 711.858 149.58C710.465 150.973 709.008 152.24 707.488 153.38C703.181 156.293 698.621 158.003 693.808 158.51C693.681 158.51 692.795 157.117 691.148 154.33C689.628 151.543 688.298 150.15 687.158 150.15C686.145 150.15 684.181 151.29 681.268 153.57C680.888 155.85 680.128 159.713 678.988 165.16C677.975 170.607 677.151 175.103 676.518 178.65C674.618 188.023 673.668 195.877 673.668 202.21L673.858 207.91C668.285 210.063 657.201 211.14 640.608 211.14Z" fill="#BC7707"/>
</g>
<g filter="url(#filter6_d_1912:676)">
<path d="M44.9474 214.28C37.7274 214.28 31.9641 211.747 27.6574 206.68C23.4774 201.487 21.3874 194.963 21.3874 187.11C21.3874 179.257 21.8941 169.123 22.9074 156.71C23.9208 144.297 24.4274 132.833 24.4274 122.32C24.4274 111.807 23.4141 104.08 21.3874 99.14C20.5008 97.24 17.8408 93.63 13.4074 88.31L10.9374 85.46L11.6974 81.66C22.8441 78.7467 38.0441 77.29 57.2974 77.29C60.4641 80.9633 62.0474 88.1833 62.0474 98.95C62.0474 109.717 61.2874 122.637 59.7674 137.71C58.2474 152.657 57.4874 163.55 57.4874 170.39C57.4874 177.23 57.9941 181.727 59.0074 183.88C60.0208 186.033 61.6674 187.11 63.9474 187.11C66.2274 187.11 69.2041 185.907 72.8774 183.5C76.5508 180.967 79.4641 178.307 81.6174 175.52C81.6174 174.76 82.5041 166.59 84.2774 151.01C86.1774 135.303 87.1274 122.32 87.1274 112.06C87.1274 101.8 85.9241 92.7433 83.5174 84.89C94.5374 79.8233 107.774 77.2267 123.227 77.1C125.381 81.66 126.457 88.6267 126.457 98C126.457 107.373 124.811 121.877 121.517 141.51C118.351 161.143 116.767 172.733 116.767 176.28C116.767 183.373 118.541 186.92 122.087 186.92C125.761 186.92 130.384 183.753 135.957 177.42C141.657 171.087 146.787 162.98 151.347 153.1C156.034 143.093 158.631 133.72 159.137 124.98L137.667 110.54C138.807 99.14 142.861 89.5133 149.827 81.66C151.347 80.0133 153.121 78.5567 155.147 77.29C164.267 77.29 171.171 79.6967 175.857 84.51C180.544 89.3233 182.887 94.6433 182.887 100.47C182.887 110.857 180.544 122.7 175.857 136C171.171 149.173 165.154 161.523 157.807 173.05C150.587 184.577 141.974 194.33 131.967 202.31C122.087 210.29 112.397 214.28 102.897 214.28C97.8308 214.28 93.3341 212.633 89.4074 209.34C85.4808 206.047 82.8208 201.043 81.4274 194.33C68.7608 207.63 56.6008 214.28 44.9474 214.28Z" fill="#1CB0F6"/>
</g>
<g filter="url(#filter7_d_1912:676)">
<path d="M273.451 153.05C270.791 161.283 268.511 171.1 266.611 182.5C264.711 193.773 263.761 201.69 263.761 206.25C263.761 210.683 264.458 212.9 265.851 212.9L275.351 210.24L278.771 219.74C274.718 222.907 269.525 225.82 263.191 228.48C256.985 231.013 251.475 232.28 246.661 232.28C238.428 232.28 233.235 228.733 231.081 221.64C221.075 228.733 212.208 232.28 204.481 232.28C196.881 232.28 190.991 229.493 186.811 223.92C182.631 218.347 180.541 210.367 180.541 199.98C180.541 185.667 184.215 173.063 191.561 162.17C198.908 151.277 208.598 145.83 220.631 145.83C227.218 145.83 233.931 147.667 240.771 151.34C241.785 149.06 242.608 147.413 243.241 146.4C252.361 146.4 262.431 148.617 273.451 153.05ZM216.261 197.7C216.261 204.033 216.705 208.023 217.591 209.67C218.478 211.317 220.125 212.14 222.531 212.14C224.938 212.14 227.281 211.19 229.561 209.29C230.068 194.597 232.475 179.207 236.781 163.12C234.881 161.98 232.665 161.41 230.131 161.41C227.725 161.41 225.508 162.803 223.481 165.59C221.581 168.377 220.125 171.86 219.111 176.04C217.211 184.02 216.261 191.24 216.261 197.7Z" fill="#49BFF7"/>
</g>
<g filter="url(#filter8_d_1912:676)">
<path d="M289.608 192.14H288.088C287.708 190.367 287.518 187.643 287.518 183.97C287.518 180.17 289.038 170.48 292.078 154.9C295.245 139.193 296.828 130.327 296.828 128.3C296.828 126.147 296.258 123.993 295.118 121.84C293.978 119.56 292.838 117.85 291.698 116.71L289.988 115L290.368 112.15C297.968 109.743 310.571 108.54 328.178 108.54C329.825 111.707 330.838 115.443 331.218 119.75C338.945 111.137 345.785 106.83 351.738 106.83C359.465 106.83 363.708 113.353 364.468 126.4C364.215 126.653 363.898 127.097 363.518 127.73C363.138 128.237 362.251 129.187 360.858 130.58C359.465 131.973 358.008 133.24 356.488 134.38C352.181 137.293 347.621 139.003 342.808 139.51C342.681 139.51 341.795 138.117 340.148 135.33C338.628 132.543 337.298 131.15 336.158 131.15C335.145 131.15 333.181 132.29 330.268 134.57C329.888 136.85 329.128 140.713 327.988 146.16C326.975 151.607 326.151 156.103 325.518 159.65C323.618 169.023 322.668 176.877 322.668 183.21L322.858 188.91C317.285 191.063 306.201 192.14 289.608 192.14Z" fill="#45D3DC"/>
</g>
<g filter="url(#filter9_d_1912:676)">
<path d="M431.275 59.52C431.275 68.7667 428.171 86.7533 421.965 113.48C429.311 109.047 436.088 106.83 442.295 106.83C448.501 106.83 453.948 109.427 458.635 114.62C463.321 119.813 465.665 129.313 465.665 143.12C465.665 156.8 461.865 168.58 454.265 178.46C446.791 188.34 437.545 193.28 426.525 193.28C419.938 193.28 413.415 191.507 406.955 187.96C394.288 191 383.585 192.52 374.845 192.52C374.211 192.14 373.895 189.987 373.895 186.06C373.895 176.813 377.568 156.99 384.915 126.59C392.388 96.19 396.125 75.5433 396.125 64.65C396.125 61.8633 395.998 59.2033 395.745 56.67C408.031 53.25 419.495 51.54 430.135 51.54C430.895 52.8067 431.275 55.4667 431.275 59.52ZM425.385 125.83C423.611 125.83 421.331 126.527 418.545 127.92C413.098 151.353 409.931 167.123 409.045 175.23C411.325 176.37 413.415 176.94 415.315 176.94C419.621 176.94 423.105 172.317 425.765 163.07C428.551 153.823 429.945 145.337 429.945 137.61C429.945 129.757 428.425 125.83 425.385 125.83Z" fill="#A1DF36"/>
</g>
<g filter="url(#filter10_d_1912:676)">
<path d="M529.07 233.36C525.017 236.907 519.697 239.947 513.11 242.48C506.523 245.013 500.507 246.28 495.06 246.28C489.74 246.28 485.37 244.76 481.95 241.72C478.53 238.553 476.82 234.057 476.82 228.23C476.82 222.403 479.987 206.19 486.32 179.59C492.78 152.863 496.01 133.04 496.01 120.12C496.01 117.333 495.63 113.787 494.87 109.48C506.777 106.187 518.303 104.54 529.45 104.54C530.59 106.567 531.16 109.86 531.16 114.42C531.16 123.033 527.93 141.843 521.47 170.85C515.137 199.73 511.97 216.387 511.97 220.82C511.97 225.253 512.73 227.47 514.25 227.47C515.517 227.47 518.24 226.647 522.42 225L524.51 224.05L529.07 233.36ZM537.976 209.61C537.976 193.903 542.726 181.68 552.226 172.94C561.853 164.2 573.696 159.83 587.756 159.83C597.51 159.83 605.3 161.983 611.126 166.29C617.08 170.47 620.056 176.107 620.056 183.2C620.056 188.393 618.473 193.017 615.306 197.07C612.14 201.123 608.276 204.227 603.716 206.38C594.09 210.687 585.73 213.283 578.636 214.17L573.886 214.74C575.28 223.1 579.46 227.28 586.426 227.28C589.466 227.28 592.823 226.647 596.496 225.38C600.17 223.987 603.083 222.593 605.236 221.2L608.466 219.3L614.546 227.47C614.546 227.47 613.85 228.167 612.456 229.56C611.696 230.32 609.86 231.84 606.946 234.12C604.16 236.273 601.183 238.173 598.016 239.82C594.976 241.467 591.05 242.923 586.236 244.19C581.423 245.583 576.61 246.28 571.796 246.28C561.03 246.28 552.67 243.177 546.716 236.97C540.89 230.637 537.976 221.517 537.976 209.61ZM573.126 202.2C576.8 201.693 580.473 198.717 584.146 193.27C587.82 187.697 589.656 183.073 589.656 179.4C589.656 175.6 588.58 173.7 586.426 173.7C583.26 173.7 580.346 176.17 577.686 181.11C575.026 186.05 573.506 193.08 573.126 202.2Z" fill="#8ED416"/>
</g>
<g filter="url(#filter11_d_1912:676)">
<path d="M634.608 205.14H633.088C632.708 203.367 632.518 200.643 632.518 196.97C632.518 193.17 634.038 183.48 637.078 167.9C640.245 152.193 641.828 143.327 641.828 141.3C641.828 139.147 641.258 136.993 640.118 134.84C638.978 132.56 637.838 130.85 636.698 129.71L634.988 128L635.368 125.15C642.968 122.743 655.571 121.54 673.178 121.54C674.825 124.707 675.838 128.443 676.218 132.75C683.945 124.137 690.785 119.83 696.738 119.83C704.465 119.83 708.708 126.353 709.468 139.4C709.215 139.653 708.898 140.097 708.518 140.73C708.138 141.237 707.251 142.187 705.858 143.58C704.465 144.973 703.008 146.24 701.488 147.38C697.181 150.293 692.621 152.003 687.808 152.51C687.681 152.51 686.795 151.117 685.148 148.33C683.628 145.543 682.298 144.15 681.158 144.15C680.145 144.15 678.181 145.29 675.268 147.57C674.888 149.85 674.128 153.713 672.988 159.16C671.975 164.607 671.151 169.103 670.518 172.65C668.618 182.023 667.668 189.877 667.668 196.21L667.858 201.91C662.285 204.063 651.201 205.14 634.608 205.14Z" fill="#FF9E01"/>
</g>
<defs>
<filter id="filter0_d_1912:676" x="16.9375" y="83.1" width="179.95" height="145.18" filterUnits="userSpaceOnUse" color-interpolation-filters="sRGB">
<feFlood flood-opacity="0" result="BackgroundImageFix"/>
<feColorMatrix in="SourceAlpha" type="matrix" values="0 0 0 0 0 0 0 0 0 0 0 0 0 0 0 0 0 0 127 0" result="hardAlpha"/>
<feOffset dx="4" dy="4"/>
<feGaussianBlur stdDeviation="2"/>
<feComposite in2="hardAlpha" operator="out"/>
<feColorMatrix type="matrix" values="0 0 0 0 0 0 0 0 0 0 0 0 0 0 0 0 0 0 0.4 0"/>
<feBlend mode="normal" in2="BackgroundImageFix" result="effect1_dropShadow_1912:676"/>
<feBlend mode="normal" in="SourceGraphic" in2="effect1_dropShadow_1912:676" result="shape"/>
</filter>
<filter id="filter1_d_1912:676" x="186.541" y="151.83" width="106.23" height="94.45" filterUnits="userSpaceOnUse" color-interpolation-filters="sRGB">
<feFlood flood-opacity="0" result="BackgroundImageFix"/>
<feColorMatrix in="SourceAlpha" type="matrix" values="0 0 0 0 0 0 0 0 0 0 0 0 0 0 0 0 0 0 127 0" result="hardAlpha"/>
<feOffset dx="4" dy="4"/>
<feGaussianBlur stdDeviation="2"/>
<feComposite in2="hardAlpha" operator="out"/>
<feColorMatrix type="matrix" values="0 0 0 0 0 0 0 0 0 0 0 0 0 0 0 0 0 0 0.4 0"/>
<feBlend mode="normal" in2="BackgroundImageFix" result="effect1_dropShadow_1912:676"/>
<feBlend mode="normal" in="SourceGraphic" in2="effect1_dropShadow_1912:676" result="shape"/>
</filter>
<filter id="filter2_d_1912:676" x="293.518" y="112.83" width="84.95" height="93.31" filterUnits="userSpaceOnUse" color-interpolation-filters="sRGB">
<feFlood flood-opacity="0" result="BackgroundImageFix"/>
<feColorMatrix in="SourceAlpha" type="matrix" values="0 0 0 0 0 0 0 0 0 0 0 0 0 0 0 0 0 0 127 0" result="hardAlpha"/>
<feOffset dx="4" dy="4"/>
<feGaussianBlur stdDeviation="2"/>
<feComposite in2="hardAlpha" operator="out"/>
<feColorMatrix type="matrix" values="0 0 0 0 0 0 0 0 0 0 0 0 0 0 0 0 0 0 0.4 0"/>
<feBlend mode="normal" in2="BackgroundImageFix" result="effect1_dropShadow_1912:676"/>
<feBlend mode="normal" in="SourceGraphic" in2="effect1_dropShadow_1912:676" result="shape"/>
</filter>
<filter id="filter3_d_1912:676" x="379.895" y="57.54" width="99.77" height="149.74" filterUnits="userSpaceOnUse" color-interpolation-filters="sRGB">
<feFlood flood-opacity="0" result="BackgroundImageFix"/>
<feColorMatrix in="SourceAlpha" type="matrix" values="0 0 0 0 0 0 0 0 0 0 0 0 0 0 0 0 0 0 127 0" result="hardAlpha"/>
<feOffset dx="4" dy="4"/>
<feGaussianBlur stdDeviation="2"/>
<feComposite in2="hardAlpha" operator="out"/>
<feColorMatrix type="matrix" values="0 0 0 0 0 0 0 0 0 0 0 0 0 0 0 0 0 0 0.4 0"/>
<feBlend mode="normal" in2="BackgroundImageFix" result="effect1_dropShadow_1912:676"/>
<feBlend mode="normal" in="SourceGraphic" in2="effect1_dropShadow_1912:676" result="shape"/>
</filter>
<filter id="filter4_d_1912:676" x="482.82" y="110.54" width="151.236" height="149.74" filterUnits="userSpaceOnUse" color-interpolation-filters="sRGB">
<feFlood flood-opacity="0" result="BackgroundImageFix"/>
<feColorMatrix in="SourceAlpha" type="matrix" values="0 0 0 0 0 0 0 0 0 0 0 0 0 0 0 0 0 0 127 0" result="hardAlpha"/>
<feOffset dx="4" dy="4"/>
<feGaussianBlur stdDeviation="2"/>
<feComposite in2="hardAlpha" operator="out"/>
<feColorMatrix type="matrix" values="0 0 0 0 0 0 0 0 0 0 0 0 0 0 0 0 0 0 0.4 0"/>
<feBlend mode="normal" in2="BackgroundImageFix" result="effect1_dropShadow_1912:676"/>
<feBlend mode="normal" in="SourceGraphic" in2="effect1_dropShadow_1912:676" result="shape"/>
</filter>
<filter id="filter5_d_1912:676" x="638.518" y="125.83" width="84.95" height="93.31" filterUnits="userSpaceOnUse" color-interpolation-filters="sRGB">
<feFlood flood-opacity="0" result="BackgroundImageFix"/>
<feColorMatrix in="SourceAlpha" type="matrix" values="0 0 0 0 0 0 0 0 0 0 0 0 0 0 0 0 0 0 127 0" result="hardAlpha"/>
<feOffset dx="4" dy="4"/>
<feGaussianBlur stdDeviation="2"/>
<feComposite in2="hardAlpha" operator="out"/>
<feColorMatrix type="matrix" values="0 0 0 0 0 0 0 0 0 0 0 0 0 0 0 0 0 0 0.4 0"/>
<feBlend mode="normal" in2="BackgroundImageFix" result="effect1_dropShadow_1912:676"/>
<feBlend mode="normal" in="SourceGraphic" in2="effect1_dropShadow_1912:676" result="shape"/>
</filter>
<filter id="filter6_d_1912:676" x="10.9375" y="77.1" width="179.95" height="145.18" filterUnits="userSpaceOnUse" color-interpolation-filters="sRGB">
<feFlood flood-opacity="0" result="BackgroundImageFix"/>
<feColorMatrix in="SourceAlpha" type="matrix" values="0 0 0 0 0 0 0 0 0 0 0 0 0 0 0 0 0 0 127 0" result="hardAlpha"/>
<feOffset dx="4" dy="4"/>
<feGaussianBlur stdDeviation="2"/>
<feComposite in2="hardAlpha" operator="out"/>
<feColorMatrix type="matrix" values="0 0 0 0 0 0 0 0 0 0 0 0 0 0 0 0 0 0 0.4 0"/>
<feBlend mode="normal" in2="BackgroundImageFix" result="effect1_dropShadow_1912:676"/>
<feBlend mode="normal" in="SourceGraphic" in2="effect1_dropShadow_1912:676" result="shape"/>
</filter>
<filter id="filter7_d_1912:676" x="180.541" y="145.83" width="106.23" height="94.45" filterUnits="userSpaceOnUse" color-interpolation-filters="sRGB">
<feFlood flood-opacity="0" result="BackgroundImageFix"/>
<feColorMatrix in="SourceAlpha" type="matrix" values="0 0 0 0 0 0 0 0 0 0 0 0 0 0 0 0 0 0 127 0" result="hardAlpha"/>
<feOffset dx="4" dy="4"/>
<feGaussianBlur stdDeviation="2"/>
<feComposite in2="hardAlpha" operator="out"/>
<feColorMatrix type="matrix" values="0 0 0 0 0 0 0 0 0 0 0 0 0 0 0 0 0 0 0.4 0"/>
<feBlend mode="normal" in2="BackgroundImageFix" result="effect1_dropShadow_1912:676"/>
<feBlend mode="normal" in="SourceGraphic" in2="effect1_dropShadow_1912:676" result="shape"/>
</filter>
<filter id="filter8_d_1912:676" x="287.518" y="106.83" width="84.95" height="93.31" filterUnits="userSpaceOnUse" color-interpolation-filters="sRGB">
<feFlood flood-opacity="0" result="BackgroundImageFix"/>
<feColorMatrix in="SourceAlpha" type="matrix" values="0 0 0 0 0 0 0 0 0 0 0 0 0 0 0 0 0 0 127 0" result="hardAlpha"/>
<feOffset dx="4" dy="4"/>
<feGaussianBlur stdDeviation="2"/>
<feComposite in2="hardAlpha" operator="out"/>
<feColorMatrix type="matrix" values="0 0 0 0 0 0 0 0 0 0 0 0 0 0 0 0 0 0 0.4 0"/>
<feBlend mode="normal" in2="BackgroundImageFix" result="effect1_dropShadow_1912:676"/>
<feBlend mode="normal" in="SourceGraphic" in2="effect1_dropShadow_1912:676" result="shape"/>
</filter>
<filter id="filter9_d_1912:676" x="373.895" y="51.54" width="99.77" height="149.74" filterUnits="userSpaceOnUse" color-interpolation-filters="sRGB">
<feFlood flood-opacity="0" result="BackgroundImageFix"/>
<feColorMatrix in="SourceAlpha" type="matrix" values="0 0 0 0 0 0 0 0 0 0 0 0 0 0 0 0 0 0 127 0" result="hardAlpha"/>
<feOffset dx="4" dy="4"/>
<feGaussianBlur stdDeviation="2"/>
<feComposite in2="hardAlpha" operator="out"/>
<feColorMatrix type="matrix" values="0 0 0 0 0 0 0 0 0 0 0 0 0 0 0 0 0 0 0.4 0"/>
<feBlend mode="normal" in2="BackgroundImageFix" result="effect1_dropShadow_1912:676"/>
<feBlend mode="normal" in="SourceGraphic" in2="effect1_dropShadow_1912:676" result="shape"/>
</filter>
<filter id="filter10_d_1912:676" x="476.82" y="104.54" width="151.236" height="149.74" filterUnits="userSpaceOnUse" color-interpolation-filters="sRGB">
<feFlood flood-opacity="0" result="BackgroundImageFix"/>
<feColorMatrix in="SourceAlpha" type="matrix" values="0 0 0 0 0 0 0 0 0 0 0 0 0 0 0 0 0 0 127 0" result="hardAlpha"/>
<feOffset dx="4" dy="4"/>
<feGaussianBlur stdDeviation="2"/>
<feComposite in2="hardAlpha" operator="out"/>
<feColorMatrix type="matrix" values="0 0 0 0 0 0 0 0 0 0 0 0 0 0 0 0 0 0 0.4 0"/>
<feBlend mode="normal" in2="BackgroundImageFix" result="effect1_dropShadow_1912:676"/>
<feBlend mode="normal" in="SourceGraphic" in2="effect1_dropShadow_1912:676" result="shape"/>
</filter>
<filter id="filter11_d_1912:676" x="632.518" y="119.83" width="84.95" height="93.31" filterUnits="userSpaceOnUse" color-interpolation-filters="sRGB">
<feFlood flood-opacity="0" result="BackgroundImageFix"/>
<feColorMatrix in="SourceAlpha" type="matrix" values="0 0 0 0 0 0 0 0 0 0 0 0 0 0 0 0 0 0 127 0" result="hardAlpha"/>
<feOffset dx="4" dy="4"/>
<feGaussianBlur stdDeviation="2"/>
<feComposite in2="hardAlpha" operator="out"/>
<feColorMatrix type="matrix" values="0 0 0 0 0 0 0 0 0 0 0 0 0 0 0 0 0 0 0.4 0"/>
<feBlend mode="normal" in2="BackgroundImageFix" result="effect1_dropShadow_1912:676"/>
<feBlend mode="normal" in="SourceGraphic" in2="effect1_dropShadow_1912:676" result="shape"/>
</filter>
</defs>
</svg>
