<svg width="1440" height="900" viewBox="0 0 1440 900" fill="none" xmlns="http://www.w3.org/2000/svg">
<ellipse cx="60.5414" cy="341.236" rx="16.5" ry="16" transform="rotate(20.7499 60.5414 341.236)" fill="#A560EB"/>
<line y1="-5" x2="71.3895" y2="-5" transform="matrix(0.995414 -0.0956651 0.117709 0.993048 21.5215 85.8464)" stroke="#D33131" stroke-width="10"/>
<path d="M474.528 75.6537C471.398 83.9171 461.952 87.9986 453.43 84.7701C444.908 81.5416 440.538 72.2256 443.669 63.9622C446.799 55.6988 456.246 51.6172 464.767 54.8458C473.289 58.0743 477.659 67.3903 474.528 75.6537Z" fill="#E53B3B"/>
<path d="M343.97 49.0217C340.329 51.7385 336.137 53.6726 331.66 54.7007C327.183 55.7288 322.52 55.8286 317.966 54.9936C313.413 54.1586 309.07 52.4071 305.214 49.8507C301.357 47.2942 298.072 43.9888 295.567 40.1448C293.061 36.3008 291.391 32.0025 290.662 27.5234C289.933 23.0443 290.161 18.4825 291.333 14.1285C292.504 9.77445 294.592 5.72353 297.464 2.23356C300.337 -1.25641 303.931 -4.10897 308.017 -6.14254L313.146 3.49474C310.413 4.85504 308.009 6.76318 306.088 9.0977C304.166 11.4322 302.769 14.142 301.986 17.0545C301.203 19.967 301.05 23.0184 301.537 26.0146C302.025 29.0108 303.142 31.886 304.818 34.4574C306.494 37.0287 308.692 39.2397 311.271 40.9498C313.851 42.6599 316.756 43.8315 319.802 44.39C322.848 44.9486 325.967 44.8819 328.962 44.1941C331.956 43.5064 334.761 42.2127 337.196 40.3953L343.97 49.0217Z" fill="#A560EB"/>
<path d="M153.557 160.752C155.904 156.899 159.052 153.581 162.803 151.009C166.553 148.437 170.823 146.669 175.342 145.816C179.86 144.963 184.527 145.044 189.046 146.054C193.565 147.065 197.837 148.982 201.59 151.684C205.343 154.386 208.495 157.814 210.845 161.749C213.194 165.685 214.691 170.041 215.239 174.542C215.787 179.043 215.374 183.589 214.027 187.891C212.68 192.193 210.428 196.157 207.415 199.53L199.07 192.342C201.085 190.085 202.592 187.434 203.493 184.556C204.394 181.678 204.67 178.637 204.303 175.627C203.937 172.616 202.936 169.702 201.364 167.07C199.792 164.437 197.684 162.144 195.173 160.337C192.663 158.529 189.805 157.247 186.782 156.571C183.759 155.895 180.637 155.841 177.615 156.411C174.593 156.982 171.736 158.165 169.228 159.885C166.719 161.605 164.613 163.825 163.043 166.403L153.557 160.752Z" fill="#FFC301"/>
<ellipse cx="12.0287" cy="627.312" rx="33.6307" ry="32.6834" transform="rotate(20.7499 12.0287 627.312)" fill="#E0C806"/>
<ellipse cx="918.649" cy="38.1853" rx="18" ry="17.5" transform="rotate(-45 918.649 38.1853)" fill="#1CB0F6"/>
<line y1="-5" x2="86.9799" y2="-5" transform="matrix(0.108972 -0.994045 0.996624 0.0821047 1247 257.462)" stroke="#F5C503" stroke-width="10"/>
<line y1="-5" x2="36.093" y2="-5" transform="matrix(-0.569426 -0.822043 0.816642 -0.577144 1397.55 378.67)" stroke="#A560EB" stroke-width="10"/>
<ellipse cx="1249.22" cy="8.8405" rx="31.5" ry="30.5" transform="rotate(-45 1249.22 8.8405)" fill="#A560EB"/>
<path d="M1134.5 157.466C1133.51 161.955 1131.61 166.215 1128.91 169.975C1126.21 173.735 1122.77 176.913 1118.81 179.306C1114.85 181.7 1110.46 183.256 1105.91 183.877C1101.37 184.497 1096.77 184.168 1092.41 182.91C1088.06 181.652 1084.03 179.493 1080.6 176.57C1077.17 173.648 1074.4 170.025 1072.48 165.934C1070.55 161.842 1069.51 157.371 1069.42 152.806C1069.33 148.24 1070.19 143.679 1071.95 139.414L1082.02 143.334C1080.84 146.187 1080.26 149.238 1080.32 152.292C1080.38 155.346 1081.08 158.337 1082.36 161.073C1083.65 163.81 1085.5 166.233 1087.8 168.188C1090.1 170.143 1092.79 171.588 1095.7 172.429C1098.62 173.271 1101.69 173.491 1104.73 173.076C1107.77 172.661 1110.71 171.62 1113.36 170.019C1116 168.418 1118.31 166.292 1120.11 163.777C1121.92 161.261 1123.19 158.412 1123.85 155.409L1134.5 157.466Z" fill="#E53B3B"/>
<line y1="-5" x2="91.0819" y2="-5" transform="matrix(0.895447 -0.445169 0.429914 0.90287 1371 158.547)" stroke="#1CB0F6" stroke-width="10"/>
<line y1="-5" x2="86.9799" y2="-5" transform="matrix(0.779951 -0.625841 0.646663 0.762776 1141 773.731)" stroke="#F5C503" stroke-width="10"/>
<ellipse cx="1318.37" cy="599.5" rx="31.5" ry="30.5" fill="#E53B3B"/>
<line y1="-5" x2="91.0819" y2="-5" transform="matrix(0.947958 0.318395 -0.33443 0.942421 1398 665)" stroke="#1CB0F6" stroke-width="10"/>
<ellipse cx="1262.5" cy="843" rx="16.5" ry="16" fill="#A560EB"/>
<ellipse cx="276.5" cy="703" rx="16.5" ry="16" fill="#A560EB"/>
<ellipse cx="123.5" cy="601.5" rx="20.5" ry="19.5" fill="#E53B3B"/>
<path d="M1354.91 785.134C1355.74 780.7 1357.51 776.481 1360.1 772.748C1362.7 769.014 1366.07 765.847 1369.99 763.449C1373.91 761.05 1378.3 759.473 1382.89 758.817C1387.47 758.16 1392.15 758.44 1396.61 759.637C1401.08 760.834 1405.24 762.923 1408.83 765.771C1412.43 768.618 1415.37 772.162 1417.48 776.177C1419.58 780.191 1420.81 784.588 1421.07 789.089C1421.34 793.589 1420.63 798.094 1419.01 802.316L1408.66 798.55C1409.75 795.726 1410.22 792.713 1410.04 789.703C1409.86 786.692 1409.04 783.751 1407.63 781.065C1406.22 778.38 1404.26 776.009 1401.85 774.105C1399.45 772.2 1396.67 770.802 1393.68 770.002C1390.69 769.201 1387.56 769.014 1384.5 769.453C1381.43 769.892 1378.49 770.947 1375.87 772.552C1373.24 774.156 1370.99 776.274 1369.26 778.772C1367.52 781.269 1366.34 784.091 1365.78 787.058L1354.91 785.134Z" fill="#1CB0F6"/>
<line y1="-5" x2="109.844" y2="-5" transform="matrix(0.655787 0.754946 -0.772444 0.635083 44.7495 743.663)" stroke="#1CB0F6" stroke-width="10"/>
<path d="M265.454 844.691C263.427 847.392 260.842 849.65 257.865 851.322C254.888 852.993 251.583 854.042 248.161 854.4C244.739 854.759 241.274 854.42 237.988 853.406C234.702 852.391 231.667 850.722 229.074 848.506C226.482 846.29 224.39 843.574 222.931 840.533C221.473 837.491 220.679 834.19 220.602 830.84C220.525 827.489 221.165 824.163 222.482 821.072C223.799 817.981 225.764 815.193 228.252 812.887L233.93 818.684C232.266 820.227 230.951 822.092 230.07 824.16C229.189 826.227 228.761 828.452 228.813 830.694C228.864 832.935 229.395 835.143 230.371 837.178C231.346 839.212 232.746 841.028 234.48 842.511C236.214 843.993 238.245 845.11 240.443 845.788C242.641 846.467 244.958 846.694 247.247 846.454C249.536 846.214 251.747 845.512 253.739 844.394C255.73 843.276 257.459 841.766 258.815 839.959L265.454 844.691Z" fill="#A560EB"/>
</svg>
