<svg width="232" height="140" viewBox="0 0 232 140" fill="none" xmlns="http://www.w3.org/2000/svg">
<path d="M10.3321 115.928C-9.37496 119.171 3.57598 114.577 12.5148 111.874L53.3633 100.025L113.856 105.326L120.093 119.67C117.079 121.645 107.682 127.528 94.2118 135.261C80.7411 142.994 99.8245 124.555 111.05 114.369L62.7179 103.144L40.8905 107.197C33.9265 109.588 18.2523 114.993 11.2676 117.487C4.28278 119.982 10.8518 116.448 15.0094 114.369L10.3321 115.928Z" fill="#373737"/>
<path d="M59.9114 94.1296C48.6859 96.3747 15.7368 108.162 0.665527 113.774L53.3632 105.667C64.0898 111.903 74.463 110.968 78.3088 109.721C88.5365 115.458 100.656 114.398 105.437 113.151C112.172 122.131 125.913 125.623 131.942 126.247C142.17 135.228 158.447 137.473 165.307 137.473C225.176 140.591 231.101 73.2376 229.853 59.2057C228.606 45.1738 226.423 37.3783 224.241 23.0346C222.495 11.5596 213.743 7.23566 209.585 6.50808C204.846 4.01352 198.671 2.14259 196.177 1.51895C170.483 -1.22506 156.368 13.2642 152.522 20.8518C110.738 33.0128 106.996 65.7539 105.437 66.0658C104.19 66.3152 86.2082 81.9686 77.3733 89.7641C65.2123 87.8932 63.6532 93.3812 59.9114 94.1296Z" fill="#FFC300"/>
<path d="M137.555 116.552C126.579 111.563 111.57 112.394 105.438 113.434C113.42 125.158 126.433 126.634 131.942 125.906C175.348 164.073 240.768 119.046 229.23 55.435C200.855 141.809 151.275 122.788 137.555 116.552Z" fill="#FFB020"/>
<path d="M114.405 61.6713C82.2247 70.6517 100.996 57.9294 114.405 50.4457L166.167 65.7249C17.2329 162.018 36.6204 122.344 96.1657 90.1883C31.7629 115.572 60.8735 89.924 110.915 72.4271C49.0338 91.8736 86.091 73.9308 114.405 61.6713Z" fill="#373737"/>
<ellipse cx="190.876" cy="29.5537" rx="6.23641" ry="5.30095" fill="#FFF277"/>
<ellipse cx="190.876" cy="28.3064" rx="5.61277" ry="5.30095" fill="#373737"/>
<path d="M195.989 28.3064C195.989 30.9314 193.727 33.1074 190.876 33.1074C188.025 33.1074 185.763 30.9314 185.763 28.3064C185.763 25.6815 188.025 23.5055 190.876 23.5055C193.727 23.5055 195.989 25.6815 195.989 28.3064Z" stroke="#321F00" stroke-opacity="0.56"/>
<path d="M188.07 26.4354C187.321 25.9365 189.005 25.1882 189.941 24.8763C190.564 24.6432 192.123 24.8763 192.123 25.8118C192.123 26.7473 191.5 26.1236 190.253 26.4354C189.005 26.7473 189.005 27.0591 188.07 26.4354Z" fill="white" stroke="#2A2526" stroke-opacity="0.59" stroke-width="0.5"/>
<path d="M200.403 29.5536C199.607 26.4354 204.92 18.0162 210.693 14.898L216.777 15.5217C215.946 16.7689 214.886 21.5086 213.639 24.2526C212.08 27.6827 201.256 32.899 200.403 29.5536Z" fill="#DEAC5F" fill-opacity="0.77"/>
<path d="M214.886 8.97314L208.026 19.575C197.799 32.5468 204.181 28.306 208.65 24.5642C214.886 20.3026 227.796 11.2182 229.542 8.97314C231.725 6.16676 229.23 5.85494 226.112 6.16676C223.617 6.41621 217.589 8.14162 214.886 8.97314Z" fill="#A86425" stroke="#864E1B" stroke-width="2"/>
<path d="M202.726 27.6825C207.923 22.0697 220.562 9.97112 229.542 6.47873" stroke="#864E1B" stroke-width="2"/>
<path d="M178.588 18.9722C178.588 18.9722 173.286 9.09712 177.478 3.04862C166.232 5.7149 160.461 14.7753 158.981 18.9722C134.194 24.1567 117.916 43.4131 110.887 55.2632C103.858 67.1133 107.187 73.779 127.165 81.1854C147.142 88.5917 179.776 76.6704 189.317 67.1133C198.858 57.5563 197.826 54.8929 193.017 48.5975C188.207 42.3022 177.979 42.6725 181.178 34.8958C184.377 27.1192 178.588 18.9722 178.588 18.9722Z" fill="#FF9400" fill-opacity="0.6"/>
<path d="M171.215 20.5125C171.215 20.5125 166.307 11.3811 170.187 5.78817C159.778 8.25364 154.436 16.6317 153.066 20.5125C130.123 25.3065 115.057 43.1127 108.551 54.0704C102.044 65.028 105.126 71.1917 123.617 78.0403C142.108 84.8888 177.036 70.8493 181.145 65.028C185.254 59.2068 189.021 53.7279 184.569 47.9067C180.118 42.0854 170.651 42.4279 173.612 35.2369C176.573 28.0459 171.215 20.5125 171.215 20.5125Z" fill="#FF9400"/>
<path d="M195.242 1.49008C200.73 2.73736 204.908 5.85556 203.349 7.10284C201.79 8.35012 192.747 13.9629 185.887 18.3284C178.995 22.714 181.21 17.7047 167.801 21.1348C162.63 22.4576 161.565 13.3393 166.242 7.72649C170.92 2.11372 188.382 -0.0690258 195.242 1.49008Z" fill="#373737" stroke="#373737"/>
<path d="M187.021 36C187.021 36 193.228 59.6739 192.994 62.9022C192.759 66.1304 190.289 69 187.021 69C183.753 69 181.726 66.8478 181.048 62.9022C180.371 58.9565 187.021 36 187.021 36Z" fill="#2C97D3"/>
</svg>
