<svg width="232" height="140" viewBox="0 0 232 140" fill="none" xmlns="http://www.w3.org/2000/svg">
<path d="M10.3321 115.928C-9.37496 119.171 3.57598 114.577 12.5148 111.875L53.3633 100.025L113.856 105.326L120.093 119.67C117.079 121.645 107.682 127.528 94.2118 135.261C80.7411 142.994 99.8245 124.555 111.05 114.369L62.7179 103.144L40.8905 107.197C33.9265 109.588 18.2523 114.993 11.2676 117.487C4.28278 119.982 10.8518 116.448 15.0094 114.369L10.3321 115.928Z" fill="#373737"/>
<path d="M59.9116 94.1296C48.6861 96.3747 15.7371 108.162 0.665771 113.774L53.3634 105.667C64.09 111.903 74.4633 110.968 78.309 109.721C88.5368 115.458 100.656 114.398 105.437 113.151C112.173 122.131 125.914 125.623 131.942 126.247C142.17 135.227 158.447 137.473 165.307 137.473C225.176 140.591 231.101 73.2376 229.854 59.2057C228.606 45.1738 226.424 37.3783 224.241 23.0345C222.495 11.5596 213.743 7.23564 209.585 6.50806C204.846 4.0135 198.672 2.14258 196.177 1.51894C170.483 -1.22508 156.368 13.2642 152.522 20.8518C110.738 33.0128 106.997 65.7539 105.437 66.0658C104.19 66.3152 86.2085 81.9686 77.3736 89.7641C65.2126 87.8932 63.6535 93.3812 59.9116 94.1296Z" fill="#FFC300"/>
<path d="M137.555 116.552C126.579 111.563 111.57 112.394 105.437 113.434C113.42 125.158 126.433 126.634 131.942 125.906C175.347 164.073 240.767 119.046 229.23 55.435C200.854 141.809 151.275 122.788 137.555 116.552Z" fill="#FFB020"/>
<path d="M114.405 61.6713C82.2248 70.6517 100.996 57.9294 114.405 50.4457L166.167 65.7249C17.233 162.018 36.6205 122.344 96.1658 90.1883C31.763 115.572 60.8736 89.924 110.915 72.4271C49.0338 91.8736 86.0911 73.9308 114.405 61.6713Z" fill="#373737"/>
<ellipse cx="190.876" cy="29.5537" rx="6.23641" ry="5.30095" fill="#FFF277"/>
<ellipse cx="190.876" cy="28.3064" rx="5.61277" ry="5.30095" fill="#373737"/>
<path d="M195.989 28.3064C195.989 30.9313 193.727 33.1073 190.876 33.1073C188.025 33.1073 185.763 30.9313 185.763 28.3064C185.763 25.6814 188.025 23.5054 190.876 23.5054C193.727 23.5054 195.989 25.6814 195.989 28.3064Z" stroke="#321F00" stroke-opacity="0.56"/>
<path d="M188.07 26.4355C187.321 25.9365 189.005 25.1882 189.941 24.8764C190.564 24.6432 192.123 24.8764 192.123 25.8118C192.123 26.7473 191.5 26.1236 190.253 26.4355C189.005 26.7473 189.005 27.0591 188.07 26.4355Z" fill="white" stroke="#2A2526" stroke-opacity="0.59" stroke-width="0.5"/>
<path d="M200.402 29.5536C199.607 26.4354 204.92 18.0162 210.693 14.898L216.777 15.5217C215.946 16.7689 214.886 21.5086 213.639 24.2526C212.08 27.6826 201.256 32.899 200.402 29.5536Z" fill="#DEAC5F" fill-opacity="0.77"/>
<path d="M214.886 8.97312L208.026 19.575C197.799 32.5467 204.181 28.306 208.65 24.5641C214.886 20.3026 227.796 11.2182 229.542 8.97312C231.725 6.16674 229.23 5.85492 226.112 6.16674C223.617 6.4162 217.589 8.1416 214.886 8.97312Z" fill="#A86425" stroke="#864E1B" stroke-width="2"/>
<path d="M202.725 27.6825C207.922 22.0697 220.562 9.97109 229.542 6.4787" stroke="#864E1B" stroke-width="2"/>
<path d="M178.588 18.9722C178.588 18.9722 173.285 9.09715 177.478 3.04865C166.232 5.71492 160.46 14.7753 158.981 18.9722C134.194 24.1567 117.916 43.4131 110.887 55.2633C103.857 67.1134 107.187 73.7791 127.164 81.1854C147.142 88.5917 179.775 76.6704 189.317 67.1134C198.858 57.5563 197.826 54.8929 193.016 48.5976C188.207 42.3022 177.979 42.6725 181.178 34.8959C184.377 27.1192 178.588 18.9722 178.588 18.9722Z" fill="#FF9400" fill-opacity="0.6"/>
<path d="M171.215 20.5126C171.215 20.5126 166.306 11.3812 170.187 5.78821C159.778 8.25368 154.436 16.6317 153.066 20.5126C130.123 25.3065 115.057 43.1128 108.55 54.0704C102.044 65.0281 105.126 71.1918 123.617 78.0403C142.108 84.8888 177.036 70.8493 181.145 65.0281C185.254 59.2068 189.021 53.728 184.569 47.9067C180.118 42.0855 170.651 42.4279 173.612 35.2369C176.573 28.046 171.215 20.5126 171.215 20.5126Z" fill="#FF9400"/>
<path d="M195.242 1.49008C200.73 2.73736 204.908 5.85556 203.349 7.10284C201.79 8.35012 192.747 13.9629 185.887 18.3284C178.995 22.714 181.21 17.7047 167.801 21.1348C162.63 22.4576 161.565 13.3393 166.242 7.72649C170.92 2.11372 188.382 -0.0690258 195.242 1.49008Z" fill="#373737" stroke="#373737"/>
</svg>
