<svg width="110" height="141" viewBox="0 0 110 141" fill="none" xmlns="http://www.w3.org/2000/svg">
<path fill-rule="evenodd" clip-rule="evenodd" d="M48.9843 69.7545C52.7027 64.5357 52.2878 59.0393 49.7094 49.1524C44.6102 29.5989 46.6407 18.8816 64.2196 6.19303L72.7995 0L74.8747 10.376C77.0801 21.4033 80.702 28.2236 90.0015 41.3426C90.371 41.8637 90.371 41.8637 90.7421 42.3871C104.138 61.2857 109.03 72.6782 109.03 93.367C109.03 118.465 83.658 141 54.5927 141C25.5258 141 0.155053 118.468 0.155053 93.367C0.155053 92.8979 0.155534 92.9121 0.0760407 90.8388C-0.538803 74.8025 2.42653 62.2516 14.425 48.7C16.9601 45.8368 19.8416 43.0849 23.0844 40.4517L30.2429 34.6387L33.6863 43.1931C36.2308 49.5139 39.212 54.4827 42.5797 58.1289C45.4321 61.2172 47.5481 65.1007 48.9843 69.7545Z" fill="#D33131"/>
<path fill-rule="evenodd" clip-rule="evenodd" d="M49.3041 79.3056C51.4527 76.29 51.2129 73.1141 49.7231 67.4013C46.7767 56.1029 47.9499 49.9102 58.1074 42.5785L63.065 39L64.2641 44.9955C65.5385 51.3672 67.6313 55.3082 73.0047 62.8886C73.2182 63.1897 73.2182 63.1897 73.4327 63.4922C81.1729 74.4121 84 80.9949 84 92.9494C84 107.452 69.3393 120.473 52.5448 120.473C35.7493 120.473 21.0896 107.453 21.0896 92.9494C21.0896 92.6783 21.0899 92.6865 21.0439 91.4885C20.6887 82.2224 22.4021 74.9703 29.335 67.1399C30.7999 65.4854 32.4649 63.8953 34.3386 62.3738L38.475 59.015L40.4647 63.9578C41.9349 67.6102 43.6575 70.4812 45.6034 72.5881C47.2516 74.3726 48.4743 76.6166 49.3041 79.3056Z" fill="#FFC300"/>
</svg>
