<svg width="96" height="122" viewBox="0 0 96 122" fill="none" xmlns="http://www.w3.org/2000/svg">
<path fill-rule="evenodd" clip-rule="evenodd" d="M48 119C73.3855 119 93 100.682 93 73.8889C93 41.1449 69.8055 3 48 3C26.1945 3 3 41.1449 3 73.8889C3 100.682 22.6145 119 48 119Z" fill="#FFC300" stroke="#FFB020" stroke-width="5"/>
<path d="M25.0003 50.5001C27 34.5001 32.0002 26.5001 42.5002 21.5001C47.9503 18.2143 47.8007 11.547 37.6903 16.2177C26.5002 21.3872 16.0002 37.0001 17.5004 49.5001C18.0069 53.7203 24.2932 56.1569 25.0003 50.5001Z" fill="#FFCF7A"/>
<path d="M85 40.5C89 113 36.1667 115.667 19 108.5C57 126.5 69 116 86.5 99C100.5 85.4 90.8333 52.8333 85 40.5Z" fill="#FFB020"/>
</svg>
