<svg width="133" height="133" viewBox="0 0 133 133" fill="none" xmlns="http://www.w3.org/2000/svg">
<circle cx="66.5" cy="66.5" r="66.5" fill="#7AC70C"/>
<rect width="27.9123" height="10.0376" transform="matrix(-0.401157 0.916009 -0.880581 -0.473896 102.712 37.709)" fill="white"/>
<rect width="28.3446" height="10.6851" transform="matrix(0.873462 0.486892 -0.413108 0.910682 68.4937 45.5494)" fill="white"/>
<rect width="28.1072" height="10.7069" transform="matrix(0.886907 0.461949 -0.390245 0.920711 36.5293 72.7995)" fill="white"/>
<rect width="30.7057" height="10.0413" transform="matrix(-0.404848 0.914384 -0.878407 -0.477914 44.6167 76.9307)" fill="white"/>
<rect width="39.5214" height="10.2869" transform="matrix(-0.41373 0.910399 -0.87308 -0.487577 76.959 51.7991)" fill="white"/>
<rect width="21.3284" height="7.56253" transform="matrix(-0.968786 0.247898 -0.203852 -0.979002 103.325 34.821)" fill="white"/>
<rect width="25.0396" height="6.91657" transform="matrix(-0.256572 -0.966525 0.950697 -0.310121 102.498 53.3059)" fill="white"/>
</svg>
