<svg width="103" height="152" viewBox="0 0 103 152" fill="none" xmlns="http://www.w3.org/2000/svg">
<ellipse cx="50.8823" cy="48.7631" rx="32.6191" ry="30.5892" fill="#C4C4C4"/>
<path d="M28.515 150.144L27.583 85.4702L75.1137 80.2263C75.1137 102.658 74.9273 147.872 74.1818 149.27C73.4362 150.669 72.0072 149.853 71.3858 149.27C66.1046 142.57 55.1695 128.819 53.6783 127.421C52.1871 126.023 51.5505 126.61 50.8824 127.421C45.6012 133.83 34.4796 147.348 32.2429 150.144C30.0061 152.941 28.8256 151.31 28.515 150.144Z" fill="#FFB020"/>
<path d="M28.515 150.144L27.583 85.4702L44.3586 82.8482C44.3586 84.9458 44.3586 119.264 45.2905 134.413L32.2429 150.144C30.0061 152.941 28.8256 151.31 28.515 150.144Z" fill="#FA811B"/>
<path d="M64.8623 98.5797C67.099 92.2871 69.5222 95.9578 70.4542 98.5797V116.059C68.2174 120.954 65.7943 118.099 64.8623 116.059V98.5797Z" fill="#FFCF7A"/>
<path d="M4.2835 32.1575C1.33634 32.1574 -0.376372 33.9054 2.41955 35.6534C6.45815 39.732 12.485 49.9867 4.2835 58.3769C-0.189877 62.572 3.66214 64.786 6.14733 65.3687C21.0589 72.3605 21.0589 80.2263 20.127 84.5962C19.3814 88.0921 22.9229 87.8008 24.7868 87.2181C38.2073 83.7222 45.9116 91.0053 48.0862 95.0839C49.6395 97.1232 53.3053 99.9781 55.542 95.0839C58.3379 88.966 73.2495 83.7222 79.7734 86.3441C84.9924 88.4417 85.6759 83.7222 85.3652 81.1003C85.3652 71.4865 95.6169 65.3687 98.4129 65.3687C101.209 65.3687 104.005 61.8728 99.3448 59.2509C94.685 56.6289 92.821 44.3933 98.4129 39.1494C102.886 34.9543 99.6555 32.7402 97.4809 32.1575C86.2972 29.5354 82.5693 20.7959 83.5013 14.6781C84.2468 9.7838 80.084 9.72554 77.9094 10.3082C66.7257 12.0561 61.1339 8.56018 57.406 3.31632C54.4236 -0.878762 51.8141 1.56837 50.8821 3.31632C43.4263 14.678 28.5147 11.1821 24.7868 9.43417C21.8045 8.03581 21.0589 10.0168 21.0589 11.1821C21.9909 26.9137 8.0112 32.1576 4.2835 32.1575Z" fill="#D33131" stroke="#D33131"/>
<ellipse cx="52.7456" cy="48.7631" rx="32.6191" ry="30.5892" fill="#FFB020"/>
<ellipse cx="52.7458" cy="106.446" rx="4.65988" ry="4.36988" fill="#FA811B"/>
<path d="M74.1813 57.5032C70.4533 65.8933 60.2016 67.9909 58.3377 67.9909C54.6101 67.9906 53.6782 72.3607 60.2016 72.3607C72.8984 72.3607 78.5305 62.747 79.7731 57.5032C80.3132 55.224 76.5114 52.2591 74.1813 57.5032Z" fill="#FFCF7A"/>
</svg>
