<svg width="337" height="231" viewBox="0 0 337 231" fill="none" xmlns="http://www.w3.org/2000/svg">
<ellipse cx="225" cy="111.953" rx="112" ry="111.5" fill="#015587"/>
<mask id="mask0" mask-type="alpha" maskUnits="userSpaceOnUse" x="113" y="0" width="224" height="225">
<circle cx="224.864" cy="112.249" r="111.828" fill="#015587"/>
</mask>
<g mask="url(#mask0)">
<path d="M35.4097 210.054C-112.544 237.244 -34.6676 198.75 49.2173 169.893C32.1137 163.111 66.7367 147.136 86.1861 139.996C74.7837 139.282 93.9065 124.229 104.893 116.792C115.227 81.8079 152.552 68.897 169.923 66.8147C210.9 14.6952 252.62 32.0088 268.357 47.1806C312.186 36.8281 304.138 60.7162 294.636 73.9543C304.614 90.3755 313.901 121.244 314.049 133.739C315.475 278.317 181.058 289.929 146.761 239.505C133.934 244.503 127.164 237.423 125.382 233.258C70.1275 271.111 63.506 238.544 99.8091 218.086C88.4067 224.512 87.6708 220.763 86.1861 218.086C27.112 252.085 16.4056 228.796 35.4097 210.054Z" fill="#2CA1CD" fill-opacity="0.4"/>
<path d="M23.3217 217.456C-111.387 249.421 -60.5832 193.737 35.1183 166.465C15.8391 158.817 49.5785 140.969 71.269 138.587C64.4193 130.314 79.9715 120.808 92.3557 112.422C104.004 72.9736 146.076 58.4153 165.657 56.0671C211.846 -2.70302 256.734 18.8341 274.474 35.9419C323.877 24.2684 318.671 54.5015 307.961 69.4288C319.207 87.9455 327.949 117.442 328.116 131.531C329.723 294.558 178.208 307.652 139.55 250.794C125.228 256.375 123.166 251.548 121.177 246.892L121.119 246.757C58.8361 289.441 59.042 242.191 86.6248 226.641C73.772 233.887 68.9858 235.722 70.5079 233.439C3.91951 271.776 1.90039 238.589 23.3217 217.456Z" fill="#2CA1CD" fill-opacity="0.1"/>
<path d="M58.6754 201.309C-103.889 232.97 -1.19523 191.669 70.4719 167.061C55.8594 161.277 85.4395 147.654 102.056 141.566C92.3145 140.957 108.652 128.12 118.039 121.778C126.867 91.944 158.756 80.9339 173.596 79.1581C208.606 34.7118 244.249 49.4765 257.694 62.4146C295.139 53.5862 291.71 71.4585 283.591 82.7477C292.115 96.7513 297.164 123.845 297.291 134.5C298.508 257.793 183.11 269.425 153.809 226.425C142.849 230.686 137.065 224.649 135.543 221.097C58.8276 264.326 91.9086 230.484 118.039 208.159C108.297 213.639 103.325 210.442 102.056 208.159C28.3849 241.037 42.4393 217.292 58.6754 201.309Z" fill="#2CA1CD" fill-opacity="0.7"/>
<path d="M13.4639 200.931C-10.5859 204.888 5.21897 199.282 16.1276 195.984L65.9775 181.523L139.801 187.993L147.412 205.497C143.733 207.907 132.266 215.086 115.827 224.524C99.3883 233.961 122.677 211.459 136.376 199.028L77.3935 185.329L50.7561 190.276C42.2576 193.193 23.1294 199.789 14.6055 202.833C6.08152 205.878 14.0981 201.565 19.1719 199.028L13.4639 200.931Z" fill="#373737"/>
<path d="M73.9688 174.329C60.2696 177.069 20.0599 191.453 1.66748 198.303L65.9776 188.409C79.068 196.02 91.7271 194.878 96.4203 193.356C108.902 200.358 123.692 199.064 129.527 197.542C137.746 208.501 154.515 212.763 161.872 213.524C174.354 224.483 194.217 227.223 202.589 227.223C275.652 231.029 282.882 148.833 281.36 131.709C279.837 114.585 277.174 105.072 274.51 87.5675C272.379 73.5639 261.699 68.2871 256.625 67.3992C250.841 64.355 243.306 62.0718 240.262 61.3107C208.906 57.962 191.681 75.6441 186.987 84.9038C135.996 99.7446 131.429 139.701 129.527 140.081C128.005 140.386 106.06 159.488 95.2787 169.002C80.4379 166.718 78.5352 173.416 73.9688 174.329Z" fill="#FFC300"/>
<path d="M168.721 201.692C155.327 195.603 137.01 196.618 129.526 197.887C139.268 212.195 155.149 213.996 161.872 213.108C214.842 259.685 294.678 204.736 280.598 127.107C245.97 232.515 185.465 209.303 168.721 201.692Z" fill="#FFB020"/>
<path d="M140.47 134.718C101.199 145.677 124.107 130.151 140.47 121.019L203.638 139.665C21.8852 257.177 45.545 208.76 118.212 169.519C39.6171 200.496 75.1426 169.196 136.211 147.844C60.6938 171.576 105.917 149.679 140.47 134.718Z" fill="#373737"/>
<ellipse cx="233.793" cy="95.5228" rx="7.61067" ry="6.46907" fill="#FFF277"/>
<ellipse cx="233.792" cy="94.0013" rx="6.8496" ry="6.46907" fill="#373737"/>
<path d="M240.142 94.0013C240.142 97.2714 237.327 99.9704 233.792 99.9704C230.258 99.9704 227.443 97.2714 227.443 94.0013C227.443 90.7312 230.258 88.0322 233.792 88.0322C237.327 88.0322 240.142 90.7312 240.142 94.0013Z" stroke="#321F00" stroke-opacity="0.56"/>
<path d="M230.368 91.7172C229.454 91.1083 231.509 90.195 232.651 89.8145C233.412 89.53 235.315 89.8145 235.315 90.9561C235.315 92.0977 234.554 91.3366 233.031 91.7172C231.509 92.0977 231.509 92.4782 230.368 91.7172Z" fill="white" stroke="#2A2526" stroke-opacity="0.59" stroke-width="0.5"/>
<path d="M245.418 95.5228C244.447 91.7174 250.931 81.443 257.976 77.6377L265.401 78.3988C264.387 79.9209 263.094 85.705 261.571 89.0537C259.669 93.2396 246.459 99.6054 245.418 95.5228Z" fill="#DEAC5F" fill-opacity="0.77"/>
<path d="M263.093 70.4079L254.722 83.3461C242.24 99.1763 250.029 94.001 255.483 89.4346C263.093 84.234 278.848 73.1478 280.979 70.4079C283.642 66.9831 280.598 66.6026 276.793 66.9831C273.748 67.2876 266.391 69.3932 263.093 70.4079Z" fill="#A86425" stroke="#864E1B" stroke-width="2"/>
<path d="M248.253 93.2405C254.595 86.3909 270.019 71.6262 280.979 67.3643" stroke="#864E1B" stroke-width="2"/>
<path d="M218.797 82.6103C218.797 82.6103 212.325 70.5591 217.442 63.1777C203.717 66.4316 196.674 77.4885 194.868 82.6103C164.619 88.9372 144.754 112.437 136.176 126.898C127.598 141.36 131.661 149.494 156.041 158.533C180.421 167.571 220.245 153.023 231.889 141.36C243.533 129.697 242.273 126.446 236.404 118.764C230.535 111.081 218.053 111.533 221.957 102.043C225.861 92.5525 218.797 82.6103 218.797 82.6103Z" fill="#FF9400" fill-opacity="0.6"/>
<path d="M209.798 84.4895C209.798 84.4895 203.809 73.346 208.545 66.5205C195.841 69.5293 189.322 79.7535 187.65 84.4895C159.652 90.3399 141.265 112.07 133.325 125.442C125.386 138.815 129.147 146.336 151.712 154.694C174.278 163.052 216.902 145.919 221.917 138.815C226.932 131.71 231.528 125.024 226.096 117.92C220.663 110.816 209.11 111.234 212.723 102.459C216.337 93.683 209.798 84.4895 209.798 84.4895Z" fill="#FF9400"/>
<path d="M239.12 61.2748C245.818 62.797 250.917 66.6023 249.014 68.1244C247.112 69.6466 236.076 76.4962 227.704 81.8236C219.294 87.1757 221.996 81.0626 205.633 85.2484C199.323 86.8627 198.023 75.7351 203.731 68.8855C209.439 62.0359 230.749 59.3722 239.12 61.2748Z" fill="#373737" stroke="#373737"/>
</g>
<path d="M13.4634 200.931C-10.5863 204.888 5.21848 199.282 16.1271 195.984L65.977 181.523L139.8 187.993L147.411 205.497C143.733 207.907 132.266 215.086 115.827 224.524C99.3878 233.961 122.676 211.459 136.376 199.028L77.393 185.329L50.7556 190.276C42.2571 193.193 23.1289 199.789 14.605 202.833C6.08103 205.878 14.0976 201.565 19.1714 199.028L13.4634 200.931Z" fill="#373737"/>
<path d="M73.9683 174.329C60.2691 177.069 20.0594 191.453 1.66699 198.303L65.9771 188.409C79.0675 196.02 91.7266 194.878 96.4198 193.356C108.901 200.358 123.691 199.064 129.526 197.542C137.746 208.501 154.515 212.763 161.872 213.524C174.353 224.483 194.217 227.223 202.589 227.223C275.651 231.029 282.881 148.833 281.359 131.709C279.837 114.585 277.173 105.072 274.509 87.5675C272.378 73.5639 261.698 68.2871 256.624 67.3992C250.84 64.355 243.306 62.0718 240.261 61.3107C208.906 57.962 191.68 75.6441 186.987 84.9038C135.995 99.7446 131.429 139.701 129.526 140.081C128.004 140.386 106.06 159.488 95.2782 169.002C80.4374 166.718 78.5347 173.416 73.9683 174.329Z" fill="#FFC300"/>
<path d="M168.721 201.692C155.326 195.603 137.01 196.618 129.526 197.887C139.268 212.195 155.148 213.996 161.871 213.108C214.841 259.685 294.677 204.736 280.598 127.107C245.969 232.515 185.464 209.303 168.721 201.692Z" fill="#FFB020"/>
<path d="M140.469 134.718C101.198 145.677 124.106 130.151 140.469 121.019L203.638 139.665C21.8848 257.177 45.5445 208.76 118.211 169.519C39.6166 200.496 75.1421 169.196 136.211 147.844C60.6933 171.576 105.916 149.679 140.469 134.718Z" fill="#373737"/>
<ellipse cx="233.792" cy="95.5228" rx="7.61067" ry="6.46907" fill="#FFF277"/>
<ellipse cx="233.792" cy="94.0013" rx="6.8496" ry="6.46907" fill="#373737"/>
<path d="M240.142 94.0013C240.142 97.2714 237.327 99.9704 233.792 99.9704C230.258 99.9704 227.443 97.2714 227.443 94.0013C227.443 90.7312 230.258 88.0322 233.792 88.0322C237.327 88.0322 240.142 90.7312 240.142 94.0013Z" stroke="#321F00" stroke-opacity="0.56"/>
<path d="M230.367 91.7172C229.454 91.1083 231.509 90.195 232.65 89.8145C233.412 89.53 235.314 89.8145 235.314 90.9561C235.314 92.0977 234.553 91.3366 233.031 91.7172C231.509 92.0977 231.509 92.4782 230.367 91.7172Z" fill="white" stroke="#2A2526" stroke-opacity="0.59" stroke-width="0.5"/>
<path d="M245.418 95.5228C244.447 91.7174 250.93 81.443 257.975 77.6377L265.401 78.3988C264.386 79.9209 263.093 85.705 261.571 89.0537C259.668 93.2396 246.459 99.6054 245.418 95.5228Z" fill="#DEAC5F" fill-opacity="0.77"/>
<path d="M263.093 70.4079L254.721 83.3461C242.24 99.1763 250.028 94.001 255.482 89.4346C263.093 84.234 278.847 73.1478 280.978 70.4079C283.642 66.9831 280.598 66.6026 276.792 66.9831C273.748 67.2876 266.391 69.3932 263.093 70.4079Z" fill="#A86425" stroke="#864E1B" stroke-width="2"/>
<path d="M248.252 93.2405C254.595 86.3909 270.019 71.6262 280.978 67.3643" stroke="#864E1B" stroke-width="2"/>
<path d="M218.796 82.6103C218.796 82.6103 212.325 70.5591 217.442 63.1777C203.717 66.4316 196.674 77.4885 194.868 82.6103C164.619 88.9372 144.754 112.437 136.176 126.898C127.598 141.36 131.661 149.494 156.041 158.533C180.421 167.571 220.245 153.023 231.889 141.36C243.533 129.697 242.273 126.446 236.404 118.764C230.534 111.081 218.052 111.533 221.956 102.043C225.86 92.5525 218.796 82.6103 218.796 82.6103Z" fill="#FF9400" fill-opacity="0.6"/>
<path d="M209.798 84.4895C209.798 84.4895 203.808 73.346 208.544 66.5205C195.84 69.5293 189.321 79.7535 187.65 84.4895C159.652 90.3399 141.265 112.07 133.325 125.442C125.385 138.815 129.146 146.336 151.712 154.694C174.278 163.052 216.902 145.919 221.916 138.815C226.931 131.71 231.528 125.024 226.095 117.92C220.663 110.816 209.11 111.234 212.723 102.459C216.336 93.683 209.798 84.4895 209.798 84.4895Z" fill="#FF9400"/>
<path d="M239.12 61.2748C245.817 62.797 250.916 66.6023 249.014 68.1244C247.111 69.6466 236.076 76.4962 227.704 81.8236C219.293 87.1757 221.996 81.0626 205.633 85.2484C199.322 86.8627 198.022 75.7351 203.73 68.8855C209.438 62.0359 230.748 59.3722 239.12 61.2748Z" fill="#373737" stroke="#373737"/>
</svg>
