<svg width="347" height="264" viewBox="0 0 347 264" fill="none" xmlns="http://www.w3.org/2000/svg">
<mask id="mask0_1829:689" style="mask-type:alpha" maskUnits="userSpaceOnUse" x="24" y="0" width="323" height="264">
<rect x="24" width="323" height="264" rx="28" fill="#37C5CF"/>
</mask>
<g mask="url(#mask0_1829:689)">
<path d="M-39.2593 158.282C-66.2543 157.657 -47.8973 154.795 -35.3443 153.442L21.8943 147.926L100.94 170.114L105.634 190.733C101.135 192.602 87.1783 198.066 67.3448 204.968C47.5114 211.87 77.4824 192.149 94.9471 181.426L33.5424 154.411L3.52715 154.332C-6.32386 155.765 -28.5021 159.022 -38.4067 160.587C-48.3114 162.153 -38.6989 159.102 -32.6545 157.381L-39.2593 158.282Z" fill="#373737"/>
<path d="M32.0702 141.733C16.5937 141.906 -30.134 149.317 -51.5633 153.001L20.4816 155.423C33.1719 166.394 47.1882 167.748 52.61 167.054C64.7623 177.237 81.1299 178.863 87.7946 178.403C94.4949 192.021 111.877 200.101 119.731 202.439C131.071 216.931 152.135 223.989 161.249 225.706C240.012 244.838 264.746 156.835 266.602 137.879C268.458 118.924 267.51 108.02 268.201 88.4164C268.754 72.7333 258.209 64.7974 252.867 62.7898C247.194 58.2889 239.46 54.2574 236.301 52.8043C202.851 42.7258 180.47 58.4426 173.46 67.5609C114.901 73.2572 101.732 115.821 99.5828 115.845C97.8632 115.864 70.0534 132.16 56.3635 140.305C40.6745 134.775 37.2291 141.676 32.0702 141.733Z" fill="#2EEDC9"/>
<path d="M129.616 190.963C116.282 181.586 96.1322 178.933 87.7243 178.779C95.3948 196.355 112.315 201.574 119.816 201.986C167.93 263.562 266.121 220.117 266.718 132.713C207.393 240.368 146.283 202.683 129.616 190.963Z" fill="#0BB898"/>
<path d="M112.597 112.251C67.5941 116.126 95.7195 103.923 115.408 97.3367L180.355 130.596C-41.63 221.246 -5.93837 173.388 81.2251 145.573C-10.6967 163.174 34.4014 136.386 105.268 125.668C18.1827 136.012 71.9099 121.451 112.597 112.251Z" fill="#373737"/>
<ellipse cx="222.24" cy="88.7249" rx="8.43164" ry="7.1669" transform="rotate(10.6715 222.24 88.7249)" fill="#0BB898"/>
<ellipse cx="222.552" cy="87.0672" rx="7.58848" ry="7.1669" transform="rotate(10.6715 222.552 87.0672)" fill="#373737"/>
<path d="M229.518 88.3798C228.841 91.9721 225.191 94.3488 221.317 93.6188C217.443 92.8888 214.909 89.3468 215.586 85.7546C216.263 82.1623 219.913 79.7856 223.787 80.5156C227.661 81.2456 230.195 84.7875 229.518 88.3798Z" stroke="#321F00" stroke-opacity="0.56"/>
<path d="M219.292 83.8792C218.423 83.029 220.847 82.4563 222.168 82.2762C223.055 82.1225 225.068 82.8227 224.834 84.0655C224.6 85.3084 223.927 84.3237 222.192 84.4257C220.457 84.5277 220.379 84.942 219.292 83.8792Z" fill="white" stroke="#2A2526" stroke-opacity="0.59" stroke-width="0.5"/>
<path d="M234.897 91.1105C234.621 86.7685 243.787 76.9127 252.238 74.2151L260.166 76.5671C258.749 78.0161 256.155 84.048 253.811 87.3815C250.881 91.5484 235.193 95.769 234.897 91.1105Z" fill="#DEAC5F" fill-opacity="0.77"/>
<path d="M259.292 67.3925L247.524 79.761C230.687 94.4349 240.228 90.3983 247.103 86.5457C256.456 82.4451 275.882 73.6074 278.764 71.0617C282.367 67.8796 279.131 66.8407 274.91 66.4744C271.533 66.1812 263.091 66.9644 259.292 67.3925Z" fill="#A86425" stroke="#864E1B" stroke-width="2"/>
<path d="M238.452 89.206C246.762 83.0499 266.583 70.1397 279.389 67.748" stroke="#864E1B" stroke-width="2"/>
<path d="M208.563 71.5911C208.563 71.5911 203.99 57.1432 211.075 50.1568C195.465 50.8835 185.529 61.4765 182.512 66.6821C148.282 67.3646 121.833 88.8738 109.527 102.858C97.2216 116.843 99.9765 126.533 124.665 141.374C149.353 156.216 195.695 148.547 210.765 138.238C225.834 127.929 225.129 124.132 220.315 114.564C215.502 104.996 201.82 102.927 208.017 93.3958C214.214 83.8645 208.563 71.5911 208.563 71.5911Z" fill="#0BB898"/>
<path d="M198.38 71.7901C198.38 71.7901 194.145 58.4292 200.702 51.9698C186.254 52.6393 177.059 62.4332 174.268 67.2464C142.585 67.8719 118.109 87.7574 106.722 100.687C95.3343 113.617 97.8857 122.578 120.739 136.306C143.592 150.035 193.512 140.126 200.429 133.42C207.346 126.715 213.722 120.379 209.265 111.53C204.808 102.681 192.144 100.766 197.878 91.9533C203.613 83.1405 198.38 71.7901 198.38 71.7901Z" fill="#0BB898"/>
<path d="M235.066 52.5319C242.045 55.563 246.816 60.752 244.432 62.0189C242.049 63.2857 228.629 68.479 218.422 72.5616C208.167 76.663 212.364 70.562 193.69 71.7623C186.489 72.2252 187.356 59.8437 194.976 53.5574C202.595 47.2712 226.342 48.7429 235.066 52.5319Z" fill="#373737" stroke="#373737"/>
<path d="M288.053 81.3396L299.624 88.8803C298.059 89.8336 296.745 91.4126 296.235 93.6624C295.695 96.1237 296.391 98.7397 298.073 100.339C301.373 103.456 306.599 101.991 308.44 97.4598C309.76 94.2056 308.558 90.5041 305.865 88.749L292.535 80.0618L290.544 78.7458C292.452 77.729 291.033 75.9162 290.593 75.8403C288.952 76.8586 287.238 76.828 286.79 76.7505C286.341 76.6729 285.441 78.8735 285.441 78.8735C285.194 79.6368 285.337 79.4755 288.053 81.3396Z" fill="#BCE9FF"/>
<path d="M301.198 79.7058C302.515 73.4232 295.775 72.3326 294.582 75.3773L293.907 72.1214C294.272 71.3414 295.323 70.9383 296.006 70.9962C305.167 71.7735 303.954 79.128 302.419 80.6608L301.198 79.7058Z" fill="#BCE9FF"/>
<path d="M294.866 75.1646C294.338 78.2167 291.43 79.2852 290.513 78.8647L289.991 76.1556C292.615 74.7232 293.798 71.313 295.044 71.2664L296.377 72.9733C296.41 73.0011 296.439 73.0377 296.463 73.0833L296.377 72.9733C296 72.6497 295.149 73.5242 294.866 75.1646Z" fill="#BCE9FF"/>
<path d="M315.873 60.1498L316.884 68.7394C315.798 68.3686 314.512 68.3696 313.225 69.0263C311.824 69.7533 310.845 71.137 310.75 72.5873C310.573 75.424 313.373 77.351 316.291 76.4203C318.386 75.7508 319.685 73.6885 319.449 71.6893L318.284 61.7937L318.119 60.3084C319.373 60.8185 319.677 59.4092 319.537 59.1673C318.389 58.7859 317.717 57.9492 317.574 57.7023C317.432 57.4555 316.012 57.9048 316.012 57.9048C315.546 58.0918 315.681 58.0961 315.873 60.1498Z" fill="#BCE9FF"/>
<path d="M321.929 65.8185C325.479 63.9333 323.302 60.2538 321.359 60.9002L322.654 59.2701C323.176 59.1333 323.791 59.4774 324.037 59.8291C327.336 64.5478 323.311 66.9125 321.959 66.7885L321.929 65.8185Z" fill="#BCE9FF"/>
<path d="M321.575 60.9516C319.895 61.9214 318.215 60.9508 318.05 60.3408L319.144 59.0036C320.885 59.6918 323 58.894 323.522 59.4747L323.235 60.8003C323.235 60.827 323.229 60.8556 323.216 60.8857L323.235 60.8003C323.239 60.4892 322.478 60.4303 321.575 60.9516Z" fill="#BCE9FF"/>
<path d="M300.181 28.4028L304.095 46.4955C301.705 45.9281 298.965 46.1938 296.358 47.8565C293.524 49.6925 291.721 52.841 291.814 55.9505C292.02 62.0302 298.38 65.5618 304.406 62.9809C308.732 61.1253 311.076 56.4655 310.165 52.2545L305.655 31.4109L304.999 28.2802C307.775 29.1101 308.133 26.0456 307.786 25.5587C305.262 24.9814 303.658 23.3365 303.304 22.8399C302.95 22.3432 300.018 23.5912 300.018 23.5912C299.062 24.0852 299.351 24.0667 300.181 28.4028Z" fill="#BCE9FF"/>
<path d="M314.244 39.2389C321.422 34.4949 316.029 27.1021 312.022 28.8774L314.448 25.1391C315.532 24.7408 316.914 25.3477 317.509 26.0466C325.504 35.4237 317.414 41.2864 314.507 41.2994L314.244 39.2389Z" fill="#BCE9FF"/>
<path d="M312.493 28.9433C309.113 31.3537 305.335 29.6302 304.857 28.3645L306.914 25.2914C310.765 26.4008 315.107 24.2678 316.338 25.3979L315.999 28.2809C316.003 28.3378 315.996 28.3998 315.977 28.4666L315.999 28.2809C315.945 27.6172 314.309 27.6478 312.493 28.9433Z" fill="#BCE9FF"/>
</g>
</svg>
