<svg width="986" height="501" viewBox="0 0 986 501" fill="none" xmlns="http://www.w3.org/2000/svg">
<ellipse cx="85" cy="321.953" rx="10" ry="9.5" fill="#A560EB"/>
<circle cx="819.5" cy="100.953" r="10.5" fill="#1CB0F6"/>
<line x1="9.09421" y1="182.41" x2="46.321" y2="163.549" stroke="#8EE000" stroke-width="10"/>
<line x1="667.476" y1="206.84" x2="706.916" y2="174.311" stroke="#8EE000" stroke-width="10"/>
<line x1="894.166" y1="496.774" x2="876.837" y2="483.964" stroke="#8EE000" stroke-width="10"/>
<line x1="803.991" y1="381.953" x2="807.739" y2="360.731" stroke="#A560EB" stroke-width="10"/>
<circle cx="968" cy="228.453" r="18" fill="#A560EB"/>
<circle cx="267.5" cy="132.953" r="9.5" fill="#E53B3B"/>
<path d="M859.426 242.727C857.176 244.207 854.642 245.203 851.986 245.65C849.33 246.098 846.609 245.987 843.998 245.326C841.387 244.665 838.942 243.467 836.819 241.809C834.696 240.151 832.941 238.069 831.667 235.696C830.393 233.323 829.626 230.711 829.416 228.025C829.207 225.34 829.559 222.64 830.449 220.098C831.34 217.556 832.75 215.227 834.59 213.26C836.43 211.293 838.66 209.73 841.137 208.672L843.661 214.579C842.004 215.287 840.513 216.333 839.282 217.649C838.052 218.965 837.108 220.522 836.512 222.223C835.917 223.923 835.681 225.729 835.821 227.525C835.962 229.322 836.474 231.069 837.327 232.657C838.179 234.244 839.353 235.637 840.773 236.746C842.193 237.855 843.829 238.656 845.575 239.098C847.322 239.541 849.142 239.614 850.919 239.315C852.695 239.016 854.39 238.35 855.896 237.36L859.426 242.727Z" fill="#E53B3B"/>
<path d="M179.071 98.0256C177.651 100.315 175.77 102.283 173.548 103.805C171.325 105.328 168.811 106.371 166.163 106.868C163.516 107.365 160.794 107.306 158.171 106.694C155.548 106.082 153.081 104.93 150.927 103.313C148.773 101.695 146.98 99.6467 145.661 97.2981C144.342 94.9494 143.527 92.3519 143.267 89.6708C143.006 86.9898 143.307 84.284 144.15 81.7256C144.993 79.1672 146.359 76.8123 148.162 74.8108L152.936 79.1102C151.73 80.4491 150.816 82.0243 150.252 83.7357C149.688 85.4471 149.487 87.2571 149.661 89.0505C149.835 90.8439 150.38 92.5814 151.263 94.1525C152.145 95.7235 153.345 97.0937 154.785 98.1758C156.226 99.2579 157.876 100.028 159.631 100.438C161.386 100.847 163.206 100.887 164.977 100.554C166.748 100.221 168.43 99.5237 169.917 98.5053C171.403 97.487 172.661 96.1703 173.611 94.6391L179.071 98.0256Z" fill="#A560EB"/>
<path d="M163.312 272.067C163.793 269.417 164.822 266.896 166.331 264.665C167.84 262.434 169.798 260.542 172.078 259.109C174.359 257.675 176.913 256.733 179.578 256.34C182.243 255.948 184.96 256.115 187.557 256.831C190.154 257.546 192.574 258.794 194.662 260.496C196.75 262.198 198.461 264.315 199.686 266.714C200.91 269.113 201.622 271.741 201.776 274.43C201.93 277.12 201.522 279.811 200.579 282.334L194.561 280.084C195.192 278.397 195.465 276.596 195.362 274.797C195.259 272.998 194.783 271.241 193.964 269.636C193.144 268.031 192 266.614 190.603 265.476C189.206 264.338 187.588 263.503 185.851 263.024C184.114 262.546 182.296 262.434 180.513 262.696C178.731 262.959 177.022 263.589 175.497 264.548C173.971 265.507 172.662 266.773 171.652 268.265C170.643 269.758 169.955 271.444 169.632 273.217L163.312 272.067Z" fill="#1CB0F6"/>
<path d="M20.3271 456.746C17.1493 453.911 14.5965 450.446 12.8312 446.57C11.0659 442.695 10.1268 438.494 10.0736 434.236C10.0204 429.978 10.8544 425.755 12.5223 421.837C14.1903 417.919 16.6558 414.391 19.7618 411.478C22.8679 408.564 26.5464 406.33 30.5633 404.916C34.5803 403.502 38.8476 402.94 43.0936 403.265C47.3396 403.591 51.4714 404.796 55.2259 406.806C58.9804 408.816 62.2754 411.585 64.9012 414.938L56.9049 421.2C55.1485 418.957 52.9444 417.105 50.4329 415.761C47.9215 414.417 45.1576 413.61 42.3174 413.392C39.4771 413.174 36.6226 413.55 33.9356 414.496C31.2486 415.442 28.7879 416.937 26.7102 418.886C24.6325 420.834 22.9833 423.194 21.8676 425.815C20.7518 428.436 20.194 431.261 20.2296 434.109C20.2651 436.958 20.8933 439.768 22.0742 442.36C23.255 444.952 24.9626 447.27 27.0884 449.167L20.3271 456.746Z" fill="#E53B3B"/>
<line x1="926.258" y1="350.324" x2="976.455" y2="367.653" stroke="#1CB0F6" stroke-width="10"/>
<line x1="62.1519" y1="3.77265" x2="96.4288" y2="44.3324" stroke="#1CB0F6" stroke-width="10"/>
<circle cx="176.5" cy="436.953" r="20.5" fill="#8EE000"/>
</svg>
