<svg width="1650" height="828" viewBox="0 0 1650 828" fill="none" xmlns="http://www.w3.org/2000/svg">
<circle cx="142.296" cy="533.437" r="16" fill="#A560EB"/>
<circle cx="1371.5" cy="164.5" r="17.5" fill="#1CB0F6"/>
<line x1="16.7402" y1="303.54" x2="79.0366" y2="271.977" stroke="#8EE000" stroke-width="10"/>
<line x1="1119.11" y1="344.015" x2="1185.11" y2="289.58" stroke="#8EE000" stroke-width="10"/>
<line x1="1498.32" y1="823.893" x2="1469.32" y2="802.458" stroke="#8EE000" stroke-width="10"/>
<line x1="1348.74" y1="635.041" x2="1355.01" y2="599.529" stroke="#A560EB" stroke-width="10"/>
<circle cx="1619.5" cy="377.5" r="30.5" fill="#A560EB"/>
<circle cx="447.296" cy="218.437" r="16" fill="#E53B3B"/>
<path d="M1438.19 401.472C1434.42 403.949 1430.18 405.615 1425.74 406.364C1421.29 407.113 1416.74 406.928 1412.37 405.821C1408 404.714 1403.91 402.71 1400.36 399.936C1396.8 397.161 1393.87 393.678 1391.73 389.707C1389.6 385.735 1388.32 381.364 1387.97 376.87C1387.62 372.376 1388.21 367.858 1389.7 363.604C1391.19 359.35 1393.55 355.453 1396.63 352.161C1399.71 348.869 1403.44 346.254 1407.58 344.483L1411.81 354.369C1409.03 355.554 1406.54 357.303 1404.48 359.505C1402.42 361.707 1400.84 364.314 1399.84 367.159C1398.85 370.005 1398.45 373.027 1398.69 376.033C1398.92 379.039 1399.78 381.963 1401.21 384.62C1402.63 387.276 1404.6 389.607 1406.97 391.462C1409.35 393.318 1412.09 394.659 1415.01 395.399C1417.93 396.139 1420.98 396.263 1423.95 395.762C1426.92 395.261 1429.76 394.147 1432.28 392.49L1438.19 401.472Z" fill="#E53B3B"/>
<path d="M299.662 159.324C297.286 163.155 294.138 166.448 290.419 168.996C286.701 171.544 282.493 173.289 278.062 174.121C273.632 174.954 269.077 174.854 264.688 173.83C260.298 172.806 256.17 170.879 252.566 168.172C248.961 165.465 245.96 162.037 243.753 158.107C241.546 154.176 240.182 149.83 239.746 145.343C239.311 140.856 239.815 136.328 241.225 132.047C242.635 127.766 244.922 123.825 247.938 120.476L255.927 127.671C253.909 129.911 252.379 132.547 251.436 135.411C250.493 138.275 250.156 141.304 250.447 144.305C250.738 147.306 251.651 150.214 253.127 152.843C254.604 155.472 256.611 157.765 259.022 159.576C261.433 161.386 264.195 162.675 267.131 163.361C270.067 164.046 273.114 164.112 276.077 163.555C279.041 162.999 281.856 161.831 284.343 160.127C286.831 158.423 288.936 156.219 290.526 153.657L299.662 159.324Z" fill="#A560EB"/>
<path d="M273.291 450.571C274.097 446.137 275.818 441.918 278.343 438.185C280.869 434.451 284.145 431.284 287.961 428.886C291.778 426.488 296.052 424.91 300.511 424.254C304.971 423.597 309.518 423.877 313.864 425.074C318.21 426.271 322.258 428.36 325.753 431.208C329.247 434.055 332.11 437.599 334.16 441.614C336.21 445.628 337.401 450.025 337.659 454.526C337.916 459.026 337.234 463.531 335.655 467.753L325.585 463.987C326.641 461.163 327.097 458.15 326.925 455.14C326.753 452.129 325.956 449.188 324.585 446.502C323.214 443.817 321.299 441.446 318.961 439.542C316.624 437.637 313.915 436.24 311.009 435.439C308.102 434.638 305.06 434.451 302.077 434.89C299.094 435.329 296.235 436.384 293.682 437.989C291.129 439.593 288.938 441.711 287.248 444.209C285.559 446.706 284.407 449.528 283.868 452.495L273.291 450.571Z" fill="#1CB0F6"/>
<path d="M34.0157 759.617C28.6978 754.873 24.4259 749.074 21.4718 742.589C18.5177 736.104 16.9461 729.075 16.8572 721.949C16.7682 714.823 18.1637 707.757 20.955 701.2C23.7462 694.643 27.872 688.739 33.0697 683.864C38.2675 678.989 44.4233 675.249 51.1453 672.883C57.8673 670.517 65.0083 669.576 72.1138 670.121C79.2192 670.665 86.1335 672.683 92.4164 676.046C98.6993 679.409 104.213 684.043 108.607 689.654L95.2261 700.134C92.2868 696.381 88.5984 693.281 84.3957 691.031C80.1929 688.782 75.5678 687.432 70.8148 687.068C66.0618 686.703 61.285 687.333 56.7885 688.915C52.292 690.498 48.1743 693 44.6974 696.261C41.2205 699.522 38.4607 703.471 36.5936 707.857C34.7265 712.243 33.793 716.97 33.8525 721.737C33.912 726.503 34.9632 731.205 36.9393 735.543C38.9154 739.881 41.7729 743.76 45.3302 746.934L34.0157 759.617Z" fill="#E53B3B"/>
<line x1="1548.93" y1="584.711" x2="1632.93" y2="613.711" stroke="#1CB0F6" stroke-width="10"/>
<line x1="101.435" y1="3.77265" x2="158.795" y2="71.6464" stroke="#1CB0F6" stroke-width="10"/>
<circle cx="295.796" cy="725.937" r="34.5" fill="#8EE000"/>
</svg>
