<svg width="36" height="36" viewBox="0 0 36 36" fill="none" xmlns="http://www.w3.org/2000/svg">
<path fill-rule="evenodd" clip-rule="evenodd" d="M18.2794 0.500488C8.68231 0.500488 0.924805 8.25799 0.924805 17.8551C0.924805 27.4522 8.68231 35.2097 18.2794 35.2097C27.8765 35.2097 35.634 27.4522 35.634 17.8551C35.634 8.25799 27.8765 0.500488 18.2794 0.500488ZM18.2794 31.7389C10.626 31.7389 4.39573 25.5086 4.39573 17.8552C4.39573 10.2019 10.626 3.97156 18.2794 3.97156C25.9328 3.97156 32.1631 10.2019 32.1631 17.8552C32.1631 25.5086 25.9328 31.7389 18.2794 31.7389ZM18.2794 15.4082L24.5097 9.17788L26.9567 11.6249L20.7264 17.8552L26.9567 24.0855L24.5097 26.5325L18.2794 20.3022L12.0491 26.5325L9.60213 24.0855L15.8324 17.8552L9.60213 11.6249L12.0491 9.17788L18.2794 15.4082Z" fill="#CFCFCF"/>
</svg>
