<svg width="39" height="38" viewBox="0 0 39 38" fill="none" xmlns="http://www.w3.org/2000/svg">
<path d="M0.635254 18.9569C0.635254 8.56093 9.06288 0.133301 19.4589 0.133301C29.8549 0.133301 38.2825 8.56093 38.2825 18.9569C38.2825 29.3529 29.8549 37.7806 19.4589 37.7806C9.06288 37.7806 0.635254 29.3529 0.635254 18.9569Z" fill="#0077B5"/>
<path fill-rule="evenodd" clip-rule="evenodd" d="M14.2185 11.7588C14.2185 12.9895 13.2921 13.9742 11.8047 13.9742H11.7774C10.3453 13.9742 9.41943 12.9895 9.41943 11.7588C9.41943 10.5021 10.3735 9.54492 11.8328 9.54492C13.2921 9.54492 14.1908 10.5021 14.2185 11.7588ZM13.9376 15.7238V28.5409H9.67173V15.7238H13.9376ZM29.3216 28.5407L29.3218 21.1918C29.3218 17.2549 27.2173 15.4227 24.4102 15.4227C22.1453 15.4227 21.1313 16.6667 20.5651 17.5394V15.724H16.2988C16.355 16.9267 16.2988 28.5411 16.2988 28.5411H20.5651V21.3829C20.5651 20.9999 20.5928 20.6178 20.7056 20.3435C21.0139 19.5782 21.7159 18.7859 22.8944 18.7859C24.4387 18.7859 25.056 19.9612 25.056 21.6836V28.5407H29.3216Z" fill="white"/>
</svg>
