<svg width="1440" height="900" viewBox="0 0 1440 900" fill="none" xmlns="http://www.w3.org/2000/svg">
<g clip-path="url(#clip0)">
<rect width="1440" height="900" fill="#1273A3"/>
<g filter="url(#filter0_f)">
<path d="M526.075 380.44H538.4V431.1H567.81V443H526.075V380.44ZM578.233 423.96C578.233 420.163 579.111 416.763 580.868 413.76C582.681 410.757 585.203 408.405 588.433 406.705C591.663 404.948 595.375 404.07 599.568 404.07C603.818 404.07 607.501 404.948 610.618 406.705C613.735 408.405 616.115 410.757 617.758 413.76C619.458 416.763 620.308 420.163 620.308 423.96C620.308 427.757 619.458 431.185 617.758 434.245C616.115 437.248 613.735 439.628 610.618 441.385C607.501 443.142 603.761 444.02 599.398 444.02C595.318 444.02 591.663 443.227 588.433 441.64C585.26 440.053 582.766 437.758 580.953 434.755C579.14 431.752 578.233 428.153 578.233 423.96ZM590.218 424.045C590.218 426.992 591.068 429.457 592.768 431.44C594.468 433.367 596.621 434.33 599.228 434.33C602.005 434.33 604.215 433.367 605.858 431.44C607.501 429.457 608.323 426.992 608.323 424.045C608.323 421.098 607.501 418.662 605.858 416.735C604.215 414.752 602.005 413.76 599.228 413.76C596.621 413.76 594.468 414.752 592.768 416.735C591.068 418.662 590.218 421.098 590.218 424.045ZM647.873 444.02C644.416 444.02 641.271 443.34 638.438 441.98C635.661 440.563 633.451 438.41 631.808 435.52C630.164 432.63 629.343 428.947 629.343 424.47C629.343 420.277 630.193 416.65 631.893 413.59C633.593 410.53 635.831 408.178 638.608 406.535C641.384 404.835 644.331 403.985 647.448 403.985C651.131 403.985 653.908 404.58 655.778 405.77C657.704 406.96 659.234 408.263 660.368 409.68L661.133 405.855H672.183V443H660.283V438.41C659.716 438.977 658.866 439.713 657.733 440.62C656.656 441.527 655.296 442.32 653.653 443C652.009 443.68 650.083 444.02 647.873 444.02ZM651.273 434.33C655.409 434.33 658.413 432.46 660.283 428.72V419.625C659.603 417.812 658.413 416.367 656.713 415.29C655.069 414.213 653.114 413.675 650.848 413.675C648.298 413.675 646.088 414.638 644.218 416.565C642.348 418.435 641.413 420.872 641.413 423.875C641.413 425.858 641.866 427.643 642.773 429.23C643.679 430.817 644.869 432.063 646.343 432.97C647.873 433.877 649.516 434.33 651.273 434.33ZM702.125 444.02C698.668 444.02 695.58 443.227 692.86 441.64C690.14 439.997 687.986 437.645 686.4 434.585C684.87 431.525 684.105 427.898 684.105 423.705C684.105 419.512 684.955 415.942 686.655 412.995C688.355 410.048 690.678 407.81 693.625 406.28C696.571 404.75 699.915 403.985 703.655 403.985C706.035 403.985 708.301 404.353 710.455 405.09C712.665 405.827 714.506 406.96 715.98 408.49V375.935H727.795V443H715.895V439.09C714.081 440.507 712.041 441.697 709.775 442.66C707.508 443.567 704.958 444.02 702.125 444.02ZM706.035 433.99C708.415 433.99 710.398 433.537 711.985 432.63C713.571 431.667 714.875 430.25 715.895 428.38V419.285C715.215 417.472 713.996 416.027 712.24 414.95C710.483 413.873 708.415 413.335 706.035 413.335C704.278 413.335 702.635 413.788 701.105 414.695C699.631 415.545 698.441 416.735 697.535 418.265C696.628 419.795 696.175 421.552 696.175 423.535C696.175 425.518 696.628 427.303 697.535 428.89C698.441 430.477 699.631 431.723 701.105 432.63C702.635 433.537 704.278 433.99 706.035 433.99ZM742.587 405.855H754.487V443H742.587V405.855ZM742.332 392.68C742.332 390.923 743.012 389.478 744.372 388.345C745.788 387.212 747.29 386.645 748.877 386.645C750.463 386.645 751.908 387.212 753.212 388.345C754.572 389.478 755.252 390.923 755.252 392.68C755.252 394.437 754.572 395.882 753.212 397.015C751.908 398.092 750.463 398.63 748.877 398.63C747.29 398.63 745.788 398.092 744.372 397.015C743.012 395.882 742.332 394.437 742.332 392.68ZM780.087 405.855L780.937 411.805C782.24 409.482 784.082 407.612 786.462 406.195C788.842 404.778 791.732 404.07 795.132 404.07C798.645 404.07 801.564 405.118 803.887 407.215C806.267 409.255 807.485 411.918 807.542 415.205V443H795.642V419.625C795.585 417.982 795.132 416.678 794.282 415.715C793.489 414.695 792.129 414.185 790.202 414.185C787.425 414.185 785.215 415.488 783.572 418.095C781.985 420.645 781.192 423.903 781.192 427.87V443H769.292V405.855H780.087ZM841.521 461.7C838.177 461.7 835.344 461.303 833.021 460.51C830.754 459.717 828.827 458.753 827.241 457.62C825.654 456.487 824.237 455.41 822.991 454.39L829.961 446.23C831.264 447.42 832.766 448.553 834.466 449.63C836.222 450.763 838.517 451.33 841.351 451.33C844.184 451.33 846.649 450.593 848.746 449.12C850.899 447.703 851.976 445.607 851.976 442.83V437.56C850.899 439.317 849.227 440.847 846.961 442.15C844.694 443.397 841.747 444.02 838.121 444.02C834.777 444.02 831.661 443.17 828.771 441.47C825.937 439.713 823.671 437.362 821.971 434.415C820.271 431.412 819.421 428.012 819.421 424.215C819.421 420.305 820.327 416.848 822.141 413.845C823.954 410.785 826.306 408.377 829.196 406.62C832.086 404.863 835.146 403.985 838.376 403.985C841.606 403.985 844.382 404.467 846.706 405.43C849.086 406.337 850.842 407.442 851.976 408.745L852.911 405.855H863.876V443C863.876 446.627 862.856 449.828 860.816 452.605C858.776 455.438 856.056 457.648 852.656 459.235C849.312 460.878 845.601 461.7 841.521 461.7ZM831.406 423.875C831.406 426.822 832.397 429.315 834.381 431.355C836.364 433.338 838.801 434.33 841.691 434.33C846.451 434.33 849.879 432.46 851.976 428.72V419.625C851.182 417.812 849.879 416.367 848.066 415.29C846.252 414.213 844.127 413.675 841.691 413.675C838.801 413.675 836.364 414.638 834.381 416.565C832.397 418.435 831.406 420.872 831.406 423.875ZM873.805 436.88C873.805 435.123 874.428 433.65 875.675 432.46C876.978 431.27 878.395 430.675 879.925 430.675C881.341 430.675 882.673 431.27 883.92 432.46C885.223 433.65 885.875 435.123 885.875 436.88C885.875 438.75 885.223 440.252 883.92 441.385C882.673 442.462 881.341 443 879.925 443C878.395 443 876.978 442.462 875.675 441.385C874.428 440.252 873.805 438.75 873.805 436.88ZM890.964 436.88C890.964 435.123 891.587 433.65 892.834 432.46C894.137 431.27 895.554 430.675 897.084 430.675C898.501 430.675 899.832 431.27 901.079 432.46C902.382 433.65 903.034 435.123 903.034 436.88C903.034 438.75 902.382 440.252 901.079 441.385C899.832 442.462 898.501 443 897.084 443C895.554 443 894.137 442.462 892.834 441.385C891.587 440.252 890.964 438.75 890.964 436.88ZM908.123 436.88C908.123 435.123 908.747 433.65 909.993 432.46C911.297 431.27 912.713 430.675 914.243 430.675C915.66 430.675 916.992 431.27 918.238 432.46C919.542 433.65 920.193 435.123 920.193 436.88C920.193 438.75 919.542 440.252 918.238 441.385C916.992 442.462 915.66 443 914.243 443C912.713 443 911.297 442.462 909.993 441.385C908.747 440.252 908.123 438.75 908.123 436.88Z" fill="#14D4F4"/>
</g>
<path d="M526.075 380.44H538.4V431.1H567.81V443H526.075V380.44ZM578.233 423.96C578.233 420.163 579.111 416.763 580.868 413.76C582.681 410.757 585.203 408.405 588.433 406.705C591.663 404.948 595.375 404.07 599.568 404.07C603.818 404.07 607.501 404.948 610.618 406.705C613.735 408.405 616.115 410.757 617.758 413.76C619.458 416.763 620.308 420.163 620.308 423.96C620.308 427.757 619.458 431.185 617.758 434.245C616.115 437.248 613.735 439.628 610.618 441.385C607.501 443.142 603.761 444.02 599.398 444.02C595.318 444.02 591.663 443.227 588.433 441.64C585.26 440.053 582.766 437.758 580.953 434.755C579.14 431.752 578.233 428.153 578.233 423.96ZM590.218 424.045C590.218 426.992 591.068 429.457 592.768 431.44C594.468 433.367 596.621 434.33 599.228 434.33C602.005 434.33 604.215 433.367 605.858 431.44C607.501 429.457 608.323 426.992 608.323 424.045C608.323 421.098 607.501 418.662 605.858 416.735C604.215 414.752 602.005 413.76 599.228 413.76C596.621 413.76 594.468 414.752 592.768 416.735C591.068 418.662 590.218 421.098 590.218 424.045ZM647.873 444.02C644.416 444.02 641.271 443.34 638.438 441.98C635.661 440.563 633.451 438.41 631.808 435.52C630.164 432.63 629.343 428.947 629.343 424.47C629.343 420.277 630.193 416.65 631.893 413.59C633.593 410.53 635.831 408.178 638.608 406.535C641.384 404.835 644.331 403.985 647.448 403.985C651.131 403.985 653.908 404.58 655.778 405.77C657.704 406.96 659.234 408.263 660.368 409.68L661.133 405.855H672.183V443H660.283V438.41C659.716 438.977 658.866 439.713 657.733 440.62C656.656 441.527 655.296 442.32 653.653 443C652.009 443.68 650.083 444.02 647.873 444.02ZM651.273 434.33C655.409 434.33 658.413 432.46 660.283 428.72V419.625C659.603 417.812 658.413 416.367 656.713 415.29C655.069 414.213 653.114 413.675 650.848 413.675C648.298 413.675 646.088 414.638 644.218 416.565C642.348 418.435 641.413 420.872 641.413 423.875C641.413 425.858 641.866 427.643 642.773 429.23C643.679 430.817 644.869 432.063 646.343 432.97C647.873 433.877 649.516 434.33 651.273 434.33ZM702.125 444.02C698.668 444.02 695.58 443.227 692.86 441.64C690.14 439.997 687.986 437.645 686.4 434.585C684.87 431.525 684.105 427.898 684.105 423.705C684.105 419.512 684.955 415.942 686.655 412.995C688.355 410.048 690.678 407.81 693.625 406.28C696.571 404.75 699.915 403.985 703.655 403.985C706.035 403.985 708.301 404.353 710.455 405.09C712.665 405.827 714.506 406.96 715.98 408.49V375.935H727.795V443H715.895V439.09C714.081 440.507 712.041 441.697 709.775 442.66C707.508 443.567 704.958 444.02 702.125 444.02ZM706.035 433.99C708.415 433.99 710.398 433.537 711.985 432.63C713.571 431.667 714.875 430.25 715.895 428.38V419.285C715.215 417.472 713.996 416.027 712.24 414.95C710.483 413.873 708.415 413.335 706.035 413.335C704.278 413.335 702.635 413.788 701.105 414.695C699.631 415.545 698.441 416.735 697.535 418.265C696.628 419.795 696.175 421.552 696.175 423.535C696.175 425.518 696.628 427.303 697.535 428.89C698.441 430.477 699.631 431.723 701.105 432.63C702.635 433.537 704.278 433.99 706.035 433.99ZM742.587 405.855H754.487V443H742.587V405.855ZM742.332 392.68C742.332 390.923 743.012 389.478 744.372 388.345C745.788 387.212 747.29 386.645 748.877 386.645C750.463 386.645 751.908 387.212 753.212 388.345C754.572 389.478 755.252 390.923 755.252 392.68C755.252 394.437 754.572 395.882 753.212 397.015C751.908 398.092 750.463 398.63 748.877 398.63C747.29 398.63 745.788 398.092 744.372 397.015C743.012 395.882 742.332 394.437 742.332 392.68ZM780.087 405.855L780.937 411.805C782.24 409.482 784.082 407.612 786.462 406.195C788.842 404.778 791.732 404.07 795.132 404.07C798.645 404.07 801.564 405.118 803.887 407.215C806.267 409.255 807.485 411.918 807.542 415.205V443H795.642V419.625C795.585 417.982 795.132 416.678 794.282 415.715C793.489 414.695 792.129 414.185 790.202 414.185C787.425 414.185 785.215 415.488 783.572 418.095C781.985 420.645 781.192 423.903 781.192 427.87V443H769.292V405.855H780.087ZM841.521 461.7C838.177 461.7 835.344 461.303 833.021 460.51C830.754 459.717 828.827 458.753 827.241 457.62C825.654 456.487 824.237 455.41 822.991 454.39L829.961 446.23C831.264 447.42 832.766 448.553 834.466 449.63C836.222 450.763 838.517 451.33 841.351 451.33C844.184 451.33 846.649 450.593 848.746 449.12C850.899 447.703 851.976 445.607 851.976 442.83V437.56C850.899 439.317 849.227 440.847 846.961 442.15C844.694 443.397 841.747 444.02 838.121 444.02C834.777 444.02 831.661 443.17 828.771 441.47C825.937 439.713 823.671 437.362 821.971 434.415C820.271 431.412 819.421 428.012 819.421 424.215C819.421 420.305 820.327 416.848 822.141 413.845C823.954 410.785 826.306 408.377 829.196 406.62C832.086 404.863 835.146 403.985 838.376 403.985C841.606 403.985 844.382 404.467 846.706 405.43C849.086 406.337 850.842 407.442 851.976 408.745L852.911 405.855H863.876V443C863.876 446.627 862.856 449.828 860.816 452.605C858.776 455.438 856.056 457.648 852.656 459.235C849.312 460.878 845.601 461.7 841.521 461.7ZM831.406 423.875C831.406 426.822 832.397 429.315 834.381 431.355C836.364 433.338 838.801 434.33 841.691 434.33C846.451 434.33 849.879 432.46 851.976 428.72V419.625C851.182 417.812 849.879 416.367 848.066 415.29C846.252 414.213 844.127 413.675 841.691 413.675C838.801 413.675 836.364 414.638 834.381 416.565C832.397 418.435 831.406 420.872 831.406 423.875ZM873.805 436.88C873.805 435.123 874.428 433.65 875.675 432.46C876.978 431.27 878.395 430.675 879.925 430.675C881.341 430.675 882.673 431.27 883.92 432.46C885.223 433.65 885.875 435.123 885.875 436.88C885.875 438.75 885.223 440.252 883.92 441.385C882.673 442.462 881.341 443 879.925 443C878.395 443 876.978 442.462 875.675 441.385C874.428 440.252 873.805 438.75 873.805 436.88ZM890.964 436.88C890.964 435.123 891.587 433.65 892.834 432.46C894.137 431.27 895.554 430.675 897.084 430.675C898.501 430.675 899.832 431.27 901.079 432.46C902.382 433.65 903.034 435.123 903.034 436.88C903.034 438.75 902.382 440.252 901.079 441.385C899.832 442.462 898.501 443 897.084 443C895.554 443 894.137 442.462 892.834 441.385C891.587 440.252 890.964 438.75 890.964 436.88ZM908.123 436.88C908.123 435.123 908.747 433.65 909.993 432.46C911.297 431.27 912.713 430.675 914.243 430.675C915.66 430.675 916.992 431.27 918.238 432.46C919.542 433.65 920.193 435.123 920.193 436.88C920.193 438.75 919.542 440.252 918.238 441.385C916.992 442.462 915.66 443 914.243 443C912.713 443 911.297 442.462 909.993 441.385C908.747 440.252 908.123 438.75 908.123 436.88Z" fill="white"/>
<g opacity="0.7">
<path d="M1012.64 397.588L975.048 539.861C959.732 527.492 938.824 519.823 913.785 522.552C886.457 525.717 861.84 541.812 851.168 564.245C830.463 608.183 863.836 655.47 917.104 658.139C955.353 660.034 989.427 635.084 998.177 601.971L1041.49 438.065L1048.15 413.521C1065.31 429.103 1079.11 408.564 1078.36 403.892C1062.1 390.986 1056.44 373.699 1055.68 368.933C1054.92 364.167 1029.03 362.813 1029.03 362.813C1020.27 362.993 1022.44 363.868 1012.64 397.588Z" fill="#57ABCB"/>
<path d="M1075.39 523.671C1144.94 514.979 1132.7 443.615 1097.06 442.259L1128.37 424.145C1137.71 425.094 1145.54 434.227 1147.32 441.274C1171.24 535.818 1090.98 549.282 1069.78 539.234L1075.39 523.671Z" fill="#57ABCB"/>
<path d="M1100.25 444.369C1066.85 449.716 1045.66 424.288 1046.81 413.624L1072.99 398.951C1096.96 420.266 1136.34 420.248 1141.17 432.575L1128.17 451.887C1128 452.308 1127.72 452.725 1127.34 453.131L1128.17 451.887C1130.2 446.98 1118.19 441.495 1100.25 444.369Z" fill="#57ABCB"/>
</g>
<g opacity="0.7">
<path d="M957.204 115.735L1050.75 191.215C1036.42 198.511 1023.73 211.543 1017.42 231.123C1010.66 252.557 1014.45 276.28 1027.62 291.719C1053.48 321.811 1099.87 312.697 1119.62 273.868C1133.79 245.979 1126.55 212.251 1104.78 194.683L997.006 107.725L980.926 94.5737C998.27 86.9694 987.555 69.8351 983.822 68.8349C968.777 76.6507 953.999 75.107 950.19 74.0865C946.382 73.066 936.738 91.9195 936.738 91.9195C933.953 98.5069 935.328 97.183 957.204 115.735Z" fill="#57ABCB"/>
<path d="M1072.15 110.994C1088.86 56.2378 1031.56 41.5617 1018.67 67.6855L1015.6 38.3011C1019.42 31.6529 1028.85 28.8573 1034.7 29.8779C1113.17 43.5715 1096.44 107.914 1081.88 120.372L1072.15 110.994Z" fill="#57ABCB"/>
<path d="M1021.3 66.0134C1014.15 92.697 988.125 100.018 980.556 95.6069L978.348 71.1867C1002.23 60.4273 1015.36 31.0538 1026.16 31.565L1036.22 47.6966C1036.48 47.9668 1036.7 48.3126 1036.87 48.7359L1036.22 47.6966C1033.24 44.5461 1025.15 51.6718 1021.3 66.0134Z" fill="#57ABCB"/>
</g>
<g opacity="0.7">
<path d="M357.04 28.0459L442.798 163.514C421.68 165.983 400.197 176.26 383.963 197.5C366.394 220.821 361.124 251.756 371.158 276.753C390.956 325.561 453.181 335.426 494.471 296.594C524.102 268.695 529.266 223.872 509.306 192.342L410.509 36.2772L395.844 12.7734C420.884 11.2942 414.654 -14.6749 410.38 -17.6034C388.143 -14.8185 370.203 -23.4373 365.843 -26.425C361.483 -29.4127 341.37 -10.5816 341.37 -10.5816C335.078 -3.73647 337.368 -4.74154 357.04 28.0459Z" fill="#57ABCB"/>
<path d="M503.665 74.4592C547.868 14.6325 481.993 -29.4831 454.709 -3.17896L463.288 -40.7546C470.91 -47.2033 483.949 -46.3623 490.876 -42.4467C583.818 10.0881 535.537 81.7102 511.942 90.4303L503.665 74.4592Z" fill="#57ABCB"/>
<path d="M458.733 -4.0391C438.444 25.5673 402.597 22.7507 394.941 13.8779L402.498 -17.1954C437.105 -19.5858 466.045 -49.7898 479.42 -44.25L485.257 -19.811C485.465 -19.362 485.593 -18.8371 485.633 -18.2365L485.257 -19.811C482.839 -25.0458 469.637 -19.9516 458.733 -4.0391Z" fill="#57ABCB"/>
</g>
<path opacity="0.7" d="M173.961 615.905C163.166 612.918 155.689 607.943 151.529 600.981C147.625 594.09 146.847 586.404 149.194 577.923C151.399 569.956 155.575 563.364 161.723 558.148C167.941 552.675 175.053 548.971 183.059 547.037C191.136 544.845 199.03 544.816 206.74 546.95C213.68 548.871 219.328 551.956 223.686 556.205L269.136 391.978L431.696 395.464L379.31 584.749C375.469 598.627 369.206 609.76 360.521 618.147C352.093 626.606 342.542 632.125 331.867 634.704C321.192 637.284 310.715 637.151 300.435 634.306C289.64 631.318 282.163 626.344 278.002 619.382C273.842 612.42 272.935 604.698 275.283 596.217C277.488 588.25 281.664 581.658 287.811 576.442C294.286 571.041 301.527 567.372 309.533 565.438C317.61 563.246 325.504 563.217 333.214 565.351C339.896 567.2 345.416 570.25 349.774 574.499L372.179 493.542L273.108 493.101L252.836 566.348C248.996 580.226 242.733 591.359 234.047 599.746C225.619 608.205 216.068 613.724 205.393 616.303C194.718 618.883 184.241 618.75 173.961 615.905ZM290.178 431.42L282.39 459.562L381.461 460.003L389.357 431.476L290.178 431.42Z" fill="#57ABCB"/>
<path opacity="0.7" d="M1298.91 920.928C1283.76 928.186 1270.4 929.929 1258.83 926.156C1247.63 922.21 1239.17 914.285 1233.47 902.38C1228.11 891.198 1226.34 879.628 1228.15 867.672C1229.79 855.354 1234.18 844.157 1241.33 834.08C1248.3 823.641 1257.2 815.83 1268.03 810.645C1277.77 805.979 1287.19 803.901 1296.31 804.413L1185.87 573.903L1373.14 417.651L1500.43 683.332C1509.76 702.812 1513.65 721.574 1512.09 739.618C1510.9 757.489 1505.54 773.142 1496.01 786.579C1486.48 800.015 1474.5 810.19 1460.07 817.103C1444.92 824.362 1431.56 826.105 1419.99 822.332C1408.43 818.559 1399.79 810.72 1394.09 798.815C1388.73 787.633 1386.96 776.063 1388.77 764.107C1390.77 751.617 1395.34 740.333 1402.49 730.255C1409.46 719.817 1418.36 712.006 1429.19 706.821C1438.56 702.327 1447.81 700.336 1456.93 700.848L1402.49 587.216L1290.01 684.347L1339.27 787.157C1348.6 806.636 1352.49 825.398 1350.93 843.442C1349.74 861.313 1344.38 876.966 1334.85 890.403C1325.32 903.84 1313.34 914.014 1298.91 920.928ZM1248.53 597.77L1267.46 637.271L1379.93 540.14L1360.75 500.098L1248.53 597.77Z" fill="#57ABCB"/>
<path opacity="0.7" d="M1254.31 377.553C1242.21 374.045 1233.87 368.346 1229.28 360.457C1224.99 352.652 1224.22 343.995 1226.98 334.487C1229.57 325.555 1234.35 318.197 1241.34 312.414C1248.41 306.343 1256.46 302.274 1265.49 300.207C1274.61 297.853 1283.49 297.929 1292.14 300.435C1299.91 302.69 1306.23 306.238 1311.07 311.079L1369.46 109.673L1402.74 119.322L1343.72 322.889C1339.21 338.448 1332.01 350.885 1322.13 360.201C1312.53 369.6 1301.71 375.678 1289.67 378.433C1277.62 381.188 1265.84 380.895 1254.31 377.553Z" fill="#57ABCB"/>
<path opacity="0.7" d="M974.249 932.382C965.887 940.652 957.449 944.862 948.935 945.013C940.619 944.967 933.213 941.659 926.715 935.089C920.612 928.918 916.791 921.67 915.253 913.346C913.518 904.823 913.861 896.41 916.283 888.107C918.508 879.606 922.607 872.402 928.579 866.495C933.954 861.179 939.716 857.647 945.863 855.899L808.235 716.742L831.229 694L970.334 834.651C980.966 845.401 987.832 856.923 990.932 869.216C994.231 881.311 994.266 892.894 991.037 903.964C987.808 915.034 982.212 924.507 974.249 932.382Z" fill="#57ABCB"/>
<path opacity="0.7" d="M111.064 912.982C95.2415 918.629 81.7745 918.976 70.6631 914.022C59.9284 908.935 52.3426 900.175 47.9057 887.743C43.7378 876.064 43.1753 864.373 46.2185 852.669C49.1271 840.589 54.6589 829.908 62.8138 820.627C70.8342 810.969 80.4953 804.123 91.7971 800.09C101.969 796.46 111.561 795.372 120.575 796.827L26.5942 533.495L70.1062 517.966L165.095 784.124C172.355 804.467 174.275 823.531 170.854 841.315C167.809 858.966 160.851 873.978 149.977 886.353C139.104 898.728 126.133 907.604 111.064 912.982Z" fill="#57ABCB"/>
<path opacity="0.7" d="M92.75 402.55V342.25L51.35 362.05V307.6L92.75 288.25V205.9L51.35 225.7V171.7L92.75 151.45V80.8H131.9V134.35L180.95 110.5V34.9H219.65V93.4L261.5 74.05V127.6L219.65 147.4V230.2L261.5 211.75V266.2L219.65 284.2V361.15H180.95V301.3L131.9 324.7V402.55H92.75ZM131.9 271.15L180.95 247.3V164.95L131.9 188.8V271.15Z" fill="#57ABCB"/>
<path opacity="0.7" d="M1075.91 872.084L1066.88 832.912L1042.95 851.976L1034.8 816.604L1058.79 797.833L1046.46 744.337L1022.53 763.4L1014.44 728.321L1038.3 708.965L1027.72 663.069L1053.15 657.205L1061.17 691.992L1089.46 669.151L1078.14 620.04L1103.28 614.243L1112.04 652.246L1136.33 633.407L1144.35 668.194L1120.13 687.325L1132.53 741.114L1156.96 722.86L1165.11 758.231L1140.62 776.193L1152.15 826.182L1127.01 831.979L1118.04 793.099L1089.69 815.647L1101.35 866.22L1075.91 872.084ZM1081.66 780.86L1109.96 758.019L1097.62 704.523L1069.33 727.364L1081.66 780.86Z" fill="#57ABCB"/>
<path opacity="0.7" d="M670.6 315.2C659.4 315.2 650.867 312.4 645 306.8C639.4 301.2 636.6 294 636.6 285.2C636.6 276.933 638.867 269.467 643.4 262.8C647.933 255.867 653.8 250.4 661 246.4C668.2 242.133 675.8 240 683.8 240C691 240 697.267 241.467 702.6 244.4V74L860.2 34V230.4C860.2 244.8 857.133 257.2 851 267.6C845.133 278 837.4 285.867 827.8 291.2C818.2 296.533 808.067 299.2 797.4 299.2C786.2 299.2 777.667 296.4 771.8 290.8C765.933 285.2 763 278 763 269.2C763 260.933 765.267 253.467 769.8 246.8C774.6 239.867 780.6 234.4 787.8 230.4C795 226.133 802.6 224 810.6 224C817.533 224 823.667 225.467 829 228.4V80L733.4 106.4V246.4C733.4 260.8 730.333 273.2 724.2 283.6C718.333 294 710.6 301.867 701 307.2C691.4 312.533 681.267 315.2 670.6 315.2Z" fill="#57ABCB"/>
<path opacity="0.7" d="M576.154 895.23C562.597 898.724 551.395 897.997 542.547 893.049C534.021 888.017 528.386 880.175 525.641 869.523C523.062 859.517 523.476 849.772 526.884 840.288C530.209 830.481 535.605 822.034 543.072 814.946C550.456 807.536 558.99 802.583 568.674 800.087C577.389 797.841 585.432 797.661 592.803 799.548L539.647 593.288L717.936 495.707L779.202 733.439C783.694 750.869 783.851 766.836 779.671 781.338C775.814 795.756 768.907 807.691 758.95 817.141C748.994 826.592 737.56 832.981 724.648 836.308C711.091 839.802 699.889 839.075 691.04 834.126C682.192 829.178 676.395 821.378 673.65 810.726C671.072 800.719 671.486 790.974 674.894 781.49C678.541 771.601 684.098 763.112 691.566 756.024C698.95 748.613 707.484 743.66 717.168 741.165C725.56 739.002 733.442 738.864 740.812 740.751L694.519 561.12L587.036 622.898L630.709 792.361C635.201 809.792 635.357 825.758 631.177 840.26C627.32 854.679 620.413 866.613 610.456 876.064C600.5 885.514 589.066 891.903 576.154 895.23Z" fill="#57ABCB"/>
<path opacity="0.7" d="M1193.74 204.837L1251.54 28.3601L1273.78 35.6429L1241.1 135.428C1246.96 131.666 1252.86 129.389 1258.8 128.599C1265 127.681 1270.56 128.031 1275.51 129.65C1283.49 132.264 1288.86 137.39 1291.62 145.029C1294.44 152.477 1294.2 161.238 1290.9 171.311C1287.04 183.095 1280.29 192.46 1270.65 199.404C1261.2 206.411 1250.03 210.644 1237.14 212.104C1231.26 212.704 1225.5 212.607 1219.87 211.815C1214.24 211.022 1208.38 209.63 1202.3 207.638L1193.74 204.837ZM1259.39 150.89C1255.78 149.708 1251.61 149.919 1246.87 151.525C1242.14 153.132 1237.66 155.558 1233.44 158.806L1222.61 191.878C1232.8 192.899 1241.61 190.734 1249.05 185.382C1252.51 183.151 1255.44 180.321 1257.82 176.893C1260.4 173.527 1262.31 169.944 1263.55 166.142C1265.05 161.581 1265.35 158.101 1264.45 155.702C1263.74 153.366 1262.06 151.762 1259.39 150.89Z" fill="#57ABCB"/>
<path opacity="0.7" d="M282.267 822.721L440.048 631.904L464.093 651.786L374.879 759.679C383.989 757.869 392.422 757.922 400.18 759.838C408.313 761.719 415.052 764.869 420.395 769.287C429.026 776.424 433.192 785.405 432.892 796.23C432.762 806.849 428.194 817.604 419.187 828.496C408.652 841.238 395.709 849.567 380.36 853.484C365.216 857.571 349.287 857.376 332.574 852.899C324.986 850.777 317.89 847.851 311.286 844.12C304.682 840.389 298.092 835.805 291.515 830.368L282.267 822.721ZM390.044 787.789C386.139 784.561 380.857 782.788 374.198 782.472C367.539 782.156 360.799 782.985 353.978 784.957L324.41 820.716C336.554 826.952 348.545 828.562 360.381 825.546C365.772 824.467 370.783 822.382 375.415 819.291C380.252 816.371 384.37 812.855 387.768 808.745C391.847 803.813 393.913 799.639 393.969 796.225C394.229 792.98 392.921 790.168 390.044 787.789Z" fill="#57ABCB"/>
</g>
<defs>
<filter id="filter0_f" x="520.075" y="369.935" width="406.118" height="97.765" filterUnits="userSpaceOnUse" color-interpolation-filters="sRGB">
<feFlood flood-opacity="0" result="BackgroundImageFix"/>
<feBlend mode="normal" in="SourceGraphic" in2="BackgroundImageFix" result="shape"/>
<feGaussianBlur stdDeviation="3" result="effect1_foregroundBlur"/>
</filter>
<clipPath id="clip0">
<rect width="1440" height="900" fill="white"/>
</clipPath>
</defs>
</svg>
