<svg width="812" height="306" viewBox="0 0 812 306" fill="none" xmlns="http://www.w3.org/2000/svg">
<path d="M84.7469 207.524L31.4863 195.543L48.2236 226.046L38.0647 231.97L8.99478 178.115L9.40943 177.873L62.8669 190.387L45.8256 159.321L55.9154 153.437L85.0234 207.363L84.7469 207.524Z" fill="#1273A3"/>
<path d="M86.1857 164.583L96.1245 159.42L111.275 190.926L101.336 196.089L86.1857 164.583ZM80.5989 153.519C79.8824 152.029 79.8609 150.508 80.5345 148.956C81.2555 147.38 82.2785 146.248 83.6037 145.56C84.9289 144.871 86.3669 144.725 87.9177 145.121C89.5158 145.492 90.6731 146.423 91.3896 147.913C92.1061 149.403 92.1276 150.923 91.454 152.475C90.8046 153.954 89.8173 155.037 88.4921 155.726C87.1669 156.414 85.6932 156.609 84.0708 156.31C82.4727 155.939 81.3154 155.009 80.5989 153.519Z" fill="#1273A3"/>
<path d="M151.899 167.566C150.997 169.353 149.638 171.093 147.821 172.786C146.052 174.455 144.156 175.772 142.134 176.735C136.741 179.304 131.751 179.88 127.165 178.463C122.626 177.023 119.184 173.644 116.838 168.325C115.267 164.762 114.728 161.358 115.219 158.113C115.689 154.818 116.909 151.904 118.88 149.371C120.899 146.815 123.329 144.86 126.17 143.506C129.01 142.153 131.638 141.374 134.053 141.168C136.516 140.94 138.773 141.104 140.825 141.662L138.819 150.59C137.908 150.374 136.733 150.284 135.292 150.321C133.879 150.286 132.377 150.647 130.788 151.404C128.718 152.39 127.292 154.044 126.509 156.366C125.705 158.638 125.852 161.019 126.949 163.508C128.004 165.899 129.667 167.557 131.94 168.482C134.26 169.384 136.72 169.216 139.321 167.978C141.535 166.922 143.096 165.441 144.002 163.533L151.899 167.566Z" fill="#1273A3"/>
<path d="M182.577 158.583C178.646 160.242 175.014 160.907 171.68 160.578C168.395 160.228 165.526 159.038 163.072 157.006C160.619 154.975 158.722 152.246 157.383 148.818C156.102 145.539 155.783 142.231 156.425 138.893C157.067 135.555 158.487 132.525 160.686 129.803C162.866 127.031 165.676 124.919 169.115 123.467C173.734 121.518 178.051 121.287 182.067 122.775C186.112 124.192 189.576 127.273 192.46 132.016L171.844 149.571C174.135 150.746 176.631 150.763 179.334 149.622C180.464 149.145 181.467 148.49 182.344 147.657C183.269 146.803 184.122 145.836 184.902 144.755L192.499 150.575C191.167 152.295 189.611 153.878 187.829 155.324C186.096 156.75 184.346 157.836 182.577 158.583ZM167.321 143.929C167.418 144.177 167.506 144.401 167.583 144.599L179.842 133.783C178.915 132.728 177.785 131.96 176.453 131.481C175.101 130.952 173.443 131.102 171.478 131.932C169.168 132.906 167.636 134.479 166.881 136.649C166.127 138.82 166.273 141.246 167.321 143.929Z" fill="#1273A3"/>
<path d="M230.95 85.0769L241.558 81.484L246.105 95.9879L254.137 93.2676L256.746 101.588L248.714 104.309L256.611 129.5L246.003 133.093L238.106 107.902L232.953 109.647L230.345 101.326L235.497 99.5809L230.95 85.0769Z" fill="#1273A3"/>
<path d="M270.769 105.857C269.837 102.408 269.796 99.0867 270.645 95.8946C271.546 92.6876 273.247 89.8858 275.748 87.4894C278.235 85.0414 281.373 83.2645 285.161 82.1586C289.001 81.0377 292.545 80.8644 295.792 81.6385C299.025 82.3612 301.752 83.8702 303.974 86.1656C306.248 88.4461 307.85 91.3111 308.782 94.7608C309.714 98.2104 309.788 101.55 309.003 104.778C308.256 107.94 306.69 110.731 304.305 113.149C301.921 115.567 298.757 117.351 294.815 118.502C291.129 119.578 287.632 119.821 284.324 119.231C281.068 118.626 278.252 117.199 275.876 114.948C273.501 112.698 271.798 109.667 270.769 105.857ZM281.618 102.774C282.341 105.451 283.714 107.466 285.737 108.82C287.746 110.122 289.928 110.43 292.283 109.742C294.792 109.01 296.552 107.552 297.563 105.368C298.561 103.133 298.698 100.676 297.975 97.9988C297.252 95.3215 295.911 93.3242 293.953 92.0071C291.982 90.6384 289.742 90.3202 287.233 91.0525C284.878 91.74 283.176 93.2089 282.127 95.4593C281.064 97.6582 280.894 100.096 281.618 102.774Z" fill="#1273A3"/>
<path d="M362.009 64.3021L363.772 69.5824C364.675 67.071 366.034 64.987 367.849 63.3306C369.717 61.6639 372.064 60.5559 374.891 60.0066C377.666 59.4675 380.073 59.5974 382.113 60.3962C384.196 61.1323 385.729 62.573 386.71 64.7182C387.756 62.3964 389.165 60.4386 390.937 58.8448C392.752 57.1883 394.76 56.1464 396.958 55.7192C400.361 55.0581 403.232 55.5053 405.571 57.061C407.953 58.554 409.443 60.8176 410.043 63.8519L414.687 89.6777L403.772 91.7985L399.949 70.5395C399.623 69.0274 399.165 67.8397 398.576 66.9762C397.978 66.0602 396.91 65.6972 395.373 65.8872C393.593 66.2331 392.188 67.158 391.158 68.6619C390.171 70.1031 389.538 71.8559 389.259 73.9201C389.023 75.9217 389.089 77.9461 389.457 79.9932L391.992 94.0872L380.997 96.2232L377.174 74.9642C376.848 73.4522 376.339 72.2746 375.645 71.4314C374.995 70.5256 373.901 70.1677 372.364 70.3577C370.636 70.6934 369.283 71.6081 368.306 73.1019C367.371 74.5329 366.759 76.2544 366.471 78.2661C366.235 80.2677 366.296 82.2658 366.655 84.2605L369.218 98.5119L358.223 100.648L352.036 66.2399L362.009 64.3021Z" fill="#1273A3"/>
<path d="M449.16 85.8735C444.93 86.4315 441.237 86.1117 438.082 84.914C434.98 83.7095 432.491 81.8054 430.615 79.2018C428.739 76.5983 427.578 73.47 427.132 69.8172C426.706 66.3231 427.22 63.0546 428.675 60.0116C430.131 56.9686 432.265 54.4278 435.078 52.3891C437.886 50.2974 441.14 49.0075 444.841 48.5192C449.811 47.8636 454.06 48.7824 457.588 51.2756C461.163 53.7089 463.759 57.5892 465.376 62.9165L440.985 74.3643C442.916 76.0999 445.336 76.7759 448.244 76.3922C449.46 76.2318 450.598 75.8666 451.656 75.2966C452.768 74.7197 453.837 74.0138 454.863 73.1791L460.789 80.7891C459.067 82.0921 457.162 83.2042 455.071 84.1254C453.034 85.0397 451.063 85.6224 449.16 85.8735ZM438 67.7381C438.032 68.0028 438.062 68.241 438.087 68.4528L452.685 61.2823C452.048 60.0216 451.142 58.9845 449.968 58.1711C448.788 57.3047 447.14 57.011 445.025 57.29C442.54 57.6178 440.661 58.7265 439.387 60.6158C438.113 62.5052 437.651 64.8793 438 67.7381Z" fill="#1273A3"/>
<path d="M498.775 80.5526C494.523 80.9042 490.847 80.4055 487.749 79.0563C484.703 77.7027 482.302 75.6804 480.545 72.9895C478.788 70.2985 477.769 67.1184 477.488 63.4491C477.219 59.9394 477.881 56.7006 479.472 53.7327C481.064 50.7648 483.311 48.3314 486.215 46.4323C489.114 44.4801 492.424 43.3501 496.145 43.0424C501.141 42.6293 505.346 43.7532 508.759 46.4142C512.221 49.0177 514.64 53.0185 516.016 58.4167L491.125 68.6628C492.977 70.4897 495.364 71.2823 498.288 71.0406C499.51 70.9395 500.663 70.6301 501.747 70.1123C502.884 69.5902 503.984 68.9373 505.047 68.1537L510.625 76.0407C508.846 77.2581 506.891 78.2759 504.761 79.0943C502.684 79.9082 500.688 80.3943 498.775 80.5526ZM488.442 61.9011C488.462 62.167 488.48 62.4063 488.497 62.619L503.408 56.1683C502.827 54.8784 501.969 53.7988 500.833 52.9295C499.693 52.007 498.059 51.6337 495.933 51.8095C493.435 52.0161 491.507 53.0318 490.149 54.8566C488.791 56.6813 488.222 59.0295 488.442 61.9011Z" fill="#1273A3"/>
<path d="M532.774 26.9539L543.965 26.5042L544.529 41.6937L553.003 41.3532L553.327 50.0672L544.853 50.4077L545.834 76.7895L534.643 77.2392L533.662 50.8574L528.227 51.0759L527.903 42.3619L533.338 42.1435L532.774 26.9539Z" fill="#1273A3"/>
<path d="M602.51 93.0404L611.468 74.679L596.316 41.0543L608.87 41.4583L617.442 62.3848L627.34 42.0527L637.415 42.377L613.305 93.3877L602.51 93.0404Z" fill="#1273A3"/>
<path d="M646.74 59.9927C647.007 56.4293 648.069 53.3048 649.928 50.619C651.84 47.9376 654.37 45.9214 657.52 44.5705C660.673 43.1664 664.217 42.6232 668.151 42.9409C672.138 43.2628 675.532 44.3661 678.332 46.251C681.137 48.0826 683.204 50.47 684.535 53.4133C685.919 56.3609 686.478 59.6164 686.212 63.1797C685.945 66.7431 684.907 69.8964 683.098 72.6397C681.346 75.334 678.946 77.3875 675.899 78.8001C672.852 80.2128 669.281 80.7539 665.188 80.4234C661.361 80.1143 657.987 79.0929 655.069 77.359C652.203 75.6295 650.025 73.2866 648.535 70.3305C647.044 67.3743 646.446 63.9284 646.74 59.9927ZM657.978 60.9803C657.771 63.7459 658.395 66.1239 659.851 68.1141C661.311 70.0512 663.263 71.1184 665.709 71.3159C668.313 71.5262 670.454 70.7894 672.131 69.1056C673.812 67.3686 674.756 65.1173 674.962 62.3517C675.169 59.5861 674.569 57.2369 673.163 55.3041C671.76 53.3182 669.757 52.22 667.152 52.0097C664.706 51.8123 662.617 52.5799 660.883 54.3126C659.153 55.9921 658.184 58.2147 657.978 60.9803Z" fill="#1273A3"/>
<path d="M709.825 85.7377C706.706 85.3277 704.204 84.0307 702.321 81.8468C700.444 79.6099 699.639 76.9492 699.907 73.8646L703.067 47.8961L714.171 49.3555L711.514 71.1944C711.433 72.7437 711.678 74.04 712.25 75.0833C712.828 76.0736 713.936 76.6766 715.576 76.892C718.061 77.2186 720.162 76.2845 721.88 74.0897C723.604 71.842 724.691 68.8651 725.142 65.1591L726.862 51.0234L737.967 52.4828L733.744 87.1868L723.671 85.8629L723.554 80.1997C722.127 82.2175 720.248 83.7457 717.919 84.7843C715.59 85.823 712.892 86.1408 709.825 85.7377Z" fill="#1273A3"/>
<path d="M756.869 29.0058L766.73 30.6645L759.764 75.4054L749.902 73.7466L756.869 29.0058ZM752.487 91.4595C750.594 91.141 749.12 90.3794 748.066 89.1747C747.021 87.9173 746.629 86.4454 746.892 84.759C747.146 83.1254 747.964 81.857 749.346 80.9538C750.781 80.0594 752.419 79.7671 754.26 80.0767C756.1 80.3863 757.513 81.1918 758.498 82.4931C759.535 83.8032 759.927 85.2751 759.672 86.9088C759.41 88.5951 758.618 89.8679 757.297 90.7273C755.984 91.5339 754.38 91.778 752.487 91.4595Z" fill="#1273A3"/>
<path d="M128.1 213.864L140.617 208.546L165.181 235.131L164.267 211.099L155.269 202.32L165.872 197.815L191.354 222.533L187.224 188.742L198.71 183.861L202.673 248.489L175.575 222.111L174.833 260.492L128.1 213.864Z" fill="#1273A3"/>
<path d="M252.079 228.336C248.05 229.741 244.346 230.186 240.966 229.67C237.636 229.137 234.746 227.801 232.296 225.663C229.846 223.524 227.977 220.731 226.689 217.284C225.456 213.987 225.202 210.716 225.924 207.471C226.647 204.226 228.154 201.329 230.446 198.779C232.719 196.18 235.618 194.266 239.144 193.036C243.877 191.386 248.269 191.408 252.317 193.102C256.397 194.729 259.852 197.957 262.681 202.787L241.365 218.858C243.667 220.145 246.203 220.305 248.973 219.34C250.132 218.936 251.165 218.35 252.073 217.581C253.032 216.795 253.918 215.893 254.733 214.875L262.329 221.036C260.94 222.65 259.325 224.116 257.484 225.435C255.694 226.737 253.892 227.704 252.079 228.336ZM236.889 213.05C236.982 213.3 237.066 213.525 237.141 213.724L249.825 203.797C248.905 202.706 247.773 201.886 246.43 201.338C245.068 200.74 243.38 200.792 241.365 201.494C238.998 202.32 237.408 203.777 236.596 205.868C235.783 207.958 235.881 210.352 236.889 213.05Z" fill="#1273A3"/>
<path d="M328.232 205.161C325.083 205.979 322.04 206.108 319.104 205.548C316.205 204.923 313.63 203.498 311.379 201.273C309.129 199.049 307.419 195.912 306.252 191.864C305.158 188.072 304.986 184.591 305.737 181.422C306.487 178.253 307.913 175.597 310.014 173.454C312.1 171.26 314.563 169.795 317.402 169.058C320.757 168.187 323.442 168.068 325.456 168.702C327.522 169.323 329.255 170.14 330.657 171.153L330.357 167.513L340.423 164.9L350.112 198.491L339.271 201.305L338.074 197.154C337.705 197.8 337.123 198.668 336.327 199.755C335.583 200.83 334.551 201.869 333.231 202.872C331.911 203.876 330.245 204.639 328.232 205.161ZM328.802 195.595C332.57 194.617 334.818 192.215 335.546 188.391L333.174 180.166C332.081 178.687 330.621 177.662 328.791 177.09C327.013 176.505 325.092 176.481 323.027 177.017C320.704 177.62 318.942 179.013 317.741 181.198C316.525 183.331 316.309 185.756 317.092 188.472C317.609 190.265 318.488 191.772 319.728 192.993C320.968 194.213 322.377 195.059 323.956 195.531C325.586 195.989 327.201 196.01 328.802 195.595Z" fill="#1273A3"/>
<path d="M368.933 158.609L371.683 166.2C372.195 164.02 373.143 162.048 374.524 160.283C375.893 158.466 377.324 157.018 378.817 155.938C380.298 154.806 381.481 154.146 382.368 153.958L384.465 164.957C381.834 165.189 379.743 166.069 378.194 167.597C376.645 169.125 375.602 170.927 375.064 173.003C374.526 175.079 374.497 177.102 374.975 179.071L378.206 192.364L367.329 194.674L359.073 160.703L368.933 158.609Z" fill="#1273A3"/>
<path d="M421.882 185.113C417.675 185.822 413.941 185.641 410.681 184.568C407.473 183.487 404.829 181.69 402.747 179.176C400.665 176.661 399.262 173.6 398.538 169.992C397.845 166.541 398.114 163.279 399.346 160.207C400.577 157.134 402.529 154.534 405.201 152.408C407.863 150.229 411.034 148.829 414.716 148.209C419.659 147.375 423.998 148.131 427.731 150.474C431.506 152.757 434.407 156.512 436.436 161.738L412.798 173.994C414.87 175.645 417.352 176.227 420.244 175.739C421.454 175.535 422.569 175.131 423.589 174.526C424.662 173.913 425.683 173.173 426.651 172.307L433.18 179.64C431.549 180.996 429.719 182.17 427.688 183.161C425.711 184.143 423.775 184.794 421.882 185.113ZM409.298 167.53C409.351 167.791 409.398 168.026 409.44 168.235L423.562 160.584C422.826 159.356 421.838 158.361 420.597 157.597C419.346 156.78 417.668 156.55 415.565 156.904C413.093 157.321 411.289 158.49 410.152 160.412C409.016 162.333 408.731 164.706 409.298 167.53Z" fill="#1273A3"/>
<path d="M448.998 174.174C448.724 172.543 449.076 171.097 450.053 169.836C451.083 168.568 452.311 167.837 453.739 167.645C455.06 167.467 456.395 167.851 457.743 168.799C459.145 169.74 459.982 171.025 460.257 172.656C460.548 174.391 460.175 175.867 459.136 177.083C458.141 178.239 456.983 178.906 455.662 179.084C454.235 179.277 452.829 178.955 451.446 178.12C450.106 177.225 449.29 175.909 448.998 174.174Z" fill="#1273A3"/>
<path d="M468.077 171.701C467.832 170.066 468.209 168.627 469.208 167.384C470.26 166.135 471.501 165.427 472.931 165.26C474.256 165.106 475.584 165.515 476.916 166.487C478.3 167.453 479.116 168.753 479.361 170.388C479.623 172.129 479.224 173.597 478.164 174.794C477.149 175.932 475.979 176.577 474.655 176.732C473.224 176.898 471.825 176.551 470.456 175.691C469.132 174.772 468.339 173.442 468.077 171.701Z" fill="#1273A3"/>
<path d="M487.21 169.576C486.993 167.937 487.394 166.505 488.415 165.28C489.489 164.05 490.742 163.365 492.175 163.224C493.502 163.094 494.823 163.527 496.138 164.523C497.506 165.513 498.298 166.828 498.516 168.467C498.747 170.212 498.322 171.673 497.241 172.85C496.206 173.969 495.026 174.594 493.699 174.724C492.265 174.864 490.872 174.492 489.518 173.607C488.21 172.664 487.441 171.32 487.21 169.576Z" fill="#1273A3"/>
</svg>
