<svg width="70" height="117" viewBox="0 0 70 117" fill="none" xmlns="http://www.w3.org/2000/svg">
<path d="M15.42 116.64C10.38 116.64 6.54 115.38 3.9 112.86C1.38 110.34 0.12 107.1 0.12 103.14C0.12 99.42 1.14 96.06 3.18 93.06C5.22 89.94 7.86 87.48 11.1 85.68C14.34 83.76 17.76 82.8 21.36 82.8C24.6 82.8 27.42 83.46 29.82 84.78V0.899993H43.68V11.52C45 13.8 46.5 15.96 48.18 18C49.86 20.04 51.6 21.96 53.4 23.76C56.04 26.64 58.56 29.7 60.96 32.94C63.36 36.18 65.34 39.96 66.9 44.28C68.46 48.6 69.24 53.82 69.24 59.94C69.24 65.58 68.46 70.86 66.9 75.78C65.34 80.7 63.06 85.32 60.06 89.64H51.96C55.68 81.36 57.54 73.32 57.54 65.52C57.54 58.68 56.22 53.28 53.58 49.32C51.06 45.24 47.76 42.48 43.68 41.04V85.68C43.68 92.16 42.3 97.74 39.54 102.42C36.9 107.1 33.42 110.64 29.1 113.04C24.78 115.44 20.22 116.64 15.42 116.64Z" fill="white"/>
</svg>
