<?xml version="1.0" encoding="iso-8859-1"?>
<!-- Generator: Adobe Illustrator 19.0.0, SVG Export Plug-In . SVG Version: 6.00 Build 0)  -->
<svg version="1.1" id="Layer_1" xmlns="http://www.w3.org/2000/svg" xmlns:xlink="http://www.w3.org/1999/xlink" x="0px" y="0px"
	 viewBox="0 0 392.525 392.525" style="enable-background:new 0 0 392.525 392.525;" xml:space="preserve">
<path style="fill:#FFC10D;" d="M345.785,80.679c-0.776-2.327-1.681-4.655-2.844-6.982c-1.681-3.297-1.552-7.37,0.453-10.537
	l9.18-15.063l-8.016-8.016l-15.063,9.18c-3.232,1.939-7.176,2.069-10.602,0.453c-2.327-1.164-4.655-2.069-6.982-2.844
	c-3.556-1.164-6.271-4.073-7.111-7.822l-4.202-17.131H289.22l-4.202,17.131c-0.84,3.62-3.556,6.594-7.111,7.822
	c-2.327,0.776-4.655,1.681-6.982,2.844c-3.297,1.681-7.37,1.487-10.537-0.453l-15.063-9.18l-8.016,8.016l9.051,15.063
	c1.939,3.168,2.069,7.176,0.453,10.537c-1.164,2.327-2.069,4.655-2.844,6.982c-1.164,3.556-4.073,6.271-7.758,7.111l-17.131,4.202
	v11.378l17.131,4.202c3.62,0.84,6.594,3.556,7.758,7.111c0.776,2.327,1.745,4.655,2.844,6.982c1.681,3.297,1.552,7.37-0.453,10.537
	l-9.18,15.063l8.016,8.016l15.063-9.18c3.168-1.939,7.176-2.069,10.537-0.453c2.327,1.164,4.655,2.133,6.982,2.844
	c3.556,1.164,6.271,4.073,7.111,7.822l4.202,17.131h11.378l4.202-17.131c0.84-3.62,3.556-6.594,7.111-7.822
	c2.327-0.776,4.655-1.681,6.982-2.844c3.297-1.681,7.37-1.487,10.537,0.453l15.063,9.18l8.016-8.016l-9.18-15.063
	c-1.939-3.168-2.069-7.176-0.453-10.537c1.164-2.327,2.133-4.655,2.844-6.982c1.164-3.556,4.073-6.271,7.758-7.111l17.131-4.202
	V92.057l-17.131-4.202C349.923,86.885,347.014,84.234,345.785,80.679z"/>
<path style="fill:#194F82;" d="M384.185,72.857l-18.489-4.461l9.891-16.226c2.65-4.331,1.939-9.826-1.616-13.382l-20.17-20.17
	c-3.556-3.556-9.051-4.267-13.382-1.616l-16.226,9.891l-4.461-18.489c-1.164-4.848-5.56-8.339-10.602-8.339h-28.509
	c-5.042,0-9.438,3.491-10.602,8.339l-4.461,18.489l-16.226-9.891c-4.331-2.651-9.826-1.939-13.382,1.616l-20.17,20.17
	c-3.556,3.556-4.267,9.115-1.616,13.382l9.891,16.226l-18.489,4.461c-4.848,1.164-8.339,5.56-8.339,10.602v28.509
	c0,5.042,3.491,9.438,8.339,10.602l18.489,4.461l-9.891,16.226c-2.651,4.331-1.939,9.826,1.616,13.382l20.17,20.17
	c3.556,3.556,9.115,4.267,13.382,1.616l16.226-9.891l4.461,18.489c1.164,4.848,5.56,8.339,10.602,8.339h28.509
	c5.042,0,9.438-3.491,10.602-8.339l4.461-18.489l16.226,9.891c4.267,2.651,9.826,1.939,13.382-1.616l20.17-20.17
	c3.556-3.556,4.267-9.115,1.616-13.382l-9.891-16.226l18.489-4.461c4.849-1.164,8.339-5.56,8.339-10.602V83.459
	C392.525,78.416,389.034,74.02,384.185,72.857z M370.739,103.37l-17.131,4.202c-3.62,0.905-6.594,3.556-7.758,7.111
	c-0.776,2.327-1.681,4.655-2.844,6.982c-1.681,3.297-1.552,7.37,0.453,10.537l9.18,15.063l-8.016,8.016l-15.192-9.18
	c-3.168-1.939-7.176-2.069-10.537-0.453c-2.327,1.164-4.655,2.133-6.982,2.844c-3.556,1.164-6.271,4.073-7.111,7.822l-4.202,17.131
	H289.22l-4.202-17.131c-0.84-3.62-3.556-6.594-7.111-7.822c-2.327-0.776-4.655-1.681-6.982-2.844
	c-3.297-1.681-7.37-1.487-10.537,0.453l-15.063,9.18l-8.016-8.016l9.18-15.063c1.939-3.168,2.069-7.176,0.453-10.537
	c-1.164-2.327-2.069-4.655-2.844-6.982c-1.164-3.556-4.073-6.271-7.758-7.111l-17.131-4.202V91.927l17.131-4.202
	c3.62-0.905,6.594-3.556,7.758-7.111c0.776-2.327,1.745-4.655,2.844-6.982c1.681-3.297,1.552-7.37-0.453-10.537l-9.18-15.063
	l8.016-8.016l15.063,9.18c3.168,1.939,7.176,2.069,10.537,0.453c2.327-1.164,4.655-2.133,6.982-2.844
	c3.556-1.164,6.271-4.073,7.111-7.822l4.202-17.131h11.378l4.202,17.131c0.84,3.62,3.556,6.594,7.111,7.822
	c2.327,0.776,4.655,1.745,6.982,2.844c3.297,1.681,7.37,1.552,10.602-0.453l15.063-9.18l8.016,8.016l-9.18,15.063
	c-1.939,3.168-2.069,7.176-0.453,10.537c1.164,2.327,2.133,4.655,2.844,6.982c1.164,3.556,4.073,6.271,7.758,7.111l17.131,4.202
	v11.378h0.065V103.37z"/>
<path style="fill:#56ACE0;" d="M204.468,274.747c0.646-6.4,0.388-12.735-0.517-18.941c-0.517-3.491,0.711-7.046,3.232-9.503
	l17.067-16.291l-5.172-11.507l-23.596,1.875c-3.556,0.259-6.982-1.164-9.244-3.943c-4.008-4.784-8.598-9.115-13.77-12.994
	c-2.844-2.069-4.461-5.495-4.396-9.051l0.517-23.661l-11.83-4.461l-15.386,18.036c-2.327,2.715-5.818,4.073-9.244,3.814
	c-6.4-0.517-12.735-0.388-18.941,0.517c-3.491,0.517-7.046-0.711-9.503-3.232l-16.291-17.067l-11.507,5.172l1.875,23.596
	c0.323,3.556-1.164,6.982-3.879,9.244c-4.719,3.943-9.051,8.598-12.8,13.77c-2.069,2.844-5.495,4.59-9.051,4.396L28.371,224
	l-4.525,11.766l18.036,15.386c2.715,2.327,4.073,5.818,3.814,9.244c-0.646,6.4-0.388,12.735,0.517,18.941
	c0.517,3.491-0.711,7.046-3.232,9.503l-17.067,16.291l5.172,11.507l23.596-1.875c3.556-0.259,6.982,1.164,9.244,3.943
	c4.008,4.784,8.598,9.115,13.77,12.994c2.844,2.069,4.461,5.495,4.396,9.051l-0.517,23.661l11.83,4.461l15.386-18.036
	c2.327-2.715,5.689-4.073,9.244-3.814c6.335,0.517,12.735,0.388,18.877-0.517c3.491-0.517,7.046,0.711,9.503,3.232l16.291,17.067
	l11.507-5.172l-1.875-23.596c-0.323-3.556,1.164-6.982,3.879-9.244c4.784-3.943,9.115-8.598,12.994-13.77
	c2.069-2.844,5.43-4.655,9.051-4.396l23.661,0.517l4.461-11.83l-18.036-15.386C205.503,281.794,204.145,278.303,204.468,274.747z"/>
<path style="fill:#194F82;" d="M246.23,287.806l-19.717-16.873c0.129-4.267,0-8.404-0.323-12.606l18.683-17.842
	c3.297-3.168,4.331-8.145,2.392-12.347l-11.442-25.6c-1.875-4.267-6.271-6.723-10.796-6.4l-25.794,2.069
	c-2.844-3.103-5.947-5.947-9.18-8.663l0.646-25.859c0.065-4.655-2.715-8.792-7.046-10.408l-26.182-9.956
	c-4.331-1.616-9.18-0.388-12.218,3.103l-16.743,19.717c-4.267-0.129-8.404-0.065-12.606,0.323l-17.907-18.747
	c-3.168-3.297-8.145-4.331-12.347-2.392l-25.6,11.442c-4.202,1.875-6.788,6.206-6.4,10.796l2.069,25.794
	c-3.103,2.844-5.947,5.947-8.663,9.18l-25.859-0.646c-4.59-0.323-8.792,2.715-10.408,7.046L0.703,235.119
	c-1.616,4.331-0.388,9.18,3.103,12.218l19.717,16.873c-0.129,4.267-0.065,8.404,0.323,12.606L5.163,294.594
	c-3.297,3.168-4.331,8.145-2.392,12.347l11.442,25.6c1.875,4.267,6.271,6.723,10.796,6.4l25.794-2.069
	c2.844,3.103,5.947,5.947,9.18,8.663l-0.646,25.859c-0.065,4.655,2.715,8.792,7.046,10.408l26.182,9.956
	c4.461,1.616,9.051,0.388,12.218-3.103l16.743-19.717c4.267,0.129,8.404,0,12.606-0.323l17.842,18.683
	c3.168,3.297,8.145,4.331,12.347,2.392l25.6-11.442c4.267-1.875,6.788-6.206,6.4-10.796l-2.004-25.665
	c3.103-2.844,5.947-5.947,8.663-9.18l25.859,0.646c4.59,0.259,8.792-2.715,10.408-7.046l9.956-26.182
	C251.014,295.693,249.785,290.844,246.23,287.806z M221.729,311.208l-23.661-0.517c-3.62-0.259-6.853,1.552-9.051,4.396
	c-3.814,5.172-8.21,9.826-12.994,13.77c-2.715,2.263-4.202,5.689-3.879,9.244l1.875,23.596l-11.507,5.172l-16.291-17.067
	c-2.457-2.521-5.947-3.814-9.503-3.232c-6.206,0.905-12.541,1.099-18.877,0.517c-3.556-0.323-7.046,1.099-9.244,3.814
	l-15.386,18.036l-11.83-4.461l0.517-23.661c0.065-3.556-1.552-6.853-4.396-9.051c-5.172-3.814-9.826-8.21-13.77-12.994
	c-2.263-2.715-5.689-4.202-9.244-3.943l-23.596,1.875l-5.172-11.507l17.067-16.291c2.521-2.457,3.814-6.012,3.232-9.503
	c-0.905-6.206-1.099-12.541-0.517-18.941c0.323-3.556-1.099-7.046-3.814-9.244l-17.907-15.451l4.461-11.83l23.661,0.517
	c3.556,0.129,6.853-1.552,9.051-4.396c3.814-5.172,8.21-9.826,12.994-13.77c2.715-2.263,4.202-5.689,3.879-9.244l-1.875-23.596
	l11.507-5.172l16.291,17.067c2.457,2.521,5.947,3.814,9.503,3.232c6.206-0.905,12.541-1.099,18.941-0.517
	c3.556,0.323,7.046-1.099,9.244-3.814l15.386-18.036l11.83,4.461l-0.517,23.661c-0.065,3.556,1.552,6.853,4.396,9.051
	c5.172,3.814,9.826,8.21,13.77,12.994c2.263,2.715,5.689,4.202,9.244,3.943l23.596-1.875l5.172,11.507l-17.067,16.356
	c-2.521,2.457-3.814,6.012-3.232,9.503c0.905,6.206,1.099,12.541,0.517,18.941c-0.323,3.556,1.099,7.047,3.814,9.244l18.036,15.386
	L221.729,311.208z"/>
<path style="fill:#FFFFFF;" d="M294.909,80.162c-9.632,0-17.455,7.822-17.455,17.455s7.822,17.455,17.455,17.455
	s17.455-7.822,17.455-17.455C312.428,88.049,304.541,80.162,294.909,80.162z"/>
<path style="fill:#194F82;" d="M294.909,58.376c-21.657,0-39.24,17.648-39.24,39.24s17.648,39.24,39.24,39.24
	c21.592,0,39.24-17.648,39.24-39.24S316.565,58.376,294.909,58.376z M294.909,115.135c-9.632,0-17.455-7.822-17.455-17.455
	s7.822-17.455,17.455-17.455s17.455,7.822,17.455,17.455C312.428,107.313,304.541,115.135,294.909,115.135z"/>
<path style="fill:#FFFFFF;" d="M125.018,236.929c-16.937,0-30.578,13.77-30.578,30.578c0,16.937,13.77,30.578,30.578,30.578
	s30.578-13.77,30.578-30.578C155.66,250.634,141.955,236.929,125.018,236.929z"/>
<path style="fill:#194F82;" d="M125.018,215.079c-28.962,0-52.493,23.467-52.493,52.493s23.467,52.493,52.493,52.493
	s52.493-23.531,52.493-52.493C177.511,238.61,153.979,215.079,125.018,215.079z M155.66,267.572
	c0,16.937-13.77,30.578-30.578,30.578s-30.578-13.77-30.578-30.578c0-16.937,13.77-30.578,30.578-30.578
	S155.66,250.634,155.66,267.572z"/>
<g>
</g>
<g>
</g>
<g>
</g>
<g>
</g>
<g>
</g>
<g>
</g>
<g>
</g>
<g>
</g>
<g>
</g>
<g>
</g>
<g>
</g>
<g>
</g>
<g>
</g>
<g>
</g>
<g>
</g>
</svg>
