<svg width="39" height="38" viewBox="0 0 39 38" fill="none" xmlns="http://www.w3.org/2000/svg">
<path d="M0.681152 18.9569C0.681152 8.56093 9.10878 0.133301 19.5048 0.133301C29.9008 0.133301 38.3284 8.56093 38.3284 18.9569C38.3284 29.3529 29.9008 37.7806 19.5048 37.7806C9.10878 37.7806 0.681152 29.3529 0.681152 18.9569Z" fill="#55ACEE"/>
<path d="M18.9408 15.4332L18.9803 16.0845L18.322 16.0047C15.9256 15.699 13.8321 14.6622 12.0546 12.9208L11.1856 12.0568L10.9618 12.6949C10.4878 14.1172 10.7906 15.6192 11.7781 16.6295C12.3048 17.1878 12.1863 17.2675 11.2778 16.9352C10.9618 16.8289 10.6853 16.7491 10.6589 16.789C10.5668 16.8821 10.8828 18.0917 11.1329 18.5702C11.4753 19.2349 12.1731 19.8862 12.9368 20.2717L13.582 20.5774L12.8183 20.5907C12.081 20.5907 12.0546 20.604 12.1336 20.8831C12.397 21.7472 13.4371 22.6644 14.5958 23.0631L15.4121 23.3423L14.7011 23.7676C13.6478 24.3791 12.4101 24.7247 11.1724 24.7513C10.5799 24.7646 10.0928 24.8178 10.0928 24.8576C10.0928 24.9906 11.6991 25.735 12.634 26.0274C15.4385 26.8914 18.7697 26.5192 21.2713 25.0437C23.0488 23.9936 24.8264 21.9067 25.6559 19.8862C26.1035 18.8095 26.5512 16.8422 26.5512 15.8984C26.5512 15.2869 26.5907 15.2072 27.328 14.4761C27.7625 14.0507 28.1707 13.5855 28.2497 13.4525C28.3814 13.2 28.3682 13.2 27.6967 13.426C26.5775 13.8247 26.4195 13.7716 26.9725 13.1734C27.3807 12.748 27.8679 11.9771 27.8679 11.7511C27.8679 11.7112 27.6704 11.7777 27.4465 11.8973C27.2095 12.0302 26.6829 12.2296 26.2879 12.3493L25.5769 12.5752L24.9317 12.1366C24.5762 11.8973 24.0759 11.6315 23.8125 11.5517C23.141 11.3656 22.114 11.3922 21.5083 11.6049C19.8625 12.203 18.8223 13.745 18.9408 15.4332Z" fill="white"/>
</svg>
